<svg width="24" height="24" viewBox="0 0 24 24" fill="none" xmlns="http://www.w3.org/2000/svg">
<g clip-path="url(#clip0_350_11479)">
<mask id="mask0_350_11479" style="mask-type:luminance" maskUnits="userSpaceOnUse" x="0" y="0" width="24" height="24">
<path d="M24 0H0V24H24V0Z" fill="white"/>
</mask>
<g mask="url(#mask0_350_11479)">
<path d="M22.2796 6.90945L20.8896 7.22945C19.8996 7.45945 19.1196 8.22945 18.8896 9.22945L18.5696 10.6194C18.5396 10.7594 18.3196 10.7594 18.2896 10.6194L17.9696 9.22945C17.7396 8.23945 16.9696 7.45945 15.9696 7.22945L14.5796 6.90945C14.4396 6.87945 14.4396 6.65945 14.5796 6.62945L15.9696 6.30945C16.9596 6.07945 17.7396 5.30945 17.9696 4.30945L18.2896 2.91945C18.3196 2.77945 18.5396 2.77945 18.5696 2.91945L18.8896 4.30945C19.1196 5.29945 19.8896 6.07945 20.8896 6.30945L22.2796 6.62945C22.4196 6.65945 22.4196 6.87945 22.2796 6.90945Z" stroke="#7328CE" stroke-width="1.5" stroke-miterlimit="10"/>
<path d="M14.4598 3.01969C13.0198 1.89969 10.9898 1.89969 9.54977 3.01969L3.54977 7.68969C2.57977 8.44969 2.00977 9.60969 2.00977 10.8497V17.9997C2.00977 20.2097 3.79977 21.9997 6.00977 21.9997H18.0098C20.2198 21.9997 22.0098 20.2097 22.0098 17.9997V10.8497" stroke="#7328CE" stroke-width="1.5" stroke-linecap="round"/>
<path d="M12 15V18" stroke="#7328CE" stroke-width="1.5" stroke-linecap="round"/>
</g>
</g>
<defs>
<clipPath id="clip0_350_11479">
<rect width="24" height="24" fill="white"/>
</clipPath>
</defs>
</svg>
