<svg width="24" height="24" viewBox="0 0 24 24" fill="none" xmlns="http://www.w3.org/2000/svg">
<g clip-path="url(#clip0_350_11478)">
<mask id="mask0_350_11478" style="mask-type:luminance" maskUnits="userSpaceOnUse" x="0" y="0" width="24" height="24">
<path d="M24 0H0V24H24V0Z" fill="white"/>
</mask>
<g mask="url(#mask0_350_11478)">
<path d="M21.1702 18.4505L19.7802 18.7705C18.7902 19.0005 18.0102 19.7705 17.7802 20.7705L17.4602 22.1605C17.4302 22.3005 17.2102 22.3005 17.1802 22.1605L16.8602 20.7705C16.6302 19.7805 15.8602 19.0005 14.8602 18.7705L13.4702 18.4505C13.3302 18.4205 13.3302 18.2005 13.4702 18.1705L14.8602 17.8505C15.8502 17.6205 16.6302 16.8505 16.8602 15.8505L17.1802 14.4605C17.2102 14.3205 17.4302 14.3205 17.4602 14.4605L17.7802 15.8505C18.0102 16.8405 18.7802 17.6205 19.7802 17.8505L21.1702 18.1705C21.3102 18.2005 21.3102 18.4205 21.1702 18.4505Z" stroke="#7328CE" stroke-width="1.5" stroke-miterlimit="10"/>
<path d="M20.6797 13.2507V7.26074" stroke="#7328CE" stroke-width="1.5" stroke-linecap="round" stroke-linejoin="round"/>
<path d="M3.43945 7.26074V18.0007C3.43945 20.2107 5.22945 22.0007 7.43945 22.0007H11.9994" stroke="#7328CE" stroke-width="1.5" stroke-linecap="round" stroke-linejoin="round"/>
<path d="M1 8.87032L10.52 2.51032C11.55 1.82032 12.89 1.84032 13.9 2.54032L23 8.87032" stroke="#7328CE" stroke-width="1.5" stroke-linecap="round" stroke-linejoin="round"/>
</g>
</g>
<defs>
<clipPath id="clip0_350_11478">
<rect width="24" height="24" fill="white"/>
</clipPath>
</defs>
</svg>
