<svg width="24" height="24" viewBox="0 0 24 24" fill="none" xmlns="http://www.w3.org/2000/svg">
<path fill-rule="evenodd" clip-rule="evenodd" d="M8.88086 22.75C4.85086 22.75 2.44086 21.96 2.00086 17.91C1.92086 17.33 1.88086 16.64 1.88086 15.75V8.25C1.88086 7.39 1.92086 6.68 2.00086 6.08C2.46086 2.02 4.77086 1.25 8.89086 1.25H15.1409C19.2609 1.25 21.5809 2.02 22.0209 6.1C22.1209 6.77 22.1409 7.53 22.1409 8.25V15.75C22.1409 16.62 22.1009 17.31 22.0209 17.93C21.5609 21.98 19.2409 22.75 15.1209 22.75H8.88086ZM3.48086 6.26C3.40086 6.81 3.37086 7.46 3.37086 8.25V15.75C3.37086 16.57 3.41086 17.19 3.48086 17.72C3.77086 20.33 4.62086 21.25 8.88086 21.25H15.1209C19.3709 21.25 20.2309 20.33 20.5209 17.75C20.5909 17.2 20.6309 16.55 20.6309 15.75V8.25C20.6309 7.59 20.6209 6.89 20.5309 6.29C20.2409 3.67 19.3909 2.75 15.1309 2.75H8.88086C4.63086 2.75 3.77086 3.67 3.48086 6.26Z" fill="#7328CE"/>
<path d="M17.1309 9.66992C16.7209 9.66992 16.3809 9.32992 16.3809 8.91992C16.3809 8.50992 16.7209 8.16992 17.1309 8.16992H21.2309C21.6409 8.16992 21.9809 8.50992 21.9809 8.91992C21.9809 9.32992 21.6409 9.66992 21.2309 9.66992H17.1309Z" fill="#7328CE"/>
<path d="M2.76953 9.66992C2.35953 9.66992 2.01953 9.32992 2.01953 8.91992C2.01953 8.50992 2.35953 8.16992 2.76953 8.16992H6.86953C7.27953 8.16992 7.61953 8.50992 7.61953 8.91992C7.61953 9.32992 7.27953 9.66992 6.86953 9.66992H2.76953Z" fill="#7328CE"/>
<path fill-rule="evenodd" clip-rule="evenodd" d="M8.91914 11.7201C8.16914 11.7201 7.44914 11.4201 6.92914 10.8801C6.40914 10.3801 6.11914 9.67012 6.11914 8.92012C6.11914 7.38012 7.37914 6.12012 8.91914 6.12012H15.0691C15.8191 6.12012 16.5391 6.43012 17.0591 6.96012C17.5791 7.47012 17.8791 8.17012 17.8791 8.92012C17.8791 10.4601 16.6191 11.7201 15.0791 11.7201H8.91914ZM7.61914 8.92012C7.61914 9.27012 7.74914 9.59012 7.98914 9.82012C8.23914 10.0801 8.56914 10.2201 8.91914 10.2201H15.0791C15.7991 10.2201 16.3791 9.64012 16.3791 8.92012C16.3791 8.58012 16.2391 8.26012 15.9991 8.02012C15.7491 7.76012 15.4191 7.62012 15.0691 7.62012H8.91914C8.19914 7.62012 7.61914 8.20012 7.61914 8.92012Z" fill="#7328CE"/>
</svg>
