<svg width="24" height="24" viewBox="0 0 24 24" fill="none" xmlns="http://www.w3.org/2000/svg">
<path d="M15.9898 19.7506C13.9798 19.7506 13.0098 18.8206 13.0098 16.9006V5.10059C13.0098 4.69059 13.3498 4.35059 13.7598 4.35059C14.1698 4.35059 14.5098 4.69059 14.5098 5.10059V16.9006C14.5098 17.9106 14.7198 18.2506 15.9898 18.2506H17.0298C18.2998 18.2506 18.5098 17.9106 18.5098 16.9006V5.10059C18.5098 4.69059 18.8498 4.35059 19.2598 4.35059C19.6698 4.35059 20.0098 4.69059 20.0098 5.10059V16.9006C20.0098 18.8206 19.0398 19.7506 17.0298 19.7506H15.9898Z" fill="#7328CE"/>
<path d="M7.48977 14.7506C5.47977 14.7506 4.50977 13.8206 4.50977 11.9006V5.10059C4.50977 4.69059 4.84977 4.35059 5.25977 4.35059C5.66977 4.35059 6.00977 4.69059 6.00977 5.10059V11.9006C6.00977 12.9106 6.21977 13.2506 7.48977 13.2506H8.52977C9.79977 13.2506 10.0098 12.9106 10.0098 11.9006V5.10059C10.0098 4.69059 10.3498 4.35059 10.7598 4.35059C11.1698 4.35059 11.5098 4.69059 11.5098 5.10059V11.9006C11.5098 13.8206 10.5398 14.7506 8.52977 14.7506H7.48977Z" fill="#7328CE"/>
<path d="M2 5.75C1.58 5.75 1.25 5.41 1.25 5C1.25 4.59 1.58 4.25 2 4.25H22C22.41 4.25 22.75 4.59 22.75 5C22.75 5.41 22.42 5.75 22 5.75H2Z" fill="#7328CE"/>
</svg>
