<svg width="24" height="24" viewBox="0 0 24 24" fill="none" xmlns="http://www.w3.org/2000/svg">
<path fill-rule="evenodd" clip-rule="evenodd" d="M6.98 20.25C4.97 20.25 4 19.32 4 17.4V6.6C4 4.68 4.98 3.75 6.98 3.75H8.02C10.02 3.75 11 4.68 11 6.6V17.4C11 19.32 10.02 20.25 8.02 20.25H6.98ZM5.5 6.6V17.4C5.5 18.41 5.71 18.75 6.98 18.75H8.02C9.29 18.75 9.5 18.41 9.5 17.4V6.6C9.5 5.59 9.29 5.25 8.02 5.25H6.98C5.71 5.25 5.5 5.59 5.5 6.6Z" fill="#7328CE"/>
<path fill-rule="evenodd" clip-rule="evenodd" d="M15.48 18.25C13.47 18.25 12.5 17.32 12.5 15.4V8.6C12.5 6.68 13.48 5.75 15.48 5.75H16.52C18.53 5.75 19.5 6.68 19.5 8.6V15.4C19.5 17.32 18.52 18.25 16.52 18.25H15.48ZM14 8.6V15.4C14 16.41 14.21 16.75 15.48 16.75H16.52C17.79 16.75 18 16.41 18 15.4V8.6C18 7.59 17.79 7.25 16.52 7.25H15.48C14.21 7.25 14 7.59 14 8.6Z" fill="#7328CE"/>
<path d="M2 12.75C1.59 12.75 1.25 12.41 1.25 12C1.25 11.59 1.58 11.25 2 11.25H4.4C4.81 11.25 5.15 11.59 5.15 12C5.15 12.41 4.82 12.75 4.4 12.75H2Z" fill="#7328CE"/>
<path d="M11 12.75C10.59 12.75 10.25 12.41 10.25 12C10.25 11.59 10.59 11.25 11 11.25H13C13.41 11.25 13.75 11.59 13.75 12C13.75 12.41 13.41 12.75 13 12.75H11Z" fill="#7328CE"/>
<path d="M19.3008 12.75C18.8908 12.75 18.5508 12.41 18.5508 12C18.5508 11.59 18.8908 11.25 19.3008 11.25H22.0008C22.4108 11.25 22.7508 11.59 22.7508 12C22.7508 12.41 22.4208 12.75 22.0008 12.75H19.3008Z" fill="#7328CE"/>
</svg>
