<svg width="24" height="24" viewBox="0 0 24 24" fill="none" xmlns="http://www.w3.org/2000/svg">
<mask id="mask0_251_28955" style="mask-type:luminance" maskUnits="userSpaceOnUse" x="0" y="0" width="24" height="24">
<rect width="24" height="24" fill="white"/>
</mask>
<g mask="url(#mask0_251_28955)">
<path fill-rule="evenodd" clip-rule="evenodd" d="M8.25 21V18C8.25 17.59 8.59 17.25 9 17.25H11C11.41 17.25 11.75 17.59 11.75 18V21C11.75 21.96 10.96 22.75 10 22.75C9.04 22.75 8.25 21.96 8.25 21ZM9.75 21C9.75 21.27 10.25 21.27 10.25 21V18.75H9.75V21Z" fill="#7328CE"/>
<path fill-rule="evenodd" clip-rule="evenodd" d="M12.25 21V18C12.25 17.59 12.59 17.25 13 17.25H15C15.41 17.25 15.75 17.59 15.75 18V21C15.75 21.96 14.96 22.75 14 22.75C13.04 22.75 12.25 21.96 12.25 21ZM13.75 21C13.75 21.27 14.25 21.27 14.25 21V18.75H13.75V21Z" fill="#7328CE"/>
<path fill-rule="evenodd" clip-rule="evenodd" d="M9 18.75C7.48 18.75 6.25 17.52 6.25 16V11C6.25 9.48 7.48 8.25 9 8.25H15C16.52 8.25 17.75 9.48 17.75 11V16C17.75 17.52 16.52 18.75 15 18.75H9ZM7.75 11V16C7.75 16.69 8.31 17.25 9 17.25H15C15.69 17.25 16.25 16.69 16.25 16V11C16.25 10.31 15.69 9.75 15 9.75H9C8.31 9.75 7.75 10.31 7.75 11Z" fill="#7328CE"/>
<path fill-rule="evenodd" clip-rule="evenodd" d="M2.25 15V11C2.25 10.04 3.04 9.25 4 9.25C4.96 9.25 5.75 10.04 5.75 11V15C5.75 15.96 4.96 16.75 4 16.75C3.04 16.75 2.25 15.96 2.25 15ZM3.75 11V15C3.75 15.28 4.25 15.28 4.25 15V11C4.25 10.86 4.14 10.75 4 10.75C3.86 10.75 3.75 10.86 3.75 11Z" fill="#7328CE"/>
<path fill-rule="evenodd" clip-rule="evenodd" d="M18.25 15V11C18.25 10.04 19.04 9.25 20 9.25C20.96 9.25 21.75 10.04 21.75 11V15C21.75 15.96 20.96 16.75 20 16.75C19.04 16.75 18.25 15.96 18.25 15ZM19.75 11V15C19.75 15.28 20.25 15.28 20.25 15V11C20.25 10.86 20.14 10.75 20 10.75C19.86 10.75 19.75 10.86 19.75 11Z" fill="#7328CE"/>
<path d="M11 18.75C10.59 18.75 10.25 18.41 10.25 18C10.25 17.59 10.59 17.25 11 17.25H13C13.41 17.25 13.75 17.59 13.75 18C13.75 18.41 13.41 18.75 13 18.75H11Z" fill="#7328CE"/>
<path fill-rule="evenodd" clip-rule="evenodd" d="M9.59998 7.7504C8.29998 7.7504 7.25 6.70039 7.25 5.40039C7.25 2.78039 9.38 0.650391 12 0.650391C14.62 0.650391 16.75 2.78039 16.75 5.40039C16.75 6.70039 15.7 7.7504 14.4 7.7504H9.59998ZM8.75 5.40039C8.75 5.87039 9.12998 6.2504 9.59998 6.2504H14.4C14.87 6.2504 15.25 5.87039 15.25 5.40039C15.25 3.61039 13.79 2.15039 12 2.15039C10.21 2.15039 8.75 3.61039 8.75 5.40039Z" fill="#7328CE"/>
</g>
</svg>
