<svg width="24" height="24" viewBox="0 0 24 24" fill="none" xmlns="http://www.w3.org/2000/svg">
<mask id="mask0_251_28453" style="mask-type:luminance" maskUnits="userSpaceOnUse" x="0" y="0" width="24" height="24">
<rect width="24" height="24" fill="white"/>
</mask>
<g mask="url(#mask0_251_28453)">
<path d="M20.1394 9.78032V6.91032L11.9994 2.84031L3.85938 6.91032V9.78032C3.85938 10.1903 3.51937 10.5303 3.10938 10.5303C2.69938 10.5303 2.35938 10.1903 2.35938 9.78032V6.45031C2.35938 6.17031 2.51942 5.91032 2.77942 5.78031L11.6694 1.34031C11.8794 1.23031 12.1294 1.23031 12.3394 1.34031L21.2294 5.78031C21.4794 5.91032 21.6494 6.17031 21.6494 6.45031V9.78032C21.6394 10.1903 21.2994 10.5303 20.8894 10.5303C20.4794 10.5303 20.1394 10.1903 20.1394 9.78032Z" fill="#7328CE"/>
<path d="M11.6694 22.6705L2.77942 18.2305C2.52942 18.1005 2.35938 17.8405 2.35938 17.5605V14.2305C2.35938 13.8205 2.69938 13.4805 3.10938 13.4805C3.51937 13.4805 3.85938 13.8205 3.85938 14.2305V17.1005L11.9994 21.1705L20.1394 17.1005V14.2305C20.1394 13.8205 20.4794 13.4805 20.8894 13.4805C21.2994 13.4805 21.6394 13.8205 21.6394 14.2305V17.5605C21.6394 17.8405 21.4794 18.1005 21.2194 18.2305L12.3294 22.6705C12.2294 22.7205 12.1194 22.7505 11.9994 22.7505C11.8794 22.7505 11.7694 22.7205 11.6694 22.6705Z" fill="#7328CE"/>
<path d="M11.25 21.9995V16.4395C11.25 16.0295 11.59 15.6895 12 15.6895C12.41 15.6895 12.75 16.0295 12.75 16.4395V21.9995C12.75 22.4095 12.41 22.7495 12 22.7495C11.59 22.7495 11.25 22.4095 11.25 21.9995Z" fill="#7328CE"/>
<path fill-rule="evenodd" clip-rule="evenodd" d="M6.80859 12.0005C6.80859 9.14055 9.1386 6.81055 11.9986 6.81055C14.8586 6.81055 17.1886 9.14055 17.1886 12.0005C17.1886 14.8605 14.8586 17.1906 11.9986 17.1906C9.1386 17.1906 6.80859 14.8605 6.80859 12.0005ZM8.30859 12.0005C8.30859 14.0305 9.9686 15.6906 11.9986 15.6906C14.0286 15.6906 15.6886 14.0305 15.6886 12.0005C15.6886 9.97055 14.0386 8.31055 11.9986 8.31055C9.9586 8.31055 8.30859 9.97055 8.30859 12.0005Z" fill="#7328CE"/>
</g>
</svg>
