<svg width="24" height="24" viewBox="0 0 24 24" fill="none" xmlns="http://www.w3.org/2000/svg">
<path d="M1.47141 22.5295C1.18141 22.2395 1.18141 21.7595 1.47141 21.4695L21.4714 1.46945C21.7614 1.17945 22.2414 1.17945 22.5314 1.46945C22.8214 1.75945 22.8214 2.23945 22.5314 2.52945L2.53141 22.5295C2.38141 22.6795 2.19141 22.7495 2.00141 22.7495C1.81141 22.7495 1.62141 22.6795 1.47141 22.5295Z" fill="#7328CE"/>
<path d="M17.1197 22.25L10.5997 18.18C10.2497 17.96 10.1397 17.5 10.3597 17.15C10.5797 16.8 11.0397 16.69 11.3897 16.91L17.8797 20.96C18.4397 21.27 18.9997 21.34 19.3597 21.13C19.7197 20.92 19.9297 20.4 19.9297 19.71V8.70996C19.9297 8.29996 20.2697 7.95996 20.6797 7.95996C21.0897 7.95996 21.4297 8.29996 21.4297 8.70996V19.71C21.4297 20.94 20.9497 21.93 20.1197 22.42C19.7497 22.64 19.3297 22.75 18.8797 22.75C18.3197 22.75 17.7197 22.58 17.1197 22.25Z" fill="#7328CE"/>
<path d="M2.57031 19.95V5.86C2.57031 3.32 4.64031 1.25 7.18031 1.25H16.8303C18.2203 1.25 19.5303 1.87 20.4103 2.96C20.6703 3.28 20.6203 3.75 20.3003 4.02C19.9803 4.28 19.5103 4.23 19.2503 3.91C18.6503 3.17 17.7703 2.75 16.8303 2.75H7.18031C5.47031 2.75 4.07031 4.15 4.07031 5.86V19.95C4.07031 20.36 3.73031 20.7 3.32031 20.7C2.91031 20.7 2.57031 20.36 2.57031 19.95Z" fill="#7328CE"/>
</svg>
