<svg width="24" height="24" viewBox="0 0 24 24" fill="none" xmlns="http://www.w3.org/2000/svg">
<path d="M9.5 11.4004C9.09 11.4004 8.75 11.0604 8.75 10.6504C8.75 10.2404 9.09 9.90039 9.5 9.90039H14.5C14.91 9.90039 15.25 10.2404 15.25 10.6504C15.25 11.0604 14.91 11.4004 14.5 11.4004H9.5Z" fill="#7328CE"/>
<path fill-rule="evenodd" clip-rule="evenodd" d="M3.77055 22.45C3.00055 22 2.56055 21.09 2.56055 19.96V5.86C2.56055 3.32 4.63055 1.25 7.17055 1.25H16.8205C19.3605 1.25 21.4305 3.32 21.4305 5.86V19.95C21.4305 21.08 20.9905 21.99 20.2205 22.44C19.4505 22.89 18.4405 22.84 17.4505 22.29L12.5705 19.58C12.2805 19.42 11.7105 19.42 11.4205 19.58L6.54055 22.29C6.00055 22.59 5.45055 22.75 4.93055 22.75C4.51055 22.75 4.12055 22.65 3.77055 22.45ZM4.07055 5.86V19.95C4.07055 20.54 4.24055 20.98 4.54055 21.15C4.84055 21.33 5.31055 21.27 5.82055 20.98L10.7005 18.27C11.4405 17.86 12.5605 17.86 13.3005 18.27L18.1805 20.98C18.6905 21.27 19.1605 21.33 19.4605 21.15C19.7605 20.97 19.9305 20.53 19.9305 19.95V5.86C19.9305 4.15 18.5305 2.75 16.8205 2.75H7.18055C5.47055 2.75 4.07055 4.15 4.07055 5.86Z" fill="#7328CE"/>
</svg>
