<svg width="24" height="24" viewBox="0 0 24 24" fill="none" xmlns="http://www.w3.org/2000/svg">
<path d="M11.3906 15.0698V13.1098C11.3906 10.1798 13.7706 7.7998 16.7106 7.7998H18.6706C19.0806 7.7998 19.4206 8.1398 19.4206 8.5498C19.4206 8.9598 19.0806 9.2998 18.6706 9.2998H16.7106C14.6106 9.2998 12.8906 11.0098 12.8906 13.1098V15.0698C12.8906 15.4898 12.5506 15.8198 12.1406 15.8198C11.7306 15.8198 11.3906 15.4798 11.3906 15.0698Z" fill="#7328CE"/>
<path d="M11.3911 17.2505V13.1205C11.3911 11.0205 9.68112 9.31055 7.58112 9.31055H5.62109C5.21109 9.31055 4.87109 8.97055 4.87109 8.56055C4.87109 8.15055 5.21109 7.81055 5.62109 7.81055H7.58112C10.5111 7.81055 12.8911 10.1905 12.8911 13.1205V17.2505C12.8911 17.6605 12.5511 18.0005 12.1411 18.0005C11.7311 18.0005 11.3911 17.6605 11.3911 17.2505Z" fill="#7328CE"/>
<path d="M6.60928 10.8795L4.8093 9.07945C4.5193 8.78945 4.5193 8.30946 4.8093 8.01946L6.60928 6.21945C6.89928 5.92945 7.37928 5.92945 7.66928 6.21945C7.95928 6.50945 7.95928 6.98945 7.66928 7.27945L6.39932 8.54945L7.66928 9.81946C7.95928 10.1095 7.95928 10.5895 7.66928 10.8795C7.51928 11.0295 7.32931 11.0995 7.13931 11.0995C6.94931 11.0995 6.75928 11.0295 6.60928 10.8795Z" fill="#7328CE"/>
<path d="M16.3308 10.8795C16.0408 10.5895 16.0408 10.1095 16.3308 9.81946L17.6007 8.54945L16.3308 7.27945C16.0408 6.98945 16.0408 6.50945 16.3308 6.21945C16.6208 5.92945 17.1008 5.92945 17.3908 6.21945L19.1908 8.01946C19.4808 8.30946 19.4808 8.78945 19.1908 9.07945L17.3908 10.8795C17.2508 11.0295 17.0507 11.0995 16.8607 11.0995C16.6707 11.0995 16.4808 11.0295 16.3308 10.8795Z" fill="#7328CE"/>
<path fill-rule="evenodd" clip-rule="evenodd" d="M9 22.75C3.57 22.75 1.25 20.43 1.25 15V9C1.25 3.57 3.57 1.25 9 1.25H15C20.43 1.25 22.75 3.57 22.75 9V15C22.75 20.43 20.43 22.75 15 22.75H9ZM2.75 9V15C2.75 19.61 4.39 21.25 9 21.25H15C19.61 21.25 21.25 19.61 21.25 15V9C21.25 4.39 19.61 2.75 15 2.75H9C4.39 2.75 2.75 4.39 2.75 9Z" fill="#7328CE"/>
</svg>
