<svg width="24" height="24" viewBox="0 0 24 24" fill="none" xmlns="http://www.w3.org/2000/svg">
<path fill-rule="evenodd" clip-rule="evenodd" d="M1.25 12C1.25 6.07 6.07 1.25 12 1.25C17.93 1.25 22.75 6.07 22.75 12C22.75 17.93 17.93 22.75 12 22.75C6.07 22.75 1.25 17.93 1.25 12ZM2.75 12C2.75 17.1 6.9 21.25 12 21.25C17.1 21.25 21.25 17.1 21.25 12C21.25 6.9 17.1 2.75 12 2.75C6.9 2.75 2.75 6.9 2.75 12Z" fill="#7328CE"/>
<path d="M11.25 15.5V9.5C11.25 9.09 11.59 8.75 12 8.75C12.41 8.75 12.75 9.09 12.75 9.5V15.5C12.75 15.91 12.41 16.25 12 16.25C11.59 16.25 11.25 15.91 11.25 15.5Z" fill="#7328CE"/>
<path d="M14.4695 12.0295L11.9995 9.55945L9.52945 12.0295C9.23945 12.3195 8.75945 12.3195 8.46945 12.0295C8.17945 11.7395 8.17945 11.2595 8.46945 10.9695L11.4695 7.96945C11.7595 7.67945 12.2395 7.67945 12.5295 7.96945L15.5295 10.9695C15.8195 11.2595 15.8195 11.7395 15.5295 12.0295C15.3795 12.1795 15.1895 12.2495 14.9995 12.2495C14.8095 12.2495 14.6195 12.1795 14.4695 12.0295Z" fill="#7328CE"/>
</svg>
