<svg width="24" height="24" viewBox="0 0 24 24" fill="none" xmlns="http://www.w3.org/2000/svg">
<path d="M8.47945 21.0297L3.46945 16.0197C3.17945 15.7297 3.17945 15.2497 3.46945 14.9597C3.75945 14.6697 4.23945 14.6697 4.52945 14.9597L9.53945 19.9697C9.82945 20.2597 9.82945 20.7397 9.53945 21.0297C9.38945 21.1697 9.19945 21.2497 9.00945 21.2497C8.81945 21.2497 8.62945 21.1797 8.47945 21.0297Z" fill="#7328CE"/>
<path d="M8.25977 20.5V3.5C8.25977 3.09 8.59977 2.75 9.00977 2.75C9.41977 2.75 9.75977 3.09 9.75977 3.5V20.5C9.75977 20.91 9.41977 21.25 9.00977 21.25C8.59977 21.25 8.25977 20.91 8.25977 20.5Z" fill="#7328CE"/>
<path d="M19.4795 9.03945L14.4695 4.02945C14.1795 3.73945 14.1795 3.25945 14.4695 2.96945C14.7595 2.67945 15.2395 2.67945 15.5295 2.96945L20.5395 7.97945C20.8295 8.26945 20.8295 8.74945 20.5395 9.03945C20.3895 9.18945 20.1995 9.25945 20.0095 9.25945C19.8195 9.25945 19.6295 9.18945 19.4795 9.03945Z" fill="#7328CE"/>
<path d="M14.2402 20.5V3.5C14.2402 3.09 14.5802 2.75 14.9902 2.75C15.4002 2.75 15.7402 3.09 15.7402 3.5V20.5C15.7402 20.91 15.4102 21.25 14.9902 21.25C14.5802 21.25 14.2402 20.91 14.2402 20.5Z" fill="#7328CE"/>
</svg>
