<svg width="24" height="24" viewBox="0 0 24 24" fill="none" xmlns="http://www.w3.org/2000/svg">
<path fill-rule="evenodd" clip-rule="evenodd" d="M9 22.75C3.57 22.75 1.25 20.43 1.25 15V9C1.25 3.57 3.57 1.25 9 1.25H15C20.43 1.25 22.75 3.57 22.75 9V15C22.75 20.43 20.43 22.75 15 22.75H9ZM2.75 9V15C2.75 19.61 4.39 21.25 9 21.25H15C19.61 21.25 21.25 19.61 21.25 15V9C21.25 4.39 19.61 2.75 15 2.75H9C4.39 2.75 2.75 4.39 2.75 9Z" fill="#7328CE"/>
<path d="M11.4702 14.6893L7.94016 11.1593C7.65016 10.8693 7.65016 10.3893 7.94016 10.0993C8.23016 9.80934 8.71016 9.80934 9.00016 10.0993L12.0002 13.0993L15.0002 10.0993C15.2902 9.80934 15.7702 9.80934 16.0602 10.0993C16.3502 10.3893 16.3502 10.8693 16.0602 11.1593L12.5302 14.6893C12.3802 14.8393 12.1902 14.9093 12.0002 14.9093C11.8102 14.9093 11.6202 14.8393 11.4702 14.6893Z" fill="#7328CE"/>
</svg>
