<svg width="24" height="24" viewBox="0 0 24 24" fill="none" xmlns="http://www.w3.org/2000/svg">
<path d="M14.9597 20.5395C14.6697 20.2495 14.6697 19.7695 14.9597 19.4795L19.9697 14.4695C20.2597 14.1795 20.7397 14.1795 21.0297 14.4695C21.3197 14.7595 21.3197 15.2395 21.0297 15.5295L16.0197 20.5395C15.8697 20.6795 15.6797 20.7595 15.4897 20.7595C15.2997 20.7595 15.1097 20.6895 14.9597 20.5395Z" fill="#7328CE"/>
<path d="M3.5 15.7402C3.09 15.7402 2.75 15.4002 2.75 14.9902C2.75 14.5802 3.09 14.2402 3.5 14.2402H20.5C20.91 14.2402 21.25 14.5802 21.25 14.9902C21.25 15.4002 20.91 15.7402 20.5 15.7402H3.5Z" fill="#7328CE"/>
<path d="M2.96945 9.53945C2.67945 9.24945 2.67945 8.76945 2.96945 8.47945L7.97945 3.46945C8.26945 3.17945 8.74945 3.17945 9.03945 3.46945C9.32945 3.75945 9.32945 4.23945 9.03945 4.52945L4.02945 9.53945C3.88945 9.67945 3.68945 9.75945 3.49945 9.75945C3.30945 9.75945 3.11945 9.68945 2.96945 9.53945Z" fill="#7328CE"/>
<path d="M3.5 9.75977C3.09 9.75977 2.75 9.41977 2.75 9.00977C2.75 8.59977 3.09 8.25977 3.5 8.25977H20.5C20.91 8.25977 21.25 8.59977 21.25 9.00977C21.25 9.41977 20.91 9.75977 20.5 9.75977H3.5Z" fill="#7328CE"/>
</svg>
