<svg width="24" height="24" viewBox="0 0 24 24" fill="none" xmlns="http://www.w3.org/2000/svg">
<mask id="mask0_251_28763" style="mask-type:luminance" maskUnits="userSpaceOnUse" x="0" y="0" width="24" height="24">
<rect width="24" height="24" fill="white"/>
</mask>
<g mask="url(#mask0_251_28763)">
<path fill-rule="evenodd" clip-rule="evenodd" d="M1.25 12C1.25 6.07 6.07 1.25 12 1.25C17.93 1.25 22.75 6.07 22.75 12C22.75 17.93 17.93 22.75 12 22.75C6.07 22.75 1.25 17.93 1.25 12ZM2.75 12C2.75 17.1 6.9 21.25 12 21.25C17.1 21.25 21.25 17.1 21.25 12C21.25 6.9 17.1 2.75 12 2.75C6.9 2.75 2.75 6.9 2.75 12Z" fill="#7328CE"/>
<path fill-rule="evenodd" clip-rule="evenodd" d="M9.42987 10.8905C9.15987 10.8905 8.9099 10.7405 8.7799 10.5105C8.6499 10.2705 8.64985 9.99054 8.78985 9.75054L11.3599 5.46055C11.6299 5.01055 12.3799 5.01055 12.6499 5.46055L15.2198 9.75054C15.3598 9.98054 15.3599 10.2705 15.2299 10.5105C15.0899 10.7505 14.8399 10.8905 14.5699 10.8905H9.42987ZM13.2399 9.39054L11.9899 7.31054L10.7499 9.39054H13.2399Z" fill="#7328CE"/>
<path fill-rule="evenodd" clip-rule="evenodd" d="M6.00021 16.8903C5.73021 16.8903 5.48019 16.7403 5.35019 16.5103C5.22019 16.2803 5.2202 15.9903 5.3602 15.7603L7.9302 11.4703C8.2002 11.0203 8.95018 11.0203 9.22018 11.4703L11.7902 15.7603C11.9302 15.9903 11.9302 16.2803 11.8002 16.5103C11.6602 16.7503 11.4102 16.8903 11.1402 16.8903H6.00021ZM9.81021 15.3903L8.56021 13.3103L7.32022 15.3903H9.81021Z" fill="#7328CE"/>
<path fill-rule="evenodd" clip-rule="evenodd" d="M12.8596 16.8903C12.5896 16.8903 12.3396 16.7403 12.2096 16.5103C12.0796 16.2803 12.0795 15.9903 12.2195 15.7603L14.7895 11.4703C15.0595 11.0203 15.8096 11.0203 16.0796 11.4703L18.6496 15.7603C18.7896 15.9903 18.7895 16.2803 18.6595 16.5103C18.5195 16.7503 18.2696 16.8903 17.9996 16.8903H12.8596ZM16.6696 15.3903L15.4196 13.3103L14.1796 15.3903H16.6696Z" fill="#7328CE"/>
</g>
</svg>
