<svg width="24" height="24" viewBox="0 0 24 24" fill="none" xmlns="http://www.w3.org/2000/svg">
<mask id="mask0_251_28382" style="mask-type:luminance" maskUnits="userSpaceOnUse" x="0" y="0" width="24" height="24">
<rect width="24" height="24" fill="white"/>
</mask>
<g mask="url(#mask0_251_28382)">
<path fill-rule="evenodd" clip-rule="evenodd" d="M6.44949 17.0094C6.01949 17.0094 5.61945 16.7794 5.40945 16.4094C5.19945 16.0394 5.19945 15.5794 5.40945 15.1994L11.0095 5.58942C11.2095 5.23942 11.5795 5.01943 11.9795 4.98943C12.3795 4.95943 12.7695 5.14943 13.0095 5.46943L14.5795 7.55943C15.2095 8.39943 15.2595 9.55943 14.6995 10.4594L11.3595 15.8094C10.8895 16.5594 10.0795 17.0094 9.18948 17.0094H6.44949ZM9.17947 15.5094C9.54947 15.5094 9.8895 15.3194 10.0795 15.0094L13.4195 9.65943C13.6495 9.28943 13.6295 8.80943 13.3695 8.45943L12.0695 6.72943L6.9595 15.5094H9.17947Z" fill="#7328CE"/>
<path fill-rule="evenodd" clip-rule="evenodd" d="M13.7102 17.0099C13.2802 17.0099 12.8802 16.7799 12.6602 16.3999C12.4502 16.0199 12.4502 15.5599 12.6702 15.1899L14.5902 11.9899C15.0302 11.2599 16.2102 11.2599 16.6502 11.9899L18.5702 15.1899C18.7902 15.5599 18.8002 16.0299 18.5802 16.3999C18.3902 16.7699 17.9802 17.0099 17.5502 17.0099H13.7102ZM17.0302 15.5099L15.6302 13.1799L14.2402 15.5099H17.0302Z" fill="#7328CE"/>
<path fill-rule="evenodd" clip-rule="evenodd" d="M1.25 12C1.25 6.07 6.07 1.25 12 1.25C17.93 1.25 22.75 6.07 22.75 12C22.75 17.93 17.93 22.75 12 22.75C6.07 22.75 1.25 17.93 1.25 12ZM2.75 12C2.75 17.1 6.9 21.25 12 21.25C17.1 21.25 21.25 17.1 21.25 12C21.25 6.9 17.1 2.75 12 2.75C6.9 2.75 2.75 6.9 2.75 12Z" fill="#7328CE"/>
</g>
</svg>
