<svg width="24" height="24" viewBox="0 0 24 24" fill="none" xmlns="http://www.w3.org/2000/svg">
<path d="M12.8603 17.89L10.1003 15.13C9.81031 14.84 9.81031 14.36 10.1003 14.07C10.3903 13.78 10.8703 13.78 11.1603 14.07L13.9203 16.83C14.2103 17.12 14.2103 17.6 13.9203 17.89C13.7803 18.04 13.5903 18.11 13.3903 18.11C13.2003 18.11 13.0103 18.04 12.8603 17.89Z" fill="#7328CE"/>
<path d="M10.0808 17.9203C9.79078 17.6303 9.79078 17.1503 10.0808 16.8603L12.8408 14.1003C13.1308 13.8103 13.6108 13.8103 13.9008 14.1003C14.1908 14.3903 14.1908 14.8703 13.9008 15.1603L11.1408 17.9203C10.9908 18.0703 10.8008 18.1403 10.6108 18.1403C10.4208 18.1403 10.2308 18.0703 10.0808 17.9203Z" fill="#7328CE"/>
<path d="M4.66086 6.16043C4.37086 5.87043 4.37086 5.39043 4.66086 5.10043L8.29086 1.47043C8.58086 1.18043 9.06086 1.18043 9.35086 1.47043C9.64086 1.76043 9.64086 2.24043 9.35086 2.53043L5.72086 6.16043C5.57086 6.30043 5.38086 6.38043 5.19086 6.38043C5.00086 6.38043 4.80086 6.30043 4.66086 6.16043Z" fill="#7328CE"/>
<path d="M18.2791 6.16043L14.6491 2.53043C14.3591 2.24043 14.3591 1.76043 14.6491 1.47043C14.9391 1.18043 15.4191 1.18043 15.7091 1.47043L19.3391 5.10043C19.6291 5.39043 19.6291 5.87043 19.3391 6.16043C19.1991 6.30043 18.9991 6.38043 18.8091 6.38043C18.6191 6.38043 18.4291 6.31043 18.2791 6.16043Z" fill="#7328CE"/>
<path fill-rule="evenodd" clip-rule="evenodd" d="M20 10.6006H19.77H4C3.3 10.6106 2.5 10.6106 1.92 10.0306C1.46 9.58059 1.25 8.88059 1.25 7.85059C1.25 5.10059 3.26 5.10059 4.22 5.10059H19.78C20.74 5.10059 22.75 5.10059 22.75 7.85059C22.75 8.89059 22.54 9.58059 22.08 10.0306C21.56 10.5506 20.86 10.6006 20.21 10.6006C20.14 10.6006 20.07 10.6006 20 10.6006ZM20.01 9.10059C20.46 9.11059 20.88 9.11059 21.02 8.97059C21.09 8.90059 21.24 8.66059 21.24 7.85059C21.24 6.72059 20.96 6.60059 19.77 6.60059H4.22C3.03 6.60059 2.75 6.72059 2.75 7.85059C2.75 8.66059 2.91 8.90059 2.97 8.97059C3.11 9.10059 3.54 9.10059 3.98 9.10059H4.22H20.01Z" fill="#7328CE"/>
<path d="M8.86073 22.7498C5.28073 22.7498 4.48073 20.6198 4.17073 18.7698L2.76073 10.1198C2.69073 9.70975 2.97073 9.32975 3.38073 9.25975C3.79073 9.18975 4.17073 9.46975 4.24073 9.87975L5.65073 18.5198C5.94073 20.2898 6.54073 21.2498 8.86073 21.2498H14.8907C17.4607 21.2498 17.7507 20.3498 18.0807 18.6098L19.7607 9.85975C19.8407 9.44975 20.2307 9.17975 20.6407 9.26975C21.0507 9.34975 21.3107 9.73975 21.2307 10.1498L19.5507 18.8998C19.1607 20.9298 18.5107 22.7498 14.8907 22.7498H8.86073Z" fill="#7328CE"/>
</svg>
