<svg width="24" height="24" viewBox="0 0 24 24" fill="none" xmlns="http://www.w3.org/2000/svg">
<path d="M7.75 14.25C7.75 13.84 8.09 13.5 8.5 13.5C8.91 13.5 9.25 13.84 9.25 14.25C9.25 15.77 10.48 17 12 17C13.52 17 14.75 15.77 14.75 14.25C14.75 13.84 15.09 13.5 15.5 13.5C15.91 13.5 16.25 13.84 16.25 14.25C16.25 16.59 14.34 18.5 12 18.5C9.66 18.5 7.75 16.59 7.75 14.25Z" fill="#7328CE"/>
<path d="M4.66086 6.15945C4.37086 5.86945 4.37086 5.38945 4.66086 5.09945L8.29086 1.46945C8.58086 1.17945 9.06086 1.17945 9.35086 1.46945C9.64086 1.75945 9.64086 2.23945 9.35086 2.52945L5.72086 6.15945C5.57086 6.29945 5.38086 6.37945 5.19086 6.37945C5.00086 6.37945 4.80086 6.29945 4.66086 6.15945Z" fill="#7328CE"/>
<path d="M18.2791 6.15945L14.6491 2.52945C14.3591 2.23945 14.3591 1.75945 14.6491 1.46945C14.9391 1.17945 15.4191 1.17945 15.7091 1.46945L19.3391 5.09945C19.6291 5.38945 19.6291 5.86945 19.3391 6.15945C19.1991 6.29945 18.9991 6.37945 18.8091 6.37945C18.6191 6.37945 18.4291 6.30945 18.2791 6.15945Z" fill="#7328CE"/>
<path fill-rule="evenodd" clip-rule="evenodd" d="M20 10.5996H19.77H4C3.3 10.6096 2.5 10.6096 1.92 10.0296C1.46 9.57961 1.25 8.87961 1.25 7.84961C1.25 5.09961 3.26 5.09961 4.22 5.09961H19.78C20.74 5.09961 22.75 5.09961 22.75 7.84961C22.75 8.88961 22.54 9.57961 22.08 10.0296C21.56 10.5496 20.86 10.5996 20.21 10.5996C20.14 10.5996 20.07 10.5996 20 10.5996ZM20.01 9.09961C20.46 9.10961 20.88 9.10961 21.02 8.96961C21.09 8.89961 21.24 8.65961 21.24 7.84961C21.24 6.71961 20.96 6.59961 19.77 6.59961H4.22C3.03 6.59961 2.75 6.71961 2.75 7.84961C2.75 8.65961 2.91 8.89961 2.97 8.96961C3.11 9.09961 3.54 9.09961 3.98 9.09961H4.22H20.01Z" fill="#7328CE"/>
<path d="M8.86073 22.7498C5.28073 22.7498 4.48073 20.6198 4.17073 18.7698L2.76073 10.1198C2.69073 9.70975 2.97073 9.32975 3.38073 9.25975C3.78073 9.18975 4.17073 9.46975 4.24073 9.87975L5.65073 18.5198C5.94073 20.2898 6.54073 21.2498 8.86073 21.2498H14.8907C17.4607 21.2498 17.7507 20.3498 18.0807 18.6098L19.7607 9.85975C19.8407 9.44975 20.2307 9.17975 20.6407 9.26975C21.0507 9.34975 21.3107 9.73975 21.2307 10.1498L19.5507 18.8998C19.1607 20.9298 18.5107 22.7498 14.8907 22.7498H8.86073Z" fill="#7328CE"/>
</svg>
