<svg width="24" height="24" viewBox="0 0 24 24" fill="none" xmlns="http://www.w3.org/2000/svg">
<path d="M10.5905 18.03L9.09055 16.53C8.80055 16.24 8.80055 15.76 9.09055 15.47C9.38055 15.18 9.86055 15.18 10.1505 15.47L11.1405 16.46L13.8605 13.95C14.1605 13.67 14.6405 13.69 14.9205 13.99C15.2005 14.29 15.1805 14.77 14.8805 15.05L11.6305 18.05C11.4905 18.18 11.3105 18.25 11.1205 18.25C10.9305 18.25 10.7405 18.18 10.5905 18.03Z" fill="#7328CE"/>
<path d="M4.66086 6.16043C4.37086 5.87043 4.37086 5.39043 4.66086 5.10043L8.29086 1.47043C8.58086 1.18043 9.06086 1.18043 9.35086 1.47043C9.64086 1.76043 9.64086 2.24043 9.35086 2.53043L5.72086 6.16043C5.57086 6.30043 5.38086 6.38043 5.19086 6.38043C5.00086 6.38043 4.80086 6.30043 4.66086 6.16043Z" fill="#7328CE"/>
<path d="M18.2791 6.16043L14.6491 2.53043C14.3591 2.24043 14.3591 1.76043 14.6491 1.47043C14.9391 1.18043 15.4191 1.18043 15.7091 1.47043L19.3391 5.10043C19.6291 5.39043 19.6291 5.87043 19.3391 6.16043C19.1991 6.30043 18.9991 6.38043 18.8091 6.38043C18.6191 6.38043 18.4291 6.31043 18.2791 6.16043Z" fill="#7328CE"/>
<path fill-rule="evenodd" clip-rule="evenodd" d="M20 10.6006H19.77H4C3.3 10.6106 2.5 10.6106 1.92 10.0306C1.46 9.58059 1.25 8.88059 1.25 7.85059C1.25 5.10059 3.26 5.10059 4.22 5.10059H19.78C20.74 5.10059 22.75 5.10059 22.75 7.85059C22.75 8.89059 22.54 9.58059 22.08 10.0306C21.56 10.5506 20.86 10.6006 20.21 10.6006C20.14 10.6006 20.07 10.6006 20 10.6006ZM20.01 9.10059C20.46 9.11059 20.88 9.11059 21.02 8.97059C21.09 8.90059 21.24 8.66059 21.24 7.85059C21.24 6.72059 20.96 6.60059 19.77 6.60059H4.22C3.03 6.60059 2.75 6.72059 2.75 7.85059C2.75 8.66059 2.91 8.90059 2.97 8.97059C3.11 9.10059 3.54 9.10059 3.98 9.10059H4.22H20.01Z" fill="#7328CE"/>
<path d="M8.86073 22.7498C5.28073 22.7498 4.48073 20.6198 4.17073 18.7698L2.76073 10.1198C2.69073 9.70975 2.97073 9.32975 3.38073 9.25975C3.78073 9.18975 4.17073 9.46975 4.24073 9.87975L5.65073 18.5198C5.94073 20.2898 6.54073 21.2498 8.86073 21.2498H14.8907C17.4607 21.2498 17.7507 20.3498 18.0807 18.6098L19.7607 9.85975C19.8407 9.44975 20.2307 9.17975 20.6407 9.26975C21.0507 9.34975 21.3107 9.73975 21.2307 10.1498L19.5507 18.8998C19.1607 20.9298 18.5107 22.7498 14.8907 22.7498H8.86073Z" fill="#7328CE"/>
</svg>
