<svg width="24" height="24" viewBox="0 0 24 24" fill="none" xmlns="http://www.w3.org/2000/svg">
<mask id="mask0_251_28087" style="mask-type:luminance" maskUnits="userSpaceOnUse" x="0" y="0" width="24" height="24">
<rect width="24" height="24" fill="white"/>
</mask>
<g mask="url(#mask0_251_28087)">
<path fill-rule="evenodd" clip-rule="evenodd" d="M7.46076 10.4599L5.73078 8.72988C5.24078 8.23988 5.24078 7.44988 5.73078 6.95988L10.8808 1.80988C11.3708 1.31988 12.1608 1.31988 12.6508 1.80988L14.3808 3.53988C14.8708 4.02988 14.8708 4.81988 14.3808 5.30988L9.23078 10.4599C8.98078 10.7099 8.66077 10.8299 8.34077 10.8299C8.02077 10.8299 7.70076 10.7099 7.46076 10.4599ZM8.34077 9.22988L13.1308 4.43988L11.7508 3.05988L6.96076 7.84988L8.34077 9.22988Z" fill="#7328CE"/>
<path fill-rule="evenodd" clip-rule="evenodd" d="M7.46076 18.27L5.73078 16.54C5.24078 16.05 5.24078 15.26 5.73078 14.77L14.7808 5.72004C15.2708 5.23004 16.0608 5.23004 16.5508 5.72004L18.2808 7.45004C18.7708 7.94004 18.7708 8.73004 18.2808 9.22004L9.23078 18.27C8.98078 18.52 8.66077 18.64 8.34077 18.64C8.02077 18.64 7.70076 18.52 7.46076 18.27ZM8.34077 17.04L17.0408 8.34004L15.6608 6.96004L6.96076 15.66L8.34077 17.04Z" fill="#7328CE"/>
<path fill-rule="evenodd" clip-rule="evenodd" d="M11.3592 22.1704L9.62922 20.4404C9.13922 19.9504 9.13922 19.1604 9.62922 18.6704L18.6792 9.62043C19.1692 9.13043 19.9592 9.13043 20.4492 9.62043L22.1792 11.3504C22.6692 11.8404 22.6692 12.6304 22.1792 13.1204L13.1292 22.1704C12.8792 22.4204 12.5592 22.5404 12.2392 22.5404C11.9192 22.5404 11.5992 22.4204 11.3592 22.1704ZM12.2492 20.9404L20.9492 12.2404L19.5692 10.8604L10.8692 19.5604L12.2492 20.9404Z" fill="#7328CE"/>
<path fill-rule="evenodd" clip-rule="evenodd" d="M3.5604 14.3797L1.83039 12.6497C1.34039 12.1597 1.34039 11.3697 1.83039 10.8797L3.5604 9.14973C4.0504 8.65973 4.84039 8.65973 5.33039 9.14973L7.0604 10.8797C7.5504 11.3697 7.5504 12.1597 7.0604 12.6497L5.33039 14.3797C5.08039 14.6197 4.76041 14.7397 4.44041 14.7397C4.12041 14.7397 3.8004 14.6197 3.5604 14.3797ZM4.44041 13.1397L5.82041 11.7597L4.44041 10.3797L3.0604 11.7597L4.44041 13.1397Z" fill="#7328CE"/>
</g>
</svg>
