<svg width="24" height="24" viewBox="0 0 24 24" fill="none" xmlns="http://www.w3.org/2000/svg">
<mask id="mask0_251_27913" style="mask-type:luminance" maskUnits="userSpaceOnUse" x="0" y="0" width="24" height="24">
<rect width="24" height="24" fill="white"/>
</mask>
<g mask="url(#mask0_251_27913)">
<path fill-rule="evenodd" clip-rule="evenodd" d="M15.4714 10.5304L12.0014 7.06043L8.5314 10.5304C8.2414 10.8204 7.76141 10.8204 7.47141 10.5304L5.47141 8.53043C5.18141 8.24043 5.18141 7.76043 5.47141 7.47043L11.4714 1.47043C11.7614 1.18043 12.2414 1.18043 12.5314 1.47043L18.5314 7.47043C18.8214 7.76043 18.8214 8.24043 18.5314 8.53043L16.5314 10.5304C16.3814 10.6804 16.1914 10.7504 16.0014 10.7504C15.8114 10.7504 15.6214 10.6804 15.4714 10.5304ZM12.5314 5.47043L16.0014 8.94043L16.9414 8.00043L12.0014 3.06043L7.0614 8.00043L8.00141 8.94043L11.4714 5.47043C11.6214 5.32043 11.8114 5.25043 12.0014 5.25043C12.1914 5.25043 12.3814 5.32043 12.5314 5.47043Z" fill="#7328CE"/>
<path fill-rule="evenodd" clip-rule="evenodd" d="M11.4714 22.5304L5.47141 16.5304C5.18141 16.2404 5.18141 15.7604 5.47141 15.4704L7.47141 13.4704C7.76141 13.1804 8.2414 13.1804 8.5314 13.4704L12.0014 16.9404L15.4714 13.4704C15.7614 13.1804 16.2414 13.1804 16.5314 13.4704L18.5314 15.4704C18.8214 15.7604 18.8214 16.2404 18.5314 16.5304L12.5314 22.5304C12.3814 22.6804 12.1914 22.7504 12.0014 22.7504C11.8114 22.7504 11.6214 22.6804 11.4714 22.5304ZM12.0014 20.9404L16.9414 16.0004L16.0014 15.0604L12.5314 18.5304C12.2414 18.8204 11.7614 18.8204 11.4714 18.5304L8.00141 15.0604L7.0614 16.0004L12.0014 20.9404Z" fill="#7328CE"/>
<path fill-rule="evenodd" clip-rule="evenodd" d="M19.2214 14.7804L16.9714 12.5304C16.6814 12.2404 16.6814 11.7604 16.9714 11.4704L19.2214 9.22043C19.5114 8.93043 19.9914 8.93043 20.2814 9.22043L22.5314 11.4704C22.8214 11.7604 22.8214 12.2404 22.5314 12.5304L20.2814 14.7804C20.1314 14.9304 19.9414 15.0004 19.7514 15.0004C19.5614 15.0004 19.3714 14.9304 19.2214 14.7804ZM19.7514 13.1904L20.9414 12.0004L19.7514 10.8104L18.5614 12.0004L19.7514 13.1904Z" fill="#7328CE"/>
<path fill-rule="evenodd" clip-rule="evenodd" d="M3.72141 14.7804L1.47141 12.5304C1.18141 12.2404 1.18141 11.7604 1.47141 11.4704L3.72141 9.22043C4.01141 8.93043 4.4914 8.93043 4.7814 9.22043L7.0314 11.4704C7.3214 11.7604 7.3214 12.2404 7.0314 12.5304L4.7814 14.7804C4.6314 14.9304 4.44141 15.0004 4.25141 15.0004C4.0614 15.0004 3.87141 14.9304 3.72141 14.7804ZM4.25141 13.1904L5.44141 12.0004L4.25141 10.8104L3.0614 12.0004L4.25141 13.1904Z" fill="#7328CE"/>
<path fill-rule="evenodd" clip-rule="evenodd" d="M11.4709 15.01L8.99094 12.53C8.70094 12.24 8.70094 11.76 8.99094 11.47L11.4709 8.98996C11.7609 8.69996 12.2409 8.69996 12.5309 8.98996L15.0109 11.47C15.3009 11.76 15.3009 12.24 15.0109 12.53L12.5309 15.01C12.3809 15.15 12.1909 15.23 12.0009 15.23C11.8109 15.23 11.6209 15.16 11.4709 15.01ZM12.0009 13.42L13.4209 12L12.0009 10.58L10.5809 12L12.0009 13.42Z" fill="#7328CE"/>
</g>
</svg>
