<svg width="24" height="24" viewBox="0 0 24 24" fill="none" xmlns="http://www.w3.org/2000/svg">
<mask id="mask0_251_28276" style="mask-type:luminance" maskUnits="userSpaceOnUse" x="0" y="0" width="24" height="24">
<rect width="24" height="24" fill="white"/>
</mask>
<g mask="url(#mask0_251_28276)">
<path fill-rule="evenodd" clip-rule="evenodd" d="M1.25 12C1.25 6.07 6.07 1.25 12 1.25C17.93 1.25 22.75 6.07 22.75 12C22.75 17.93 17.93 22.75 12 22.75C6.07 22.75 1.25 17.93 1.25 12ZM2.75 12C2.75 17.1 6.9 21.25 12 21.25C17.1 21.25 21.25 17.1 21.25 12C21.25 6.9 17.1 2.75 12 2.75C6.9 2.75 2.75 6.9 2.75 12Z" fill="#7328CE"/>
<path fill-rule="evenodd" clip-rule="evenodd" d="M8.78125 12.7499C8.37125 12.7499 8.03125 12.4099 8.03125 11.9999V7.66992C8.03125 7.25992 8.37125 6.91992 8.78125 6.91992H14.2013C15.7513 6.91992 17.1213 8.27992 17.1213 9.83992C17.1213 11.4399 15.8113 12.7499 14.2013 12.7499H8.78125ZM14.2013 11.2499C14.9812 11.2499 15.6213 10.6099 15.6213 9.82992C15.6213 9.16992 15.0013 8.40992 14.2013 8.40992H9.53125V11.2499H14.2013Z" fill="#7328CE"/>
<path fill-rule="evenodd" clip-rule="evenodd" d="M8.78125 17.08C8.37125 17.08 8.03125 16.74 8.03125 16.33V12C8.03125 11.59 8.37125 11.25 8.78125 11.25H14.9713C16.7513 11.25 18.2013 12.56 18.2013 14.17C18.2013 15.78 16.7513 17.08 14.9713 17.08H8.78125ZM14.9713 15.58C15.9213 15.58 16.7013 14.94 16.7013 14.16C16.7013 13.38 15.9313 12.74 14.9713 12.74H9.53125V15.58H14.9713Z" fill="#7328CE"/>
<path d="M11.8203 18.5001V16.3301C11.8203 15.9201 12.1603 15.5801 12.5703 15.5801C12.9803 15.5801 13.3203 15.9201 13.3203 16.3301V18.5001C13.3203 18.9101 12.9903 19.2501 12.5703 19.2501C12.1603 19.2501 11.8203 18.9101 11.8203 18.5001Z" fill="#7328CE"/>
<path d="M9.12109 18.5001V16.3301C9.12109 15.9201 9.46109 15.5801 9.87109 15.5801C10.2811 15.5801 10.6211 15.9201 10.6211 16.3301V18.5001C10.6211 18.9101 10.2811 19.2501 9.87109 19.2501C9.46109 19.2501 9.12109 18.9101 9.12109 18.5001Z" fill="#7328CE"/>
<path d="M11.8203 7.67V5.5C11.8203 5.09 12.1603 4.75 12.5703 4.75C12.9803 4.75 13.3203 5.09 13.3203 5.5V7.67C13.3203 8.08 12.9903 8.42 12.5703 8.42C12.1603 8.42 11.8203 8.08 11.8203 7.67Z" fill="#7328CE"/>
<path d="M9.12109 7.67V5.5C9.12109 5.09 9.46109 4.75 9.87109 4.75C10.2811 4.75 10.6211 5.09 10.6211 5.5V7.67C10.6211 8.08 10.2811 8.42 9.87109 8.42C9.46109 8.42 9.12109 8.08 9.12109 7.67Z" fill="#7328CE"/>
<path d="M7.05078 8.41992C6.64078 8.41992 6.30078 8.07992 6.30078 7.66992C6.30078 7.25992 6.64078 6.91992 7.05078 6.91992H10.8408C11.2508 6.91992 11.5908 7.25992 11.5908 7.66992C11.5908 8.07992 11.2608 8.41992 10.8408 8.41992H7.05078Z" fill="#7328CE"/>
<path d="M7.05078 17.0801C6.64078 17.0801 6.30078 16.7401 6.30078 16.3301C6.30078 15.9201 6.64078 15.5801 7.05078 15.5801H10.8408C11.2508 15.5801 11.5908 15.9201 11.5908 16.3301C11.5908 16.7401 11.2608 17.0801 10.8408 17.0801H7.05078Z" fill="#7328CE"/>
</g>
</svg>
