<svg width="24" height="24" viewBox="0 0 24 24" fill="none" xmlns="http://www.w3.org/2000/svg">
<path fill-rule="evenodd" clip-rule="evenodd" d="M7.9207 16.67C4.1207 16.17 1.2207 12.87 1.2207 9C1.2207 4.73 4.7007 1.25 8.9707 1.25C12.8407 1.25 16.1407 4.14 16.6407 7.97C16.6907 8.27 16.7207 8.61 16.7207 9C16.7207 13.27 13.2507 16.75 8.9707 16.75C8.5807 16.75 8.2407 16.72 7.9207 16.67ZM2.7207 9C2.7207 12.12 5.0507 14.78 8.1407 15.19C8.4007 15.23 8.6707 15.25 8.9707 15.25C12.4207 15.25 15.2207 12.45 15.2207 9C15.2207 8.7 15.2007 8.43 15.1607 8.19C14.7507 5.08 12.1007 2.75 8.9707 2.75C5.5207 2.75 2.7207 5.55 2.7207 9Z" fill="#7328CE"/>
<path fill-rule="evenodd" clip-rule="evenodd" d="M7.29916 16.0297C7.26916 15.7897 7.34916 15.5597 7.51916 15.3897C7.68916 15.2197 7.93916 15.1497 8.16916 15.1897C8.40916 15.2297 8.66916 15.2497 8.96916 15.2497C12.4192 15.2497 15.2192 12.4497 15.2192 8.99973C15.2192 8.69973 15.1992 8.42973 15.1592 8.18973C15.1192 7.95973 15.1992 7.71973 15.3592 7.54973C15.5192 7.37973 15.7492 7.28973 15.9992 7.32973C19.8292 7.82973 22.7192 11.1297 22.7192 14.9997C22.7192 19.2697 19.2492 22.7497 14.9692 22.7497C11.0992 22.7497 7.79916 19.8597 7.29916 16.0297ZM14.9692 21.2497C18.4192 21.2497 21.2192 18.4497 21.2192 14.9997C21.2192 12.1997 19.3392 9.75973 16.7192 9.00973C16.7192 13.2697 13.2492 16.7497 8.97916 16.7497C9.73916 19.3697 12.1692 21.2497 14.9692 21.2497Z" fill="#7328CE"/>
<path d="M14.8995 15.9493L13.5995 14.6693C13.3095 14.3793 13.2995 13.8993 13.5895 13.6093C13.8795 13.3193 14.3495 13.3093 14.6495 13.5993L15.9495 14.8793C16.2395 15.1693 16.2495 15.6493 15.9595 15.9393C15.8195 16.0793 15.6195 16.1593 15.4295 16.1593C15.2395 16.1593 15.0495 16.0893 14.8995 15.9493Z" fill="#7328CE"/>
<path d="M16.4402 12.5295L15.4402 11.5295C15.1502 11.2395 15.1502 10.7595 15.4402 10.4695C15.7302 10.1795 16.2102 10.1795 16.5002 10.4695L17.5002 11.4695C17.7902 11.7595 17.7902 12.2395 17.5002 12.5295C17.3602 12.6795 17.1702 12.7495 16.9702 12.7495C16.7802 12.7495 16.5902 12.6795 16.4402 12.5295Z" fill="#7328CE"/>
<path d="M11.4402 17.5295L10.4402 16.5295C10.1502 16.2395 10.1502 15.7595 10.4402 15.4695C10.7302 15.1795 11.2102 15.1795 11.5002 15.4695L12.5002 16.4695C12.7902 16.7595 12.7902 17.2395 12.5002 17.5295C12.3602 17.6795 12.1702 17.7495 11.9702 17.7495C11.7802 17.7495 11.5902 17.6795 11.4402 17.5295Z" fill="#7328CE"/>
</svg>
