<svg width="24" height="24" viewBox="0 0 24 24" fill="none" xmlns="http://www.w3.org/2000/svg">
<path fill-rule="evenodd" clip-rule="evenodd" d="M12.1091 18.0097C11.8891 17.9097 11.3891 17.5797 11.3891 16.6697V13.9997L9.08906 16.1097C8.78906 16.3897 8.30907 16.3697 8.02907 16.0597C7.74907 15.7497 7.76905 15.2797 8.07905 14.9997L11.3591 11.9897L8.07905 8.9797C7.76905 8.6997 7.74907 8.2297 8.02907 7.9197C8.30907 7.6197 8.78906 7.58968 9.08906 7.86968L11.3891 9.9797V7.31969C11.3891 6.41969 11.8891 6.0897 12.1091 5.9797C12.3191 5.8797 12.8991 5.70969 13.5991 6.27969L15.6591 7.99969C15.9591 8.24969 16.1391 8.61969 16.1491 8.99969C16.1591 9.37969 15.9991 9.75968 15.7091 10.0197L13.5791 11.9697L15.7091 13.9197C15.9991 14.1897 16.1591 14.5597 16.1491 14.9397C16.1391 15.3197 15.9591 15.6897 15.6591 15.9397L13.5991 17.6597C13.2191 18.0197 12.8691 18.1097 12.5991 18.1097C12.3791 18.1097 12.2091 18.0497 12.1091 18.0097ZM12.8991 16.3297L14.5691 14.9397L12.8991 13.4097V16.3297ZM12.8991 10.5897L14.5691 9.05968L12.8991 7.6697V10.5897Z" fill="#7328CE"/>
<path fill-rule="evenodd" clip-rule="evenodd" d="M9 22.75C5.56 22.75 3.25 20.44 3.25 17V7C3.25 3.56 5.56 1.25 9 1.25H15C18.44 1.25 20.75 3.56 20.75 7V17C20.75 20.44 18.44 22.75 15 22.75H9ZM4.75 7V17C4.75 19.58 6.42 21.25 9 21.25H15C17.58 21.25 19.25 19.58 19.25 17V7C19.25 4.42 17.58 2.75 15 2.75H9C6.42 2.75 4.75 4.42 4.75 7Z" fill="#7328CE"/>
</svg>
