<svg width="24" height="24" viewBox="0 0 24 24" fill="none" xmlns="http://www.w3.org/2000/svg">
<path fill-rule="evenodd" clip-rule="evenodd" d="M3.15051 13.9C3.12051 8.17 8.58048 3.4 10.9305 1.61C11.5605 1.13 12.4405 1.13 13.0705 1.61C15.4205 3.43 20.8805 8.26 20.8505 13.91C20.8505 18.78 16.8805 22.75 12.0005 22.75C7.12049 22.75 3.15051 18.78 3.15051 13.9ZM11.8405 2.81C10.1505 4.1 4.63046 8.71 4.66046 13.9C4.66046 17.96 7.9605 21.25 12.0105 21.25C16.0605 21.25 19.3605 17.96 19.3605 13.91C19.3905 8.79 13.8605 4.12 12.1605 2.81C12.1005 2.77 12.0505 2.75 12.0005 2.75C11.9505 2.75 11.8905 2.77 11.8405 2.81Z" fill="#7328CE"/>
<path d="M11.25 22V2C11.25 1.59 11.59 1.25 12 1.25C12.41 1.25 12.75 1.59 12.75 2V22C12.75 22.41 12.41 22.75 12 22.75C11.59 22.75 11.25 22.41 11.25 22Z" fill="#7328CE"/>
<path d="M11.3199 19.2897C11.1399 18.9197 11.2899 18.4697 11.6699 18.2897L19.3699 14.5497C19.7399 14.3697 20.1899 14.5297 20.3699 14.8997C20.5499 15.2697 20.4 15.7197 20.02 15.8997L12.3199 19.6397C12.2199 19.6797 12.1099 19.7097 11.9999 19.7097C11.7199 19.7097 11.4499 19.5497 11.3199 19.2897Z" fill="#7328CE"/>
<path d="M11.3199 14.2896C11.1399 13.9196 11.2899 13.4696 11.6699 13.2896L19.0399 9.70959C19.4099 9.52959 19.8599 9.67959 20.0399 10.0596C20.2199 10.4396 20.0699 10.8796 19.6899 11.0596L12.3199 14.6396C12.2199 14.6796 12.1099 14.7096 11.9999 14.7096C11.7199 14.7096 11.4499 14.5496 11.3199 14.2896Z" fill="#7328CE"/>
<path d="M11.3199 9.29046C11.1399 8.92046 11.2899 8.47046 11.6699 8.29046L16.7 5.85045C17.07 5.67045 17.52 5.83045 17.7 6.20045C17.88 6.57045 17.7299 7.02045 17.3499 7.20045L12.3199 9.64045C12.2199 9.68045 12.1099 9.71045 11.9999 9.71045C11.7199 9.71045 11.4499 9.55046 11.3199 9.29046Z" fill="#7328CE"/>
</svg>
