<svg width="24" height="24" viewBox="0 0 24 24" fill="none" xmlns="http://www.w3.org/2000/svg">
<path fill-rule="evenodd" clip-rule="evenodd" d="M11.15 21.8705C9.28 20.8505 5.99 19.7705 3.93 19.5005L3.64 19.4605C2.33 19.3005 1.25 18.0705 1.25 16.7405V4.6605C1.25 3.8705 1.56 3.1505 2.13 2.6305C2.7 2.1105 3.44 1.8605 4.22 1.9305C6.42 2.1005 9.74 3.2005 11.62 4.3805L11.86 4.5205C11.93 4.5605 12.08 4.5605 12.14 4.5305L12.3 4.4305C14.18 3.2505 17.5 2.1305 19.71 1.9405C19.73 1.9405 19.81 1.9405 19.83 1.9405C20.56 1.8705 21.31 2.1305 21.87 2.6505C22.44 3.1705 22.75 3.8905 22.75 4.6805V16.7505C22.75 18.0905 21.67 19.3105 20.35 19.4705L20.02 19.5105C17.96 19.7805 14.66 20.8705 12.83 21.8805C12.59 22.0205 12.3 22.0805 12 22.0805C11.7 22.0805 11.4 22.0105 11.15 21.8705ZM3.14 3.7405C2.89 3.9705 2.75 4.3005 2.75 4.6605V16.7405C2.75 17.3305 3.26 17.9005 3.83 17.9805L4.13 18.0205C6.38 18.3205 9.83 19.4505 11.83 20.5405C11.92 20.5805 12.05 20.5905 12.1 20.5705C14.1 19.4605 17.57 18.3205 19.83 18.0205L20.17 17.9805C20.74 17.9105 21.25 17.3305 21.25 16.7405V4.6705C21.25 4.3005 21.11 3.9805 20.86 3.7405C20.6 3.5105 20.27 3.4005 19.9 3.4205C19.88 3.4205 19.8 3.4205 19.78 3.4205C17.87 3.5905 14.79 4.6205 13.11 5.6705L12.95 5.7805C12.4 6.1205 11.62 6.1205 11.09 5.7905L10.85 5.6505C9.14 4.6005 6.06 3.5805 4.1 3.4205C4.06 3.4205 4.02 3.4205 3.98 3.4205C3.66 3.4205 3.37 3.5305 3.14 3.7405Z" fill="#7328CE"/>
<path d="M11.25 20.4902V5.49023C11.25 5.08023 11.59 4.74023 12 4.74023C12.41 4.74023 12.75 5.08023 12.75 5.49023V20.4902C12.75 20.9102 12.41 21.2402 12 21.2402C11.59 21.2402 11.25 20.9002 11.25 20.4902Z" fill="#7328CE"/>
<path d="M5.5 9.24023C5.09 9.24023 4.75 8.90023 4.75 8.49023C4.75 8.08023 5.09 7.74023 5.5 7.74023H7.75C8.16 7.74023 8.5 8.08023 8.5 8.49023C8.5 8.90023 8.16 9.24023 7.75 9.24023H5.5Z" fill="#7328CE"/>
<path d="M5.5 12.2402C5.09 12.2402 4.75 11.9002 4.75 11.4902C4.75 11.0802 5.09 10.7402 5.5 10.7402H8.5C8.91 10.7402 9.25 11.0802 9.25 11.4902C9.25 11.9002 8.91 12.2402 8.5 12.2402H5.5Z" fill="#7328CE"/>
</svg>
