<svg width="24" height="24" viewBox="0 0 24 24" fill="none" xmlns="http://www.w3.org/2000/svg">
<mask id="mask0_251_28927" style="mask-type:luminance" maskUnits="userSpaceOnUse" x="0" y="0" width="24" height="24">
<rect width="24" height="24" fill="white"/>
</mask>
<g mask="url(#mask0_251_28927)">
<path fill-rule="evenodd" clip-rule="evenodd" d="M7 21.75C4.93 21.75 3.25 20.07 3.25 18V17.16C3.25 16.47 3.13998 15.79 2.91998 15.13C2.63998 14.3 1.87 13.75 1 13.75C0.59 13.75 0.25 13.41 0.25 13V11C0.25 10.59 0.59 10.25 1 10.25C1.87 10.25 2.64998 9.69 2.91998 8.87C3.13998 8.21 3.25 7.53 3.25 6.84V6C3.25 3.93 4.93 2.25 7 2.25H17C19.07 2.25 20.75 3.93 20.75 6V6.84C20.75 7.53 20.86 8.21 21.08 8.87C21.36 9.7 22.13 10.25 23 10.25C23.41 10.25 23.75 10.59 23.75 11V13C23.75 13.41 23.41 13.75 23 13.75C22.13 13.75 21.35 14.31 21.08 15.13C20.86 15.79 20.75 16.47 20.75 17.16V18C20.75 20.07 19.07 21.75 17 21.75H7ZM4.34003 14.66C4.61003 15.47 4.75 16.31 4.75 17.16V18C4.75 19.24 5.76 20.25 7 20.25H17C18.24 20.25 19.25 19.24 19.25 18V17.16C19.25 16.31 19.39 15.47 19.66 14.66C20.06 13.46 21.06 12.59 22.25 12.33V11.67C21.05 11.41 20.06 10.54 19.66 9.34C19.39 8.53 19.25 7.69 19.25 6.84V6C19.25 4.76 18.24 3.75 17 3.75H7C5.76 3.75 4.75 4.76 4.75 6V6.84C4.75 7.69 4.61003 8.53 4.34003 9.34C3.94003 10.54 2.94 11.41 1.75 11.67V12.33C2.95 12.59 3.94003 13.46 4.34003 14.66Z" fill="#7328CE"/>
<path fill-rule="evenodd" clip-rule="evenodd" d="M9.75 16.9199C9.34 16.9199 9 16.5799 9 16.1699V7.83984C9 7.42984 9.34 7.08984 9.75 7.08984H12.67C14.23 7.08984 15.5 8.35986 15.5 9.91986C15.5 10.7399 15.15 11.4898 14.58 11.9998C15.14 12.5198 15.5 13.2598 15.5 14.0798C15.5 15.6498 14.23 16.9199 12.67 16.9199H9.75ZM12.67 15.4199C13.41 15.4199 14 14.8198 14 14.0898C14 13.3598 13.4 12.7599 12.67 12.7599H10.5V15.4199H12.67ZM12.67 11.2498C13.41 11.2498 14 10.6499 14 9.91986C14 9.18986 13.4 8.58984 12.67 8.58984H10.5V11.2498H12.67Z" fill="#7328CE"/>
</g>
</svg>
