<svg width="24" height="24" viewBox="0 0 24 24" fill="none" xmlns="http://www.w3.org/2000/svg">
<path fill-rule="evenodd" clip-rule="evenodd" d="M8.87908 16.4894L6.48906 14.0994C5.38906 12.9994 5.38906 11.7395 6.48906 10.6495L10.4791 6.65942C10.6191 6.51942 10.8091 6.43945 11.0091 6.43945C11.2091 6.43945 11.3991 6.51942 11.5391 6.65942L15.9291 11.0494C16.1791 11.2994 16.3091 11.6294 16.3091 11.9794C16.3091 12.3294 16.1691 12.6595 15.9191 12.9095L12.3291 16.4995C11.7891 17.0295 11.1991 17.3095 10.6091 17.3095C10.0191 17.3095 9.42908 17.0394 8.87908 16.4894ZM7.54906 11.6995C7.37906 11.8695 7.16909 12.1294 7.16909 12.3694C7.16909 12.6094 7.37906 12.8595 7.54906 13.0395L9.93907 15.4295C10.1091 15.5995 10.3691 15.8095 10.6091 15.8095C10.8491 15.8095 11.0991 15.5995 11.2791 15.4295L14.7391 11.9694L11.0091 8.23944L7.54906 11.6995Z" fill="#7328CE"/>
<path d="M10.4804 7.71036L9.68039 6.91031C9.39039 6.62031 9.39039 6.14031 9.68039 5.85031C9.97039 5.56031 10.4504 5.56031 10.7404 5.85031L11.5404 6.65036C11.8304 6.94036 11.8304 7.42036 11.5404 7.71036C11.3904 7.86036 11.2004 7.93033 11.0104 7.93033C10.8204 7.93033 10.6304 7.86036 10.4804 7.71036Z" fill="#7328CE"/>
<path d="M5.70987 12.3594C5.68987 11.9494 6.00987 11.5994 6.42987 11.5794L15.4599 11.1894C15.8699 11.1594 16.2199 11.4894 16.2399 11.9094C16.2599 12.3294 15.9399 12.6693 15.5199 12.6893L6.48987 13.0793C6.47987 13.0793 6.46987 13.0793 6.45987 13.0793C6.05987 13.0793 5.72987 12.7694 5.70987 12.3594Z" fill="#7328CE"/>
<path fill-rule="evenodd" clip-rule="evenodd" d="M14.6211 16.1002C14.6211 15.1502 15.6211 13.9902 15.9211 13.6602C16.2011 13.3502 16.7411 13.3502 17.0211 13.6602C17.3211 13.9902 18.3211 15.1502 18.3211 16.1002C18.3311 17.1202 17.5011 17.9502 16.4711 17.9502C15.4511 17.9502 14.6211 17.1202 14.6211 16.1002ZM16.1211 16.1002C16.1211 16.2902 16.2811 16.4502 16.4711 16.4502C16.6611 16.4502 16.8211 16.2902 16.8211 16.1002C16.8311 15.9702 16.6811 15.6902 16.4711 15.3802C16.2611 15.6902 16.1211 15.9702 16.1211 16.1002Z" fill="#7328CE"/>
<path fill-rule="evenodd" clip-rule="evenodd" d="M1.25 12C1.25 6.07 6.07 1.25 12 1.25C17.93 1.25 22.75 6.07 22.75 12C22.75 17.93 17.93 22.75 12 22.75C6.07 22.75 1.25 17.93 1.25 12ZM2.75 12C2.75 17.1 6.9 21.25 12 21.25C17.1 21.25 21.25 17.1 21.25 12C21.25 6.9 17.1 2.75 12 2.75C6.9 2.75 2.75 6.9 2.75 12Z" fill="#7328CE"/>
</svg>
