<svg width="24" height="24" viewBox="0 0 24 24" fill="none" xmlns="http://www.w3.org/2000/svg">
<path fill-rule="evenodd" clip-rule="evenodd" d="M4.0807 22.7497C2.5107 22.7497 1.2207 21.4897 1.2207 19.9297V5.0897C1.2207 3.5597 1.7907 2.3697 2.8307 1.7197C3.8807 1.0597 5.2407 1.0797 6.6507 1.7797L11.0907 3.9597C12.3007 4.5597 13.2507 6.0697 13.2507 7.4097V21.9997C13.2507 22.4097 12.9107 22.7497 12.5007 22.7497H4.0807ZM3.6207 2.9997C3.0407 3.3597 2.7207 4.1097 2.7207 5.0897V19.9297C2.7207 20.6597 3.3307 21.2497 4.0807 21.2497H11.7507V7.4097C11.7507 6.6397 11.1307 5.6497 10.4207 5.3097L5.9807 3.1297C5.4707 2.8797 4.9907 2.7497 4.5607 2.7497C4.2107 2.7497 3.8907 2.8297 3.6207 2.9997Z" fill="#7328CE"/>
<path fill-rule="evenodd" clip-rule="evenodd" d="M12.5 22.7503C12.09 22.7503 11.75 22.4103 11.75 22.0003V10.4203C11.75 10.1903 11.85 9.98027 12.03 9.84027C12.21 9.70027 12.43 9.64027 12.66 9.69027L13.13 9.79027L19.67 11.2503C21.66 11.6903 22.66 12.8603 22.72 14.8503C22.73 14.8503 22.73 14.9503 22.73 15.0603V18.8403C22.72 21.4003 21.37 22.7503 18.81 22.7503H12.5ZM18.81 21.2503C20.57 21.2503 21.22 20.6003 21.22 18.8403V14.9803C21.17 13.6103 20.65 13.0003 19.34 12.7103L13.25 11.3503V21.2503H18.81Z" fill="#7328CE"/>
<path d="M5.5 9.75C5.09 9.75 4.75 9.41 4.75 9C4.75 8.59 5.09 8.25 5.5 8.25H8.97C9.38 8.25 9.72 8.59 9.72 9C9.72 9.41 9.39 9.75 8.97 9.75H5.5Z" fill="#7328CE"/>
<path d="M5.5 13.75C5.09 13.75 4.75 13.41 4.75 13C4.75 12.59 5.09 12.25 5.5 12.25H8.97C9.38 12.25 9.72 12.59 9.72 13C9.72 13.41 9.39 13.75 8.97 13.75H5.5Z" fill="#7328CE"/>
<path fill-rule="evenodd" clip-rule="evenodd" d="M12.2207 14.7495V10.5195C12.2207 10.2895 12.3207 10.0795 12.5007 9.92949C12.6807 9.77949 12.9107 9.72949 13.1307 9.77949L17.6307 10.7895C17.9707 10.8695 18.2207 11.1695 18.2207 11.5195V14.7395C18.2207 16.3995 16.8807 17.7495 15.2207 17.7495C13.5707 17.7495 12.2207 16.3995 12.2207 14.7495ZM13.7207 14.7495C13.7207 15.5795 14.3907 16.2495 15.2207 16.2495C16.0507 16.2495 16.7207 15.5795 16.7207 14.7495V12.1295L13.7207 11.4595V14.7495Z" fill="#7328CE"/>
<path fill-rule="evenodd" clip-rule="evenodd" d="M16.7207 14.7496V11.5296C16.7207 11.2996 16.8207 11.0896 17.0007 10.9496C17.1807 10.8096 17.4107 10.7496 17.6307 10.7996L19.6607 11.2496C21.6507 11.6896 22.6507 12.8596 22.7107 14.8496C22.7107 14.8696 22.7107 14.8896 22.7107 14.9096C22.6307 16.4996 21.3207 17.7496 19.7207 17.7496C18.0707 17.7496 16.7207 16.3996 16.7207 14.7496ZM18.2207 14.7496C18.2207 15.5796 18.8907 16.2496 19.7207 16.2496C20.5107 16.2496 21.1607 15.6396 21.2107 14.8596C21.1607 13.5996 20.6407 12.9996 19.3407 12.7096L18.2207 12.4596V14.7496Z" fill="#7328CE"/>
</svg>
