<svg width="24" height="24" viewBox="0 0 24 24" fill="none" xmlns="http://www.w3.org/2000/svg">
<mask id="mask0_251_27984" style="mask-type:luminance" maskUnits="userSpaceOnUse" x="0" y="0" width="24" height="24">
<rect width="24" height="24" fill="white"/>
</mask>
<g mask="url(#mask0_251_27984)">
<path fill-rule="evenodd" clip-rule="evenodd" d="M12.25 9C12.25 8.17 12.92 7.5 13.75 7.5C14.58 7.5 15.25 8.17 15.25 9C15.25 9.83 14.58 10.5 13.75 10.5C12.92 10.5 12.25 9.83 12.25 9ZM13.25 9C13.25 9.28 13.47 9.5 13.75 9.5C14.03 9.5 14.25 9.28 14.25 9C14.25 8.72 14.03 8.5 13.75 8.5C13.47 8.5 13.25 8.72 13.25 9Z" fill="#7328CE"/>
<path fill-rule="evenodd" clip-rule="evenodd" d="M8.75 9C8.75 8.17 9.42 7.5 10.25 7.5C11.08 7.5 11.75 8.17 11.75 9C11.75 9.83 11.08 10.5 10.25 10.5C9.42 10.5 8.75 9.83 8.75 9ZM9.75 9C9.75 9.28 9.97 9.5 10.25 9.5C10.53 9.5 10.75 9.28 10.75 9C10.75 8.72 10.53 8.5 10.25 8.5C9.97 8.5 9.75 8.72 9.75 9Z" fill="#7328CE"/>
<path fill-rule="evenodd" clip-rule="evenodd" d="M14 12C14 11.17 14.67 10.5 15.5 10.5C16.33 10.5 17 11.17 17 12C17 12.83 16.33 13.5 15.5 13.5C14.67 13.5 14 12.83 14 12ZM15 12C15 12.28 15.22 12.5 15.5 12.5C15.78 12.5 16 12.28 16 12C16 11.72 15.78 11.5 15.5 11.5C15.22 11.5 15 11.72 15 12Z" fill="#7328CE"/>
<path fill-rule="evenodd" clip-rule="evenodd" d="M15.9004 9C15.9004 8.31 16.4604 7.75 17.1504 7.75C17.8404 7.75 18.4004 8.31 18.4004 9C18.4004 9.69 17.8404 10.25 17.1504 10.25C16.4604 10.25 15.9004 9.69 15.9004 9ZM16.9004 9C16.9004 9.28 17.4004 9.28 17.4004 9C17.4004 8.86 17.2904 8.75 17.1504 8.75C17.0104 8.75 16.9004 8.86 16.9004 9Z" fill="#7328CE"/>
<path fill-rule="evenodd" clip-rule="evenodd" d="M15.9004 15C15.9004 14.31 16.4604 13.75 17.1504 13.75C17.8404 13.75 18.4004 14.31 18.4004 15C18.4004 15.69 17.8404 16.25 17.1504 16.25C16.4604 16.25 15.9004 15.69 15.9004 15ZM16.9004 15C16.9004 15.28 17.4004 15.28 17.4004 15C17.4004 14.86 17.2904 14.75 17.1504 14.75C17.0104 14.75 16.9004 14.86 16.9004 15Z" fill="#7328CE"/>
<path fill-rule="evenodd" clip-rule="evenodd" d="M18.5 12C18.5 11.31 19.06 10.75 19.75 10.75C20.44 10.75 21 11.31 21 12C21 12.69 20.44 13.25 19.75 13.25C19.06 13.25 18.5 12.69 18.5 12ZM19.5 12C19.5 12.28 20 12.28 20 12C20 11.86 19.89 11.75 19.75 11.75C19.61 11.75 19.5 11.86 19.5 12Z" fill="#7328CE"/>
<path fill-rule="evenodd" clip-rule="evenodd" d="M5.54883 9C5.54883 8.31 6.10883 7.75 6.79883 7.75C7.48883 7.75 8.04883 8.31 8.04883 9C8.04883 9.69 7.48883 10.25 6.79883 10.25C6.10883 10.25 5.54883 9.69 5.54883 9ZM6.54883 9C6.54883 9.28 7.04883 9.28 7.04883 9C7.04883 8.86 6.93883 8.75 6.79883 8.75C6.65883 8.75 6.54883 8.86 6.54883 9Z" fill="#7328CE"/>
<path fill-rule="evenodd" clip-rule="evenodd" d="M5.54883 15C5.54883 14.31 6.10883 13.75 6.79883 13.75C7.48883 13.75 8.04883 14.31 8.04883 15C8.04883 15.69 7.48883 16.25 6.79883 16.25C6.10883 16.25 5.54883 15.69 5.54883 15ZM6.54883 15C6.54883 15.28 7.04883 15.28 7.04883 15C7.04883 14.86 6.93883 14.75 6.79883 14.75C6.65883 14.75 6.54883 14.86 6.54883 15Z" fill="#7328CE"/>
<path fill-rule="evenodd" clip-rule="evenodd" d="M2.95117 12C2.95117 11.31 3.51117 10.75 4.20117 10.75C4.89117 10.75 5.45117 11.31 5.45117 12C5.45117 12.69 4.89117 13.25 4.20117 13.25C3.51117 13.25 2.95117 12.69 2.95117 12ZM3.95117 12C3.95117 12.28 4.45117 12.28 4.45117 12C4.45117 11.86 4.34117 11.75 4.20117 11.75C4.06117 11.75 3.95117 11.86 3.95117 12Z" fill="#7328CE"/>
<path fill-rule="evenodd" clip-rule="evenodd" d="M14.6504 5.2002C14.6504 4.5102 15.2104 3.9502 15.9004 3.9502C16.5904 3.9502 17.1504 4.5102 17.1504 5.2002C17.1504 5.8902 16.5904 6.4502 15.9004 6.4502C15.2104 6.4502 14.6504 5.8902 14.6504 5.2002ZM15.6504 5.2002C15.6504 5.4802 16.1504 5.4802 16.1504 5.2002C16.1504 5.0602 16.0404 4.9502 15.9004 4.9502C15.7604 4.9502 15.6504 5.0602 15.6504 5.2002Z" fill="#7328CE"/>
<path fill-rule="evenodd" clip-rule="evenodd" d="M6.84961 5.2002C6.84961 4.5102 7.40961 3.9502 8.09961 3.9502C8.78961 3.9502 9.34961 4.5102 9.34961 5.2002C9.34961 5.8902 8.78961 6.4502 8.09961 6.4502C7.40961 6.4502 6.84961 5.8902 6.84961 5.2002ZM7.84961 5.2002C7.84961 5.4802 8.34961 5.4802 8.34961 5.2002C8.34961 5.0602 8.23961 4.9502 8.09961 4.9502C7.95961 4.9502 7.84961 5.0602 7.84961 5.2002Z" fill="#7328CE"/>
<path fill-rule="evenodd" clip-rule="evenodd" d="M10.7988 6C10.7988 5.31 11.3588 4.75 12.0488 4.75C12.7388 4.75 13.2988 5.31 13.2988 6C13.2988 6.69 12.7388 7.25 12.0488 7.25C11.3588 7.25 10.7988 6.69 10.7988 6ZM11.7988 6C11.7988 6.28 12.2988 6.28 12.2988 6C12.2988 5.86 12.1888 5.75 12.0488 5.75C11.9088 5.75 11.7988 5.86 11.7988 6Z" fill="#7328CE"/>
<path fill-rule="evenodd" clip-rule="evenodd" d="M14.6504 19C14.6504 18.31 15.2104 17.75 15.9004 17.75C16.5904 17.75 17.1504 18.31 17.1504 19C17.1504 19.69 16.5904 20.25 15.9004 20.25C15.2104 20.25 14.6504 19.69 14.6504 19ZM15.6504 19C15.6504 19.28 16.1504 19.28 16.1504 19C16.1504 18.86 16.0404 18.75 15.9004 18.75C15.7604 18.75 15.6504 18.86 15.6504 19Z" fill="#7328CE"/>
<path fill-rule="evenodd" clip-rule="evenodd" d="M6.84961 19C6.84961 18.31 7.40961 17.75 8.09961 17.75C8.78961 17.75 9.34961 18.31 9.34961 19C9.34961 19.69 8.78961 20.25 8.09961 20.25C7.40961 20.25 6.84961 19.69 6.84961 19ZM7.84961 19C7.84961 19.28 8.34961 19.28 8.34961 19C8.34961 18.86 8.23961 18.75 8.09961 18.75C7.95961 18.75 7.84961 18.86 7.84961 19Z" fill="#7328CE"/>
<path fill-rule="evenodd" clip-rule="evenodd" d="M10.7988 18.2002C10.7988 17.5102 11.3588 16.9502 12.0488 16.9502C12.7388 16.9502 13.2988 17.5102 13.2988 18.2002C13.2988 18.8902 12.7388 19.4502 12.0488 19.4502C11.3588 19.4502 10.7988 18.8902 10.7988 18.2002ZM11.7988 18.2002C11.7988 18.4802 12.2988 18.4802 12.2988 18.2002C12.2988 18.0602 12.1888 17.9502 12.0488 17.9502C11.9088 17.9502 11.7988 18.0602 11.7988 18.2002Z" fill="#7328CE"/>
<path fill-rule="evenodd" clip-rule="evenodd" d="M7 12C7 11.17 7.67 10.5 8.5 10.5C9.33 10.5 10 11.17 10 12C10 12.83 9.33 13.5 8.5 13.5C7.67 13.5 7 12.83 7 12ZM8 12C8 12.28 8.22 12.5 8.5 12.5C8.78 12.5 9 12.28 9 12C9 11.72 8.78 11.5 8.5 11.5C8.22 11.5 8 11.72 8 12Z" fill="#7328CE"/>
<path fill-rule="evenodd" clip-rule="evenodd" d="M8.75 15C8.75 14.17 9.42 13.5 10.25 13.5C11.08 13.5 11.75 14.17 11.75 15C11.75 15.83 11.08 16.5 10.25 16.5C9.42 16.5 8.75 15.83 8.75 15ZM9.75 15C9.75 15.28 9.97 15.5 10.25 15.5C10.53 15.5 10.75 15.28 10.75 15C10.75 14.72 10.53 14.5 10.25 14.5C9.97 14.5 9.75 14.72 9.75 15Z" fill="#7328CE"/>
<path fill-rule="evenodd" clip-rule="evenodd" d="M12.25 15C12.25 14.17 12.92 13.5 13.75 13.5C14.58 13.5 15.25 14.17 15.25 15C15.25 15.83 14.58 16.5 13.75 16.5C12.92 16.5 12.25 15.83 12.25 15ZM13.25 15C13.25 15.28 13.47 15.5 13.75 15.5C14.03 15.5 14.25 15.28 14.25 15C14.25 14.72 14.03 14.5 13.75 14.5C13.47 14.5 13.25 14.72 13.25 15Z" fill="#7328CE"/>
<path d="M10.9902 2.4502C10.9902 1.9002 11.4402 1.4502 11.9902 1.4502C12.5402 1.4502 12.9902 1.9002 12.9902 2.4502C12.9902 3.0002 12.5602 3.4502 12.0002 3.4502C11.4402 3.4502 10.9902 3.0002 10.9902 2.4502Z" fill="#7328CE"/>
<path d="M16.4902 2.85059C16.4902 2.44059 16.8302 2.10059 17.2402 2.10059C17.6502 2.10059 18.0002 2.44059 18.0002 2.85059C18.0002 3.26059 17.6702 3.60059 17.2502 3.60059C16.8302 3.60059 16.4902 3.26059 16.4902 2.85059Z" fill="#7328CE"/>
<path d="M6 2.85059C6 2.44059 6.33 2.10059 6.75 2.10059H6.76001C7.17001 2.10059 7.51001 2.44059 7.51001 2.85059C7.51001 3.26059 7.17 3.60059 6.75 3.60059C6.34 3.60059 6 3.26059 6 2.85059Z" fill="#7328CE"/>
<path d="M10.9902 21.5C10.9902 20.95 11.4402 20.5 11.9902 20.5C12.5402 20.5 12.9902 20.95 12.9902 21.5C12.9902 22.05 12.5602 22.5 12.0002 22.5C11.4402 22.5 10.9902 22.05 10.9902 21.5Z" fill="#7328CE"/>
<path d="M16.4902 21.1006C16.4902 20.6906 16.8302 20.3506 17.2402 20.3506C17.6502 20.3506 18.0002 20.6906 18.0002 21.1006C18.0002 21.5106 17.6702 21.8506 17.2502 21.8506C16.8302 21.8506 16.4902 21.5106 16.4902 21.1006Z" fill="#7328CE"/>
<path d="M6 21.1006C6 20.6906 6.33 20.3506 6.75 20.3506H6.76001C7.17001 20.3506 7.51001 20.6906 7.51001 21.1006C7.51001 21.5106 7.17 21.8506 6.75 21.8506C6.34 21.8506 6 21.5106 6 21.1006Z" fill="#7328CE"/>
<path d="M0.548828 12C0.548828 11.45 0.998828 11 1.54883 11C2.09883 11 2.54883 11.45 2.54883 12C2.54883 12.55 2.09883 13 1.54883 13C0.998828 13 0.548828 12.56 0.548828 12Z" fill="#7328CE"/>
<path d="M3 17.0002V16.9902C3 16.5802 3.34 16.2402 3.75 16.2402C4.16 16.2402 4.5 16.5802 4.5 16.9902C4.5 17.4002 4.16 17.7502 3.75 17.7502C3.34 17.7502 3 17.4202 3 17.0002Z" fill="#7328CE"/>
<path d="M3 7.00977C3 6.59977 3.34 6.25977 3.75 6.25977C4.16 6.25977 4.5 6.58977 4.5 6.99977V7.00977C4.5 7.41977 4.16 7.75977 3.75 7.75977C3.34 7.75977 3 7.41977 3 7.00977Z" fill="#7328CE"/>
<path d="M21.5 12C21.5 11.45 21.95 11 22.5 11C23.05 11 23.5 11.45 23.5 12C23.5 12.55 23.05 13 22.5 13C21.95 13 21.5 12.56 21.5 12Z" fill="#7328CE"/>
<path d="M19.5488 17.0002V16.9902C19.5488 16.5802 19.8888 16.2402 20.2988 16.2402C20.7088 16.2402 21.0488 16.5802 21.0488 16.9902C21.0488 17.4002 20.7088 17.7502 20.2988 17.7502C19.8888 17.7502 19.5488 17.4202 19.5488 17.0002Z" fill="#7328CE"/>
<path d="M19.5488 7.00977C19.5488 6.59977 19.8888 6.25977 20.2988 6.25977C20.7088 6.25977 21.0488 6.58977 21.0488 7.00977V7.01977C21.0488 7.41977 20.7088 7.75977 20.2988 7.75977C19.8888 7.75977 19.5488 7.41977 19.5488 7.00977Z" fill="#7328CE"/>
</g>
</svg>
