<svg width="24" height="24" viewBox="0 0 24 24" fill="none" xmlns="http://www.w3.org/2000/svg">
<mask id="mask0_251_28499" style="mask-type:luminance" maskUnits="userSpaceOnUse" x="0" y="0" width="24" height="24">
<rect width="24" height="24" fill="white"/>
</mask>
<g mask="url(#mask0_251_28499)">
<path d="M5.80859 12.0005C5.80859 8.59055 8.5886 5.81055 11.9986 5.81055C13.3486 5.81055 14.6386 6.24055 15.7186 7.05055C16.0486 7.30055 16.1186 7.77056 15.8686 8.10056C15.6186 8.43056 15.1486 8.50055 14.8186 8.25055C13.9986 7.63055 13.0286 7.31055 11.9986 7.31055C9.4186 7.31055 7.30859 9.41055 7.30859 12.0005C7.30859 14.5905 9.4086 16.6906 11.9986 16.6906C13.4786 16.6906 14.8386 16.0106 15.7386 14.8306C15.9886 14.5006 16.4586 14.4406 16.7886 14.6906C17.1186 14.9406 17.1786 15.4106 16.9286 15.7406C15.7486 17.2906 13.9486 18.1906 11.9986 18.1906C8.5886 18.1906 5.80859 15.4105 5.80859 12.0005Z" fill="#7328CE"/>
<path fill-rule="evenodd" clip-rule="evenodd" d="M15.5 10.17C15.5 9.11 16.36 8.25 17.42 8.25C18.48 8.25 19.34 9.11 19.34 10.17C19.34 11.23 18.48 12.09 17.42 12.09C16.36 12.09 15.5 11.23 15.5 10.17ZM17 10.17C17 10.4 17.19 10.59 17.42 10.59C17.65 10.59 17.84 10.4 17.84 10.17C17.84 9.94 17.65 9.75 17.42 9.75C17.19 9.75 17 9.94 17 10.17Z" fill="#7328CE"/>
<path fill-rule="evenodd" clip-rule="evenodd" d="M1.25 12C1.25 6.07 6.07 1.25 12 1.25C17.93 1.25 22.75 6.07 22.75 12C22.75 17.93 17.93 22.75 12 22.75C6.07 22.75 1.25 17.93 1.25 12ZM2.75 12C2.75 17.1 6.9 21.25 12 21.25C17.1 21.25 21.25 17.1 21.25 12C21.25 6.9 17.1 2.75 12 2.75C6.9 2.75 2.75 6.9 2.75 12Z" fill="#7328CE"/>
</g>
</svg>
