<svg width="24" height="24" viewBox="0 0 24 24" fill="none" xmlns="http://www.w3.org/2000/svg">
<path d="M3 22.75C2.59 22.75 2.25 22.41 2.25 22C2.25 21.59 2.59 21.25 3 21.25H21C21.41 21.25 21.75 21.59 21.75 22C21.75 22.41 21.41 22.75 21 22.75H3Z" fill="#7328CE"/>
<path fill-rule="evenodd" clip-rule="evenodd" d="M4 19.7499C3.04 19.7499 2.25 18.9599 2.25 17.9999V9.37988C2.25 8.41988 3.04 7.62988 4 7.62988H5.59998C6.55998 7.62988 7.34998 8.41988 7.34998 9.37988V17.9999C7.34998 18.9599 6.55998 19.7499 5.59998 19.7499H4ZM3.75 9.36987V17.9999C3.75 18.1399 3.86 18.2499 4 18.2499H5.59998C5.73998 18.2499 5.84998 18.1399 5.84998 17.9999V9.37988C5.84998 9.23988 5.73998 9.12988 5.59998 9.12988H4V9.11987C3.86 9.11987 3.75 9.22987 3.75 9.36987Z" fill="#7328CE"/>
<path fill-rule="evenodd" clip-rule="evenodd" d="M11.2012 19.7495C10.2412 19.7495 9.45117 18.9595 9.45117 17.9995V6.18945C9.45117 5.22945 10.2412 4.43945 11.2012 4.43945H12.8011C13.7611 4.43945 14.5511 5.22945 14.5511 6.18945V17.9995C14.5511 18.9595 13.7611 19.7495 12.8011 19.7495H11.2012ZM10.9512 6.18945V17.9995C10.9512 18.1395 11.0612 18.2495 11.2012 18.2495H12.8011C12.9411 18.2495 13.0511 18.1395 13.0511 17.9995V6.18945C13.0511 6.04945 12.9411 5.93945 12.8011 5.93945H11.2012C11.0612 5.93945 10.9512 6.04945 10.9512 6.18945Z" fill="#7328CE"/>
<path fill-rule="evenodd" clip-rule="evenodd" d="M18.4004 19.75C17.4404 19.75 16.6504 18.96 16.6504 18V3C16.6504 2.04 17.4404 1.25 18.4004 1.25H20.0004C20.9604 1.25 21.7504 2.04 21.7504 3V18C21.7504 18.96 20.9604 19.75 20.0004 19.75H18.4004ZM18.1504 3V18C18.1504 18.14 18.2604 18.25 18.4004 18.25H20.0004C20.1404 18.25 20.2504 18.14 20.2504 18V3C20.2504 2.86 20.1404 2.75 20.0004 2.75H18.4004C18.2604 2.75 18.1504 2.86 18.1504 3Z" fill="#7328CE"/>
</svg>
