<svg width="24" height="24" viewBox="0 0 24 24" fill="none" xmlns="http://www.w3.org/2000/svg">
<path fill-rule="evenodd" clip-rule="evenodd" d="M6.32031 18.1506C5.91031 18.1506 5.57031 17.8106 5.57031 17.4006V12.2806C5.57031 11.2406 6.4203 10.3906 7.4603 10.3906H10.1103C10.5203 10.3906 10.8603 10.7306 10.8603 11.1406V17.3906C10.8603 17.8106 10.5203 18.1506 10.1103 18.1506H6.32031ZM9.36029 16.6506V11.9006H7.4603C7.2503 11.9006 7.07031 12.0706 7.07031 12.2906V16.6506H9.36029Z" fill="#7328CE"/>
<path fill-rule="evenodd" clip-rule="evenodd" d="M10.0996 18.1497C9.68961 18.1497 9.34961 17.8097 9.34961 17.3997V7.73962C9.34961 6.69962 10.1996 5.84961 11.2396 5.84961H12.7596C13.7996 5.84961 14.6496 6.69962 14.6496 7.73962V17.3997C14.6396 17.8097 14.3096 18.1497 13.8896 18.1497H10.0996ZM13.1496 16.6497V7.73962C13.1496 7.52962 12.9796 7.34961 12.7596 7.34961H11.2396C11.0296 7.34961 10.8496 7.51962 10.8496 7.73962V16.6497H10.8596H13.1496Z" fill="#7328CE"/>
<path fill-rule="evenodd" clip-rule="evenodd" d="M13.8906 18.1497C13.4806 18.1497 13.1406 17.8097 13.1406 17.3997V12.8496C13.1406 12.4396 13.4806 12.0996 13.8906 12.0996H16.5406C17.5806 12.0996 18.4306 12.9496 18.4306 13.9896V17.3997C18.4306 17.8097 18.1006 18.1497 17.6806 18.1497H13.8906ZM16.9306 16.6497V13.9896C16.9306 13.7796 16.7606 13.5996 16.5406 13.5996H14.6406V16.6497H16.9306Z" fill="#7328CE"/>
<path fill-rule="evenodd" clip-rule="evenodd" d="M9 22.75C3.57 22.75 1.25 20.43 1.25 15V9C1.25 3.57 3.57 1.25 9 1.25H15C20.43 1.25 22.75 3.57 22.75 9V15C22.75 20.43 20.43 22.75 15 22.75H9ZM2.75 9V15C2.75 19.61 4.39 21.25 9 21.25H15C19.61 21.25 21.25 19.61 21.25 15V9C21.25 4.39 19.61 2.75 15 2.75H9C4.39 2.75 2.75 4.39 2.75 9Z" fill="#7328CE"/>
</svg>
