<svg width="24" height="24" viewBox="0 0 24 24" fill="none" xmlns="http://www.w3.org/2000/svg">
<mask id="mask0_251_28618" style="mask-type:luminance" maskUnits="userSpaceOnUse" x="0" y="0" width="24" height="24">
<rect width="24" height="24" fill="white"/>
</mask>
<g mask="url(#mask0_251_28618)">
<path fill-rule="evenodd" clip-rule="evenodd" d="M10.0011 14.7505V13.1505C9.2911 12.5605 8.87109 11.6905 8.87109 10.7505C8.87109 9.78051 9.31109 8.88051 10.0911 8.28051C10.8711 7.68051 11.8711 7.48052 12.8411 7.74052C13.9011 8.02052 14.7611 8.88052 15.0311 9.94052C15.3411 11.1505 14.9311 12.3905 14.0011 13.1505V14.7505C14.0011 15.8505 13.1011 16.7505 12.0011 16.7505C10.9011 16.7505 10.0011 15.8505 10.0011 14.7505ZM11.0111 9.47051C10.6111 9.78051 10.3811 10.2505 10.3811 10.7505C10.3811 11.3205 10.6711 11.8305 11.1511 12.1305L11.5111 12.3505V14.7505C11.5111 15.0305 11.7311 15.2505 12.0111 15.2505C12.2911 15.2505 12.5111 15.0305 12.5111 14.7505V12.3505L12.8711 12.1305C13.4911 11.7505 13.7711 11.0305 13.5911 10.3105C13.4511 9.78051 13.0011 9.33052 12.4711 9.19052C12.3011 9.15052 12.1511 9.13052 12.0011 9.13052C11.6411 9.13052 11.3011 9.25051 11.0111 9.47051Z" fill="#7328CE"/>
<path d="M1.25 12C1.25 6.07 6.07 1.25 12 1.25C16.74 1.25 20.86 4.29 22.27 8.8C22.39 9.2 22.17 9.62001 21.78 9.74001C21.38 9.86001 20.96 9.64 20.84 9.25C19.63 5.36 16.08 2.75 12.01 2.75C6.90999 2.75 2.75999 6.9 2.75999 12C2.75999 17.1 6.90999 21.25 12.01 21.25C16.07 21.25 19.62 18.65 20.83 14.78C20.95 14.38 21.37 14.17 21.77 14.29C22.17 14.41 22.38 14.84 22.26 15.23C20.84 19.73 16.72 22.75 12 22.75C6.07 22.75 1.25 17.93 1.25 12Z" fill="#7328CE"/>
</g>
</svg>
