<svg width="24" height="24" viewBox="0 0 24 24" fill="none" xmlns="http://www.w3.org/2000/svg">
<path d="M8 12.9502C7.59 12.9502 7.25 12.6102 7.25 12.2002C7.25 11.7902 7.59 11.4502 8 11.4502H15C15.41 11.4502 15.75 11.7902 15.75 12.2002C15.75 12.6102 15.41 12.9502 15 12.9502H8Z" fill="#7328CE"/>
<path d="M8 16.9502C7.59 16.9502 7.25 16.6102 7.25 16.2002C7.25 15.7902 7.59 15.4502 8 15.4502H12.38C12.79 15.4502 13.13 15.7902 13.13 16.2002C13.13 16.6102 12.79 16.9502 12.38 16.9502H8Z" fill="#7328CE"/>
<path fill-rule="evenodd" clip-rule="evenodd" d="M10 6.75C9.04 6.75 7.25 6.75 7.25 4C7.25 1.25 9.04 1.25 10 1.25H14C14.96 1.25 16.75 1.25 16.75 4C16.75 4.96 16.75 6.75 14 6.75H10ZM8.75 4C8.75 5.25 9.01 5.25 10 5.25H14C15.25 5.25 15.25 4.99 15.25 4C15.25 2.75 14.99 2.75 14 2.75H10C9.01 2.75 8.75 2.75 8.75 4Z" fill="#7328CE"/>
<path d="M9 22.7494C3.38 22.7494 2.25 20.1694 2.25 15.9994V9.99944C2.25 5.43944 3.9 3.48944 7.96 3.27944C8.36 3.25944 8.73 3.56944 8.75 3.98944C8.77 4.40944 8.45 4.74944 8.04 4.76944C5.2 4.92944 3.75 5.77944 3.75 9.99944V15.9994C3.75 19.6994 4.48 21.2494 9 21.2494H15C19.52 21.2494 20.25 19.6994 20.25 15.9994V9.99944C20.25 5.77944 18.8 4.92944 15.96 4.76944C15.55 4.74944 15.23 4.38944 15.25 3.97944C15.27 3.56944 15.63 3.24944 16.04 3.26944C20.1 3.48944 21.75 5.43944 21.75 9.98944V15.9894C21.75 20.1694 20.62 22.7494 15 22.7494H9Z" fill="#7328CE"/>
</svg>
