<svg width="24" height="24" viewBox="0 0 24 24" fill="none" xmlns="http://www.w3.org/2000/svg">
<path fill-rule="evenodd" clip-rule="evenodd" d="M11.3195 19.2703L6.6295 18.5303C5.1495 18.3003 4.0095 17.8903 3.1595 17.2903C0.969499 15.7703 1.0995 13.1603 1.3795 11.3303L2.1195 6.6403C2.7995 2.34029 5.0195 0.730295 9.3195 1.4003L14.0095 2.1403C16.2195 2.4903 19.1895 3.3803 19.3795 7.1103C19.4195 7.7503 19.3795 8.4803 19.2395 9.3403L18.5095 14.0303C17.9295 17.7003 16.2195 19.4203 13.0495 19.4203C12.5095 19.4203 11.9395 19.3703 11.3195 19.2703ZM3.5995 6.8803L2.8595 11.5703C2.3995 14.5203 3.2395 15.5203 4.0195 16.0703C4.6795 16.5403 5.6095 16.8603 6.8595 17.0503L11.5495 17.7903C15.0395 18.3403 16.4795 17.2903 17.0295 13.7903L17.7595 9.1003C17.8795 8.3503 17.9195 7.72029 17.8795 7.1903V7.18029C17.7695 5.0803 16.5795 4.0503 13.7695 3.6103L9.0895 2.8803C8.5095 2.7903 7.9995 2.7503 7.5295 2.7503C5.1495 2.7503 4.0695 3.9603 3.5995 6.8803Z" fill="#7328CE"/>
<path fill-rule="evenodd" clip-rule="evenodd" d="M11.7593 22.2L7.24928 20.7C4.67928 19.8499 3.28928 18.6299 2.86928 16.8499C2.79928 16.5499 2.91928 16.2299 3.17928 16.0599C3.43928 15.8899 3.77928 15.8899 4.02928 16.0699C4.68928 16.5399 5.60928 16.8599 6.85928 17.0499L11.5493 17.79C15.0393 18.34 16.4793 17.2899 17.0293 13.7899L17.7593 9.09995C17.8793 8.34995 17.9193 7.71995 17.8793 7.18995C17.8693 6.92995 17.9993 6.66995 18.2293 6.51995C18.4593 6.36995 18.7493 6.35995 18.9893 6.48995C21.6693 7.91995 22.3793 10.2099 21.2193 13.7099L19.7193 18.2199C19.0093 20.3399 18.0793 21.64 16.7793 22.29C16.1493 22.6 15.4593 22.75 14.6793 22.75C13.8293 22.75 12.8693 22.57 11.7593 22.2ZM7.71928 19.28L12.2293 20.78C13.9493 21.3499 15.1793 21.4 16.0993 20.95C17.0193 20.49 17.7193 19.4699 18.2893 17.7499L19.7893 13.2399C20.6093 10.7599 20.2893 9.43995 19.3393 8.54995C19.3193 8.79995 19.2793 9.05995 19.2393 9.33995L18.5093 14.0299C17.8293 18.33 15.6093 19.9399 11.3093 19.28L6.61928 18.54C6.30928 18.4799 6.00928 18.42 5.72928 18.36C6.20928 18.6799 6.84928 18.99 7.71928 19.28Z" fill="#7328CE"/>
<path fill-rule="evenodd" clip-rule="evenodd" d="M5.75 7.23023C5.75 5.86023 6.87 4.74023 8.24 4.74023C9.61 4.74023 10.73 5.86023 10.73 7.23023C10.73 8.60023 9.61 9.72023 8.24 9.72023C6.87 9.72023 5.75 8.60023 5.75 7.23023ZM7.25 7.24023C7.25 7.79023 7.69 8.23023 8.24 8.23023C8.78 8.23023 9.23 7.79023 9.23 7.24023C9.23 6.69023 8.78 6.25023 8.24 6.25023C7.7 6.25023 7.25 6.69023 7.25 7.24023Z" fill="#7328CE"/>
</svg>
