<svg width="24" height="24" viewBox="0 0 24 24" fill="none" xmlns="http://www.w3.org/2000/svg">
<path d="M12.4388 18.1395L10.3288 16.0295C10.0388 15.7395 10.0388 15.2595 10.3288 14.9695C10.6188 14.6795 11.0988 14.6795 11.3888 14.9695L13.4988 17.0795C13.7888 17.3695 13.7888 17.8495 13.4988 18.1395C13.3588 18.2895 13.1588 18.3595 12.9688 18.3595C12.7788 18.3595 12.5888 18.2895 12.4388 18.1395Z" fill="#7328CE"/>
<path d="M10.2995 18.1697C10.0095 17.8797 10.0095 17.3997 10.2995 17.1097L12.4095 14.9997C12.6995 14.7097 13.1795 14.7097 13.4695 14.9997C13.7595 15.2897 13.7595 15.7697 13.4695 16.0597L11.3595 18.1697C11.2195 18.3097 11.0295 18.3897 10.8295 18.3897C10.6395 18.3897 10.4495 18.3197 10.2995 18.1697Z" fill="#7328CE"/>
<path d="M5.5393 19.3406C2.5993 19.1306 1.2793 16.8706 1.2793 14.8506C1.2793 12.8306 2.5993 10.5706 5.4893 10.3706C5.8893 10.3306 6.2593 10.6506 6.2893 11.0706C6.3193 11.4906 6.0093 11.8406 5.5893 11.8706C3.6493 12.0106 2.7793 13.4706 2.7793 14.8606C2.7793 16.2506 3.6493 17.7106 5.5893 17.8506H7.4593C7.8693 17.8506 8.2093 18.1906 8.2093 18.6006C8.2093 19.0106 7.8693 19.3406 7.4593 19.3406H5.5393Z" fill="#7328CE"/>
<path d="M16.6189 19.34C16.2089 19.34 15.8289 19 15.8289 18.59C15.8289 18.16 16.1589 17.84 16.5689 17.84C17.8089 17.84 18.8989 17.41 19.7589 16.64C21.3189 15.28 21.4189 13.32 20.9989 11.94C20.5789 10.57 19.4089 9 17.3689 8.75C17.0389 8.71 16.7789 8.46001 16.7189 8.13001C16.3189 5.73001 15.0289 4.07 13.0689 3.47C11.0389 2.84 8.68894 3.46 7.21895 5C5.78895 6.49 5.45895 8.58001 6.28895 10.88C6.42895 11.27 6.22895 11.7 5.83895 11.84C5.44895 11.98 5.01895 11.78 4.87895 11.39C3.86895 8.57 4.32895 5.87 6.13895 3.97C7.98895 2.03 10.9589 1.26 13.5089 2.04C15.8489 2.76 17.4989 4.69 18.0989 7.37C20.1489 7.83 21.7789 9.38001 22.4289 11.52C23.1389 13.85 22.4989 16.25 20.7589 17.77C19.6389 18.77 18.1889 19.34 16.6689 19.34C16.6489 19.34 16.6389 19.34 16.6189 19.34Z" fill="#7328CE"/>
<path fill-rule="evenodd" clip-rule="evenodd" d="M7.08 19.4803C6.97 19.3103 6.86 19.1003 6.77 18.8903C6.43 18.1803 6.25 17.3803 6.25 16.5303C6.25 13.3603 8.83 10.7803 12 10.7803C15.17 10.7803 17.75 13.3603 17.75 16.5303C17.75 17.3803 17.57 18.1803 17.22 18.9203C17.14 19.1103 17.03 19.3103 16.91 19.5003C15.89 21.2103 14.01 22.2803 12 22.2803C9.99 22.2803 8.11 21.2103 7.08 19.4803ZM7.75 16.5303C7.75 17.1503 7.88 17.7403 8.13 18.2603C8.21 18.4303 8.28 18.5703 8.36 18.7003C9.12 19.9903 10.51 20.7803 11.99 20.7803C13.47 20.7803 14.86 19.9903 15.61 18.7203C15.7 18.5703 15.77 18.4403 15.84 18.2903C16.11 17.7403 16.24 17.1603 16.24 16.5303C16.25 14.1903 14.34 12.2803 12 12.2803C9.66 12.2803 7.75 14.1903 7.75 16.5303Z" fill="#7328CE"/>
</svg>
