<svg width="24" height="24" viewBox="0 0 24 24" fill="none" xmlns="http://www.w3.org/2000/svg">
<path fill-rule="evenodd" clip-rule="evenodd" d="M16.6391 20.8306H5.54906C2.60906 20.6206 1.28906 18.3606 1.28906 16.3406C1.28906 14.5406 2.33906 12.5406 4.62906 11.9906C3.98906 9.49057 4.52906 7.14057 6.15906 5.44057C8.00906 3.50057 10.9791 2.73057 13.5291 3.52057C15.8691 4.24057 17.5191 6.17057 18.1191 8.85057C20.1691 9.31057 21.7991 10.8606 22.4591 13.0006C23.1691 15.3306 22.5291 17.7206 20.7791 19.2506C19.6591 20.2606 18.1991 20.8306 16.6791 20.8306C16.6691 20.8306 16.6491 20.8306 16.6391 20.8306ZM5.54906 13.3506C3.64906 13.4906 2.77906 14.9506 2.77906 16.3406C2.77906 17.7306 3.64906 19.1906 5.58906 19.3306H16.6291C17.7891 19.3106 18.8991 18.9106 19.7591 18.1306C21.3191 16.7606 21.4291 14.8106 21.0091 13.4406C20.5891 12.0606 19.4191 10.5006 17.3791 10.2406C17.0491 10.2006 16.7891 9.95057 16.7291 9.62057C16.3291 7.22057 15.0291 5.56057 13.0791 4.96057C11.0491 4.34057 8.70906 4.95057 7.23906 6.48057C5.90906 7.87057 5.52906 9.79057 6.14906 11.9006C6.65906 11.9706 7.14906 12.1206 7.59906 12.3506C7.96906 12.5406 8.11906 12.9906 7.92906 13.3606C7.73906 13.7306 7.28906 13.8806 6.91906 13.6906C6.50906 13.4806 6.05906 13.3706 5.60906 13.3706C5.59906 13.3506 5.58906 13.3506 5.56906 13.3506C5.55906 13.3506 5.55906 13.3506 5.54906 13.3506Z" fill="#7328CE"/>
<path d="M15.18 10.2502C14.99 9.88022 15.15 9.43022 15.52 9.24022C16.14 8.93022 16.83 8.76022 17.51 8.75022C17.91 8.74022 18.27 9.07022 18.27 9.49022C18.28 9.90022 17.95 10.2502 17.53 10.2502C17.07 10.2602 16.6 10.3702 16.18 10.5802C16.07 10.6402 15.96 10.6702 15.85 10.6702C15.57 10.6702 15.31 10.5202 15.18 10.2502Z" fill="#7328CE"/>
</svg>
