<svg width="24" height="24" viewBox="0 0 24 24" fill="none" xmlns="http://www.w3.org/2000/svg">
<path fill-rule="evenodd" clip-rule="evenodd" d="M16.0188 16.7502H6.35883C3.72883 16.5702 2.54883 14.5502 2.54883 12.7502C2.54883 11.1702 3.45884 9.42019 5.43884 8.90019C4.91884 6.73019 5.39884 4.70013 6.80884 3.22013C8.44884 1.50013 11.0688 0.820184 13.3388 1.52018C15.3988 2.15018 16.8489 3.83014 17.3889 6.16014C19.1789 6.59014 20.6088 7.95018 21.1788 9.83018C21.8088 11.8902 21.2288 14.0001 19.6788 15.3501C18.7088 16.2501 17.4188 16.7502 16.0588 16.7502C16.0488 16.7502 16.0388 16.7502 16.0188 16.7502ZM4.06885 12.7502C4.06885 13.9102 4.79883 15.1302 6.42883 15.2502H16.0388C16.0488 15.2502 16.0588 15.2502 16.0688 15.2502C17.0488 15.2502 17.9889 14.8901 18.6989 14.2301C20.0189 13.0801 20.1089 11.4302 19.7589 10.2602C19.3988 9.09017 18.4089 7.77015 16.6689 7.55015C16.3389 7.51015 16.0788 7.26016 16.0188 6.93016C15.6788 4.88016 14.5688 3.47019 12.9088 2.96019C11.1988 2.44019 9.14884 2.97018 7.90884 4.27018C6.69884 5.54018 6.41884 7.31018 7.11884 9.27018C7.25884 9.66018 7.05885 10.0901 6.66885 10.2301C6.57885 10.2501 6.49883 10.2702 6.39883 10.2602C4.78883 10.3902 4.06885 11.6002 4.06885 12.7502Z" fill="#7328CE"/>
<path d="M11.25 19V16C11.25 15.59 11.59 15.25 12 15.25C12.41 15.25 12.75 15.59 12.75 16V19C12.75 19.41 12.41 19.75 12 19.75C11.59 19.75 11.25 19.41 11.25 19Z" fill="#7328CE"/>
<path fill-rule="evenodd" clip-rule="evenodd" d="M9.25 21C9.25 19.48 10.48 18.25 12 18.25C13.52 18.25 14.75 19.48 14.75 21C14.75 22.52 13.52 23.75 12 23.75C10.48 23.75 9.25 22.52 9.25 21ZM10.75 21C10.75 21.69 11.31 22.25 12 22.25C12.69 22.25 13.25 21.69 13.25 21C13.25 20.31 12.69 19.75 12 19.75C11.31 19.75 10.75 20.31 10.75 21Z" fill="#7328CE"/>
<path d="M14 21.75C13.59 21.75 13.25 21.41 13.25 21C13.25 20.59 13.59 20.25 14 20.25H18C18.41 20.25 18.75 20.59 18.75 21C18.75 21.41 18.41 21.75 18 21.75H14Z" fill="#7328CE"/>
<path d="M6 21.75C5.59 21.75 5.25 21.41 5.25 21C5.25 20.59 5.59 20.25 6 20.25H10C10.41 20.25 10.75 20.59 10.75 21C10.75 21.41 10.41 21.75 10 21.75H6Z" fill="#7328CE"/>
</svg>
