<svg width="24" height="24" viewBox="0 0 24 24" fill="none" xmlns="http://www.w3.org/2000/svg">
<path d="M7.46945 14.5305L5.46945 12.5305C5.17945 12.2405 5.17945 11.7604 5.46945 11.4704L7.46945 9.47043C7.75945 9.18043 8.23945 9.18043 8.52945 9.47043C8.81945 9.76043 8.81945 10.2405 8.52945 10.5305L7.05945 12.0005L8.52945 13.4704C8.81945 13.7604 8.81945 14.2405 8.52945 14.5305C8.37945 14.6805 8.18945 14.7505 7.99945 14.7505C7.80945 14.7505 7.61945 14.6805 7.46945 14.5305Z" fill="#7328CE"/>
<path d="M15.4695 14.5305C15.1795 14.2405 15.1795 13.7604 15.4695 13.4704L16.9395 12.0005L15.4695 10.5305C15.1795 10.2405 15.1795 9.76043 15.4695 9.47043C15.7595 9.18043 16.2395 9.18043 16.5295 9.47043L18.5295 11.4704C18.8195 11.7604 18.8195 12.2405 18.5295 12.5305L16.5295 14.5305C16.3795 14.6805 16.1895 14.7505 15.9995 14.7505C15.8095 14.7505 15.6195 14.6805 15.4695 14.5305Z" fill="#7328CE"/>
<path fill-rule="evenodd" clip-rule="evenodd" d="M1.25 12C1.25 6.07 6.07 1.25 12 1.25C17.93 1.25 22.75 6.07 22.75 12C22.75 17.93 17.93 22.75 12 22.75C6.07 22.75 1.25 17.93 1.25 12ZM2.75 12C2.75 17.1 6.9 21.25 12 21.25C17.1 21.25 21.25 17.1 21.25 12C21.25 6.9 17.1 2.75 12 2.75C6.9 2.75 2.75 6.9 2.75 12Z" fill="#7328CE"/>
<path d="M10.7101 15.0196C10.3301 14.8596 10.1501 14.4196 10.3201 14.0296L12.3201 9.35955C12.4801 8.97955 12.9201 8.79954 13.3001 8.96954C13.6801 9.12954 13.8601 9.56959 13.6901 9.95959L11.6901 14.6296C11.5701 14.9096 11.2901 15.0796 11.0001 15.0796C10.9001 15.0796 10.8001 15.0596 10.7101 15.0196Z" fill="#7328CE"/>
</svg>
