<svg width="24" height="24" viewBox="0 0 24 24" fill="none" xmlns="http://www.w3.org/2000/svg">
<path d="M8.67094 17.6694C7.90094 17.2794 7.24094 16.6994 6.76094 15.9794C6.36094 15.3794 6.36094 14.6094 6.76094 14.0094C7.24094 13.2894 7.90094 12.7094 8.67094 12.3294C9.04094 12.1394 9.49094 12.2994 9.68094 12.6694C9.87094 13.0394 9.72094 13.4894 9.34094 13.6794C8.80094 13.9494 8.34094 14.3594 8.01094 14.8594C7.95094 14.9494 7.95094 15.0694 8.01094 15.1694C8.34094 15.6694 8.80094 16.0794 9.34094 16.3494C9.71094 16.5394 9.86094 16.9894 9.68094 17.3594C9.54094 17.5994 9.27094 17.7494 9.00094 17.7494C8.89094 17.7494 8.77094 17.7194 8.67094 17.6694Z" fill="#7328CE"/>
<path d="M14.5392 17.3394C14.3492 16.9694 14.4992 16.5194 14.8792 16.3294C15.4192 16.0594 15.8792 15.6494 16.2092 15.1494C16.2692 15.0594 16.2692 14.9394 16.2092 14.8394C15.8792 14.3394 15.4192 13.9294 14.8792 13.6594C14.5092 13.4694 14.3592 13.0194 14.5392 12.6494C14.7292 12.2794 15.1792 12.1294 15.5492 12.3094C16.3192 12.6994 16.9792 13.2794 17.4592 13.9994C17.8592 14.5994 17.8592 15.3694 17.4592 15.9694C16.9792 16.6894 16.3192 17.2694 15.5492 17.6494C15.4292 17.7194 15.3192 17.7494 15.2092 17.7494C14.9292 17.7494 14.6692 17.5994 14.5392 17.3394Z" fill="#7328CE"/>
<path fill-rule="evenodd" clip-rule="evenodd" d="M9 22.75C3.57 22.75 1.25 20.43 1.25 15V9C1.25 3.57 3.57 1.25 9 1.25H15C20.43 1.25 22.75 3.57 22.75 9V15C22.75 20.43 20.43 22.75 15 22.75H9ZM2.75 9V15C2.75 19.61 4.39 21.25 9 21.25H15C19.61 21.25 21.25 19.61 21.25 15V9C21.25 4.39 19.61 2.75 15 2.75H9C4.39 2.75 2.75 4.39 2.75 9Z" fill="#7328CE"/>
<path d="M1.48047 8.01C1.48047 7.6 1.81047 7.26 2.23047 7.26L21.4505 7.25C21.8605 7.25 22.2005 7.59 22.2005 8C22.2005 8.41 21.8705 8.75 21.4505 8.75L2.23047 8.76C1.82047 8.76 1.48047 8.42 1.48047 8.01Z" fill="#7328CE"/>
</svg>
