<svg width="24" height="24" viewBox="0 0 24 24" fill="none" xmlns="http://www.w3.org/2000/svg">
<path fill-rule="evenodd" clip-rule="evenodd" d="M5.25 14.3994C5.25 12.4394 6.57002 10.7094 8.46002 10.1994C8.83002 10.0994 9.20998 10.2894 9.34998 10.6494C9.67998 11.4794 10.39 12.1194 11.25 12.3494C11.72 12.4794 12.28 12.4794 12.75 12.3494C13.12 12.2494 13.51 12.4394 13.65 12.7894C13.85 13.2994 13.95 13.8394 13.95 14.3894C13.95 15.6294 13.42 16.8094 12.5 17.6294C11.71 18.3494 10.68 18.7494 9.59998 18.7494C7.19998 18.7494 5.25 16.7994 5.25 14.3994ZM6.75 14.3994C6.75 15.9694 8.02998 17.2494 9.59998 17.2494C10.3 17.2494 10.98 16.9894 11.5 16.5194C12.11 15.9794 12.45 15.2094 12.45 14.3994C12.45 14.2394 12.44 14.0894 12.41 13.9294C11.88 13.9794 11.34 13.9294 10.85 13.7894C9.77998 13.4994 8.85998 12.7994 8.28998 11.8694C7.35998 12.3494 6.75 13.3194 6.75 14.3994Z" fill="#7328CE"/>
<path fill-rule="evenodd" clip-rule="evenodd" d="M10.8502 13.7998C9.54016 13.4398 8.46021 12.4698 7.96021 11.2098C7.76021 10.6998 7.66016 10.1598 7.66016 9.60977C7.66016 7.20977 9.61019 5.25977 12.0102 5.25977C14.4102 5.25977 16.3602 7.20977 16.3602 9.60977C16.3602 10.1598 16.2602 10.6998 16.0602 11.2098C15.5602 12.4798 14.4702 13.4498 13.1602 13.7998C12.7902 13.8998 12.4002 13.9498 12.0002 13.9498C11.6002 13.9498 11.2102 13.8998 10.8502 13.7998ZM9.15021 9.59977C9.15021 9.95977 9.22016 10.3198 9.35016 10.6498C9.68016 11.4798 10.3902 12.1198 11.2502 12.3498C11.7202 12.4798 12.2802 12.4798 12.7502 12.3498C13.6202 12.1098 14.3302 11.4798 14.6502 10.6498C14.7802 10.3198 14.8502 9.95977 14.8502 9.59977C14.8502 8.02977 13.5702 6.74977 12.0002 6.74977C10.4302 6.74977 9.15021 8.02977 9.15021 9.59977Z" fill="#7328CE"/>
<path fill-rule="evenodd" clip-rule="evenodd" d="M11.5 17.6305C11.34 17.4905 11.25 17.2805 11.25 17.0705C11.25 16.8605 11.34 16.6505 11.5 16.5105C12.1 15.9805 12.45 15.2105 12.45 14.4005C12.45 14.0405 12.38 13.6805 12.25 13.3505C12.17 13.1505 12.18 12.9305 12.28 12.7405C12.37 12.5505 12.55 12.4105 12.75 12.3505C13.61 12.1105 14.32 11.4805 14.65 10.6505C14.79 10.3005 15.17 10.1005 15.54 10.2005C17.43 10.7105 18.75 12.4405 18.75 14.4005C18.75 16.8005 16.8 18.7505 14.4 18.7505C13.32 18.7505 12.29 18.3505 11.5 17.6305ZM14.4 17.2505C15.97 17.2505 17.25 15.9705 17.25 14.4005C17.25 13.3205 16.64 12.3505 15.71 11.8705C15.27 12.5905 14.62 13.1705 13.86 13.5305C13.92 13.8105 13.95 14.1005 13.95 14.4005C13.95 15.3205 13.66 16.2105 13.12 16.9505C13.51 17.1505 13.95 17.2505 14.4 17.2505Z" fill="#7328CE"/>
<path fill-rule="evenodd" clip-rule="evenodd" d="M9 22.75C3.57 22.75 1.25 20.43 1.25 15V9C1.25 3.57 3.57 1.25 9 1.25H15C20.43 1.25 22.75 3.57 22.75 9V15C22.75 20.43 20.43 22.75 15 22.75H9ZM2.75 9V15C2.75 19.61 4.39 21.25 9 21.25H15C19.61 21.25 21.25 19.61 21.25 15V9C21.25 4.39 19.61 2.75 15 2.75H9C4.39 2.75 2.75 4.39 2.75 9Z" fill="#7328CE"/>
</svg>
