<svg width="24" height="24" viewBox="0 0 24 24" fill="none" xmlns="http://www.w3.org/2000/svg">
<path fill-rule="evenodd" clip-rule="evenodd" d="M9.59961 15.1506C9.18961 15.1506 8.84961 14.8106 8.84961 14.4006V9.60059C8.84961 9.19059 9.18961 8.85059 9.59961 8.85059H14.3997C14.8097 8.85059 15.1497 9.19059 15.1497 9.60059V14.4006C15.1497 14.8106 14.8097 15.1506 14.3997 15.1506H9.59961ZM13.6497 13.6506V10.3506H10.3496V13.6506H13.6497Z" fill="#7328CE"/>
<path fill-rule="evenodd" clip-rule="evenodd" d="M5.25 16.1994C5.25 14.7894 6.38999 13.6494 7.79999 13.6494H9.59998C10.01 13.6494 10.35 13.9894 10.35 14.3994V16.1994C10.35 17.6094 9.20999 18.7494 7.79999 18.7494C6.38999 18.7494 5.25 17.6094 5.25 16.1994ZM6.75 16.1994C6.75 16.7794 7.21999 17.2494 7.79999 17.2494C8.37999 17.2494 8.84998 16.7794 8.84998 16.1994V15.1494H7.79999C7.21999 15.1494 6.75 15.6194 6.75 16.1994Z" fill="#7328CE"/>
<path fill-rule="evenodd" clip-rule="evenodd" d="M7.79999 10.35C6.38999 10.35 5.25 9.20999 5.25 7.79999C5.25 6.38999 6.38999 5.25 7.79999 5.25C9.20999 5.25 10.35 6.38999 10.35 7.79999V9.60001C10.35 10.01 10.01 10.35 9.59998 10.35H7.79999ZM6.75 7.79999C6.75 8.37999 7.21999 8.85001 7.79999 8.85001H8.84998V7.79999C8.84998 7.21999 8.37999 6.75 7.79999 6.75C7.21999 6.75 6.75 7.21999 6.75 7.79999Z" fill="#7328CE"/>
<path fill-rule="evenodd" clip-rule="evenodd" d="M14.4004 10.35C13.9904 10.35 13.6504 10.01 13.6504 9.60001V7.79999C13.6504 6.38999 14.7904 5.25 16.2004 5.25C17.6104 5.25 18.7504 6.38999 18.7504 7.79999C18.7504 9.20999 17.6104 10.35 16.2004 10.35H14.4004ZM16.2004 8.85001C16.7804 8.85001 17.2504 8.37999 17.2504 7.79999C17.2504 7.21999 16.7804 6.75 16.2004 6.75C15.6204 6.75 15.1504 7.21999 15.1504 7.79999V8.85001H16.2004Z" fill="#7328CE"/>
<path fill-rule="evenodd" clip-rule="evenodd" d="M13.6504 16.1994V14.3994C13.6504 13.9894 13.9904 13.6494 14.4004 13.6494H16.2004C17.6104 13.6494 18.7504 14.7894 18.7504 16.1994C18.7504 17.6094 17.6104 18.7494 16.2004 18.7494C14.7904 18.7494 13.6504 17.6094 13.6504 16.1994ZM15.1504 16.1994C15.1504 16.7794 15.6204 17.2494 16.2004 17.2494C16.7804 17.2494 17.2504 16.7794 17.2504 16.1994C17.2504 15.6194 16.7804 15.1494 16.2004 15.1494H15.1504V16.1994Z" fill="#7328CE"/>
<path fill-rule="evenodd" clip-rule="evenodd" d="M9 22.75C3.57 22.75 1.25 20.43 1.25 15V9C1.25 3.57 3.57 1.25 9 1.25H15C20.43 1.25 22.75 3.57 22.75 9V15C22.75 20.43 20.43 22.75 15 22.75H9ZM2.75 9V15C2.75 19.61 4.39 21.25 9 21.25H15C19.61 21.25 21.25 19.61 21.25 15V9C21.25 4.39 19.61 2.75 15 2.75H9C4.39 2.75 2.75 4.39 2.75 9Z" fill="#7328CE"/>
</svg>
