<svg width="24" height="24" viewBox="0 0 24 24" fill="none" xmlns="http://www.w3.org/2000/svg">
<path fill-rule="evenodd" clip-rule="evenodd" d="M8.91977 21.4805L2.52975 15.0905C1.70975 14.2705 1.25977 13.1705 1.25977 12.0105C1.25977 10.8505 1.70975 9.75048 2.52975 8.93048L8.91977 2.54047C9.73977 1.72047 10.8398 1.27051 11.9998 1.27051C13.1598 1.27051 14.2597 1.72047 15.0797 2.54047L21.4698 8.93048C22.2898 9.75048 22.7397 10.8505 22.7397 12.0105C22.7397 13.1705 22.2898 14.2705 21.4698 15.0905L15.0797 21.4805C14.2597 22.3005 13.1698 22.7505 11.9998 22.7505C10.8298 22.7505 9.73977 22.3005 8.91977 21.4805ZM9.97977 3.58051L3.58975 9.97046C3.04975 10.5105 2.75977 11.2305 2.75977 11.9905C2.75977 12.7505 3.05975 13.4805 3.58975 14.0105L9.97977 20.4005C11.0498 21.4705 12.9497 21.4705 14.0197 20.4005L20.4098 14.0105C20.9498 13.4705 21.2397 12.7605 21.2397 11.9905C21.2397 11.2205 20.9398 10.5005 20.4098 9.97046L14.0197 3.58051C13.4897 3.05051 12.7698 2.75049 11.9998 2.75049C11.2298 2.75049 10.5098 3.05051 9.97977 3.58051Z" fill="#7328CE"/>
</svg>
