<svg width="24" height="24" viewBox="0 0 24 24" fill="none" xmlns="http://www.w3.org/2000/svg">
<path fill-rule="evenodd" clip-rule="evenodd" d="M1.27734 12.005C1.27734 6.08732 6.08732 1.27734 12.005 1.27734C17.9227 1.27734 22.7326 6.08732 22.7326 12.005C22.7326 17.9227 17.9127 22.7326 12.005 22.7326C6.08732 22.7326 1.27734 17.9227 1.27734 12.005ZM2.77423 12.005C2.77423 17.0944 6.9156 21.2358 12.005 21.2358C17.0944 21.2358 21.2358 17.0944 21.2358 12.005C21.2358 6.9156 17.0944 2.77423 12.005 2.77423C6.9156 2.77423 2.77423 6.9156 2.77423 12.005Z" fill="#7328CE"/>
<path d="M13.7707 12.7342L5.60767 4.55121C5.31828 4.26181 5.31828 3.78281 5.60767 3.49342C5.89707 3.20402 6.37607 3.20402 6.66547 3.49342L13.5611 10.399L13.5711 7.66473C13.5711 7.25558 13.9104 6.91628 14.3195 6.91628C14.7287 6.88635 15.068 7.25558 15.068 7.66473L15.058 12.2053C15.058 12.5046 14.8784 12.7841 14.5989 12.8938C14.4991 12.9337 14.3994 12.9537 14.2996 12.9537C14.1 12.9537 13.9104 12.8739 13.7707 12.7342Z" fill="#7328CE"/>
<path d="M17.3341 20.5067L10.4385 13.6011L10.4285 16.3354C10.4285 16.7445 10.0892 17.0838 9.68008 17.0838C9.27093 17.0838 8.93164 16.7445 8.93164 16.3354L8.94162 11.7948C8.94162 11.4954 9.12125 11.216 9.40066 11.1063C9.68008 10.9865 9.99942 11.0564 10.219 11.2659L18.382 19.4489C18.6714 19.7383 18.6714 20.2173 18.382 20.5067C18.2522 20.6564 18.0526 20.7262 17.863 20.7262C17.6734 20.7262 17.4838 20.6564 17.3341 20.5067Z" fill="#7328CE"/>
</svg>
