<svg width="24" height="24" viewBox="0 0 24 24" fill="none" xmlns="http://www.w3.org/2000/svg">
<path d="M2 22.75C1.59 22.75 1.25 22.41 1.25 22C1.25 21.59 1.59 21.25 2 21.25H22C22.41 21.25 22.75 21.59 22.75 22C22.75 22.41 22.41 22.75 22 22.75H2Z" fill="#7328CE"/>
<path fill-rule="evenodd" clip-rule="evenodd" d="M11.72 5.69044C11.44 5.58044 11.25 5.30043 11.25 4.99043V1.99043C11.25 1.74043 11.37 1.51043 11.58 1.37043C11.79 1.23043 12.05 1.20042 12.28 1.29042C13.71 1.86042 15.29 1.86042 16.72 1.29042C16.95 1.20042 17.21 1.23043 17.42 1.37043C17.63 1.51043 17.75 1.74043 17.75 1.99043V4.99043C17.75 5.30043 17.56 5.57044 17.28 5.69044C16.38 6.05044 15.44 6.23042 14.5 6.23042C13.56 6.23042 12.62 6.05044 11.72 5.69044ZM16.25 4.47041V3.02046C15.1 3.30046 13.9 3.30046 12.75 3.02046V4.47041C13.89 4.82041 15.11 4.82041 16.25 4.47041Z" fill="#7328CE"/>
<path d="M11.25 8V5C11.25 4.59 11.59 4.25 12 4.25C12.41 4.25 12.75 4.59 12.75 5V8C12.75 8.41 12.41 8.75 12 8.75C11.59 8.75 11.25 8.41 11.25 8Z" fill="#7328CE"/>
<path fill-rule="evenodd" clip-rule="evenodd" d="M4 22.75C3.59 22.75 3.25 22.41 3.25 22V11C3.25 8.58 4.58 7.25 7 7.25H17C19.42 7.25 20.75 8.58 20.75 11V22C20.75 22.41 20.41 22.75 20 22.75H4ZM19.25 21.25V11C19.25 9.42 18.58 8.75 17 8.75H7C5.42 8.75 4.75 9.42 4.75 11V21.25H19.25Z" fill="#7328CE"/>
<path d="M4.58008 12.75C4.17008 12.75 3.83008 12.41 3.83008 12C3.83008 11.59 4.17008 11.25 4.58008 11.25H19.4201C19.8301 11.25 20.1701 11.59 20.1701 12C20.1701 12.41 19.8301 12.75 19.4201 12.75H4.58008Z" fill="#7328CE"/>
<path fill-rule="evenodd" clip-rule="evenodd" d="M8.74023 12V22H7.24023V12H8.74023Z" fill="#7328CE"/>
<path fill-rule="evenodd" clip-rule="evenodd" d="M12.7402 12V22H11.2402V12H12.7402Z" fill="#7328CE"/>
<path fill-rule="evenodd" clip-rule="evenodd" d="M16.7402 12V22H15.2402V12H16.7402Z" fill="#7328CE"/>
</svg>
