<svg width="24" height="24" viewBox="0 0 24 24" fill="none" xmlns="http://www.w3.org/2000/svg">
<path fill-rule="evenodd" clip-rule="evenodd" d="M7.30042 19.7295C6.56042 19.7295 5.81042 19.1995 5.56042 18.5095L1.42042 6.91949C0.910423 5.45949 1.28042 4.78949 1.68042 4.48949C2.08042 4.18949 2.83042 4.00949 4.09042 4.90949L7.99042 7.69949C8.11042 7.76949 8.22042 7.79949 8.30042 7.77949C8.39042 7.74949 8.46042 7.66949 8.51042 7.52949L10.2704 2.83949C10.8004 1.43949 11.5804 1.22949 12.0004 1.22949C12.4204 1.22949 13.2004 1.43949 13.7304 2.83949L15.4904 7.52949C15.5404 7.65949 15.6104 7.74949 15.7004 7.77949C15.7904 7.80949 15.9004 7.77949 16.0104 7.68949L19.6704 5.07949C21.0104 4.11949 21.7904 4.30949 22.2204 4.61949C22.6404 4.93949 23.0304 5.64949 22.4804 7.19949L18.4404 18.5095C18.1904 19.1995 17.4404 19.7295 16.7004 19.7295H7.30042ZM2.84042 6.40949L6.98042 17.9995C7.02042 18.0995 7.20042 18.2295 7.30042 18.2295H16.7004C16.8104 18.2295 16.9904 18.0995 17.0204 17.9995L21.0604 6.69949C21.2004 6.31949 21.2404 6.05949 21.2504 5.90949C21.1004 5.95949 20.8704 6.06949 20.5404 6.30949L16.8804 8.91949C16.3804 9.26949 15.7904 9.37949 15.2604 9.21949C14.7304 9.05949 14.3004 8.63949 14.0804 8.06949L12.3204 3.37949C12.1904 3.02949 12.0704 2.85949 12.0004 2.77949C11.9304 2.85949 11.8104 3.02949 11.6804 3.36949L9.92042 8.05949C9.71042 8.62949 9.28042 9.04949 8.74042 9.20949C8.21042 9.36949 7.61042 9.25949 7.12042 8.90949L3.22042 6.11949C2.99042 5.95949 2.81042 5.85949 2.68042 5.80949C2.70042 5.94949 2.74042 6.14949 2.84042 6.40949Z" fill="#7328CE"/>
<path d="M6.5 22.75C6.09 22.75 5.75 22.41 5.75 22C5.75 21.59 6.09 21.25 6.5 21.25H17.5C17.91 21.25 18.25 21.59 18.25 22C18.25 22.41 17.91 22.75 17.5 22.75H6.5Z" fill="#7328CE"/>
<path d="M9.5 14.75C9.09 14.75 8.75 14.41 8.75 14C8.75 13.59 9.09 13.25 9.5 13.25H14.5C14.91 13.25 15.25 13.59 15.25 14C15.25 14.41 14.91 14.75 14.5 14.75H9.5Z" fill="#7328CE"/>
</svg>
