<svg width="24" height="24" viewBox="0 0 24 24" fill="none" xmlns="http://www.w3.org/2000/svg">
<mask id="mask0_251_28476" style="mask-type:luminance" maskUnits="userSpaceOnUse" x="0" y="0" width="24" height="24">
<rect width="24" height="24" fill="white"/>
</mask>
<g mask="url(#mask0_251_28476)">
<path fill-rule="evenodd" clip-rule="evenodd" d="M3.94032 21.25C3.71032 21.25 3.49032 21.14 3.35032 20.96C3.21032 20.78 3.16032 20.54 3.21032 20.32L4.27032 16.07C4.35032 15.74 4.65032 15.5 5.00032 15.5H12.4403C15.3403 15.5 17.0003 13.84 17.0003 10.94V10.75C17.0003 9.15 16.3503 8.5 14.7503 8.5H6.06032C5.83032 8.5 5.61032 8.39001 5.47032 8.21001C5.33032 8.03001 5.28032 7.79001 5.33032 7.57001L6.39032 3.32001C6.47032 2.99001 6.77032 2.75 7.12032 2.75H16.0003C20.1603 2.75 22.7503 5.34 22.7503 9.5V12C22.7503 17.71 19.2103 21.25 13.5003 21.25H3.94032ZM13.5003 19.75C18.3503 19.75 21.2503 16.85 21.2503 12V9.5C21.2503 6.16 19.3403 4.25 16.0003 4.25H7.71032L7.02032 7H14.7503C17.1703 7 18.5003 8.33 18.5003 10.75V10.94C18.5003 14.68 16.1803 17 12.4403 17H5.59032L4.90032 19.75H13.5003Z" fill="#7328CE"/>
<path fill-rule="evenodd" clip-rule="evenodd" d="M2.00086 14.2498C1.77086 14.2498 1.55086 14.1398 1.41086 13.9598C1.27086 13.7798 1.22086 13.5398 1.27086 13.3198L1.64086 11.8398C1.95086 10.6098 3.04086 9.75977 4.31086 9.75977H11.5009C11.7309 9.75977 11.9509 9.86977 12.0909 10.0498C12.2309 10.2298 12.2809 10.4698 12.2309 10.6898L11.8609 12.1698C11.5509 13.3898 10.4509 14.2498 9.19086 14.2498H2.00086ZM9.19086 12.7498C9.76086 12.7498 10.2609 12.3598 10.4009 11.7998L10.5409 11.2498H4.31086C3.74086 11.2498 3.24086 11.6398 3.10086 12.1998L2.96086 12.7498H9.19086Z" fill="#7328CE"/>
</g>
</svg>
