<svg width="24" height="24" viewBox="0 0 24 24" fill="none" xmlns="http://www.w3.org/2000/svg">
<path fill-rule="evenodd" clip-rule="evenodd" d="M15.1895 11.6598C15.1895 10.6598 16.0095 9.83984 17.0095 9.83984C18.0095 9.83984 18.8294 10.6598 18.8294 11.6598C18.8294 12.6598 18.0095 13.4798 17.0095 13.4798C16.0095 13.4798 15.1895 12.6598 15.1895 11.6598ZM16.6895 11.6598C16.6895 11.8398 16.8295 11.9798 17.0095 11.9798C17.1895 11.9798 17.3294 11.8398 17.3294 11.6598C17.3294 11.4798 17.1895 11.3398 17.0095 11.3398C16.8295 11.3398 16.6895 11.4798 16.6895 11.6598Z" fill="#7328CE"/>
<path fill-rule="evenodd" clip-rule="evenodd" d="M6 16.45C2.4 16.45 1.25 15.3 1.25 11.7V6C1.25 2.4 2.4 1.25 6 1.25H16C19.6 1.25 20.75 2.4 20.75 6V7.78998C20.75 7.99998 20.66 8.20998 20.5 8.34998C20.34 8.48998 20.13 8.56003 19.91 8.53003C19.69 8.50003 19.43 8.48999 19.15 8.48999H14.87C13.14 8.48999 12.77 8.86003 12.77 10.59V15.7C12.77 16.11 12.43 16.45 12.02 16.45H6ZM2.75 6V11.7C2.75 14.49 3.21 14.95 6 14.95H11.27V10.59C11.27 8.03003 12.31 6.98999 14.87 6.98999H19.15C19.18 6.98999 19.22 6.98999 19.25 6.98999V6C19.25 3.21 18.79 2.75 16 2.75H6C3.21 2.75 2.75 3.21 2.75 6Z" fill="#7328CE"/>
<path d="M8.25 20.0002V15.7002C8.25 15.2902 8.59 14.9502 9 14.9502C9.41 14.9502 9.75 15.2902 9.75 15.7002V20.0002C9.75 20.4102 9.41 20.7502 9 20.7502C8.59 20.7502 8.25 20.4102 8.25 20.0002Z" fill="#7328CE"/>
<path d="M2 12.6494C1.59 12.6494 1.25 12.3094 1.25 11.8994C1.25 11.4894 1.59 11.1494 2 11.1494H12C12.41 11.1494 12.75 11.4894 12.75 11.8994C12.75 12.3094 12.41 12.6494 12 12.6494H2Z" fill="#7328CE"/>
<path d="M5.95117 20.75C5.54117 20.75 5.20117 20.41 5.20117 20C5.20117 19.59 5.54117 19.25 5.95117 19.25H12.0012C12.4112 19.25 12.7512 19.59 12.7512 20C12.7512 20.41 12.4112 20.75 12.0012 20.75H5.95117Z" fill="#7328CE"/>
<path fill-rule="evenodd" clip-rule="evenodd" d="M15.1895 11.6598C15.1895 10.6598 16.0095 9.83984 17.0095 9.83984C18.0095 9.83984 18.8294 10.6598 18.8294 11.6598C18.8294 12.6598 18.0095 13.4798 17.0095 13.4798C16.0095 13.4798 15.1895 12.6598 15.1895 11.6598ZM16.6895 11.6598C16.6895 11.8398 16.8295 11.9798 17.0095 11.9798C17.1895 11.9798 17.3294 11.8398 17.3294 11.6598C17.3294 11.4798 17.1895 11.3398 17.0095 11.3398C16.8295 11.3398 16.6895 11.4798 16.6895 11.6598Z" fill="#7328CE"/>
<path d="M20.0889 7.0459L19.9995 7.79056C20.0292 7.79411 20.059 7.7959 20.0889 7.7959V7.0459ZM20.0947 7.0459L20.1902 6.302C20.1586 6.29794 20.1267 6.2959 20.0947 6.2959V7.0459ZM22.168 8.14355L22.7813 7.71188L22.7813 7.71186L22.168 8.14355ZM22.75 10.5898H23.5V10.5898L22.75 10.5898ZM22.75 19.1504L23.5 19.1504V19.1504H22.75ZM21.9072 21.9082L22.4375 22.4386L22.4376 22.4385L21.9072 21.9082ZM14.8691 22.75L14.8691 23.5H14.8691V22.75ZM12.1113 21.9082L11.581 22.4385L11.581 22.4385L12.1113 21.9082ZM11.2695 19.1504H10.5195V19.1504L11.2695 19.1504ZM11.2695 10.5898L10.5195 10.5898V10.5898H11.2695ZM12.1113 7.83203L11.581 7.3017L11.581 7.30171L12.1113 7.83203ZM14.8691 6.99023V6.24023H14.8691L14.8691 6.99023ZM14.8691 8.49023V7.74023H14.8691L14.8691 8.49023ZM13.1729 8.89355L12.6425 8.36323L12.6425 8.36323L13.1729 8.89355ZM12.7695 10.5898L12.0195 10.5898V10.5898H12.7695ZM12.7695 19.1504H12.0195V19.1504L12.7695 19.1504ZM13.1719 20.8477L12.6414 21.3779L12.6415 21.378L13.1719 20.8477ZM14.8691 21.25L14.8691 22H14.8691V21.25ZM20.8467 20.8477L21.3769 21.3781L21.377 21.378L20.8467 20.8477ZM21.25 19.1504L22 19.1504V19.1504H21.25ZM21.25 10.5898H22V10.5898L21.25 10.5898ZM20.9414 9.00684L21.5547 8.57514L21.5547 8.57514L20.9414 9.00684ZM19.9102 8.53516L20.0068 7.79141C19.9969 7.79013 19.987 7.78904 19.9771 7.78815L19.9102 8.53516ZM19.5508 8.50293L19.6178 7.75593C19.6108 7.7553 19.6037 7.75477 19.5967 7.75434L19.5508 8.50293ZM17.0098 14.1201L17.0098 13.3701H17.0098V14.1201ZM18.7051 14.6689L19.17 14.0804C19.1618 14.0739 19.1534 14.0676 19.1449 14.0614L18.7051 14.6689ZM18.9004 14.8232L19.3943 14.2588C19.3848 14.2505 19.3752 14.2425 19.3653 14.2347L18.9004 14.8232ZM18.9082 14.8301L19.4066 14.2696L19.4021 14.2656L18.9082 14.8301ZM19.8994 17.0107L20.6494 17.0109V17.0107H19.8994ZM17.0098 19.9004V20.6504H17.0098L17.0098 19.9004ZM14.1191 17.0107H13.3691V17.0109L14.1191 17.0107ZM14.7275 15.2402L14.1972 14.7099C14.1752 14.7319 14.1546 14.7553 14.1355 14.7798L14.7275 15.2402ZM14.7285 15.2393L15.2588 15.7696C15.2806 15.7478 15.301 15.7248 15.3199 15.7005L14.7285 15.2393ZM17.0098 15.6201L17.0099 14.8701H17.0098V15.6201ZM16.0137 16.0439L15.4761 15.5209C15.4669 15.5304 15.4579 15.5401 15.4492 15.5501L16.0137 16.0439ZM15.9111 16.1611L15.3467 15.6673C15.3371 15.6782 15.3278 15.6894 15.3189 15.7009L15.9111 16.1611ZM15.6191 17.0107H14.8691V17.011L15.6191 17.0107ZM17.0098 18.4004V19.1504H17.0099L17.0098 18.4004ZM18.3994 17.0107L19.1494 17.011V17.0107H18.3994ZM17.9141 15.9541L18.4139 15.3949C18.41 15.3915 18.4062 15.3881 18.4022 15.3847L17.9141 15.9541ZM17.0098 9.83984L17.0099 9.08984H17.0098V9.83984ZM18.8291 11.6602H19.5791V11.6601L18.8291 11.6602ZM17.0098 13.4805V14.2305H17.0099L17.0098 13.4805ZM15.1895 11.6602L14.4395 11.6601V11.6602H15.1895ZM17.0098 11.3398L17.0103 10.5898H17.0098V11.3398ZM16.6895 11.6602L15.9395 11.66V11.6602H16.6895ZM17.0098 11.9805V12.7305H17.0103L17.0098 11.9805ZM17.3291 11.6602H18.0791V11.66L17.3291 11.6602ZM19.1494 6.99023V7.74023C19.4589 7.74023 19.749 7.76049 19.9995 7.79056L20.0889 7.0459L20.1782 6.30124C19.8727 6.26457 19.5228 6.24023 19.1494 6.24023V6.99023ZM20.0889 7.0459V7.7959H20.0947V7.0459V6.2959H20.0889V7.0459ZM20.0947 7.0459L19.9992 7.78979C20.7404 7.88494 21.2401 8.12838 21.5547 8.57525L22.168 8.14355L22.7813 7.71186C22.1332 6.79123 21.1604 6.42656 20.1902 6.302L20.0947 7.0459ZM22.168 8.14355L21.5547 8.57523C21.8698 9.02294 22 9.67571 22 10.5899L22.75 10.5898L23.5 10.5898C23.5 9.59243 23.3707 8.54927 22.7813 7.71188L22.168 8.14355ZM22.75 10.5898H22V19.1504H22.75H23.5V10.5898H22.75ZM22.75 19.1504L22 19.1504C22 20.22 21.822 20.9328 21.3769 21.3779L21.9072 21.9082L22.4376 22.4385C23.3279 21.5482 23.5 20.3021 23.5 19.1504L22.75 19.1504ZM21.9072 21.9082L21.3769 21.3778C20.932 21.8227 20.2196 22 19.1494 22V22.75V23.5C20.3005 23.5 21.547 23.329 22.4375 22.4386L21.9072 21.9082ZM19.1494 22.75V22H14.8691V22.75V23.5H19.1494V22.75ZM14.8691 22.75L14.8692 22C13.7989 22 13.0864 21.8226 12.6417 21.3779L12.1113 21.9082L11.581 22.4385C12.4715 23.329 13.7182 23.5 14.8691 23.5L14.8691 22.75ZM12.1113 21.9082L12.6417 21.3779C12.1969 20.9331 12.0195 20.2206 12.0195 19.1504L11.2695 19.1504L10.5195 19.1504C10.5195 20.3014 10.6906 21.548 11.581 22.4385L12.1113 21.9082ZM11.2695 19.1504H12.0195V10.5898H11.2695H10.5195V19.1504H11.2695ZM11.2695 10.5898L12.0195 10.5899C12.0196 9.51964 12.1969 8.80714 12.6417 8.36236L12.1113 7.83203L11.581 7.30171C10.6905 8.19221 10.5196 9.43891 10.5195 10.5898L11.2695 10.5898ZM12.1113 7.83203L12.6417 8.36236C13.0864 7.91758 13.7989 7.74027 14.8692 7.74023L14.8691 6.99023L14.8691 6.24023C13.7182 6.24028 12.4715 6.41119 11.581 7.3017L12.1113 7.83203ZM14.8691 6.99023V7.74023H19.1494V6.99023V6.24023H14.8691V6.99023ZM14.8691 8.49023L14.8691 7.74023C13.7984 7.74028 13.0871 7.91862 12.6425 8.36323L13.1729 8.89355L13.7032 9.42388C13.7047 9.42234 13.7151 9.412 13.7441 9.39629C13.7745 9.37981 13.828 9.35609 13.9159 9.33211C14.0965 9.28285 14.3927 9.24026 14.8692 9.24023L14.8691 8.49023ZM13.1729 8.89355L12.6425 8.36323C12.1979 8.80783 12.0196 9.51915 12.0195 10.5898L12.7695 10.5898L13.5195 10.5899C13.5196 10.1134 13.5621 9.81716 13.6114 9.63663C13.6354 9.54875 13.6591 9.49523 13.6756 9.4648C13.6913 9.43579 13.7016 9.42542 13.7032 9.42388L13.1729 8.89355ZM12.7695 10.5898H12.0195V19.1504H12.7695H13.5195V10.5898H12.7695ZM12.7695 19.1504L12.0195 19.1504C12.0195 20.2198 12.1965 20.9327 12.6414 21.3779L13.1719 20.8477L13.7023 20.3174C13.7011 20.3162 13.6909 20.3061 13.6752 20.2771C13.6588 20.2466 13.6351 20.193 13.6111 20.1048C13.5619 19.9238 13.5195 19.6271 13.5195 19.1504L12.7695 19.1504ZM13.1719 20.8477L12.6415 21.378C13.0867 21.8231 13.7999 22 14.8691 22L14.8691 21.25L14.8692 20.5C14.3924 20.5 14.0957 20.4576 13.9146 20.4084C13.8265 20.3844 13.7729 20.3608 13.7425 20.3443C13.7135 20.3287 13.7034 20.3185 13.7022 20.3173L13.1719 20.8477ZM14.8691 21.25V22H19.1494V21.25V20.5H14.8691V21.25ZM19.1494 21.25V22C20.2189 22 20.9317 21.823 21.3769 21.3781L20.8467 20.8477L20.3165 20.3172C20.3152 20.3184 20.3051 20.3287 20.2761 20.3443C20.2456 20.3608 20.192 20.3845 20.1039 20.4084C19.9229 20.4576 19.6262 20.5 19.1494 20.5V21.25ZM20.8467 20.8477L21.377 21.378C21.8217 20.9333 22 20.221 22 19.1504L21.25 19.1504L20.5 19.1504C20.5 19.627 20.4574 19.9235 20.4081 20.1043C20.3841 20.1923 20.3603 20.246 20.3438 20.2765C20.3281 20.3056 20.3178 20.3159 20.3164 20.3173L20.8467 20.8477ZM21.25 19.1504H22V10.5898H21.25H20.5V19.1504H21.25ZM21.25 10.5898L22 10.5898C22 9.67525 21.8697 9.02267 21.5547 8.57514L20.9414 9.00684L20.3281 9.43853C20.3683 9.49566 20.5 9.75696 20.5 10.5899L21.25 10.5898ZM20.9414 9.00684L21.5547 8.57514C21.2417 8.1304 20.745 7.88732 20.0068 7.79141L19.9102 8.53516L19.8135 9.2789C20.0705 9.3123 20.2025 9.36042 20.2652 9.39201C20.3154 9.41732 20.324 9.43273 20.3281 9.43853L20.9414 9.00684ZM19.9102 8.53516L19.9771 7.78815L19.6178 7.75593L19.5508 8.50293L19.4838 9.24993L19.8432 9.28216L19.9102 8.53516ZM19.5508 8.50293L19.5967 7.75434C19.4561 7.74571 19.306 7.74023 19.1494 7.74023V8.49023V9.24023C19.2712 9.24023 19.3904 9.2445 19.5049 9.25152L19.5508 8.50293ZM19.1494 8.49023V7.74023H14.8691V8.49023V9.24023H19.1494V8.49023ZM17.0098 14.1201L17.0097 14.8701C17.4819 14.8702 17.9157 15.0234 18.2653 15.2765L18.7051 14.6689L19.1449 14.0614C18.5509 13.6314 17.8117 13.3702 17.0098 13.3701L17.0098 14.1201ZM18.7051 14.6689L18.2402 15.2575L18.4355 15.4118L18.9004 14.8232L19.3653 14.2347L19.17 14.0804L18.7051 14.6689ZM18.9004 14.8232L18.4065 15.3877L18.4143 15.3945L18.9082 14.8301L19.4021 14.2656L19.3943 14.2588L18.9004 14.8232ZM18.9082 14.8301L18.4098 15.3905C18.8598 15.7906 19.1494 16.371 19.1494 17.0107H19.8994H20.6494C20.6494 15.9084 20.1501 14.9308 19.4066 14.2696L18.9082 14.8301ZM19.8994 17.0107L19.1494 17.0106C19.1492 18.1905 18.1894 19.1503 17.0097 19.1504L17.0098 19.9004L17.0098 20.6504C19.018 20.6502 20.6491 19.0188 20.6494 17.0109L19.8994 17.0107ZM17.0098 19.9004V19.1504C15.8297 19.1504 14.8693 18.1903 14.8691 17.0106L14.1191 17.0107L13.3691 17.0109C13.3695 19.0192 15.0017 20.6504 17.0098 20.6504V19.9004ZM14.1191 17.0107H14.8691C14.8691 16.5213 15.0394 16.061 15.3196 15.7006L14.7275 15.2402L14.1355 14.7798C13.6595 15.3919 13.3691 16.1734 13.3691 17.0107H14.1191ZM14.7275 15.2402L15.2579 15.7706L15.2588 15.7696L14.7285 15.2393L14.1982 14.7089L14.1972 14.7099L14.7275 15.2402ZM14.7285 15.2393L15.3199 15.7005C15.7103 15.2001 16.3203 14.8701 17.0098 14.8701V14.1201V13.3701C15.8286 13.3701 14.7931 13.9371 14.1371 14.778L14.7285 15.2393ZM17.0098 15.6201V14.8701C16.4068 14.8701 15.8634 15.1229 15.4761 15.5209L16.0137 16.0439L16.5512 16.5669C16.6723 16.4425 16.8344 16.3701 17.0098 16.3701V15.6201ZM16.0137 16.0439L15.4492 15.5501L15.3467 15.6673L15.9111 16.1611L16.4756 16.655L16.5781 16.5378L16.0137 16.0439ZM15.9111 16.1611L15.3189 15.7009C15.0393 16.0608 14.8691 16.521 14.8691 17.0107H15.6191H16.3691C16.3691 16.8679 16.4198 16.7289 16.5033 16.6213L15.9111 16.1611ZM15.6191 17.0107L14.8691 17.011C14.8695 18.191 15.8304 19.1504 17.0098 19.1504V18.4004V17.6504C16.6579 17.6504 16.3693 17.3616 16.3691 17.0105L15.6191 17.0107ZM17.0098 18.4004L17.0099 19.1504C18.1897 19.1502 19.149 18.1904 19.1494 17.011L18.3994 17.0107L17.6494 17.0105C17.6493 17.3621 17.3609 17.6503 17.0097 17.6504L17.0098 18.4004ZM18.3994 17.0107H19.1494C19.1494 16.3733 18.8614 15.795 18.4139 15.3949L17.9141 15.9541L17.4142 16.5133C17.569 16.6516 17.6494 16.8335 17.6494 17.0107H18.3994ZM17.9141 15.9541L18.4022 15.3847C18.0338 15.0688 17.5472 14.8702 17.0099 14.8701L17.0098 15.6201L17.0097 16.3701C17.1716 16.3701 17.3159 16.4291 17.4259 16.5235L17.9141 15.9541ZM17.0098 9.83984L17.0097 10.5898C17.5992 10.5899 18.0791 11.0698 18.0791 11.6602L18.8291 11.6602L19.5791 11.6601C19.5791 10.2422 18.4285 9.09001 17.0099 9.08984L17.0098 9.83984ZM18.8291 11.6602H18.0791C18.0791 12.2505 17.5992 12.7304 17.0097 12.7305L17.0098 13.4805L17.0099 14.2305C18.4286 14.2303 19.5791 13.078 19.5791 11.6602H18.8291ZM17.0098 13.4805V12.7305C16.4198 12.7305 15.9395 12.2502 15.9395 11.6602H15.1895H14.4395C14.4395 13.0786 15.5913 14.2305 17.0098 14.2305V13.4805ZM15.1895 11.6602L15.9395 11.6602C15.9395 11.0701 16.4198 10.5898 17.0098 10.5898V9.83984V9.08984C15.5914 9.08984 14.4395 10.2417 14.4395 11.6601L15.1895 11.6602ZM17.0098 11.3398V10.5898C16.4194 10.5898 15.9396 11.0705 15.9395 11.66L16.6895 11.6602L17.4395 11.6603C17.4394 11.8984 17.2485 12.0898 17.0098 12.0898V11.3398ZM16.6895 11.6602H15.9395C15.9395 12.2502 16.4198 12.7305 17.0098 12.7305V11.9805V11.2305C17.2482 11.2305 17.4395 11.4217 17.4395 11.6602H16.6895ZM17.0098 11.9805L17.0103 12.7305C17.6021 12.7301 18.0791 12.2477 18.0791 11.6602H17.3291H16.5791C16.5791 11.4241 16.7687 11.2306 17.0093 11.2305L17.0098 11.9805ZM17.3291 11.6602L18.0791 11.66C18.079 11.073 17.6025 10.5902 17.0103 10.5898L17.0098 11.3398L17.0093 12.0898C16.7684 12.0897 16.5791 11.896 16.5791 11.6603L17.3291 11.6602Z" fill="#7328CE"/>
<path fill-rule="evenodd" clip-rule="evenodd" d="M14.1191 17.0101C14.1191 16.3701 14.3392 15.7401 14.7292 15.2401C15.2792 14.5301 16.1192 14.1201 17.0092 14.1201C17.6992 14.1201 18.3791 14.3701 18.8991 14.8201C19.5391 15.3901 19.8991 16.1801 19.8991 17.0101C19.8991 18.6001 18.5992 19.9001 17.0092 19.9001C15.4192 19.9001 14.1191 18.6001 14.1191 17.0101ZM15.9091 16.1601C15.7191 16.4001 15.6191 16.7001 15.6191 17.0101C15.6191 17.7801 16.2392 18.4001 17.0092 18.4001C17.7792 18.4001 18.3991 17.7801 18.3991 17.0101C18.3991 16.6101 18.2191 16.2301 17.9091 15.9501C17.6691 15.7401 17.3392 15.6201 17.0092 15.6201C16.5792 15.6201 16.1791 15.8201 15.9091 16.1601Z" fill="#7328CE"/>
<path fill-rule="evenodd" clip-rule="evenodd" d="M15.1895 11.6598C15.1895 10.6598 16.0095 9.83984 17.0095 9.83984C18.0095 9.83984 18.8294 10.6598 18.8294 11.6598C18.8294 12.6598 18.0095 13.4798 17.0095 13.4798C16.0095 13.4798 15.1895 12.6598 15.1895 11.6598ZM16.6895 11.6598C16.6895 11.8398 16.8295 11.9798 17.0095 11.9798C17.1895 11.9798 17.3294 11.8398 17.3294 11.6598C17.3294 11.4798 17.1895 11.3398 17.0095 11.3398C16.8295 11.3398 16.6895 11.4798 16.6895 11.6598Z" fill="#7328CE"/>
</svg>
