<svg width="24" height="24" viewBox="0 0 24 24" fill="none" xmlns="http://www.w3.org/2000/svg">
<path d="M11.2495 8.9995V3.8095L10.5295 4.5295C10.2395 4.8195 9.75945 4.8195 9.46945 4.5295C9.17945 4.2395 9.17945 3.7595 9.46945 3.4695L11.4695 1.4695C11.6795 1.2595 12.0095 1.1895 12.2895 1.3095C12.5695 1.4195 12.7495 1.6995 12.7495 1.9995V8.9995C12.7495 9.4095 12.4095 9.7495 11.9995 9.7495C11.5895 9.7495 11.2495 9.4095 11.2495 8.9995Z" fill="#7328CE"/>
<path d="M13.4695 4.53043L11.4695 2.53043C11.1795 2.24043 11.1795 1.76043 11.4695 1.47043C11.7595 1.18043 12.2395 1.18043 12.5295 1.47043L14.5295 3.47043C14.8195 3.76043 14.8195 4.24043 14.5295 4.53043C14.3795 4.68043 14.1895 4.75043 13.9995 4.75043C13.8095 4.75043 13.6195 4.68043 13.4695 4.53043Z" fill="#7328CE"/>
<path d="M10.2305 17.75C9.18047 17.75 8.24047 17.17 7.77047 16.23L6.60047 13.89C6.56047 13.8 6.47047 13.75 6.38047 13.75H1.98047C1.57047 13.75 1.23047 13.41 1.23047 13C1.23047 12.59 1.57047 12.25 1.98047 12.25H6.39047C7.06047 12.25 7.66047 12.62 7.96047 13.22L9.13047 15.56C9.34047 15.99 9.77047 16.25 10.2505 16.25H13.7805C14.2605 16.25 14.6905 15.99 14.9005 15.56L16.0705 13.22C16.3705 12.62 16.9705 12.25 17.6405 12.25H22.0005C22.4105 12.25 22.7505 12.59 22.7505 13C22.7505 13.41 22.4105 13.75 22.0005 13.75H17.6405C17.5405 13.75 17.4605 13.8 17.4205 13.89L16.2505 16.23C15.7505 17.17 14.8105 17.75 13.7605 17.75H10.2305Z" fill="#7328CE"/>
<path d="M9 22.7499C3.57 22.7499 1.25 20.4299 1.25 14.9999V11.9999C1.25 7.30993 2.99 4.95993 6.89 4.38993C7.31 4.32993 7.68 4.60993 7.74 5.01993C7.8 5.42993 7.52 5.80993 7.11 5.86993C3.97 6.32993 2.75 8.04993 2.75 11.9999V14.9999C2.75 19.6099 4.39 21.2499 9 21.2499H15C19.61 21.2499 21.25 19.6099 21.25 14.9999V11.9999C21.25 8.04993 20.03 6.32993 16.89 5.86993C16.48 5.80993 16.2 5.42993 16.26 5.01993C16.32 4.60993 16.7 4.32993 17.11 4.38993C21.01 4.95993 22.75 7.30993 22.75 11.9999V14.9999C22.75 20.4299 20.43 22.7499 15 22.7499H9Z" fill="#7328CE"/>
</svg>
