<svg width="24" height="24" viewBox="0 0 24 24" fill="none" xmlns="http://www.w3.org/2000/svg">
<path d="M9.94955 21.9494C8.69955 21.5394 7.89955 20.1594 8.17955 18.8794L8.66955 15.7294C8.67955 15.6594 8.67955 15.5594 8.60955 15.4794C8.55955 15.4294 8.48955 15.3994 8.40955 15.3994H4.40955C3.42955 15.3994 2.57955 14.9894 2.07955 14.2794C1.58955 13.5894 1.48955 12.6794 1.80955 11.7994L4.19955 4.51941C4.56955 3.06941 6.11955 1.89941 7.71955 1.89941H11.5196C12.0796 1.89941 13.2996 2.06941 13.9496 2.71941L16.9796 5.05941L16.0596 6.24941L12.9596 3.84941C12.7096 3.59941 12.0796 3.39941 11.5196 3.39941H7.71955C6.81955 3.39941 5.84955 4.11941 5.64955 4.92941L3.22955 12.2794C3.06955 12.7194 3.09955 13.1194 3.30955 13.4094C3.52955 13.7194 3.92955 13.8994 4.41955 13.8994H8.41955C8.93955 13.8994 9.41955 14.1194 9.74955 14.4994C10.0896 14.8894 10.2396 15.4094 10.1596 15.9494L9.65955 19.1594C9.53955 19.7194 9.91955 20.3494 10.4596 20.5294C10.9396 20.7094 11.5796 20.4494 11.7996 20.1294L15.8996 14.0294L17.1396 14.8694L13.0396 20.9694C12.5696 21.6694 11.6796 22.0994 10.7996 22.0994C10.5096 22.0994 10.2196 22.0494 9.94955 21.9494Z" fill="#7328CE"/>
<path fill-rule="evenodd" clip-rule="evenodd" d="M18.6191 18.1C16.7691 18.1 15.8691 17.23 15.8691 15.45V5.65C15.8691 3.87 16.7691 3 18.6191 3H19.6191C21.4691 3 22.3691 3.87 22.3691 5.65V15.45C22.3691 17.23 21.4691 18.1 19.6191 18.1H18.6191ZM17.3691 5.65V15.45C17.3691 16.34 17.5291 16.6 18.6191 16.6H19.6191C20.7091 16.6 20.8691 16.34 20.8691 15.45V5.65C20.8691 4.76 20.7091 4.5 19.6191 4.5H18.6191C17.5291 4.5 17.3691 4.76 17.3691 5.65Z" fill="#7328CE"/>
</svg>
