<svg width="24" height="24" viewBox="0 0 24 24" fill="none" xmlns="http://www.w3.org/2000/svg">
<path d="M9 22.75C3.57 22.75 1.25 20.43 1.25 15V9C1.25 3.57 3.57 1.25 9 1.25H14C14.41 1.25 14.75 1.59 14.75 2C14.75 2.41 14.41 2.75 14 2.75H9C4.39 2.75 2.75 4.39 2.75 9V15C2.75 19.61 4.39 21.25 9 21.25H15C19.61 21.25 21.25 19.61 21.25 15V10C21.25 9.59 21.59 9.25 22 9.25C22.41 9.25 22.75 9.59 22.75 10V15C22.75 20.43 20.43 22.75 15 22.75H9Z" fill="#7328CE"/>
<path fill-rule="evenodd" clip-rule="evenodd" d="M18 10.7495C14.58 10.7495 13.25 9.4195 13.25 5.9995V1.9995C13.25 1.6995 13.43 1.4195 13.71 1.3095C13.99 1.1895 14.31 1.2595 14.53 1.4695L22.53 9.4695C22.74 9.6795 22.81 10.0095 22.69 10.2895C22.57 10.5695 22.3 10.7495 22 10.7495H18ZM14.75 5.9995C14.75 8.5795 15.42 9.2495 18 9.2495H20.19L14.75 3.8095V5.9995Z" fill="#7328CE"/>
<path d="M7 13.75C6.59 13.75 6.25 13.41 6.25 13C6.25 12.59 6.59 12.25 7 12.25H13C13.41 12.25 13.75 12.59 13.75 13C13.75 13.41 13.41 13.75 13 13.75H7Z" fill="#7328CE"/>
<path d="M7 17.75C6.59 17.75 6.25 17.41 6.25 17C6.25 16.59 6.59 16.25 7 16.25H11C11.41 16.25 11.75 16.59 11.75 17C11.75 17.41 11.41 17.75 11 17.75H7Z" fill="#7328CE"/>
</svg>
