<svg width="24" height="24" viewBox="0 0 24 24" fill="none" xmlns="http://www.w3.org/2000/svg">
<mask id="mask0_251_29207" style="mask-type:luminance" maskUnits="userSpaceOnUse" x="0" y="0" width="24" height="24">
<rect width="24" height="24" fill="white"/>
</mask>
<g mask="url(#mask0_251_29207)">
<path d="M5.59955 12.2205L2.42956 11.9305C2.01956 11.8905 1.70957 11.5305 1.74957 11.1105C1.78957 10.7005 2.13958 10.3905 2.56958 10.4305L5.73956 10.7205C10.6396 11.1705 15.3995 8.69053 17.8495 4.41053C18.0595 4.05053 18.5096 3.93053 18.8696 4.13053C19.2296 4.34053 19.3496 4.79052 19.1496 5.15052C16.6296 9.58052 11.8996 12.2805 6.86957 12.2805C6.44957 12.2805 6.01955 12.2605 5.59955 12.2205Z" fill="#7328CE"/>
<path d="M5.13028 20.0198C4.77027 19.8098 4.65025 19.3598 4.85025 18.9998C7.59025 14.2098 12.9103 11.4298 18.4003 11.9398L21.5703 12.2298C21.9803 12.2698 22.2903 12.6298 22.2503 13.0498C22.2103 13.4598 21.8603 13.7598 21.4303 13.7298L18.2603 13.4398C13.3603 12.9898 8.60029 15.4698 6.15029 19.7498C6.01029 19.9898 5.76027 20.1198 5.50027 20.1198C5.37027 20.1198 5.25028 20.0898 5.13028 20.0198Z" fill="#7328CE"/>
<path fill-rule="evenodd" clip-rule="evenodd" d="M1.25 12C1.25 6.07 6.07 1.25 12 1.25C17.93 1.25 22.75 6.07 22.75 12C22.75 17.93 17.93 22.75 12 22.75C6.07 22.75 1.25 17.93 1.25 12ZM2.75 12C2.75 17.1 6.9 21.25 12 21.25C17.1 21.25 21.25 17.1 21.25 12C21.25 6.9 17.1 2.75 12 2.75C6.9 2.75 2.75 6.9 2.75 12Z" fill="#7328CE"/>
<path d="M15.7394 21.1293L14.5295 16.1393C13.7595 12.9793 12.2794 9.96931 10.2294 7.42931L7.04944 3.47933C6.78944 3.15933 6.83943 2.68931 7.15943 2.42931C7.47943 2.16931 7.94948 2.21933 8.20948 2.53933L11.3895 6.48931C13.5695 9.19931 15.1594 12.4093 15.9794 15.7793L17.1895 20.7693C17.2895 21.1693 17.0395 21.5793 16.6395 21.6793C16.5895 21.6893 16.5294 21.6993 16.4694 21.6993C16.1294 21.6993 15.8294 21.4693 15.7394 21.1293Z" fill="#7328CE"/>
</g>
</svg>
