<svg width="24" height="24" viewBox="0 0 24 24" fill="none" xmlns="http://www.w3.org/2000/svg">
<path d="M5.25 8.25V6.25C5.25 5.84 5.59 5.5 6 5.5C6.41 5.5 6.75 5.84 6.75 6.25V8.25C6.75 8.66 6.41 9 6 9C5.59 9 5.25 8.66 5.25 8.25Z" fill="#7328CE"/>
<path d="M9 22.75C3.57 22.75 1.25 20.43 1.25 15V9C1.25 3.57 3.57 1.25 9 1.25H15C20.43 1.25 22.75 3.57 22.75 9V12C22.75 12.41 22.41 12.75 22 12.75C21.59 12.75 21.25 12.41 21.25 12V9C21.25 4.39 19.61 2.75 15 2.75H9C4.39 2.75 2.75 4.39 2.75 9V15C2.75 19.61 4.39 21.25 9 21.25H12C12.41 21.25 12.75 21.59 12.75 22C12.75 22.41 12.41 22.75 12 22.75H9Z" fill="#7328CE"/>
<path d="M9.25 8.25V6.25C9.25 5.84 9.59 5.5 10 5.5C10.41 5.5 10.75 5.84 10.75 6.25V8.25C10.75 8.66 10.41 9 10 9C9.59 9 9.25 8.66 9.25 8.25Z" fill="#7328CE"/>
<path d="M5.25 18V16C5.25 15.59 5.59 15.25 6 15.25C6.41 15.25 6.75 15.59 6.75 16V18C6.75 18.41 6.41 18.75 6 18.75C5.59 18.75 5.25 18.41 5.25 18Z" fill="#7328CE"/>
<path d="M9.25 18V16C9.25 15.59 9.59 15.25 10 15.25C10.41 15.25 10.75 15.59 10.75 16V18C10.75 18.41 10.41 18.75 10 18.75C9.59 18.75 9.25 18.41 9.25 18Z" fill="#7328CE"/>
<path d="M14 8C13.59 8 13.25 7.66 13.25 7.25C13.25 6.84 13.59 6.5 14 6.5H18C18.41 6.5 18.75 6.84 18.75 7.25C18.75 7.66 18.41 8 18 8H14Z" fill="#7328CE"/>
<path d="M2 12.75C1.59 12.75 1.25 12.41 1.25 12C1.25 11.59 1.59 11.25 2 11.25H22C22.41 11.25 22.75 11.59 22.75 12C22.75 12.41 22.41 12.75 22 12.75H2Z" fill="#7328CE"/>
<path d="M15.8594 20.1396C15.8594 19.7254 15.5236 19.3896 15.1094 19.3896C14.6952 19.3896 14.3594 19.7254 14.3594 20.1396H15.1094H15.8594ZM15.1162 20.2402L15.8609 20.1503L15.8596 20.1406L15.1162 20.2402ZM15.123 20.2783L14.3841 20.4068L14.3858 20.4163L15.123 20.2783ZM15.2197 20.541H15.9697C15.9697 20.403 15.9316 20.2677 15.8597 20.1499L15.2197 20.541ZM15.2197 20.542H14.4697C14.4697 20.7409 14.5487 20.9317 14.6894 21.0723L15.2197 20.542ZM15.2207 20.543L15.8595 20.1501C15.8289 20.1002 15.7924 20.0541 15.751 20.0126L15.2207 20.543ZM15.2227 20.5459L14.5849 20.9406L14.5849 20.9406L15.2227 20.5459ZM15.2275 20.5537L14.5922 20.9522L14.5922 20.9523L15.2275 20.5537ZM15.2412 20.5762L14.6107 20.9823L14.6107 20.9824L15.2412 20.5762ZM15.291 20.6504L14.6714 21.073L14.6715 21.0731L15.291 20.6504ZM15.4668 20.8916L14.8745 21.3517L14.8745 21.3517L15.4668 20.8916ZM16.1309 21.6064L15.6284 22.1633L15.6284 22.1633L16.1309 21.6064ZM20.9102 19.9551L20.2607 19.58L20.2606 19.5801L20.9102 19.9551ZM21.9346 19.6807L22.3098 19.0313L22.3096 19.0311L21.9346 19.6807ZM22.209 20.7051L22.8585 21.0801L22.8585 21.0801L22.209 20.7051ZM18.749 22.7002L18.7489 23.4502H18.749V22.7002ZM18.749 21.2002L18.7489 21.9502H18.749V21.2002ZM18.6094 20.1396H19.3594V20.1393L18.6094 20.1396ZM17.1357 20.4932L16.6333 21.05L16.6333 21.05L17.1357 20.4932ZM16.6514 19.9707L16.059 20.4308L16.0591 20.4308L16.6514 19.9707ZM16.5293 19.8047L15.9097 20.2273L15.9097 20.2273L16.5293 19.8047ZM16.6094 20.1396H17.3594V20.1393L16.6094 20.1396ZM15.4688 19.5098L15.0781 18.8695L15.0777 18.8698L15.4688 19.5098ZM16.4561 19.6953L17.0786 19.277C17.0705 19.2649 17.062 19.2531 17.0531 19.2415L16.4561 19.6953ZM16.498 19.7578L15.8755 20.1761C16.0595 20.45 16.401 20.5714 16.7167 20.4752C17.0323 20.379 17.248 20.0878 17.248 19.7578H16.498ZM16.498 19.7568L17.1332 19.358C16.9554 19.0749 16.6117 18.9436 16.2905 19.0361C15.9693 19.1286 15.748 19.4226 15.748 19.7568H16.498ZM16.5029 19.7637L15.8724 20.1698L15.8725 20.1699L16.5029 19.7637ZM15.8594 18.6396C15.4452 18.6396 15.1094 18.9754 15.1094 19.3896C15.1094 19.8039 15.4452 20.1396 15.8594 20.1396V19.3896V18.6396ZM22.7451 17.3438L23.4904 17.428C23.4935 17.4 23.4951 17.3719 23.4951 17.3438H22.7451ZM22.3857 17.9033L22.7716 18.5464L22.7719 18.5463L22.3857 17.9033ZM22.7451 17.3271H23.4951C23.4951 16.9278 23.1822 16.5985 22.7833 16.5781C22.3845 16.5578 22.0396 16.8536 21.999 17.2509L22.7451 17.3271ZM20.709 16.9365L21.1885 16.3598L21.1885 16.3598L20.709 16.9365ZM21.2109 17.4473L21.7963 16.9784L21.7962 16.9783L21.2109 17.4473ZM21.3301 17.6074L21.9486 17.1832L21.9485 17.1831L21.3301 17.6074ZM21.3555 17.6445L22.0263 17.3091C22.0145 17.2855 22.0014 17.2624 21.9871 17.2402L21.3555 17.6445ZM21.3564 17.6465L20.6856 17.9819C20.8412 18.293 21.1902 18.4563 21.5288 18.3764C21.8673 18.2965 22.1064 17.9943 22.1064 17.6465H21.3564ZM21.3564 17.6455L21.9996 17.2596C21.8261 16.9706 21.4811 16.8327 21.1562 16.9227C20.8314 17.0127 20.6064 17.3084 20.6064 17.6455H21.3564ZM19.999 18L19.9987 18.75H19.999V18ZM19.999 16.5V15.75L19.9987 15.75L19.999 16.5ZM18.749 14.71V13.96H18.749L18.749 14.71ZM21.249 16.5V17.25C21.6632 17.25 21.999 16.9142 21.999 16.5H21.249ZM18.749 16.21V15.46H18.7489L18.749 16.21ZM16.5801 17.4619L17.2312 17.8341L17.2313 17.834L16.5801 17.4619ZM15.5576 17.7412L15.1855 18.3924L15.1858 18.3925L15.5576 17.7412ZM15.2783 16.7178L14.6272 16.3456L14.6271 16.3457L15.2783 16.7178ZM21.999 14.5V13.75L21.9987 13.75L21.999 14.5ZM22.749 17.25L23.4977 17.2954C23.4986 17.2803 23.499 17.2651 23.499 17.25H22.749ZM22.7451 17.3145L21.9965 17.2691C21.9715 17.6806 22.2835 18.0351 22.6948 18.0628C23.1062 18.0904 23.4627 17.7809 23.4931 17.3697L22.7451 17.3145ZM22.6787 16.9414L23.3574 16.6221C23.3518 16.6103 23.3459 16.5985 23.3397 16.587L22.6787 16.9414ZM22.6426 16.874L23.3035 16.5196C23.2688 16.4549 23.2248 16.3956 23.1729 16.3437L22.6426 16.874ZM22.6416 16.873L21.9708 17.2085C22.0068 17.2806 22.0543 17.3464 22.1113 17.4034L22.6416 16.873ZM22.6406 16.8711L23.3114 16.5357C23.3024 16.5176 23.2926 16.4999 23.2822 16.4826L22.6406 16.8711ZM22.6387 16.8682L23.2791 16.4778L23.279 16.4776L22.6387 16.8682ZM22.6338 16.8604L23.2715 16.4656L23.2714 16.4654L22.6338 16.8604ZM22.6182 16.835L23.2498 16.4306L23.2497 16.4305L22.6182 16.835ZM22.5674 16.7588L23.1859 16.3346L23.1858 16.3345L22.5674 16.7588ZM22.3818 16.5098L22.9672 16.0409L22.9672 16.0409L22.3818 16.5098ZM21.668 15.7832L22.1475 15.2065L22.1474 15.2065L21.668 15.7832ZM15.1094 20.1396H14.3594C14.3594 20.2093 14.3643 20.2763 14.3729 20.3399L15.1162 20.2402L15.8596 20.1406L15.8594 20.1396H15.1094ZM15.1162 20.2402L14.3716 20.3301C14.3758 20.3645 14.3812 20.3925 14.3833 20.4034C14.3839 20.4064 14.3845 20.4092 14.3848 20.4107C14.3852 20.4127 14.3853 20.4132 14.3854 20.4137C14.3856 20.4147 14.385 20.4116 14.3841 20.4068L15.123 20.2783L15.862 20.1498C15.86 20.1386 15.8582 20.1292 15.8571 20.1238C15.8566 20.1212 15.8561 20.1186 15.8558 20.1173C15.8557 20.1166 15.8556 20.1161 15.8555 20.1157C15.8555 20.1155 15.8554 20.1154 15.8554 20.1153C15.8554 20.1152 15.8554 20.1152 15.8554 20.1152C15.8554 20.1152 15.8554 20.1152 15.8554 20.1153C15.8554 20.1154 15.8555 20.1156 15.8555 20.1158C15.8556 20.1161 15.8557 20.1167 15.8558 20.1174C15.8561 20.1188 15.8565 20.1211 15.857 20.124C15.858 20.1297 15.8594 20.1388 15.8608 20.1504L15.1162 20.2402ZM15.123 20.2783L14.3858 20.4163C14.3895 20.4358 14.3932 20.4519 14.395 20.4599C14.3959 20.4637 14.3969 20.468 14.3971 20.4689C14.3975 20.4707 14.3974 20.4703 14.3972 20.4693L15.1289 20.3047L15.8606 20.1401C15.8594 20.1346 15.8583 20.1299 15.8577 20.1273C15.8572 20.1251 15.8573 20.1256 15.8569 20.1242C15.8569 20.1238 15.8568 20.1236 15.8568 20.1234C15.8567 20.1232 15.8567 20.1231 15.8567 20.1231C15.8567 20.1231 15.8567 20.1233 15.8568 20.1234C15.8568 20.1236 15.8569 20.1239 15.857 20.1243C15.8571 20.125 15.8574 20.1261 15.8577 20.1275C15.8583 20.1303 15.8592 20.1347 15.8602 20.1403L15.123 20.2783ZM15.1289 20.3047L14.3952 20.46C14.4256 20.6037 14.4797 20.7684 14.5798 20.9321L15.2197 20.541L15.8597 20.1499C15.8683 20.164 15.8666 20.168 15.8627 20.1494L15.1289 20.3047ZM15.2197 20.541H14.4697V20.542H15.2197H15.9697V20.541H15.2197ZM15.2197 20.542L14.6894 21.0723L14.6904 21.0733L15.2207 20.543L15.751 20.0126L15.7501 20.0117L15.2197 20.542ZM15.2207 20.543L14.5819 20.9359C14.5861 20.9428 14.5898 20.9485 14.5926 20.9528C14.5954 20.9571 14.5978 20.9607 14.5994 20.9631C14.6011 20.9656 14.6024 20.9676 14.6032 20.9686C14.6038 20.9695 14.6045 20.9705 14.6042 20.9702C14.6042 20.9701 14.604 20.9699 14.6038 20.9696C14.6036 20.9693 14.6033 20.9688 14.6029 20.9682C14.6021 20.967 14.6008 20.9651 14.5992 20.9628C14.5962 20.9584 14.5911 20.9506 14.5849 20.9406L15.2227 20.5459L15.8604 20.1512C15.8539 20.1407 15.8484 20.1324 15.8451 20.1274C15.8419 20.1227 15.8392 20.1188 15.839 20.1186C15.8386 20.118 15.8391 20.1187 15.8396 20.1193C15.8401 20.1201 15.8413 20.1219 15.8428 20.1241C15.8443 20.1264 15.8466 20.1297 15.8492 20.1338C15.8519 20.1378 15.8554 20.1434 15.8595 20.1501L15.2207 20.543ZM15.2227 20.5459L14.5849 20.9406C14.5877 20.9451 14.5908 20.95 14.5922 20.9522L15.2275 20.5537L15.8629 20.1552C15.8619 20.1536 15.8613 20.1526 15.8607 20.1517C15.8601 20.1508 15.8601 20.1507 15.8604 20.1511L15.2227 20.5459ZM15.2275 20.5537L14.5922 20.9523C14.5888 20.9468 14.5865 20.943 14.5864 20.9429C14.5863 20.9427 14.5863 20.9427 14.5868 20.9436C14.5872 20.9441 14.5881 20.9456 14.5889 20.9471C14.5926 20.9533 14.6005 20.9665 14.6107 20.9823L15.2412 20.5762L15.8718 20.1701C15.8762 20.1769 15.879 20.1818 15.8782 20.1804C15.878 20.18 15.8778 20.1797 15.8771 20.1785C15.8765 20.1775 15.8755 20.1758 15.8744 20.174C15.8723 20.1705 15.8681 20.1635 15.8629 20.1551L15.2275 20.5537ZM15.2412 20.5762L14.6107 20.9824C14.6289 21.0105 14.6517 21.0441 14.6714 21.073L15.291 20.6504L15.9106 20.2277C15.8889 20.196 15.8773 20.1787 15.8717 20.17L15.2412 20.5762ZM15.291 20.6504L14.6715 21.0731C14.7193 21.1431 14.7871 21.2392 14.8745 21.3517L15.4668 20.8916L16.0591 20.4315C15.9948 20.3488 15.9453 20.2787 15.9105 20.2277L15.291 20.6504ZM15.4668 20.8916L14.8745 21.3517C15.0466 21.5732 15.2995 21.8665 15.6284 22.1633L16.1309 21.6064L16.6333 21.0496C16.3833 20.8241 16.1895 20.5993 16.0591 20.4315L15.4668 20.8916ZM16.1309 21.6064L15.6284 22.1633C15.7897 22.3088 15.9739 22.4581 16.1796 22.6019L16.6094 21.9873L17.0392 21.3727C16.888 21.267 16.7521 21.1568 16.6333 21.0496L16.1309 21.6064ZM16.6094 21.9873H15.8594V22H16.6094H17.3594V21.9873H16.6094ZM16.6094 22H15.8594V22.75V23.5C16.6878 23.5 17.3594 22.8284 17.3594 22H16.6094ZM15.8594 22.75V22H15.1094H14.3594C14.3594 22.8284 15.0309 23.5 15.8594 23.5V22.75ZM15.1094 22H15.8594V20.1396H15.1094H14.3594V22H15.1094ZM20.9102 19.9551L21.5596 20.3301L21.5596 20.3302L21.9346 19.6807L22.3096 19.0311C21.5922 18.617 20.6749 18.8626 20.2607 19.58L20.9102 19.9551ZM21.9346 19.6807L21.5594 20.3301L21.5595 20.3301L22.209 20.7051L22.8585 21.0801C23.2727 20.3626 23.0267 19.4455 22.3098 19.0313L21.9346 19.6807ZM22.209 20.7051L21.5595 20.3301C20.9994 21.3002 19.9489 21.9502 18.749 21.9502V22.7002V23.4502C20.5034 23.4502 22.0399 22.4979 22.8585 21.0801L22.209 20.7051ZM18.749 22.7002L18.7491 21.9502C18.0756 21.9501 17.5009 21.6956 17.0392 21.3727L16.6094 21.9873L16.1796 22.6019C16.8116 23.0439 17.6815 23.4501 18.7489 23.4502L18.749 22.7002ZM16.6094 21.9873H17.3594V20.8896H16.6094H15.8594V21.9873H16.6094ZM16.6094 20.8896V21.6396H17.6729V20.8896V20.1396H16.6094V20.8896ZM17.6729 20.8896L17.2955 21.5378C17.7019 21.7744 18.1926 21.9501 18.7489 21.9502L18.749 21.2002L18.7492 20.4502C18.5163 20.4502 18.2839 20.3776 18.0502 20.2415L17.6729 20.8896ZM18.749 21.2002V21.9502C19.9486 21.9502 20.9994 21.3005 21.5597 20.3301L20.9102 19.9551L20.2606 19.5801C19.9595 20.1017 19.3952 20.4502 18.749 20.4502V21.2002ZM17.8594 19.3896V20.1396V20.14L18.6094 20.1396L19.3594 20.1393C19.359 19.3116 18.688 18.6396 17.8594 18.6396V19.3896ZM18.6094 20.1396H17.8594V20.8896V21.6396C18.6878 21.6396 19.3594 20.9681 19.3594 20.1396H18.6094ZM17.8594 20.8896V20.1396H17.6729V20.8896V21.6396H17.8594V20.8896ZM17.6729 20.8896L18.0502 20.2415C17.907 20.1581 17.7686 20.054 17.6381 19.9363L17.1357 20.4932L16.6333 21.05C16.8271 21.2249 17.0484 21.3939 17.2955 21.5378L17.6729 20.8896ZM17.1357 20.4932L17.6382 19.9363C17.4692 19.7839 17.3345 19.6276 17.2436 19.5106L16.6514 19.9707L16.0591 20.4308C16.1901 20.5995 16.3839 20.8249 16.6333 21.05L17.1357 20.4932ZM16.6514 19.9707L17.2437 19.5107C17.1971 19.4506 17.165 19.4056 17.1489 19.382L16.5293 19.8047L15.9097 20.2273C15.9452 20.2794 15.9958 20.3494 16.059 20.4308L16.6514 19.9707ZM16.5293 19.8047L17.1489 19.3821L17.1484 19.3816L16.5156 19.7842L15.8828 20.1867C15.8939 20.2042 15.9049 20.2202 15.9097 20.2273L16.5293 19.8047ZM16.5156 19.7842L15.8565 20.1421C15.8602 20.1488 15.8608 20.1517 15.8606 20.1507C15.8602 20.1494 15.8594 20.1455 15.8594 20.14L16.6094 20.1396L17.3594 20.1393C17.3593 19.8677 17.2831 19.6258 17.1747 19.4263L16.5156 19.7842ZM16.6094 20.1396H15.8594V20.8896H16.6094H17.3594V20.1396H16.6094ZM16.6094 20.8896V20.1396H15.8594V20.8896V21.6396H16.6094V20.8896ZM15.8594 20.8896V20.1396C15.8581 20.1396 15.8588 20.1395 15.8601 20.14C15.8611 20.1404 15.8614 20.1407 15.8612 20.1405C15.8603 20.1398 15.8604 20.1393 15.8606 20.1401L15.1289 20.3047L14.3972 20.4693C14.5474 21.1369 15.1417 21.6396 15.8594 21.6396V20.8896ZM15.1289 20.3047L15.8627 20.1494C15.8625 20.1488 15.8625 20.148 15.8625 20.1472C15.8626 20.1463 15.8628 20.1458 15.8628 20.1459C15.8627 20.1461 15.8623 20.147 15.8612 20.1483C15.86 20.1497 15.8591 20.1501 15.8598 20.1497L15.4688 19.5098L15.0777 18.8698C14.515 19.2137 14.2686 19.8618 14.3952 20.46L15.1289 20.3047ZM15.4688 19.5098L15.8594 20.15L15.859 20.1492L16.4561 19.6953L17.0531 19.2415C16.5928 18.6358 15.7409 18.4652 15.0781 18.8695L15.4688 19.5098ZM16.4561 19.6953L15.8335 20.1136L15.8755 20.1761L16.498 19.7578L17.1206 19.3395L17.0786 19.277L16.4561 19.6953ZM16.498 19.7578H17.248V19.7568H16.498H15.748V19.7578H16.498ZM16.498 19.7568L15.8629 20.1557C15.8692 20.1657 15.8747 20.1739 15.8788 20.18C15.883 20.1861 15.8866 20.1913 15.8894 20.195C15.8921 20.1989 15.8945 20.2021 15.8961 20.2043C15.8979 20.2066 15.8993 20.2085 15.9002 20.2097C15.9017 20.2117 15.9033 20.2138 15.9028 20.2131C15.9027 20.2131 15.9018 20.2119 15.9006 20.2103C15.898 20.2068 15.8938 20.2011 15.8888 20.1941C15.8838 20.187 15.8783 20.1789 15.8724 20.1698L16.5029 19.7637L17.1335 19.3575C17.1264 19.3466 17.1197 19.3368 17.1137 19.3283C17.1077 19.3197 17.1025 19.3128 17.0991 19.3082C17.0974 19.306 17.0961 19.3043 17.0957 19.3038C17.0948 19.3026 17.0961 19.3043 17.0973 19.3059C17.0981 19.3069 17.0993 19.3086 17.1009 19.3107C17.1025 19.3128 17.1047 19.3158 17.1073 19.3195C17.1099 19.3231 17.1134 19.3281 17.1175 19.3341C17.1216 19.34 17.127 19.3481 17.1332 19.358L16.498 19.7568ZM16.5029 19.7637L15.8725 20.1699C15.869 20.1646 15.8667 20.1608 15.8665 20.1604C15.8664 20.1602 15.8661 20.1599 15.8678 20.1626C15.8704 20.1668 15.8759 20.1759 15.8828 20.1867L16.5156 19.7842L17.1484 19.3816C17.1497 19.3837 17.1505 19.3849 17.1488 19.3821C17.1484 19.3815 17.1462 19.3779 17.1443 19.3748C17.1423 19.3716 17.1383 19.3651 17.1334 19.3575L16.5029 19.7637ZM16.5156 19.7842L17.1747 19.4263C16.9253 18.967 16.4371 18.6396 15.8594 18.6396V19.3896V20.1396C15.8597 20.1396 15.8585 20.1396 15.8565 20.1391C15.8548 20.1386 15.8536 20.138 15.8531 20.1377C15.8527 20.1374 15.8547 20.1386 15.8565 20.1421L16.5156 19.7842ZM15.8594 19.3896V20.1396H17.8594V19.3896V18.6396H15.8594V19.3896ZM22.7451 17.3438L21.9999 17.2595L21.9996 17.2604L22.3857 17.9033L22.7719 18.5463C23.1887 18.296 23.44 17.8742 23.4904 17.428L22.7451 17.3438ZM22.3857 17.9033L21.9999 17.2602C22.0009 17.2596 22.0024 17.2588 22.0041 17.2582C22.0058 17.2576 22.0071 17.2572 22.0078 17.2571C22.0092 17.2568 22.0071 17.2575 22.0012 17.2567L21.9014 18L21.8016 18.7433C22.1157 18.7855 22.4602 18.7333 22.7716 18.5464L22.3857 17.9033ZM21.9014 18V18.75H21.999V18V17.25H21.9014V18ZM21.999 18V18.75C22.7758 18.75 23.4139 18.1601 23.4912 17.4034L22.7451 17.3271L21.999 17.2509L21.999 17.25V18ZM22.7451 17.3271H21.9951V17.3438H22.7451H23.4951V17.3271H22.7451ZM20.0273 16.5L19.7044 17.1769C19.9073 17.2737 20.0829 17.3914 20.2295 17.5132L20.709 16.9365L21.1885 16.3598C20.955 16.1657 20.6753 15.9781 20.3503 15.8231L20.0273 16.5ZM20.709 16.9365L20.2295 17.5132C20.4063 17.6602 20.5392 17.8084 20.6256 17.9162L21.2109 17.4473L21.7962 16.9783C21.6618 16.8105 21.4595 16.5851 21.1885 16.3598L20.709 16.9365ZM21.2109 17.4473L20.6256 17.9161C20.6664 17.9671 20.6952 18.0077 20.7116 18.0317L21.3301 17.6074L21.9485 17.1831C21.9162 17.1361 21.8653 17.0645 21.7963 16.9784L21.2109 17.4473ZM21.3301 17.6074L20.7116 18.0317C20.7153 18.037 20.7186 18.0419 20.7214 18.046C20.7246 18.0505 20.7263 18.053 20.7282 18.0558C20.7301 18.0585 20.7306 18.0592 20.7304 18.059C20.7303 18.0588 20.7297 18.0579 20.7287 18.0565C20.7278 18.0551 20.7261 18.0524 20.7238 18.0489L21.3555 17.6445L21.9871 17.2402C21.9809 17.2304 21.9754 17.2222 21.9723 17.2177C21.9689 17.2127 21.9656 17.2079 21.9631 17.2043C21.9571 17.1955 21.954 17.1912 21.9486 17.1832L21.3301 17.6074ZM21.3555 17.6445L20.6846 17.9799L20.6856 17.9819L21.3564 17.6465L22.0273 17.3111L22.0263 17.3091L21.3555 17.6445ZM21.3564 17.6465H22.1064V17.6455H21.3564H20.6064V17.6465H21.3564ZM21.3564 17.6455L20.7133 18.0314C20.9618 18.4455 21.3748 18.686 21.8016 18.7433L21.9014 18L22.0012 17.2567C21.9962 17.256 21.9942 17.2546 21.995 17.2551C21.9955 17.2554 21.9965 17.2562 21.9977 17.2573C21.9982 17.2579 21.9987 17.2584 21.999 17.2589C21.9994 17.2594 21.9996 17.2597 21.9996 17.2596L21.3564 17.6455ZM21.9014 18V17.25H19.999V18V18.75H21.9014V18ZM19.999 18L19.9994 17.25H19.999H19.249H18.499C18.499 18.0787 19.171 18.7496 19.9987 18.75L19.999 18ZM19.249 17.25H19.999H19.9994L19.999 16.5L19.9987 15.75C19.171 15.7504 18.499 16.4213 18.499 17.25H19.249ZM19.999 16.5V17.25H20.0273V16.5V15.75H19.999V16.5ZM18.749 14.71V15.46C19.6198 15.46 20.3122 15.7509 20.8334 16.0979L21.249 15.4736L21.6647 14.8494C20.9506 14.3739 19.9739 13.96 18.749 13.96V14.71ZM21.249 15.4736H20.499V16.5H21.249H21.999V15.4736H21.249ZM21.249 16.5V15.75H20.0273V16.5V17.25H21.249V16.5ZM20.0273 16.5L20.3503 15.8231C19.9051 15.6107 19.3707 15.46 18.749 15.46V16.21V16.96C19.1203 16.96 19.4352 17.0485 19.7044 17.1769L20.0273 16.5ZM18.749 16.21L18.7489 15.46C17.5396 15.4601 16.4891 16.1095 15.9289 17.0898L16.5801 17.4619L17.2313 17.834C17.5315 17.3086 18.0921 16.9601 18.7491 16.96L18.749 16.21ZM16.5801 17.4619L15.9289 17.0897L15.9295 17.0899L15.5576 17.7412L15.1858 18.3925C15.9054 18.8033 16.8205 18.5527 17.2312 17.8341L16.5801 17.4619ZM15.5576 17.7412L15.9297 17.09L15.9295 17.0899L15.2783 16.7178L14.6271 16.3457C14.216 17.0652 14.4665 17.9815 15.1855 18.3924L15.5576 17.7412ZM15.2783 16.7178L15.9295 17.0899C16.4896 16.1099 17.5395 15.4601 18.7491 15.46L18.749 14.71L18.749 13.96C16.9856 13.9601 15.4465 14.9119 14.6272 16.3456L15.2783 16.7178ZM21.999 14.5V15.25H22.749H23.499C23.499 14.4216 22.8275 13.75 21.999 13.75V14.5ZM22.749 15.25H21.999V17.25H22.749H23.499V15.25H22.749ZM22.749 17.25L22.0004 17.2046L21.9965 17.2691L22.7451 17.3145L23.4937 17.3598L23.4977 17.2954L22.749 17.25ZM22.7451 17.3145L23.4931 17.3697C23.5108 17.1301 23.4743 16.8708 23.3574 16.6221L22.6787 16.9414L22.0001 17.2607C21.9981 17.2566 21.9974 17.2534 21.9972 17.2524C21.9971 17.2515 21.9976 17.2537 21.9972 17.2592L22.7451 17.3145ZM22.6787 16.9414L23.3397 16.587L23.3035 16.5196L22.6426 16.874L21.9816 17.2285L22.0177 17.2958L22.6787 16.9414ZM22.6426 16.874L23.1729 16.3437L23.1719 16.3427L22.6416 16.873L22.1113 17.4034L22.1122 17.4044L22.6426 16.874ZM22.6416 16.873L23.3124 16.5376L23.3114 16.5357L22.6406 16.8711L21.9698 17.2065L21.9708 17.2085L22.6416 16.873ZM22.6406 16.8711L23.2822 16.4826C23.2773 16.4745 23.273 16.4678 23.2697 16.4628C23.2665 16.4578 23.2637 16.4536 23.2618 16.4507C23.2598 16.4478 23.2582 16.4455 23.2573 16.4442C23.2566 16.4431 23.2558 16.442 23.256 16.4423C23.256 16.4423 23.256 16.4424 23.2561 16.4425C23.2562 16.4425 23.2563 16.4427 23.2564 16.4429C23.2566 16.4432 23.257 16.4437 23.2575 16.4444C23.2584 16.4457 23.2598 16.4479 23.2617 16.4506C23.2651 16.4557 23.2715 16.4653 23.2791 16.4778L22.6387 16.8682L21.9983 17.2585C22.0062 17.2715 22.0129 17.2817 22.0166 17.2872C22.0186 17.2902 22.0203 17.2926 22.0214 17.2942C22.0224 17.2957 22.0233 17.2969 22.0234 17.2971C22.0237 17.2976 22.0231 17.2967 22.0225 17.2959C22.0218 17.2949 22.0204 17.2928 22.0186 17.2901C22.0168 17.2875 22.0142 17.2836 22.0111 17.2787C22.008 17.274 22.0038 17.2674 21.9991 17.2596L22.6406 16.8711ZM22.6387 16.8682L23.279 16.4776C23.2768 16.474 23.2749 16.471 23.2737 16.4691C23.2725 16.4672 23.2714 16.4655 23.271 16.4648C23.2697 16.4627 23.2705 16.464 23.2715 16.4656L22.6338 16.8604L21.9961 17.2551C21.9989 17.2596 22.0015 17.2638 22.0018 17.2643C22.0022 17.2649 22.0019 17.2645 22.0015 17.2638C22.001 17.263 21.9999 17.2612 21.9984 17.2587L22.6387 16.8682ZM22.6338 16.8604L23.2714 16.4654C23.2724 16.467 23.2728 16.4678 23.2719 16.4663C23.2717 16.466 23.2692 16.4618 23.2678 16.4595C23.264 16.4532 23.2576 16.4427 23.2498 16.4306L22.6182 16.835L21.9865 17.2393C21.985 17.237 21.9844 17.236 21.9859 17.2383C21.9862 17.2389 21.9866 17.2395 21.9871 17.2405C21.9876 17.2412 21.9884 17.2426 21.9892 17.2438C21.9906 17.2461 21.9932 17.2504 21.9962 17.2553L22.6338 16.8604ZM22.6182 16.835L23.2497 16.4305C23.232 16.4028 23.2105 16.3704 23.1859 16.3346L22.5674 16.7588L21.9489 17.183C21.9669 17.2093 21.9794 17.2282 21.9866 17.2395L22.6182 16.835ZM22.5674 16.7588L23.1858 16.3345C23.1331 16.2577 23.06 16.1568 22.9672 16.0409L22.3818 16.5098L21.7965 16.9786C21.8642 17.0632 21.9153 17.1341 21.949 17.1831L22.5674 16.7588ZM22.3818 16.5098L22.9672 16.0409C22.7831 15.811 22.5112 15.509 22.1475 15.2065L21.668 15.7832L21.1885 16.3599C21.4585 16.5844 21.6609 16.8094 21.7965 16.9787L22.3818 16.5098ZM21.668 15.7832L22.1474 15.2065C21.9977 15.082 21.8353 14.9629 21.6647 14.8494L21.249 15.4736L20.8334 16.0979C20.9679 16.1875 21.0865 16.2751 21.1885 16.3599L21.668 15.7832ZM21.249 15.4736H21.999V15.25H21.249H20.499V15.4736H21.249ZM21.249 15.25H21.999L21.9994 15.25L21.999 14.5L21.9987 13.75C21.171 13.7504 20.499 14.4213 20.499 15.25H21.249Z" fill="#7328CE"/>
</svg>
