<svg width="24" height="24" viewBox="0 0 24 24" fill="none" xmlns="http://www.w3.org/2000/svg">
<mask id="mask0_251_28900" style="mask-type:luminance" maskUnits="userSpaceOnUse" x="0" y="0" width="24" height="24">
<rect width="24" height="24" fill="white"/>
</mask>
<g mask="url(#mask0_251_28900)">
<path fill-rule="evenodd" clip-rule="evenodd" d="M6.01999 9.62009L1.57999 6.62009C1.37999 6.48009 1.25 6.2501 1.25 6.0101C1.25 5.7601 1.36 5.53011 1.56 5.39011L7.12 1.39011C7.38 1.21011 7.72001 1.2001 7.98001 1.3801L12.42 4.3801C12.62 4.5201 12.75 4.75008 12.75 4.99008C12.75 5.24008 12.64 5.47008 12.44 5.61008L6.88 9.61008C6.75 9.70008 6.6 9.75009 6.44 9.75009C6.29 9.75009 6.14999 9.71009 6.01999 9.62009ZM6.42999 8.09009L10.69 5.02008L7.57001 2.9101L3.31 5.98011L6.42999 8.09009Z" fill="#7328CE"/>
<path fill-rule="evenodd" clip-rule="evenodd" d="M17.1186 9.61016L11.5586 5.61016C11.3586 5.47016 11.2386 5.23016 11.2486 4.99016C11.2486 4.74016 11.3786 4.52018 11.5786 4.38018L16.0186 1.38018C16.2786 1.21018 16.6186 1.21019 16.8786 1.39019L22.4386 5.39019C22.6386 5.53019 22.7586 5.77018 22.7486 6.01018C22.7486 6.26018 22.6186 6.48017 22.4186 6.62017L17.9786 9.62017C17.8486 9.71017 17.6986 9.75017 17.5586 9.75017C17.4086 9.75017 17.2486 9.70016 17.1186 9.61016ZM17.5686 8.09017L20.6886 5.98018L16.4286 2.91018L13.3086 5.02016L17.5686 8.09017Z" fill="#7328CE"/>
<path fill-rule="evenodd" clip-rule="evenodd" d="M7.11862 17.6102L1.55862 13.6102C1.35862 13.4702 1.23863 13.2302 1.24863 12.9902C1.24863 12.7402 1.37861 12.5202 1.57861 12.3802L6.01862 9.38018C6.27862 9.21018 6.61863 9.21019 6.87863 9.39019L12.4386 13.3902C12.6386 13.5302 12.7586 13.7702 12.7486 14.0102C12.7486 14.2602 12.6186 14.4802 12.4186 14.6202L7.97864 17.6202C7.84864 17.7102 7.69862 17.7502 7.55862 17.7502C7.40862 17.7502 7.24862 17.7002 7.11862 17.6102ZM7.56863 16.0902L10.6886 13.9802L6.42862 10.9102L3.30862 13.0202L7.56863 16.0902Z" fill="#7328CE"/>
<path fill-rule="evenodd" clip-rule="evenodd" d="M16.02 17.6201L11.58 14.6201C11.38 14.4801 11.25 14.2501 11.25 14.0101C11.25 13.7601 11.36 13.5301 11.56 13.3901L17.12 9.39011C17.37 9.21011 17.72 9.2001 17.98 9.3801L22.42 12.3801C22.62 12.5201 22.75 12.7501 22.75 12.9901C22.75 13.2401 22.64 13.4701 22.44 13.6101L16.88 17.6101C16.75 17.7001 16.6 17.7501 16.44 17.7501C16.29 17.7501 16.15 17.7101 16.02 17.6201ZM16.43 16.0901L20.69 13.0201L17.57 10.9101L13.31 13.9801L16.43 16.0901Z" fill="#7328CE"/>
<path d="M11.27 22.49L4.69 19.45C4.42 19.33 4.25 19.06 4.25 18.77V15.5C4.25 15.09 4.59 14.75 5 14.75C5.41 14.75 5.75 15.09 5.75 15.5V18.29L11.9 21.13C11.97 21.16 12.04 21.16 12.11 21.13L18.26 18.29V15.5C18.26 15.09 18.6 14.75 19.01 14.75C19.42 14.75 19.76 15.09 19.76 15.5V18.77C19.76 19.06 19.59 19.33 19.32 19.45L12.74 22.49C12.5 22.6 12.25 22.65 12 22.65C11.75 22.65 11.5 22.6 11.27 22.49Z" fill="#7328CE"/>
</g>
</svg>
