<svg width="24" height="24" viewBox="0 0 24 24" fill="none" xmlns="http://www.w3.org/2000/svg">
<path fill-rule="evenodd" clip-rule="evenodd" d="M9 22.75C3.57 22.75 1.25 20.43 1.25 15V9C1.25 3.57 3.57 1.25 9 1.25H15C20.43 1.25 22.75 3.57 22.75 9V15C22.75 20.43 20.43 22.75 15 22.75H9ZM2.75 9V15C2.75 19.61 4.39 21.25 9 21.25H15C19.61 21.25 21.25 19.61 21.25 15V9C21.25 4.39 19.61 2.75 15 2.75H9C4.39 2.75 2.75 4.39 2.75 9Z" fill="#7328CE"/>
<path d="M6.46945 8.77945C6.17945 8.48945 6.17945 8.00945 6.46945 7.71945C6.75945 7.42945 7.23945 7.42945 7.52945 7.71945C8.23945 8.42945 9.39945 8.42945 10.1095 7.71945C10.3995 7.42945 10.8795 7.42945 11.1695 7.71945C11.4595 8.00945 11.4595 8.48945 11.1695 8.77945C10.5195 9.41945 9.66945 9.74945 8.81945 9.74945C7.96945 9.74945 7.11945 9.42945 6.46945 8.77945Z" fill="#7328CE"/>
<path d="M12.8308 8.77945C12.5408 8.48945 12.5408 8.00945 12.8308 7.71945C13.1208 7.42945 13.6008 7.42945 13.8908 7.71945C14.6008 8.42945 15.7608 8.42945 16.4708 7.71945C16.7608 7.42945 17.2408 7.42945 17.5308 7.71945C17.8208 8.00945 17.8208 8.48945 17.5308 8.77945C16.8808 9.41945 16.0308 9.74945 15.1808 9.74945C14.3308 9.74945 13.4808 9.42945 12.8308 8.77945Z" fill="#7328CE"/>
<path fill-rule="evenodd" clip-rule="evenodd" d="M6.75 13.9C6.75 12.99 7.49 12.25 8.4 12.25H15.6C16.51 12.25 17.25 12.99 17.25 13.9C17.25 16.79 14.9 19.15 12 19.15C9.1 19.15 6.75 16.79 6.75 13.9ZM8.25 13.9C8.25 15.97 9.93 17.65 12 17.65C14.07 17.65 15.75 15.97 15.75 13.9C15.75 13.82 15.68 13.75 15.6 13.75H8.4C8.32 13.75 8.25 13.82 8.25 13.9Z" fill="#7328CE"/>
</svg>
