<svg width="24" height="24" viewBox="0 0 24 24" fill="none" xmlns="http://www.w3.org/2000/svg">
<path fill-rule="evenodd" clip-rule="evenodd" d="M9 22.75C3.57 22.75 1.25 20.43 1.25 15V9C1.25 3.57 3.57 1.25 9 1.25H15C20.43 1.25 22.75 3.57 22.75 9V15C22.75 20.43 20.43 22.75 15 22.75H9ZM2.75 9V15C2.75 19.61 4.39 21.25 9 21.25H15C19.61 21.25 21.25 19.61 21.25 15V9C21.25 4.39 19.61 2.75 15 2.75H9C4.39 2.75 2.75 4.39 2.75 9Z" fill="#7328CE"/>
<path d="M10.1095 9.28043C9.39945 8.57043 8.23945 8.57043 7.52945 9.28043C7.23945 9.57043 6.75945 9.57043 6.46945 9.28043C6.17945 8.99043 6.17945 8.51043 6.46945 8.22043C7.75945 6.93043 9.86945 6.93043 11.1695 8.22043C11.4595 8.51043 11.4595 8.99043 11.1695 9.28043C11.0195 9.43043 10.8295 9.50043 10.6395 9.50043C10.4495 9.50043 10.2595 9.43043 10.1095 9.28043Z" fill="#7328CE"/>
<path d="M12.8308 9.28043C12.5408 8.99043 12.5408 8.51043 12.8308 8.22043C14.1208 6.93043 16.2308 6.93043 17.5308 8.22043C17.8208 8.51043 17.8208 8.99043 17.5308 9.28043C17.2408 9.57043 16.7608 9.57043 16.4708 9.28043C15.7608 8.57043 14.6008 8.57043 13.8908 9.28043C13.7508 9.43043 13.5608 9.50043 13.3608 9.50043C13.1708 9.50043 12.9808 9.43043 12.8308 9.28043Z" fill="#7328CE"/>
<path fill-rule="evenodd" clip-rule="evenodd" d="M8.4 18.4498C7.49 18.4498 6.75 17.7098 6.75 16.7998C6.75 13.9098 9.1 11.5498 12 11.5498C14.9 11.5498 17.25 13.9098 17.25 16.7998C17.25 17.7098 16.51 18.4498 15.6 18.4498H8.4ZM8.25 16.7998C8.25 16.8798 8.32 16.9498 8.4 16.9498H15.6C15.68 16.9498 15.75 16.8798 15.75 16.7998C15.75 14.7298 14.07 13.0498 12 13.0498C9.93 13.0498 8.25 14.7298 8.25 16.7998Z" fill="#7328CE"/>
</svg>
