<svg width="24" height="24" viewBox="0 0 24 24" fill="none" xmlns="http://www.w3.org/2000/svg">
<mask id="mask0_251_28223" style="mask-type:luminance" maskUnits="userSpaceOnUse" x="0" y="0" width="24" height="24">
<rect width="24" height="24" fill="white"/>
</mask>
<g mask="url(#mask0_251_28223)">
<path fill-rule="evenodd" clip-rule="evenodd" d="M16.7911 9.78961L12.0212 7.66961L7.20116 9.78961C6.70116 10.0096 6.11117 9.86961 5.77117 9.42961C5.43117 8.98961 5.44114 8.37961 5.80114 7.95961L10.8011 1.84961C11.4111 1.09961 12.5912 1.09961 13.2112 1.84961L18.2112 7.95961C18.5612 8.38961 18.5711 8.98961 18.2411 9.42961C17.9911 9.71961 17.6412 9.88961 17.2812 9.88961C17.1212 9.88961 16.9511 9.85961 16.7911 9.78961ZM12.6312 6.28961L16.2112 7.87961L12.0411 2.78961L7.81115 7.86961L11.3711 6.28961C11.5711 6.19961 11.7811 6.15961 12.0011 6.15961C12.2111 6.15961 12.4312 6.19961 12.6312 6.28961Z" fill="#7328CE"/>
<path fill-rule="evenodd" clip-rule="evenodd" d="M10.7995 22.1597L5.7995 16.0497C5.4495 15.6197 5.43953 15.0197 5.76953 14.5797C6.10953 14.1397 6.68953 13.9897 7.19953 14.2097L11.9795 16.3297L16.7995 14.2097C17.3095 13.9897 17.8895 14.1397 18.2295 14.5797C18.5595 15.0197 18.5495 15.6197 18.1995 16.0497L13.1995 22.1597C12.8995 22.5397 12.4595 22.7497 11.9995 22.7497C11.5395 22.7497 11.0995 22.5397 10.7995 22.1597ZM11.9495 21.2097L16.1795 16.1297L12.6295 17.7097C12.2295 17.8897 11.7695 17.8897 11.3695 17.7097L7.78949 16.1197L11.9495 21.2097Z" fill="#7328CE"/>
<path fill-rule="evenodd" clip-rule="evenodd" d="M11.67 15.2895L6.41998 12.6695C6.16998 12.5395 6 12.2795 6 11.9995C6 11.7195 6.15998 11.4595 6.41998 11.3295L11.67 8.70945C11.88 8.59945 12.13 8.59945 12.34 8.70945L17.59 11.3295C17.84 11.4595 18.01 11.7195 18.01 11.9995C18.01 12.2795 17.85 12.5395 17.59 12.6695L12.34 15.2895C12.23 15.3495 12.12 15.3695 12 15.3695C11.88 15.3695 11.77 15.3395 11.67 15.2895ZM12 13.7795L15.57 11.9995L12 10.2195L8.42999 11.9995L12 13.7795Z" fill="#7328CE"/>
</g>
</svg>
