<svg width="24" height="24" viewBox="0 0 24 24" fill="none" xmlns="http://www.w3.org/2000/svg">
<mask id="mask0_251_27864" style="mask-type:luminance" maskUnits="userSpaceOnUse" x="0" y="0" width="24" height="24">
<rect width="24" height="24" fill="white"/>
</mask>
<g mask="url(#mask0_251_27864)">
<path fill-rule="evenodd" clip-rule="evenodd" d="M10.7699 13.27L7.03992 11.4C6.25992 11.01 5.70992 10.33 5.53992 9.55C5.36992 8.76 5.57991 7.92 6.12991 7.24L9.85992 2.58C10.4099 1.89 11.1899 1.5 11.9999 1.5C12.8099 1.5 13.5899 1.89 14.1399 2.58L17.8699 7.25C18.4199 7.93 18.6299 8.77 18.4599 9.56C18.2899 10.35 17.7399 11.02 16.9599 11.41L13.2299 13.28C12.8799 13.45 12.4399 13.53 11.9999 13.53C11.5599 13.53 11.1199 13.44 10.7699 13.27ZM7.29992 8.18C7.03992 8.51 6.92992 8.88 7.00992 9.23C7.08992 9.58 7.33992 9.87 7.71992 10.06L11.4499 11.93C11.7299 12.07 12.2799 12.07 12.5599 11.93L16.2899 10.06C16.6699 9.87 16.9199 9.57 16.9999 9.23C17.0799 8.89 16.9699 8.51 16.7099 8.18L12.9799 3.52C12.4299 2.85 11.5699 2.85 11.0299 3.52L7.29992 8.18Z" fill="#7328CE"/>
<path d="M11.25 7.5598V2.2998C11.25 1.8898 11.59 1.5498 12 1.5498C12.41 1.5498 12.75 1.8898 12.75 2.2998V7.5598C12.75 7.9698 12.41 8.3098 12 8.3098C11.59 8.3098 11.25 7.9698 11.25 7.5598Z" fill="#7328CE"/>
<path d="M15.7511 11.3096L12.0011 8.48957L8.25106 11.3096C7.92106 11.5596 7.45105 11.4896 7.20105 11.1596C6.95105 10.8296 7.02106 10.3596 7.35106 10.1096L11.5511 6.95957C11.8211 6.75957 12.1811 6.75957 12.4511 6.95957L16.6511 10.1096C16.9811 10.3596 17.0511 10.8296 16.8011 11.1596C16.6611 11.3596 16.4311 11.4596 16.2011 11.4596C16.0411 11.4596 15.8911 11.4096 15.7511 11.3096Z" fill="#7328CE"/>
<path fill-rule="evenodd" clip-rule="evenodd" d="M9.87113 21.4401L6.41113 17.21C5.74113 16.39 5.72113 15.27 6.36113 14.42C7.00113 13.57 8.09113 13.3 9.06113 13.73L10.6711 14.45C11.5111 14.82 12.4711 14.82 13.3111 14.45L14.9211 13.73C15.8911 13.3 16.9811 13.58 17.6211 14.42C18.2711 15.27 18.2511 16.39 17.5711 17.21L14.1111 21.4401C13.5811 22.1201 12.8011 22.5 12.0011 22.5C11.2011 22.5 10.4211 22.1201 9.87113 21.4401ZM7.56113 15.34C7.48113 15.45 7.23113 15.8401 7.58113 16.2701L11.0411 20.5C11.5711 21.15 12.4411 21.15 12.9711 20.5L16.4311 16.2701C16.7811 15.8401 16.5311 15.45 16.4511 15.34C16.3711 15.23 16.0511 14.89 15.5511 15.11L13.9411 15.83C12.7111 16.37 11.3111 16.37 10.0811 15.83L8.47113 15.11C8.34113 15.06 8.23113 15.04 8.14113 15.04C7.83113 15.04 7.63113 15.26 7.56113 15.34Z" fill="#7328CE"/>
</g>
</svg>
