<svg width="24" height="24" viewBox="0 0 24 24" fill="none" xmlns="http://www.w3.org/2000/svg">
<path fill-rule="evenodd" clip-rule="evenodd" d="M7.66992 11.9999C7.66992 9.60992 9.60992 7.66992 11.9999 7.66992C14.3899 7.66992 16.3299 9.60992 16.3299 11.9999C16.3299 14.3899 14.3899 16.3299 11.9999 16.3299C9.60992 16.3299 7.66992 14.3899 7.66992 11.9999ZM9.16992 11.9999C9.16992 13.5599 10.4399 14.8299 11.9999 14.8299C13.5599 14.8299 14.8299 13.5599 14.8299 11.9999C14.8299 10.4399 13.5599 9.16992 11.9999 9.16992C10.4399 9.16992 9.16992 10.4399 9.16992 11.9999Z" fill="#7328CE"/>
<path fill-rule="evenodd" clip-rule="evenodd" d="M2.25008 14.9995C1.19008 13.3495 1.19008 10.6595 2.25008 8.99949C4.70008 5.17949 8.25008 2.97949 12.0001 2.97949C15.7501 2.97949 19.3001 5.17949 21.7401 8.99949C22.8001 10.6495 22.8001 13.3395 21.7401 14.9995C19.3001 18.8195 15.7501 21.0195 12.0001 21.0195C8.24008 21.0195 4.69008 18.8195 2.25008 14.9995ZM3.52008 9.80949C2.77008 10.9795 2.77008 13.0195 3.52008 14.1895C5.68008 17.5795 8.77008 19.5195 12.0001 19.5195C15.2301 19.5195 18.3201 17.5795 20.4801 14.1895C21.2301 13.0195 21.2301 10.9795 20.4801 9.80949C18.3201 6.41949 15.2301 4.47949 12.0001 4.47949C8.77008 4.47949 5.68008 6.41949 3.52008 9.80949Z" fill="#7328CE"/>
</svg>
