<svg width="24" height="24" viewBox="0 0 24 24" fill="none" xmlns="http://www.w3.org/2000/svg">
<path d="M9.50969 22.66C9.10969 22.51 8.42969 22.02 8.42969 20.47V18.03C8.42969 17.62 8.76969 17.28 9.17969 17.28C9.58969 17.28 9.92969 17.62 9.92969 18.03V20.47C9.92969 20.97 10.0197 21.19 10.0597 21.25C10.0897 21.21 10.2997 21.11 10.6297 20.73L18.1997 12.13C18.4797 11.81 18.5197 11.61 18.5197 11.57C18.4997 11.56 18.3197 11.46 17.8997 11.46H16.9697C16.5597 11.46 16.2197 11.12 16.2197 10.71C16.2197 10.3 16.5597 9.95996 16.9697 9.95996H17.8997C19.2397 9.95996 19.7197 10.59 19.8897 10.96C20.0597 11.34 20.2097 12.11 19.3297 13.12L11.7597 21.72C11.0497 22.54 10.4297 22.75 9.98969 22.75C9.78969 22.75 9.62969 22.71 9.50969 22.66Z" fill="#7328CE"/>
<path d="M8.43057 14.4701V14.0401H6.09057C4.75057 14.0401 4.27057 13.4101 4.10057 13.0401C3.93057 12.6601 3.78057 11.8901 4.66057 10.8801L12.2306 2.28015C13.2506 1.12015 14.0806 1.20015 14.4806 1.35015C14.8806 1.50015 15.5606 1.99015 15.5606 3.54015V8.85015C15.5606 9.26015 15.2206 9.60015 14.8106 9.60015C14.4006 9.60015 14.0606 9.26015 14.0606 8.85015V3.52015C14.0606 3.02015 13.9706 2.80015 13.9306 2.74015C13.9006 2.78015 13.6906 2.88015 13.3606 3.26015L5.79057 11.8601C5.51057 12.1801 5.47057 12.3801 5.47057 12.4201C5.49057 12.4301 5.67057 12.5301 6.09057 12.5301H9.18057C9.59057 12.5301 9.93057 12.8701 9.93057 13.2801V14.4601C9.93057 14.8801 9.59057 15.2201 9.18057 15.2201C8.77057 15.2201 8.43057 14.8801 8.43057 14.4701Z" fill="#7328CE"/>
<path d="M1.46945 22.5304C1.17945 22.2404 1.17945 21.7604 1.46945 21.4704L21.4695 1.47043C21.7595 1.18043 22.2395 1.18043 22.5295 1.47043C22.8195 1.76043 22.8195 2.24043 22.5295 2.53043L2.52945 22.5304C2.37945 22.6804 2.18945 22.7504 1.99945 22.7504C1.80945 22.7504 1.61945 22.6804 1.46945 22.5304Z" fill="#7328CE"/>
</svg>
