<svg width="24" height="24" viewBox="0 0 24 24" fill="none" xmlns="http://www.w3.org/2000/svg">
<path fill-rule="evenodd" clip-rule="evenodd" d="M10.5693 18.0806C10.0193 17.8706 9.65934 17.3606 9.65934 16.7706V13.4706H8.67934C8.11934 13.4706 7.62934 13.1506 7.39934 12.6506C7.16934 12.1406 7.25934 11.5706 7.62934 11.1506L11.8893 6.3106C12.2793 5.8706 12.8793 5.7206 13.4293 5.9306C13.9793 6.1406 14.3393 6.6506 14.3393 7.2406V10.5406H15.3293C15.8893 10.5406 16.3793 10.8606 16.6093 11.3606C16.8393 11.8706 16.7493 12.4406 16.3793 12.8606L12.1193 17.7006C11.8393 18.0006 11.4593 18.1706 11.0693 18.1706C10.8993 18.1706 10.7393 18.1406 10.5693 18.0806ZM10.4093 11.9706C10.8193 11.9706 11.1593 12.3106 11.1593 12.7206V16.5006L15.0993 12.0306H13.5893C13.1793 12.0306 12.8393 11.6906 12.8393 11.2806V7.5006L8.89934 11.9706H10.4093Z" fill="#7328CE"/>
<path fill-rule="evenodd" clip-rule="evenodd" d="M1.2207 12C1.2207 6.07 6.0507 1.25 11.9707 1.25C17.8907 1.25 22.7207 6.07 22.7207 12C22.7207 17.93 17.9007 22.75 11.9707 22.75C6.0507 22.75 1.2207 17.93 1.2207 12ZM2.7207 12C2.7207 17.1 6.8707 21.25 11.9707 21.25C17.0707 21.25 21.2207 17.1 21.2207 12C21.2207 6.9 17.0707 2.75 11.9707 2.75C6.8707 2.75 2.7207 6.9 2.7207 12Z" fill="#7328CE"/>
</svg>
