<svg width="24" height="24" viewBox="0 0 24 24" fill="none" xmlns="http://www.w3.org/2000/svg">
<path fill-rule="evenodd" clip-rule="evenodd" d="M9.51057 22.6596C9.11057 22.5096 8.43057 22.0196 8.43057 20.4696V14.0196H6.09057C4.75057 14.0196 4.27057 13.3896 4.10057 13.0196C3.93057 12.6396 3.78057 11.8696 4.66057 10.8596L12.2306 2.25964C13.2506 1.09964 14.0806 1.17964 14.4806 1.32964C14.8806 1.47964 15.5606 1.96964 15.5606 3.51964V9.96964H17.9006C19.2406 9.96964 19.7206 10.5996 19.8906 10.9696C20.0606 11.3496 20.2106 12.1196 19.3306 13.1296L11.7606 21.7296C11.0506 22.5396 10.4306 22.7496 9.99057 22.7496C9.79057 22.7496 9.63057 22.7096 9.51057 22.6596ZM13.3606 3.25964L5.79057 11.8596C5.51057 12.1796 5.47057 12.3796 5.47057 12.4196C5.49057 12.4296 5.67057 12.5296 6.09057 12.5296H9.18057C9.59057 12.5296 9.93057 12.8696 9.93057 13.2796V20.4796C9.93057 20.9796 10.0206 21.1996 10.0606 21.2596C10.0906 21.2196 10.3006 21.1196 10.6306 20.7396L18.2006 12.1396C18.4806 11.8196 18.5206 11.6196 18.5206 11.5796C18.5006 11.5696 18.3206 11.4696 17.9006 11.4696H14.8106C14.4006 11.4696 14.0606 11.1296 14.0606 10.7196V3.51964C14.0706 3.01964 13.9706 2.80964 13.9306 2.73964C13.9006 2.77964 13.6906 2.87964 13.3606 3.25964Z" fill="#7328CE"/>
</svg>
