<svg width="24" height="24" viewBox="0 0 24 24" fill="none" xmlns="http://www.w3.org/2000/svg">
<path fill-rule="evenodd" clip-rule="evenodd" d="M5.71093 22.75C2.31093 22.75 2.13093 20.88 1.98093 19.37L1.58093 14.36C1.49093 13.39 1.77093 12.42 2.39093 11.64C3.13093 10.74 4.18093 10.25 5.31093 10.25H18.6909C19.8009 10.25 20.8509 10.74 21.5609 11.59L21.7309 11.82C22.2709 12.56 22.5109 13.46 22.4209 14.37L22.0209 19.36C21.8709 20.88 21.6909 22.75 18.2909 22.75H5.71093ZM3.58093 12.57L3.51093 12.64C3.19093 13.05 3.02093 13.63 3.08093 14.23L3.48093 19.24C3.62093 20.7 3.68093 21.25 5.71093 21.25H18.2909C20.3309 21.25 20.3809 20.7 20.5209 19.23L20.9209 14.22C20.9809 13.63 20.8109 13.04 20.4209 12.58L20.3209 12.46C19.8709 11.99 19.3009 11.75 18.6809 11.75H5.31093C4.64093 11.75 4.00093 12.05 3.58093 12.57Z" fill="#7328CE"/>
<path d="M19.75 11.4703V9.68027C19.75 6.70027 19.23 6.18027 16.25 6.18027H13.7C12.57 6.18027 12.18 5.78027 11.75 5.21027L10.46 3.50027C10.02 2.92027 9.92 2.78027 9.02 2.78027H7.75C4.77 2.78027 4.25 3.30027 4.25 6.28027V11.4303C4.25 11.8403 3.91 12.1803 3.5 12.1803C3.09 12.1803 2.75 11.8403 2.75 11.4303V6.28027C2.75 2.45027 3.92 1.28027 7.75 1.28027H9.03C10.57 1.28027 11.05 1.78027 11.67 2.60027L12.95 4.30027C13.22 4.66027 13.24 4.68027 13.71 4.68027H16.26C20.09 4.68027 21.26 5.85027 21.26 9.68027V11.4703C21.25 11.8803 20.91 12.2203 20.5 12.2203C20.09 12.2203 19.75 11.8803 19.75 11.4703Z" fill="#7328CE"/>
<path d="M9.42969 17.75C9.01969 17.75 8.67969 17.41 8.67969 17C8.67969 16.59 9.01969 16.25 9.42969 16.25H14.5697C14.9797 16.25 15.3197 16.59 15.3197 17C15.3197 17.41 14.9897 17.75 14.5697 17.75H9.42969Z" fill="#7328CE"/>
</svg>
