<svg width="24" height="24" viewBox="0 0 24 24" fill="none" xmlns="http://www.w3.org/2000/svg">
<path d="M13.3998 4.94045L11.4197 2.47042C11.1597 2.15042 11.2097 1.67043 11.5397 1.42043C11.8697 1.17043 12.3298 1.21042 12.5898 1.54042L14.5698 4.01046C14.8298 4.33046 14.7798 4.81044 14.4498 5.06044C14.3098 5.16044 14.1397 5.22042 13.9797 5.22042C13.7597 5.22042 13.5398 5.12045 13.3998 4.94045Z" fill="#7328CE"/>
<path d="M2.35938 13.1097C2.35938 7.78974 6.67939 3.46973 11.9994 3.46973C12.6894 3.46973 13.3894 3.54974 14.1494 3.72974C14.5494 3.81974 14.8094 4.22976 14.7094 4.62976C14.6194 5.02976 14.2194 5.28976 13.8094 5.18976C13.1694 5.03976 12.5694 4.96973 11.9994 4.96973C7.50939 4.96973 3.85938 8.61974 3.85938 13.1097C3.85938 17.5997 7.50939 21.2498 11.9994 21.2498C16.4894 21.2498 20.1394 17.5997 20.1394 13.1097C20.1394 11.3697 19.5694 9.68976 18.4894 8.24976C18.2394 7.91976 18.3094 7.44977 18.6394 7.19977C18.9694 6.94977 19.4394 7.01973 19.6894 7.34973C20.9694 9.04973 21.6394 11.0397 21.6394 13.1097C21.6394 18.4297 17.3094 22.7498 11.9994 22.7498C6.68939 22.7498 2.35938 18.4297 2.35938 13.1097Z" fill="#7328CE"/>
<path d="M10.0906 16.9203C9.68065 16.9203 9.34065 16.5803 9.34065 16.1703C9.34065 15.7603 9.68065 15.4203 10.0906 15.4203H12.3806C12.8106 15.4203 13.1606 15.0703 13.1606 14.6403C13.1606 14.2103 12.8106 13.8603 12.3806 13.8603H10.0906C9.85065 13.8603 9.6206 13.7403 9.4806 13.5503C9.3406 13.3603 9.30062 13.1003 9.38062 12.8703L10.1406 10.5803C10.2406 10.2703 10.5306 10.0703 10.8506 10.0703H13.9106C14.3206 10.0703 14.6606 10.4103 14.6606 10.8203C14.6606 11.2303 14.3206 11.5703 13.9106 11.5703H11.3906L11.1306 12.3603H12.3806C13.6406 12.3603 14.6606 13.3803 14.6606 14.6403C14.6606 15.9003 13.6406 16.9203 12.3806 16.9203H10.0906Z" fill="#7328CE"/>
</svg>
