<svg width="24" height="24" viewBox="0 0 24 24" fill="none" xmlns="http://www.w3.org/2000/svg">
<path fill-rule="evenodd" clip-rule="evenodd" d="M2.60001 17.9905C1.75001 17.5005 1.25 16.6306 1.25 15.6506V8.33054C1.25 7.35054 1.75001 6.48055 2.60001 5.99055C3.45001 5.50055 4.45999 5.50055 5.29999 5.99055L11.64 9.65055C11.93 9.82055 12.16 10.0205 12.34 10.2405C12.45 10.3705 12.51 10.5405 12.51 10.7105V13.2705C12.51 13.4405 12.45 13.6105 12.34 13.7405C12.16 13.9605 11.93 14.1606 11.66 14.3206L5.29999 18.0006C4.87999 18.2406 4.42001 18.3605 3.95001 18.3605C3.49001 18.3605 3.02001 18.2405 2.60001 17.9905ZM3.35001 7.30054C2.97001 7.52054 2.75 7.91055 2.75 8.34055V15.6606C2.75 16.0906 2.97001 16.4806 3.35001 16.7006C3.73001 16.9206 4.16999 16.9206 4.54999 16.7006L10.89 13.0406C10.93 13.0206 10.97 12.9905 11 12.9605V11.0306C10.96 11.0006 10.92 10.9706 10.88 10.9506L4.54999 7.30054C4.35999 7.19054 4.16001 7.14057 3.95001 7.14057C3.74001 7.14057 3.54001 7.19054 3.35001 7.30054Z" fill="#7328CE"/>
<path fill-rule="evenodd" clip-rule="evenodd" d="M12.3597 17.9905C11.5097 17.5005 11.0098 16.6306 11.0098 15.6506V8.33054C11.0098 7.35054 11.5097 6.48055 12.3597 5.99055C13.2097 5.50055 14.2198 5.50055 15.0598 5.99055L21.3997 9.65055C22.2397 10.1406 22.7498 11.0105 22.7498 11.9905C22.7498 12.9705 22.2498 13.8405 21.3997 14.3305L15.0598 17.9905C14.6398 18.2405 14.1697 18.3605 13.7097 18.3605C13.2497 18.3605 12.7797 18.2405 12.3597 17.9905ZM13.1097 7.30054C12.7297 7.52054 12.5098 7.90055 12.5098 8.34055V15.6606C12.5098 16.0906 12.7297 16.4806 13.1097 16.7006C13.4897 16.9206 13.9398 16.9206 14.3098 16.7006L20.6497 13.0406C21.0297 12.8206 21.2498 12.4306 21.2498 12.0006C21.2498 11.5706 21.0297 11.1805 20.6497 10.9605L14.3098 7.30054C14.1198 7.19054 13.9197 7.14057 13.7097 7.14057C13.4997 7.14057 13.2997 7.19054 13.1097 7.30054Z" fill="#7328CE"/>
</svg>
