<svg width="24" height="24" viewBox="0 0 24 24" fill="none" xmlns="http://www.w3.org/2000/svg">
<path fill-rule="evenodd" clip-rule="evenodd" d="M10.3911 18.1304C7.26109 18.1304 5.87109 16.7404 5.87109 13.6104V10.3804C5.87109 7.25037 7.26109 5.86035 10.3911 5.86035H13.6211C16.7511 5.86035 18.1411 7.25037 18.1411 10.3804V13.6104C18.1311 16.7404 16.7411 18.1304 13.6211 18.1304H10.3911ZM7.3611 10.3904V13.6204C7.3611 15.9104 8.0911 16.6404 10.3811 16.6404H13.6111C15.9011 16.6404 16.6311 15.9104 16.6311 13.6204V10.3904C16.6311 8.10038 15.9011 7.37036 13.6111 7.37036H10.3811C8.0911 7.37036 7.3611 8.10038 7.3611 10.3904Z" fill="#7328CE"/>
<path fill-rule="evenodd" clip-rule="evenodd" d="M17.3805 13.52C16.9705 13.52 16.6305 13.18 16.6305 12.77V10.39C16.6305 8.10001 15.9005 7.37 13.6105 7.37H11.2305C10.8205 7.37 10.4805 7.02999 10.4805 6.62V5.76999C10.4805 2.63999 11.8705 1.25 15.0005 1.25H18.2305C21.3605 1.25 22.7505 2.63999 22.7505 5.76999V9C22.7505 12.13 21.3605 13.52 18.2305 13.52H17.3805ZM18.2305 12.02C20.5205 12.02 21.2505 11.29 21.2505 9V5.76999C21.2505 3.47999 20.5205 2.75 18.2305 2.75H15.0005C12.7105 2.75 11.9805 3.47999 11.9805 5.76999V5.87H13.6105C16.7405 5.87 18.1305 7.26001 18.1305 10.39V12.02H18.2305Z" fill="#7328CE"/>
<path fill-rule="evenodd" clip-rule="evenodd" d="M5.77 22.7495C2.64 22.7495 1.25 21.3595 1.25 18.2295V14.9995C1.25 11.8695 2.64 10.4795 5.77 10.4795H6.62C7.03 10.4795 7.37 10.8195 7.37 11.2295V13.6095C7.37 15.8995 8.1 16.6295 10.39 16.6295H12.77C13.18 16.6295 13.52 16.9695 13.52 17.3795V18.2295C13.52 21.3595 12.13 22.7495 9 22.7495H5.77ZM2.75 14.9995V18.2295C2.75 20.5195 3.48 21.2495 5.77 21.2495H9C11.29 21.2495 12.02 20.5195 12.02 18.2295V18.1295H10.39C7.26 18.1295 5.87 16.7395 5.87 13.6095V11.9795H5.77C3.48 11.9795 2.75 12.7095 2.75 14.9995Z" fill="#7328CE"/>
</svg>
