<svg width="24" height="24" viewBox="0 0 24 24" fill="none" xmlns="http://www.w3.org/2000/svg">
<path fill-rule="evenodd" clip-rule="evenodd" d="M6.25 8C6.25 6.48 7.48 5.25 9 5.25C10.52 5.25 11.75 6.48 11.75 8C11.75 9.52 10.52 10.75 9 10.75C7.48 10.75 6.25 9.52 6.25 8ZM7.75 8C7.75 8.69 8.31 9.25 9 9.25C9.69 9.25 10.25 8.69 10.25 8C10.25 7.31 9.69 6.75 9 6.75C8.31 6.75 7.75 7.31 7.75 8Z" fill="#7328CE"/>
<path d="M9 22.75C3.57 22.75 1.25 20.43 1.25 15V9C1.25 3.57 3.57 1.25 9 1.25H13C13.41 1.25 13.75 1.59 13.75 2C13.75 2.41 13.41 2.75 13 2.75H9C4.39 2.75 2.75 4.39 2.75 9V15C2.75 19.61 4.39 21.25 9 21.25H15C19.61 21.25 21.25 19.61 21.25 15V10C21.25 9.59 21.59 9.25 22 9.25C22.41 9.25 22.75 9.59 22.75 10V15C22.75 20.43 20.43 22.75 15 22.75H9Z" fill="#7328CE"/>
<path d="M16.9295 6.98023L15.4695 5.52023C15.1795 5.23023 15.1795 4.75023 15.4695 4.46023C15.7595 4.17023 16.2395 4.17023 16.5295 4.46023L17.4595 5.39023L20.8295 2.02023C21.1195 1.73023 21.5995 1.73023 21.8895 2.02023C22.1795 2.31023 22.1795 2.79023 21.8895 3.08023L17.9895 6.98023C17.8495 7.13023 17.6495 7.20023 17.4595 7.20023C17.2695 7.20023 17.0795 7.13023 16.9295 6.98023Z" fill="#7328CE"/>
<path d="M2.05075 19.3705C1.82075 19.0305 1.91075 18.5605 2.26075 18.3305L7.19075 15.0205C8.27075 14.2905 9.76075 14.3805 10.7407 15.2105L11.0707 15.5005C11.5707 15.9305 12.4207 15.9305 12.9107 15.5005L17.0707 11.9305C18.1307 11.0205 19.8007 11.0205 20.8707 11.9305L22.5007 13.3305C22.8107 13.6005 22.8507 14.0705 22.5807 14.3905C22.3107 14.7005 21.8407 14.7405 21.5207 14.4705L19.8907 13.0705C19.3907 12.6405 18.5407 12.6405 18.0407 13.0705L13.8807 16.6405C12.8207 17.5505 11.1507 17.5505 10.0807 16.6405L9.75075 16.3505C9.29075 15.9605 8.53075 15.9205 8.02075 16.2705L3.09075 19.5805C2.96075 19.6605 2.81075 19.7005 2.67075 19.7005C2.43075 19.7005 2.19075 19.5805 2.05075 19.3705Z" fill="#7328CE"/>
</svg>
