<svg width="24" height="24" viewBox="0 0 24 24" fill="none" xmlns="http://www.w3.org/2000/svg">
<path fill-rule="evenodd" clip-rule="evenodd" d="M8 22.75C4.35 22.75 2.25 20.65 2.25 17V7C2.25 3.35 4.35 1.25 8 1.25H16C19.65 1.25 21.75 3.35 21.75 7V17C21.75 20.65 19.65 22.75 16 22.75H8ZM3.75 7V17C3.75 19.86 5.14 21.25 8 21.25H16C18.86 21.25 20.25 19.86 20.25 17V7C20.25 4.14 18.86 2.75 16 2.75H8C5.14 2.75 3.75 4.14 3.75 7Z" fill="#7328CE"/>
<path fill-rule="evenodd" clip-rule="evenodd" d="M7.75 11.75C6.37 11.75 5.25 10.63 5.25 9.25V6.75C5.25 5.37 6.37 4.25 7.75 4.25H16.25C17.63 4.25 18.75 5.37 18.75 6.75V9.25C18.75 10.63 17.63 11.75 16.25 11.75H7.75ZM6.75 6.75V9.25C6.75 9.8 7.2 10.25 7.75 10.25H16.25C16.8 10.25 17.25 9.8 17.25 9.25V6.75C17.25 6.2 16.8 5.75 16.25 5.75H7.75C7.2 5.75 6.75 6.2 6.75 6.75Z" fill="#7328CE"/>
<path d="M7.46945 18.1097C7.17945 17.8197 7.17945 17.3397 7.46945 17.0497L9.76944 14.7497C10.0594 14.4597 10.5394 14.4597 10.8294 14.7497C11.1194 15.0397 11.1194 15.5197 10.8294 15.8097L8.52945 18.1097C8.37945 18.2597 8.18945 18.3297 7.99945 18.3297C7.80945 18.3297 7.61945 18.2597 7.46945 18.1097Z" fill="#7328CE"/>
<path d="M9.80069 18.14L7.5007 15.84C7.2107 15.55 7.2107 15.07 7.5007 14.78C7.7907 14.49 8.2707 14.49 8.5607 14.78L10.8607 17.08C11.1507 17.37 11.1507 17.85 10.8607 18.14C10.7107 18.29 10.5207 18.36 10.3307 18.36C10.1407 18.36 9.95069 18.29 9.80069 18.14Z" fill="#7328CE"/>
<path d="M15.5 15.3301C15.5 14.7801 15.94 14.3301 16.49 14.3301H16.51C17.06 14.3301 17.51 14.7801 17.51 15.3301C17.51 15.8801 17.06 16.3301 16.51 16.3301C15.96 16.3301 15.5 15.8801 15.5 15.3301Z" fill="#7328CE"/>
<path d="M13.4902 17.4995V17.4795C13.4902 16.9295 13.9402 16.4795 14.4902 16.4795C15.0402 16.4795 15.4902 16.9295 15.4902 17.4795C15.4902 18.0295 15.0402 18.4895 14.4902 18.4895C13.9402 18.4895 13.4902 18.0495 13.4902 17.4995Z" fill="#7328CE"/>
</svg>
