<svg width="24" height="24" viewBox="0 0 24 24" fill="none" xmlns="http://www.w3.org/2000/svg">
<path d="M1.25 12C1.25 6.07 6.07 1.25 12 1.25C17.93 1.25 22.75 6.07 22.75 12C22.75 12.41 22.41 12.75 22 12.75C21.59 12.75 21.25 12.41 21.25 12C21.25 6.9 17.1 2.75 12 2.75C6.9 2.75 2.75 6.9 2.75 12C2.75 17.1 6.9 21.25 12 21.25C12.41 21.25 12.75 21.59 12.75 22C12.75 22.41 12.41 22.75 12 22.75C6.07 22.75 1.25 17.93 1.25 12Z" fill="#7328CE"/>
<path d="M8.00022 21.75C7.59022 21.75 7.25022 21.41 7.25022 21C7.25022 20.59 7.57023 20.26 7.98023 20.25C6.41023 14.89 6.41023 9.11 7.98023 3.75C7.58023 3.74 7.25022 3.41 7.25022 3C7.25022 2.59 7.59022 2.25 8.00022 2.25H9.00022C9.24022 2.25 9.47021 2.37 9.61021 2.56C9.75021 2.76 9.79021 3.00999 9.71021 3.23999C7.83021 8.88999 7.83021 15.12 9.71021 20.77C9.79021 21 9.75021 21.25 9.61021 21.45C9.47021 21.65 9.24022 21.75 9.00022 21.75H8.00022Z" fill="#7328CE"/>
<path d="M15.7104 12.0005C15.7104 9.02045 15.2304 6.07044 14.2904 3.24044C14.1604 2.85044 14.3704 2.42043 14.7604 2.29043C15.1504 2.16043 15.5804 2.37046 15.7104 2.76046C16.7004 5.74046 17.2104 8.85045 17.2104 12.0005C17.2104 12.4105 16.8704 12.7505 16.4604 12.7505C16.0504 12.7505 15.7104 12.4105 15.7104 12.0005Z" fill="#7328CE"/>
<path d="M3.75 16.0198C3.74 16.4198 3.41 16.7498 3 16.7498C2.59 16.7498 2.25 16.4098 2.25 15.9998V14.9998C2.25 14.7598 2.37 14.5298 2.56 14.3898C2.75 14.2498 3.00999 14.2098 3.23999 14.2898C6.06999 15.2298 9.02 15.7098 12 15.7098C12.41 15.7098 12.75 16.0498 12.75 16.4598C12.75 16.8698 12.41 17.2098 12 17.2098C9.2 17.2098 6.43 16.8098 3.75 16.0198Z" fill="#7328CE"/>
<path d="M20.7607 9.70942C15.1107 7.82942 8.88068 7.82942 3.23068 9.70942C2.84068 9.83942 2.41067 9.62939 2.28067 9.23939C2.15067 8.84939 2.36067 8.41938 2.75067 8.28938C8.71067 6.29938 15.2707 6.29938 21.2207 8.28938C21.6107 8.41938 21.8207 8.84939 21.6907 9.23939C21.6107 9.54939 21.3107 9.7494 21.0007 9.7494C20.9207 9.7494 20.8407 9.73942 20.7607 9.70942Z" fill="#7328CE"/>
<path d="M13.7695 18.2598C13.7695 15.7898 15.7896 13.7598 18.2596 13.7598C18.7596 13.7598 19.2596 13.8297 19.7296 13.9797C20.1296 14.0997 20.3496 14.5197 20.2296 14.9197C20.1096 15.3197 19.6896 15.5397 19.2896 15.4197C18.9596 15.3197 18.6096 15.2698 18.2596 15.2698C16.6096 15.2698 15.2695 16.6098 15.2695 18.2698C15.2695 19.9298 16.6096 21.2598 18.2596 21.2598C19.9096 21.2598 21.2495 19.9198 21.2495 18.2698C21.2495 17.6698 21.0795 17.0997 20.7495 16.6097C20.5195 16.2697 20.6095 15.7998 20.9595 15.5698C21.2995 15.3398 21.7695 15.4298 21.9995 15.7798C22.4995 16.5198 22.7596 17.3898 22.7596 18.2798C22.7496 20.7298 20.7296 22.7498 18.2596 22.7498C15.7796 22.7498 13.7695 20.7298 13.7695 18.2598Z" fill="#7328CE"/>
<path d="M19.4693 15.2893L18.2193 13.8593C17.9493 13.5493 17.9793 13.0693 18.2893 12.7993C18.5993 12.5293 19.0693 12.5594 19.3493 12.8694L20.5993 14.2993C20.8693 14.6093 20.8393 15.0893 20.5293 15.3593C20.3893 15.4893 20.2193 15.5493 20.0393 15.5493C19.8293 15.5493 19.6193 15.4593 19.4693 15.2893Z" fill="#7328CE"/>
<path d="M17.9705 16.2997C17.7305 15.9697 17.8005 15.4997 18.1305 15.2497L19.5905 14.1897C19.9205 13.9397 20.3905 14.0197 20.6405 14.3497C20.8805 14.6797 20.8105 15.1497 20.4805 15.3997L19.0205 16.4597C18.8905 16.5597 18.7405 16.6097 18.5805 16.6097C18.3505 16.6097 18.1205 16.4997 17.9705 16.2997Z" fill="#7328CE"/>
</svg>
