<svg width="24" height="24" viewBox="0 0 24 24" fill="none" xmlns="http://www.w3.org/2000/svg">
<mask id="mask0_251_28297" style="mask-type:luminance" maskUnits="userSpaceOnUse" x="0" y="0" width="24" height="24">
<rect width="24" height="24" fill="white"/>
</mask>
<g mask="url(#mask0_251_28297)">
<path fill-rule="evenodd" clip-rule="evenodd" d="M2.66141 16.93C2.63141 16.9 2.6114 16.86 2.5914 16.82C1.8314 15.3 1.44141 13.68 1.44141 12C1.44141 10.32 1.8314 8.69999 2.5914 7.17999C4.4314 3.51999 8.11141 1.25 12.1914 1.25C14.9314 1.25 17.4214 2.21999 19.3914 4.04999C19.5414 4.18999 19.6314 4.38 19.6314 4.59C19.6314 4.8 19.5514 4.99001 19.4014 5.14001L16.5814 7.89999C16.2914 8.17999 15.8414 8.19 15.5414 7.91C14.9114 7.32 13.8214 6.62 12.1914 6.62C10.1314 6.62 8.2414 7.86001 7.3914 9.79001C7.3214 9.95001 7.2614 10.1 7.2014 10.27C7.0114 10.85 6.9214 11.44 6.9214 12.01C6.9214 12.58 7.0214 13.15 7.2014 13.72C7.2014 13.73 7.2114 13.74 7.2114 13.76C7.9314 15.94 9.93141 17.4 12.1914 17.4C13.3814 17.4 14.4014 17.11 15.2314 16.53C15.9914 16 16.4714 15.29 16.7314 14.65H12.2014C11.7914 14.65 11.4514 14.31 11.4514 13.9V10.19C11.4514 9.78 11.7914 9.44 12.2014 9.44H21.5914C21.9414 9.44 22.2414 9.67999 22.3214 10.02C22.4814 10.72 22.5514 11.38 22.5514 12.23C22.5514 15.41 21.4114 18.22 19.3314 20.14C17.4814 21.84 15.0114 22.75 12.2014 22.75C8.1614 22.75 4.52141 20.52 2.66141 16.93ZM3.9614 16.19C5.5314 19.3 8.6914 21.25 12.2014 21.25C14.6314 21.25 16.7414 20.48 18.3114 19.03C20.0814 17.4 21.0514 14.98 21.0514 12.22C21.0514 11.72 21.0314 11.32 20.9714 10.93H12.9514V13.14H17.7114C17.9214 13.14 18.1314 13.23 18.2714 13.39C18.4114 13.55 18.4814 13.77 18.4514 13.98C18.3214 15.1 17.6214 16.68 16.0914 17.75C15.0114 18.5 13.7014 18.89 12.1914 18.89C9.30141 18.89 6.74141 17.03 5.80141 14.25C5.80141 14.24 5.7914 14.23 5.7914 14.22C5.5414 13.49 5.4214 12.75 5.4214 12.01C5.4214 11.28 5.5414 10.54 5.7814 9.79999C5.8514 9.57999 5.9314 9.37999 6.0214 9.17999C7.1214 6.70999 9.54141 5.12 12.1914 5.12C13.9014 5.12 15.1614 5.72001 16.0214 6.35001L17.7714 4.64001C16.1914 3.40001 14.2714 2.75 12.1914 2.75C8.68141 2.75 5.5114 4.70001 3.9314 7.85001C3.2814 9.16001 2.94141 10.56 2.94141 12C2.95141 13.41 3.2614 14.77 3.8814 16.05C3.9114 16.09 3.9414 16.14 3.9614 16.19Z" fill="#7328CE"/>
</g>
</svg>
