<svg width="24" height="24" viewBox="0 0 24 24" fill="none" xmlns="http://www.w3.org/2000/svg">
<mask id="mask0_251_29264" style="mask-type:luminance" maskUnits="userSpaceOnUse" x="0" y="0" width="24" height="24">
<rect width="24" height="24" fill="white"/>
</mask>
<g mask="url(#mask0_251_29264)">
<path fill-rule="evenodd" clip-rule="evenodd" d="M16.3587 15.7396L13.1687 12.5496C12.8787 12.2596 12.8787 11.7796 13.1687 11.4896L16.3887 8.26962C16.6187 8.03962 16.9687 7.98964 17.2587 8.12964L21.7487 10.3796C22.3687 10.6796 22.7587 11.2996 22.7587 11.9996C22.7587 12.6996 22.3687 13.3196 21.7487 13.6196L17.2387 15.8796C17.1187 15.9296 16.9987 15.9596 16.8887 15.9596C16.6987 15.9596 16.4987 15.8796 16.3587 15.7396ZM17.0287 14.2896L21.0587 12.2696C21.0587 12.2696 21.0587 12.2696 21.0687 12.2696C21.2187 12.1996 21.2387 12.0696 21.2387 11.9996C21.2387 11.9296 21.2187 11.7996 21.0687 11.7296L17.0587 9.71964L14.7587 12.0196L17.0287 14.2896Z" fill="#7328CE"/>
<path fill-rule="evenodd" clip-rule="evenodd" d="M2.11 22.47C1.57 22.14 1.25 21.56 1.25 20.92V3.06002C1.25 2.43002 1.57 1.85003 2.11 1.51003C2.65 1.18003 3.31 1.14002 3.88 1.43002L17.25 8.12002C17.47 8.23002 17.62 8.43004 17.65 8.67004C17.68 8.91004 17.61 9.15003 17.44 9.32003L4.64 22.12C4.58 22.18 4.52 22.22 4.44 22.26L3.86 22.55C3.62 22.69 3.34 22.75 3.07 22.75C2.74 22.75 2.4 22.66 2.11 22.47ZM2.9 2.80001C2.84 2.83001 2.75 2.92003 2.75 3.07003V20.93C2.75 21.09 2.84 21.17 2.9 21.2C2.96 21.24 3.07 21.28 3.22 21.21L3.68 20.98L15.65 9.01003L3.21 2.79003C3.16 2.76003 3.11 2.75002 3.07 2.75002C3 2.75002 2.94 2.78001 2.9 2.80001Z" fill="#7328CE"/>
<path fill-rule="evenodd" clip-rule="evenodd" d="M3.50999 22.0405C3.28999 21.7405 3.32999 21.3305 3.58999 21.0705L13.17 11.4905C13.31 11.3505 13.5 11.2705 13.7 11.2705C13.9 11.2705 14.09 11.3505 14.23 11.4905L17.42 14.6805C17.59 14.8505 17.67 15.0905 17.63 15.3305C17.59 15.5705 17.44 15.7705 17.23 15.8805L4.46999 22.2705C4.34999 22.3205 4.23999 22.3505 4.11999 22.3505C3.88999 22.3505 3.65999 22.2405 3.50999 22.0405ZM7.92999 18.8505L15.62 15.0005L13.7 13.0805L7.92999 18.8505Z" fill="#7328CE"/>
<path d="M13.1693 12.5506L3.5593 2.94058C3.2693 2.65058 3.2693 2.17059 3.5593 1.88059C3.8493 1.59059 4.3293 1.59059 4.6193 1.88059L14.2293 11.4906C14.5193 11.7806 14.5193 12.2606 14.2293 12.5506C14.0893 12.7006 13.8893 12.7706 13.6993 12.7706C13.5093 12.7706 13.3193 12.7006 13.1693 12.5506Z" fill="#7328CE"/>
<path d="M16.3888 15.7604L16.3588 15.7304C16.0688 15.4404 16.0688 14.9604 16.3688 14.6704C16.6688 14.3804 17.1388 14.3804 17.4288 14.6804C17.7188 14.9704 17.7288 15.4704 17.4388 15.7604C17.2788 15.9104 17.0888 15.9804 16.8988 15.9804C16.7188 15.9804 16.5288 15.9104 16.3888 15.7604Z" fill="#7328CE"/>
</g>
</svg>
