<svg width="24" height="24" viewBox="0 0 24 24" fill="none" xmlns="http://www.w3.org/2000/svg">
<mask id="mask0_251_29140" style="mask-type:luminance" maskUnits="userSpaceOnUse" x="0" y="0" width="24" height="24">
<rect width="24" height="24" fill="white"/>
</mask>
<g mask="url(#mask0_251_29140)">
<path fill-rule="evenodd" clip-rule="evenodd" d="M4.59102 21.7498C4.33102 21.7498 4.08101 21.6098 3.95101 21.3898L0.771016 16.0998C0.631016 15.8698 0.631016 15.5698 0.771016 15.3398L8.18099 2.62976C8.31099 2.39976 8.56101 2.25977 8.83101 2.25977H15.181C15.451 2.25977 15.691 2.39976 15.831 2.62976C18.621 7.40976 22.831 14.6197 23.191 15.1797C23.291 15.3097 23.341 15.4598 23.341 15.6298C23.341 15.8098 23.281 15.9698 23.171 16.0998C22.911 16.4898 21.151 19.5198 20.061 21.3798C19.931 21.6098 19.681 21.7498 19.411 21.7498H4.59102ZM18.981 20.2498C20.471 17.6898 21.271 16.3297 21.761 15.6097C21.191 14.7697 20.191 13.0698 18.221 9.69977L14.751 3.74976H9.26101L2.29097 15.6998L5.01101 20.2498H18.981ZM22.371 16.3498V16.3297V16.3498Z" fill="#7328CE"/>
<path d="M18.7598 21.3804L8.16973 3.38041C7.95973 3.02041 8.07975 2.56041 8.43975 2.35041C8.79975 2.14041 9.25972 2.2604 9.46972 2.6204L20.0597 20.6204C20.2697 20.9804 20.1497 21.4404 19.7897 21.6504C19.6697 21.7204 19.5397 21.7504 19.4097 21.7504C19.1497 21.7504 18.8998 21.6204 18.7598 21.3804Z" fill="#7328CE"/>
<path d="M4.21124 21.6504C3.85124 21.4404 3.73122 20.9804 3.94122 20.6204L14.5312 2.6204C14.7412 2.2604 15.2012 2.14041 15.5612 2.35041C15.9212 2.56041 16.0412 3.02041 15.8312 3.38041L5.24121 21.3804C5.09121 21.6204 4.84124 21.7504 4.59124 21.7504C4.46124 21.7504 4.33124 21.7204 4.21124 21.6504Z" fill="#7328CE"/>
<path d="M1.5 16.46C1.09 16.46 0.75 16.12 0.75 15.71C0.75 15.3 1.09 14.96 1.5 14.96H22C22.41 14.96 22.75 15.3 22.75 15.71C22.75 16.12 22.41 16.46 22 16.46H1.5Z" fill="#7328CE"/>
</g>
</svg>
