<svg width="24" height="24" viewBox="0 0 24 24" fill="none" xmlns="http://www.w3.org/2000/svg">
<path d="M9 22.75C3.57 22.75 1.25 20.43 1.25 15V9C1.25 3.57 3.57 1.25 9 1.25H15C20.43 1.25 22.75 3.57 22.75 9V11C22.75 11.41 22.41 11.75 22 11.75C21.59 11.75 21.25 11.41 21.25 11V9C21.25 4.39 19.61 2.75 15 2.75H9C4.39 2.75 2.75 4.39 2.75 9V15C2.75 19.61 4.39 21.25 9 21.25H10C10.41 21.25 10.75 21.59 10.75 22C10.75 22.41 10.41 22.75 10 22.75H9Z" fill="#7328CE"/>
<path d="M2.03125 9.25C1.62125 9.25 1.28125 8.91 1.28125 8.5C1.28125 8.09 1.62125 7.75 2.03125 7.75H22.0013C22.4113 7.75 22.7513 8.09 22.7513 8.5C22.7513 8.91 22.4113 9.25 22.0013 9.25H2.03125Z" fill="#7328CE"/>
<path d="M2.03125 16.25C1.62125 16.25 1.28125 15.91 1.28125 15.5C1.28125 15.09 1.62125 14.75 2.03125 14.75H12.0013C12.4113 14.75 12.7513 15.09 12.7513 15.5C12.7513 15.91 12.4113 16.25 12.0013 16.25H2.03125Z" fill="#7328CE"/>
<path d="M7.75977 21.9905V2.02051C7.75977 1.61051 8.09977 1.27051 8.50977 1.27051C8.91977 1.27051 9.25977 1.61051 9.25977 2.02051V21.9905C9.25977 22.4005 8.92977 22.7405 8.50977 22.7405C8.09977 22.7405 7.75977 22.4005 7.75977 21.9905Z" fill="#7328CE"/>
<path d="M14.7598 11.9905V2.02051C14.7598 1.61051 15.0998 1.27051 15.5098 1.27051C15.9198 1.27051 16.2598 1.61051 16.2598 2.02051V11.9905C16.2598 12.4005 15.9298 12.7405 15.5098 12.7405C15.0998 12.7405 14.7598 12.4005 14.7598 11.9905Z" fill="#7328CE"/>
<path fill-rule="evenodd" clip-rule="evenodd" d="M14.4592 22.1396L12.8692 20.5396C12.0592 19.7296 12.0592 18.3996 12.8692 17.5696L14.7792 15.6696C15.0692 15.3796 15.5492 15.3796 15.8392 15.6696L19.3392 19.1696C19.4792 19.3096 19.5592 19.4996 19.5592 19.6996C19.5592 19.8996 19.4792 20.0896 19.3392 20.2296L17.4392 22.1296C17.0192 22.5396 16.4892 22.7496 15.9492 22.7496C15.4092 22.7496 14.8792 22.5496 14.4592 22.1396ZM13.9292 18.6396C13.6992 18.8696 13.6992 19.2596 13.9292 19.4896L15.5092 21.0796C15.7392 21.3096 16.1292 21.3096 16.3592 21.0796L17.7392 19.7096L15.2992 17.2696L13.9292 18.6396Z" fill="#7328CE"/>
<path fill-rule="evenodd" clip-rule="evenodd" d="M18.2702 20.2304L14.7702 16.7304C14.4802 16.4404 14.4802 15.9604 14.7702 15.6704L17.5802 12.8504C18.4002 12.0304 19.7402 12.0304 20.5602 12.8504L22.1403 14.4403C22.5303 14.8303 22.7502 15.3604 22.7502 15.9304C22.7502 16.5004 22.5303 17.0204 22.1403 17.4204L19.3402 20.2304C19.1902 20.3804 19.0002 20.4503 18.8002 20.4503C18.6002 20.4503 18.4102 20.3704 18.2702 20.2304ZM18.8102 18.6504L21.0802 16.3704C21.1902 16.2604 21.2502 16.1103 21.2502 15.9403C21.2502 15.7803 21.1902 15.6204 21.0802 15.5104L19.5002 13.9204C19.2702 13.6904 18.8802 13.6904 18.6502 13.9204L16.3702 16.2103L18.8102 18.6504Z" fill="#7328CE"/>
</svg>
