<svg width="24" height="24" viewBox="0 0 24 24" fill="none" xmlns="http://www.w3.org/2000/svg">
<path d="M7.91935 21.7505C7.50935 21.7005 7.20935 21.3305 7.25935 20.9205L9.25935 2.92052C9.30935 2.51052 9.67935 2.22052 10.0894 2.26052C10.4994 2.31052 10.7994 2.68052 10.7494 3.09052L8.74935 21.0905C8.69935 21.4705 8.37935 21.7505 7.99935 21.7505C7.96935 21.7505 7.93935 21.7505 7.91935 21.7505Z" fill="#7328CE"/>
<path d="M13.9194 21.7505C13.5094 21.7005 13.2094 21.3305 13.2594 20.9205L15.2594 2.92052C15.3094 2.51052 15.6694 2.22052 16.0894 2.26052C16.4994 2.31052 16.7994 2.68052 16.7494 3.09052L14.7494 21.0905C14.6994 21.4705 14.3794 21.7505 13.9994 21.7505C13.9694 21.7505 13.9394 21.7505 13.9194 21.7505Z" fill="#7328CE"/>
<path d="M3.5 9.75C3.09 9.75 2.75 9.41 2.75 9C2.75 8.59 3.09 8.25 3.5 8.25H21.5C21.91 8.25 22.25 8.59 22.25 9C22.25 9.41 21.91 9.75 21.5 9.75H3.5Z" fill="#7328CE"/>
<path d="M2.5 15.75C2.09 15.75 1.75 15.41 1.75 15C1.75 14.59 2.09 14.25 2.5 14.25H20.5C20.91 14.25 21.25 14.59 21.25 15C21.25 15.41 20.91 15.75 20.5 15.75H2.5Z" fill="#7328CE"/>
</svg>
