<svg width="24" height="24" viewBox="0 0 24 24" fill="none" xmlns="http://www.w3.org/2000/svg">
<path d="M9 22.75C3.57 22.75 1.25 20.43 1.25 15V9C1.25 3.57 3.57 1.25 9 1.25H15C20.43 1.25 22.75 3.57 22.75 9V13C22.75 13.41 22.41 13.75 22 13.75C21.59 13.75 21.25 13.41 21.25 13V9C21.25 4.39 19.61 2.75 15 2.75H9C4.39 2.75 2.75 4.39 2.75 9V15C2.75 19.61 4.39 21.25 9 21.25H15C15.41 21.25 15.75 21.59 15.75 22C15.75 22.41 15.41 22.75 15 22.75H9Z" fill="#7328CE"/>
<path d="M18.2495 21.9995V17.8095L17.5295 18.5295C17.2395 18.8195 16.7595 18.8195 16.4695 18.5295C16.1795 18.2395 16.1795 17.7595 16.4695 17.4695L18.4695 15.4695C18.6795 15.2595 19.0095 15.1895 19.2895 15.3095C19.5695 15.4295 19.7495 15.6995 19.7495 15.9995V21.9995C19.7495 22.4095 19.4095 22.7495 18.9995 22.7495C18.5895 22.7495 18.2495 22.4095 18.2495 21.9995Z" fill="#7328CE"/>
<path d="M20.4695 18.5304L18.4695 16.5304C18.1795 16.2404 18.1795 15.7604 18.4695 15.4704C18.7595 15.1804 19.2395 15.1804 19.5295 15.4704L21.5295 17.4704C21.8195 17.7604 21.8195 18.2404 21.5295 18.5304C21.3795 18.6804 21.1895 18.7504 20.9995 18.7504C20.8095 18.7504 20.6195 18.6804 20.4695 18.5304Z" fill="#7328CE"/>
<path d="M8.81974 16.4901C8.40974 16.4401 8.10974 16.0701 8.15974 15.6601L9.19974 6.1801C9.24974 5.7701 9.61974 5.4701 10.0297 5.5201C10.4397 5.5701 10.7397 5.9401 10.6897 6.3501L9.63975 15.8201C9.59975 16.2001 9.26974 16.4901 8.89974 16.4901C8.86974 16.4901 8.83974 16.4901 8.81974 16.4901Z" fill="#7328CE"/>
<path d="M11.9701 16.4899C11.5601 16.4399 11.2601 16.0699 11.3101 15.6599L12.3601 6.18986C12.4101 5.77986 12.7801 5.47986 13.1901 5.52986C13.6001 5.57986 13.9001 5.94986 13.8501 6.35986L12.8001 15.8299C12.7601 16.1999 12.4301 16.4899 12.0501 16.4899C12.0201 16.4899 11.9901 16.4899 11.9701 16.4899Z" fill="#7328CE"/>
<path d="M6.5293 10.1699C6.1193 10.1699 5.7793 9.82992 5.7793 9.41992C5.7793 9.00992 6.1193 8.66992 6.5293 8.66992H15.9993C16.4093 8.66992 16.7493 9.00992 16.7493 9.41992C16.7493 9.82992 16.4093 10.1699 15.9993 10.1699H6.5293Z" fill="#7328CE"/>
<path d="M6 13.3301C5.59 13.3301 5.25 12.9901 5.25 12.5801C5.25 12.1701 5.59 11.8301 6 11.8301H15.47C15.88 11.8301 16.22 12.1701 16.22 12.5801C16.22 12.9901 15.89 13.3301 15.47 13.3301H6Z" fill="#7328CE"/>
</svg>
