<svg width="24" height="24" viewBox="0 0 24 24" fill="none" xmlns="http://www.w3.org/2000/svg">
<path d="M7.75 11.9998V7.21973C7.75 6.80973 8.09 6.46973 8.5 6.46973C8.91 6.46973 9.25 6.80973 9.25 7.21973V11.9998C9.25 12.4098 8.91 12.7498 8.5 12.7498C8.09 12.7498 7.75 12.4098 7.75 11.9998Z" fill="#7328CE"/>
<path d="M7.75 22V19C7.75 18.59 8.09 18.25 8.5 18.25C8.91 18.25 9.25 18.59 9.25 19V22C9.25 22.41 8.91 22.75 8.5 22.75C8.09 22.75 7.75 22.41 7.75 22Z" fill="#7328CE"/>
<path d="M14.75 21.9998V7.21973C14.75 6.80973 15.09 6.46973 15.5 6.46973C15.91 6.46973 16.25 6.80973 16.25 7.21973V21.9998C16.25 22.4098 15.91 22.7498 15.5 22.7498C15.09 22.7498 14.75 22.4098 14.75 21.9998Z" fill="#7328CE"/>
<path fill-rule="evenodd" clip-rule="evenodd" d="M6.04942 7.85046C5.75942 7.85046 5.50944 7.69048 5.37944 7.43048C5.24944 7.17048 5.27945 6.8705 5.44945 6.6405C5.63945 6.3905 5.74943 6.07048 5.74943 5.74048V4.84052C5.74943 4.52052 5.63945 4.20049 5.44945 3.94049C5.27945 3.71049 5.24944 3.41051 5.37944 3.15051C5.50944 2.90051 5.76942 2.73047 6.04942 2.73047H8.29942C9.70942 2.73047 10.8494 3.87052 10.8494 5.28052C10.8494 5.97052 10.5794 6.61052 10.0894 7.09052C9.62943 7.58051 8.98942 7.85046 8.29942 7.85046H6.04942ZM8.29942 6.35046C8.57942 6.35046 8.83943 6.24048 9.02943 6.05048C9.23943 5.85048 9.34944 5.59048 9.34944 5.30048C9.34944 4.72048 8.87942 4.25049 8.29942 4.25049H7.18944C7.22944 4.45049 7.24943 4.65046 7.24943 4.85046V5.75049C7.24943 5.95049 7.22944 6.15046 7.18944 6.35046H8.29942Z" fill="#7328CE"/>
<path fill-rule="evenodd" clip-rule="evenodd" d="M1.78976 7.7196C1.47976 7.4396 1.25977 6.93963 1.25977 6.49963V4.15961C1.25977 3.76961 1.43977 3.30961 1.69977 3.03961C2.62977 2.06961 3.58977 1.85961 4.22977 1.84961C4.23977 1.84961 4.24977 1.84961 4.25977 1.84961C5.04977 1.84961 5.82976 2.16961 6.37976 2.72961C6.47976 2.82961 6.57977 2.94964 6.66977 3.06964C7.03977 3.55964 7.24976 4.19961 7.24976 4.84961V5.74963C7.24976 6.39963 7.03975 7.03962 6.64975 7.54962C6.14975 8.21962 5.37974 8.64961 4.54974 8.72961C4.45974 8.73961 4.34976 8.74963 4.24976 8.74963C3.58976 8.74963 2.70976 8.5396 1.78976 7.7196ZM4.22977 3.34961C3.71977 3.35961 3.21974 3.60965 2.76974 4.07965C2.76974 4.07965 2.74976 4.14963 2.74976 4.17963V6.50964C2.74976 6.52964 2.77974 6.59964 2.79974 6.62964C3.30974 7.07964 3.86975 7.30963 4.39975 7.24963C4.81975 7.20963 5.18977 6.99961 5.44977 6.65961C5.63977 6.40961 5.74976 6.08964 5.74976 5.75964V4.85962C5.74976 4.53962 5.63977 4.21966 5.44977 3.95966C5.39977 3.87966 5.34975 3.83961 5.30975 3.78961C5.02975 3.50961 4.64976 3.34961 4.24976 3.34961C4.23976 3.34961 4.23977 3.34961 4.22977 3.34961Z" fill="#7328CE"/>
<path fill-rule="evenodd" clip-rule="evenodd" d="M15.7004 7.84998C15.0104 7.84998 14.3704 7.58003 13.8904 7.09003C13.4204 6.63003 13.1504 5.98999 13.1504 5.29999C13.1504 3.88999 14.2904 2.75 15.7004 2.75H17.9504C18.2304 2.75 18.4904 2.90998 18.6204 3.16998C18.7504 3.41998 18.7204 3.73002 18.5504 3.96002C18.3604 4.21002 18.2504 4.52999 18.2504 4.85999V5.76001C18.2504 6.09001 18.3604 6.39997 18.5504 6.65997C18.7204 6.88997 18.7504 7.19001 18.6204 7.45001C18.5004 7.69001 18.2404 7.84998 17.9504 7.84998H15.7004ZM14.6504 5.29999C14.6504 5.57999 14.7604 5.84003 14.9504 6.03003C15.1504 6.24003 15.4104 6.34998 15.7004 6.34998H16.8104C16.7704 6.14998 16.7504 5.95 16.7504 5.75V4.84998C16.7504 4.64998 16.7704 4.45 16.8104 4.25H15.7004C15.1204 4.25 14.6504 4.71999 14.6504 5.29999Z" fill="#7328CE"/>
<path fill-rule="evenodd" clip-rule="evenodd" d="M19.4402 8.73938C18.6102 8.65938 17.8502 8.22939 17.3402 7.55939C16.9502 7.04939 16.7402 6.4094 16.7402 5.7594V4.85938C16.7402 4.20937 16.9502 3.56939 17.3402 3.05939C17.4102 2.95939 17.5102 2.83938 17.6102 2.73938C18.1702 2.17938 18.9403 1.85938 19.7303 1.85938C19.7403 1.85938 19.7503 1.85938 19.7603 1.85938C20.4003 1.86937 21.3603 2.07938 22.2903 3.04938C22.5503 3.31938 22.7303 3.77937 22.7303 4.16937V6.5094C22.7303 6.9494 22.5103 7.44936 22.2003 7.71936C21.2903 8.53936 20.4102 8.74939 19.7502 8.74939C19.6402 8.74939 19.5402 8.73938 19.4402 8.73938ZM18.6902 3.78937C18.6502 3.82937 18.6103 3.87938 18.5703 3.92938C18.3603 4.20938 18.2502 4.52937 18.2502 4.84937V5.74939C18.2502 6.07939 18.3602 6.38941 18.5502 6.64941C18.8102 6.98941 19.1803 7.19939 19.6003 7.24939C20.1303 7.30939 20.6903 7.07937 21.2303 6.60938C21.2303 6.60938 21.2503 6.5394 21.2603 6.5094V4.17938C21.2603 4.15938 21.2302 4.0894 21.2202 4.0694C20.7902 3.6194 20.2902 3.36938 19.7802 3.36938C19.7602 3.34938 19.7602 3.34937 19.7502 3.34937C19.3502 3.34937 18.9602 3.50937 18.6902 3.78937Z" fill="#7328CE"/>
<path fill-rule="evenodd" clip-rule="evenodd" d="M6.25 17.5V13.5C6.25 12.26 7.26 11.25 8.5 11.25C9.74 11.25 10.75 12.26 10.75 13.5V17.5C10.75 18.74 9.74 19.75 8.5 19.75C7.26 19.75 6.25 18.74 6.25 17.5ZM7.75 13.5V17.5C7.75 17.91 8.09 18.25 8.5 18.25C8.91 18.25 9.25 17.91 9.25 17.5V13.5C9.25 13.09 8.91 12.75 8.5 12.75C8.09 12.75 7.75 13.09 7.75 13.5Z" fill="#7328CE"/>
</svg>
