<svg width="24" height="24" viewBox="0 0 24 24" fill="none" xmlns="http://www.w3.org/2000/svg">
<path fill-rule="evenodd" clip-rule="evenodd" d="M8.96875 22.75C3.53875 22.75 1.21875 20.43 1.21875 15V9C1.21875 3.57 3.53875 1.25 8.96875 1.25H14.9688C20.3988 1.25 22.7188 3.57 22.7188 9V15C22.7188 20.43 20.4088 22.75 14.9688 22.75H8.96875ZM2.71875 9V15C2.71875 19.61 4.35875 21.25 8.96875 21.25H14.9688C19.5788 21.25 21.2188 19.61 21.2188 15V9C21.2188 4.39 19.5788 2.75 14.9688 2.75H8.96875C4.35875 2.75 2.71875 4.39 2.71875 9Z" fill="#7328CE"/>
<path d="M10.2902 17.0999L9.15023 14.2199C8.99023 13.8099 8.42023 13.4299 7.99023 13.4299L1.99023 13.4499C1.58023 13.4499 1.24023 13.1199 1.24023 12.6999C1.24023 12.2899 1.57023 11.9499 1.99023 11.9499L7.99023 11.9299H8.00023C9.05023 11.9299 10.1702 12.6899 10.5602 13.6699L11.4702 15.9699L13.5302 10.7499C13.8402 9.96989 14.3902 9.85989 14.6202 9.83989C14.8502 9.82989 15.4102 9.87989 15.8002 10.6199L16.8402 12.5899C17.0202 12.9299 17.5602 13.2599 17.9502 13.2599H22.0102C22.4202 13.2599 22.7602 13.5999 22.7602 14.0099C22.7602 14.4199 22.4202 14.7599 22.0102 14.7599H17.9502C17.0002 14.7599 15.9602 14.1299 15.5202 13.2899L14.7402 11.8099L12.6402 17.0999C12.2702 17.9599 11.6802 18.0599 11.4502 18.0599C11.2102 18.0599 10.6302 17.9699 10.2902 17.0999Z" fill="#7328CE"/>
</svg>
