<svg width="24" height="24" viewBox="0 0 24 24" fill="none" xmlns="http://www.w3.org/2000/svg">
<path fill-rule="evenodd" clip-rule="evenodd" d="M13.0704 20.8994C12.1504 19.8694 11.6504 18.5594 11.6504 17.1994C11.6504 14.1394 14.1404 11.6494 17.2004 11.6494C18.7404 11.6494 20.1704 12.2694 21.2404 13.3894C21.2704 13.4194 21.3004 13.4594 21.3204 13.4894C22.2604 14.5494 22.7504 15.8394 22.7504 17.1894C22.7504 20.2594 20.2604 22.7494 17.2004 22.7494C15.6304 22.7494 14.1304 22.0794 13.0704 20.8994ZM13.1504 17.1994C13.1504 18.1894 13.5204 19.1494 14.1904 19.8994C14.9604 20.7594 16.0604 21.2494 17.2004 21.2494C19.4304 21.2494 21.2504 19.4294 21.2504 17.1994C21.2504 16.1694 20.8604 15.1894 20.1404 14.4294C20.1204 14.4094 20.1004 14.3794 20.0804 14.3594C19.3104 13.5794 18.2904 13.1494 17.2004 13.1494C14.9704 13.1494 13.1504 14.9694 13.1504 17.1994Z" fill="#7328CE"/>
<path d="M17.9489 19.0705L15.4089 16.5305C15.1189 16.2405 15.1189 15.7604 15.4089 15.4704C15.6989 15.1804 16.1789 15.1804 16.4689 15.4704L19.0089 18.0105C19.2989 18.3005 19.2989 18.7805 19.0089 19.0705C18.8689 19.2105 18.6689 19.2904 18.4789 19.2904C18.2889 19.2904 18.0989 19.2205 17.9489 19.0705Z" fill="#7328CE"/>
<path d="M15.3894 19.0997C15.0994 18.8097 15.0994 18.3297 15.3894 18.0397L17.9294 15.4997C18.2194 15.2097 18.6994 15.2097 18.9894 15.4997C19.2794 15.7897 19.2794 16.2697 18.9894 16.5597L16.4494 19.0997C16.2994 19.2397 16.1093 19.3197 15.9193 19.3197C15.7293 19.3197 15.5394 19.2497 15.3894 19.0997Z" fill="#7328CE"/>
<path fill-rule="evenodd" clip-rule="evenodd" d="M11.13 21.5206C8.57 20.6506 1.25 16.4106 1.25 8.69061C1.25 5.19061 4.08 2.35059 7.56 2.35059C9.23 2.35059 10.83 3.02061 12 4.19061C13.17 3.02061 14.78 2.35059 16.44 2.35059C19.92 2.35059 22.75 5.19061 22.75 8.69061C22.75 10.6406 22.28 12.5106 21.35 14.2606C21.24 14.4706 21.03 14.6206 20.79 14.6506C20.55 14.6806 20.31 14.6006 20.14 14.4206C19.36 13.6006 18.31 13.1406 17.19 13.1406C14.96 13.1406 13.14 14.9606 13.14 17.1906C13.14 18.1806 13.51 19.1406 14.18 19.8906C14.34 20.0706 14.4 20.3106 14.35 20.5406C14.3 20.7706 14.14 20.9706 13.93 21.0706C13.53 21.2506 13.17 21.4006 12.84 21.5106C12.61 21.6106 12.31 21.6506 12 21.6506C11.69 21.6506 11.38 21.6106 11.13 21.5206ZM2.75 8.69061C2.75 15.5306 9.31999 19.3106 11.62 20.1006C11.8 20.1706 12.19 20.1606 12.37 20.1006C12.4 20.0906 12.43 20.0806 12.46 20.0706C11.94 19.2106 11.65 18.2206 11.65 17.2006C11.65 14.1406 14.14 11.6506 17.2 11.6506C18.38 11.6506 19.5 12.0206 20.44 12.6906C20.98 11.4106 21.25 10.0706 21.25 8.69061C21.25 6.02061 19.09 3.85059 16.44 3.85059C14.94 3.85059 13.5 4.57064 12.6 5.78064C12.32 6.16064 11.68 6.16064 11.4 5.78064C10.5 4.57064 9.06 3.85059 7.56 3.85059C4.91 3.85059 2.75 6.02061 2.75 8.69061Z" fill="#7328CE"/>
</svg>
