<svg width="24" height="24" viewBox="0 0 24 24" fill="none" xmlns="http://www.w3.org/2000/svg">
<path d="M11.14 21.5206C7.32 20.2106 1.25 15.5706 1.25 8.69061C1.25 5.19061 4.08 2.35059 7.56 2.35059C9.25 2.35059 10.83 3.01061 12 4.19061C13.17 3.01061 14.75 2.35059 16.44 2.35059C19.92 2.35059 22.75 5.19061 22.75 8.69061C22.75 9.90061 22.57 11.0906 22.21 12.2306C22.09 12.6206 21.66 12.8506 21.27 12.7206C20.87 12.6006 20.66 12.1706 20.78 11.7806C21.09 10.7906 21.25 9.75062 21.25 8.70062C21.25 6.03062 19.09 3.8606 16.44 3.8606C14.92 3.8606 13.51 4.57059 12.6 5.79059C12.32 6.17059 11.68 6.17059 11.4 5.79059C10.48 4.56059 9.08 3.8606 7.56 3.8606C4.91 3.8606 2.75 6.03062 2.75 8.70062C2.75 15.5406 9.32 19.3306 11.63 20.1206C11.69 20.1406 11.83 20.1706 12 20.1706C12.41 20.1706 12.75 20.5106 12.75 20.9206C12.75 21.3306 12.41 21.6506 12 21.6506C11.78 21.6506 11.45 21.6306 11.14 21.5206Z" fill="#7328CE"/>
<path fill-rule="evenodd" clip-rule="evenodd" d="M13.7891 17.8006C13.7891 15.6206 15.5591 13.8506 17.7391 13.8506C19.9191 13.8506 21.6891 15.6206 21.6891 17.8006C21.6891 19.9806 19.9191 21.7506 17.7391 21.7506C15.5591 21.7506 13.7891 19.9806 13.7891 17.8006ZM15.2891 17.8006C15.2891 19.1506 16.3891 20.2506 17.7391 20.2506C19.0891 20.2506 20.1891 19.1506 20.1891 17.8006C20.1891 16.4506 19.0891 15.3506 17.7391 15.3506C16.3891 15.3506 15.2891 16.4506 15.2891 17.8006Z" fill="#7328CE"/>
<path d="M21.0105 22.13L20.0105 21.13C19.7205 20.84 19.7205 20.36 20.0105 20.07C20.3005 19.78 20.7805 19.78 21.0705 20.07L22.0705 21.07C22.3605 21.36 22.3605 21.84 22.0705 22.13C21.9205 22.27 21.7305 22.35 21.5405 22.35C21.3505 22.35 21.1605 22.28 21.0105 22.13Z" fill="#7328CE"/>
</svg>
