<svg width="24" height="24" viewBox="0 0 24 24" fill="none" xmlns="http://www.w3.org/2000/svg">
<path fill-rule="evenodd" clip-rule="evenodd" d="M11.6504 17.1994C11.6504 14.1394 14.1404 11.6494 17.2004 11.6494C20.2604 11.6494 22.7504 14.1394 22.7504 17.1994C22.7504 20.2594 20.2604 22.7494 17.2004 22.7494C14.1404 22.7494 11.6504 20.2594 11.6504 17.1994ZM13.1504 17.1994C13.1504 19.4294 14.9704 21.2494 17.2004 21.2494C19.4304 21.2494 21.2504 19.4294 21.2504 17.1994C21.2504 14.9694 19.4304 13.1494 17.2004 13.1494C14.9704 13.1494 13.1504 14.9694 13.1504 17.1994Z" fill="#7328CE"/>
<path d="M15.4004 18.0098C14.9904 18.0098 14.6504 17.6698 14.6504 17.2598C14.6504 16.8498 14.9904 16.5098 15.4004 16.5098H18.9904C19.4004 16.5098 19.7404 16.8498 19.7404 17.2598C19.7404 17.6698 19.4104 18.0098 18.9904 18.0098H15.4004Z" fill="#7328CE"/>
<path d="M16.4492 19.0997V15.5098C16.4492 15.0998 16.7892 14.7598 17.1992 14.7598C17.6092 14.7598 17.9492 15.0998 17.9492 15.5098V19.0997C17.9492 19.5097 17.6092 19.8497 17.1992 19.8497C16.7892 19.8497 16.4492 19.5097 16.4492 19.0997Z" fill="#7328CE"/>
<path fill-rule="evenodd" clip-rule="evenodd" d="M11.13 21.5206C8.57 20.6506 1.25 16.4106 1.25 8.69061C1.25 5.19061 4.08 2.35059 7.56 2.35059C9.23 2.35059 10.83 3.02061 12 4.19061C13.17 3.02061 14.78 2.35059 16.44 2.35059C19.92 2.35059 22.75 5.19061 22.75 8.69061C22.75 10.6406 22.28 12.5106 21.35 14.2606C21.24 14.4706 21.03 14.6206 20.79 14.6506C20.54 14.6806 20.31 14.6006 20.14 14.4206C19.36 13.6006 18.31 13.1406 17.19 13.1406C14.96 13.1406 13.14 14.9606 13.14 17.1906C13.14 18.1806 13.51 19.1406 14.18 19.8906C14.34 20.0706 14.4 20.3106 14.35 20.5406C14.3 20.7706 14.14 20.9706 13.93 21.0706C13.53 21.2506 13.17 21.4006 12.84 21.5106C12.61 21.6106 12.31 21.6506 12 21.6506C11.69 21.6506 11.38 21.6106 11.13 21.5206ZM2.75 8.69061C2.75 15.5306 9.31999 19.3106 11.62 20.1006C11.8 20.1706 12.19 20.1606 12.37 20.1006C12.4 20.0906 12.43 20.0806 12.46 20.0706C11.94 19.2106 11.65 18.2206 11.65 17.2006C11.65 14.1406 14.14 11.6506 17.2 11.6506C18.38 11.6506 19.5 12.0206 20.44 12.6906C20.98 11.4106 21.25 10.0706 21.25 8.69061C21.25 6.02061 19.09 3.85059 16.44 3.85059C14.94 3.85059 13.5 4.57064 12.6 5.78064C12.32 6.16064 11.68 6.16064 11.4 5.78064C10.5 4.57064 9.06 3.85059 7.56 3.85059C4.91 3.85059 2.75 6.02061 2.75 8.69061Z" fill="#7328CE"/>
</svg>
