<svg width="24" height="24" viewBox="0 0 24 24" fill="none" xmlns="http://www.w3.org/2000/svg">
<path fill-rule="evenodd" clip-rule="evenodd" d="M12.4504 20.0494C11.9304 19.2094 11.6504 18.2094 11.6504 17.1994C11.6504 14.1394 14.1404 11.6494 17.2004 11.6494C20.2604 11.6494 22.7504 14.1394 22.7504 17.1994C22.7504 18.2194 22.4704 19.2094 21.9404 20.0694C20.9604 21.7194 19.1404 22.7494 17.2004 22.7494C15.2604 22.7494 13.4404 21.7194 12.4504 20.0494ZM13.1504 17.1994C13.1504 17.9394 13.3504 18.6594 13.7304 19.2794C14.4704 20.5194 15.7604 21.2494 17.2004 21.2494C18.6404 21.2494 19.9304 20.5194 20.6604 19.2894C21.0504 18.6594 21.2504 17.9394 21.2504 17.1994C21.2504 14.9694 19.4304 13.1494 17.2004 13.1494C14.9704 13.1494 13.1504 14.9694 13.1504 17.1994Z" fill="#7328CE"/>
<path d="M15.9795 18.9098L14.7995 17.7298C14.5095 17.4398 14.5095 16.9598 14.7995 16.6698C15.0895 16.3798 15.5695 16.3798 15.8595 16.6698L16.5295 17.3398L18.5595 15.4598C18.8695 15.1798 19.3395 15.1998 19.6195 15.4998C19.8995 15.7998 19.8795 16.2798 19.5795 16.5598L17.0195 18.9198C16.8795 19.0698 16.6895 19.1298 16.5095 19.1298C16.3195 19.1298 16.1295 19.0598 15.9795 18.9098Z" fill="#7328CE"/>
<path fill-rule="evenodd" clip-rule="evenodd" d="M11.13 21.5206C8.57 20.6506 1.25 16.4106 1.25 8.69061C1.25 5.19061 4.08 2.35059 7.56 2.35059C9.22 2.35059 10.83 3.02061 12 4.19061C13.17 3.02061 14.78 2.35059 16.44 2.35059C19.92 2.35059 22.75 5.19061 22.75 8.69061C22.75 10.6406 22.28 12.5106 21.35 14.2606C21.24 14.4706 21.03 14.6206 20.79 14.6506C20.55 14.6806 20.31 14.6006 20.14 14.4206C19.36 13.6006 18.32 13.1406 17.2 13.1406C14.97 13.1406 13.15 14.9606 13.15 17.1906C13.15 18.1806 13.52 19.1406 14.19 19.8906C14.35 20.0706 14.41 20.3106 14.36 20.5406C14.31 20.7706 14.15 20.9706 13.94 21.0706C13.54 21.2506 13.18 21.4006 12.85 21.5106C12.61 21.6106 12.31 21.6506 12 21.6506C11.69 21.6506 11.38 21.6106 11.13 21.5206ZM2.75 8.69061C2.75 15.5306 9.32 19.3106 11.62 20.1006C11.81 20.1706 12.19 20.1606 12.37 20.1006C12.4 20.0906 12.43 20.0806 12.46 20.0706C11.93 19.2106 11.65 18.2206 11.65 17.2006C11.65 14.1406 14.14 11.6506 17.2 11.6506C18.36 11.6506 19.5 12.0206 20.44 12.7006C20.98 11.4206 21.25 10.0806 21.25 8.69061C21.25 6.02061 19.09 3.85059 16.44 3.85059C14.94 3.85059 13.5 4.57064 12.6 5.78064C12.32 6.16064 11.68 6.16064 11.4 5.78064C10.5 4.57064 9.06 3.85059 7.56 3.85059C4.91 3.85059 2.75 6.02061 2.75 8.69061Z" fill="#7328CE"/>
</svg>
