<svg width="24" height="24" viewBox="0 0 24 24" fill="none" xmlns="http://www.w3.org/2000/svg">
<mask id="mask0_251_27948" style="mask-type:luminance" maskUnits="userSpaceOnUse" x="0" y="0" width="24" height="24">
<rect width="24" height="24" fill="white"/>
</mask>
<g mask="url(#mask0_251_27948)">
<path fill-rule="evenodd" clip-rule="evenodd" d="M6.5589 21.4099L1.12891 11.9998L6.5589 2.58984H17.4289L22.8589 11.9998L17.4289 21.4099H6.5589ZM16.5589 19.9099L21.1289 11.9998L16.5589 4.08984H7.42889L2.8689 11.9998L7.42889 19.9099H16.5589Z" fill="#7328CE"/>
<path fill-rule="evenodd" clip-rule="evenodd" d="M6.60025 21.41L4.24023 17.33L6.60025 13.25H11.3102L13.6703 17.33L11.3102 21.41H6.60025ZM10.4402 19.91L11.9302 17.33L10.4402 14.75H7.46024L5.97025 17.33L7.46024 19.91H10.4402Z" fill="#7328CE"/>
<path fill-rule="evenodd" clip-rule="evenodd" d="M6.59976 21.41L2.50977 14.33L6.59976 7.25H14.7798L18.8698 14.33L14.7798 21.41H6.59976ZM13.9098 19.91L17.1298 14.33L13.9098 8.75H7.46976L4.24976 14.33L7.46976 19.91H13.9098Z" fill="#7328CE"/>
</g>
</svg>
