<svg width="24" height="24" viewBox="0 0 24 24" fill="none" xmlns="http://www.w3.org/2000/svg">
<path d="M7.05078 13.8006V9.60059C7.05078 9.19059 7.39078 8.85059 7.80078 8.85059C8.21078 8.85059 8.55078 9.19059 8.55078 9.60059V13.8006C8.55078 14.2106 8.21078 14.5506 7.80078 14.5506C7.39078 14.5506 7.05078 14.2106 7.05078 13.8006Z" fill="#7328CE"/>
<path fill-rule="evenodd" clip-rule="evenodd" d="M5.25 16.0506C5.25 14.5606 6.46001 13.3506 7.95001 13.3506C9.44001 13.3506 10.65 14.5606 10.65 16.0506C10.65 17.5406 9.44001 18.7506 7.95001 18.7506C6.46001 18.7506 5.25 17.5406 5.25 16.0506ZM6.75 16.0506C6.75 16.7106 7.29001 17.2506 7.95001 17.2506C8.61001 17.2506 9.15002 16.7106 9.15002 16.0506C9.15002 15.3906 8.61001 14.8506 7.95001 14.8506C7.29001 14.8506 6.75 15.3906 6.75 16.0506Z" fill="#7328CE"/>
<path fill-rule="evenodd" clip-rule="evenodd" d="M5.25 7.79999C5.25 6.38999 6.38999 5.25 7.79999 5.25C9.20999 5.25 10.35 6.38999 10.35 7.79999C10.35 9.20999 9.20999 10.35 7.79999 10.35C6.38999 10.35 5.25 9.20999 5.25 7.79999ZM6.75 7.79999C6.75 8.37999 7.21999 8.85001 7.79999 8.85001C8.37999 8.85001 8.84998 8.37999 8.84998 7.79999C8.84998 7.21999 8.37999 6.75 7.79999 6.75C7.21999 6.75 6.75 7.21999 6.75 7.79999Z" fill="#7328CE"/>
<path fill-rule="evenodd" clip-rule="evenodd" d="M13.6504 7.79999C13.6504 6.38999 14.7904 5.25 16.2004 5.25C17.6104 5.25 18.7504 6.38999 18.7504 7.79999C18.7504 9.20999 17.6104 10.35 16.2004 10.35C14.7904 10.35 13.6504 9.20999 13.6504 7.79999ZM15.1504 7.79999C15.1504 8.37999 15.6204 8.85001 16.2004 8.85001C16.7804 8.85001 17.2504 8.37999 17.2504 7.79999C17.2504 7.21999 16.7804 6.75 16.2004 6.75C15.6204 6.75 15.1504 7.21999 15.1504 7.79999Z" fill="#7328CE"/>
<path d="M7.6896 14.5301C7.2896 14.4301 7.04962 14.0201 7.14962 13.6201C7.50962 12.2101 8.77958 11.2401 10.2296 11.2401H10.2396L12.2996 11.2501H12.3096C13.5196 11.2501 14.5896 10.4901 14.9896 9.35014C15.1296 8.96014 15.5596 8.75015 15.9396 8.89015C16.3296 9.03015 16.5396 9.45014 16.3996 9.85014C15.7896 11.6001 14.1496 12.7701 12.2896 12.7601L10.2296 12.7501C10.2296 12.7501 10.2296 12.7501 10.2196 12.7501C9.44957 12.7501 8.77962 13.2701 8.58962 14.0101C8.51962 14.3301 8.2096 14.5501 7.8796 14.5501C7.8196 14.5501 7.7496 14.5401 7.6896 14.5301Z" fill="#7328CE"/>
<path fill-rule="evenodd" clip-rule="evenodd" d="M9 22.75C3.57 22.75 1.25 20.43 1.25 15V9C1.25 3.57 3.57 1.25 9 1.25H15C20.43 1.25 22.75 3.57 22.75 9V15C22.75 20.43 20.43 22.75 15 22.75H9ZM2.75 9V15C2.75 19.61 4.39 21.25 9 21.25H15C19.61 21.25 21.25 19.61 21.25 15V9C21.25 4.39 19.61 2.75 15 2.75H9C4.39 2.75 2.75 4.39 2.75 9Z" fill="#7328CE"/>
</svg>
