<svg width="24" height="24" viewBox="0 0 24 24" fill="none" xmlns="http://www.w3.org/2000/svg">
<path d="M15.7008 14.4V8.5C15.7008 8.36 15.5908 8.25 15.4508 8.25H12.5508C12.1408 8.25 11.8008 7.91 11.8008 7.5C11.8008 7.09 12.1408 6.75 12.5508 6.75H15.4508C16.4108 6.75 17.2008 7.54 17.2008 8.5V14.4C17.2008 14.81 16.8608 15.15 16.4508 15.15C16.0408 15.15 15.7008 14.81 15.7008 14.4Z" fill="#7328CE"/>
<path d="M13.57 9.58065L11.77 8.08065C11.6 7.94065 11.5 7.73066 11.5 7.50066C11.5 7.27066 11.6 7.07067 11.77 6.92067L13.57 5.42067C13.89 5.16067 14.36 5.20065 14.63 5.52065C14.9 5.84065 14.85 6.31065 14.53 6.58065L13.42 7.50066L14.53 8.42067C14.85 8.69067 14.89 9.16067 14.63 9.48067C14.48 9.66067 14.26 9.75066 14.05 9.75066C13.88 9.75066 13.71 9.69065 13.57 9.58065Z" fill="#7328CE"/>
<path d="M6.80078 14.4002V10.2002C6.80078 9.7902 7.14078 9.4502 7.55078 9.4502C7.96078 9.4502 8.30078 9.7902 8.30078 10.2002V14.4002C8.30078 14.8102 7.96078 15.1502 7.55078 15.1502C7.14078 15.1502 6.80078 14.8102 6.80078 14.4002Z" fill="#7328CE"/>
<path fill-rule="evenodd" clip-rule="evenodd" d="M5 7.95001C5 6.46001 6.21001 5.25 7.70001 5.25C9.19001 5.25 10.4 6.46001 10.4 7.95001C10.4 9.44001 9.19001 10.65 7.70001 10.65C6.21001 10.65 5 9.44001 5 7.95001ZM6.5 7.95001C6.5 8.61001 7.04001 9.14999 7.70001 9.14999C8.36001 9.14999 8.90002 8.61001 8.90002 7.95001C8.90002 7.29001 8.36001 6.75 7.70001 6.75C7.04001 6.75 6.5 7.29001 6.5 7.95001Z" fill="#7328CE"/>
<path fill-rule="evenodd" clip-rule="evenodd" d="M5 16.2004C5 14.7904 6.13999 13.6504 7.54999 13.6504C8.95999 13.6504 10.1 14.7904 10.1 16.2004C10.1 17.6104 8.95999 18.7504 7.54999 18.7504C6.13999 18.7504 5 17.6104 5 16.2004ZM6.5 16.2004C6.5 16.7804 6.96999 17.2504 7.54999 17.2504C8.12999 17.2504 8.59998 16.7804 8.59998 16.2004C8.59998 15.6204 8.12999 15.1504 7.54999 15.1504C6.96999 15.1504 6.5 15.6204 6.5 16.2004Z" fill="#7328CE"/>
<path fill-rule="evenodd" clip-rule="evenodd" d="M13.9004 16.2004C13.9004 14.7904 15.0404 13.6504 16.4504 13.6504C17.8604 13.6504 19.0004 14.7904 19.0004 16.2004C19.0004 17.6104 17.8604 18.7504 16.4504 18.7504C15.0404 18.7504 13.9004 17.6104 13.9004 16.2004ZM15.4004 16.2004C15.4004 16.7804 15.8704 17.2504 16.4504 17.2504C17.0304 17.2504 17.5004 16.7804 17.5004 16.2004C17.5004 15.6204 17.0304 15.1504 16.4504 15.1504C15.8704 15.1504 15.4004 15.6204 15.4004 16.2004Z" fill="#7328CE"/>
<path fill-rule="evenodd" clip-rule="evenodd" d="M9 22.75C3.57 22.75 1.25 20.43 1.25 15V9C1.25 3.57 3.57 1.25 9 1.25H15C20.43 1.25 22.75 3.57 22.75 9V15C22.75 20.43 20.43 22.75 15 22.75H9ZM2.75 9V15C2.75 19.61 4.39 21.25 9 21.25H15C19.61 21.25 21.25 19.61 21.25 15V9C21.25 4.39 19.61 2.75 15 2.75H9C4.39 2.75 2.75 4.39 2.75 9Z" fill="#7328CE"/>
</svg>
