<svg width="24" height="24" viewBox="0 0 24 24" fill="none" xmlns="http://www.w3.org/2000/svg">
<path d="M7.05078 14.4002V10.2002C7.05078 9.7902 7.39078 9.4502 7.80078 9.4502C8.21078 9.4502 8.55078 9.7902 8.55078 10.2002V14.4002C8.55078 14.8102 8.21078 15.1502 7.80078 15.1502C7.39078 15.1502 7.05078 14.8102 7.05078 14.4002Z" fill="#7328CE"/>
<path fill-rule="evenodd" clip-rule="evenodd" d="M5.25 7.95001C5.25 6.46001 6.46001 5.25 7.95001 5.25C9.44001 5.25 10.65 6.46001 10.65 7.95001C10.65 9.44001 9.44001 10.65 7.95001 10.65C6.46001 10.65 5.25 9.44001 5.25 7.95001ZM6.75 7.95001C6.75 8.61001 7.29001 9.14999 7.95001 9.14999C8.61001 9.14999 9.15002 8.61001 9.15002 7.95001C9.15002 7.29001 8.61001 6.75 7.95001 6.75C7.29001 6.75 6.75 7.29001 6.75 7.95001Z" fill="#7328CE"/>
<path fill-rule="evenodd" clip-rule="evenodd" d="M5.25 16.1994C5.25 14.7894 6.38999 13.6494 7.79999 13.6494C9.20999 13.6494 10.35 14.7894 10.35 16.1994C10.35 17.6094 9.20999 18.7494 7.79999 18.7494C6.38999 18.7494 5.25 17.6094 5.25 16.1994ZM6.75 16.1994C6.75 16.7794 7.21999 17.2494 7.79999 17.2494C8.37999 17.2494 8.84998 16.7794 8.84998 16.1994C8.84998 15.6194 8.37999 15.1494 7.79999 15.1494C7.21999 15.1494 6.75 15.6194 6.75 16.1994Z" fill="#7328CE"/>
<path fill-rule="evenodd" clip-rule="evenodd" d="M13.6504 16.1994C13.6504 14.7894 14.7904 13.6494 16.2004 13.6494C17.6104 13.6494 18.7504 14.7894 18.7504 16.1994C18.7504 17.6094 17.6104 18.7494 16.2004 18.7494C14.7904 18.7494 13.6504 17.6094 13.6504 16.1994ZM15.1504 16.1994C15.1504 16.7794 15.6204 17.2494 16.2004 17.2494C16.7804 17.2494 17.2504 16.7794 17.2504 16.1994C17.2504 15.6194 16.7804 15.1494 16.2004 15.1494C15.6204 15.1494 15.1504 15.6194 15.1504 16.1994Z" fill="#7328CE"/>
<path d="M14.9896 14.6705C14.5896 13.5305 13.5196 12.7704 12.3096 12.7704H12.2996L10.2396 12.7804H10.2296C8.77958 12.7804 7.50962 11.8004 7.14962 10.4004C7.04962 10.0004 7.2896 9.59044 7.6896 9.49044C8.0796 9.39044 8.49957 9.63045 8.59957 10.0304C8.78957 10.7704 9.45958 11.2905 10.2296 11.2905C10.2296 11.2905 10.2296 11.2905 10.2396 11.2905L12.2996 11.2804C12.3096 11.2804 12.3096 11.2804 12.3196 11.2804C14.1596 11.2804 15.8096 12.4505 16.4196 14.1905C16.5596 14.5805 16.3496 15.0104 15.9596 15.1504C15.8696 15.1604 15.7796 15.1705 15.6996 15.1705C15.3896 15.1705 15.0996 14.9805 14.9896 14.6705Z" fill="#7328CE"/>
<path fill-rule="evenodd" clip-rule="evenodd" d="M9 22.75C3.57 22.75 1.25 20.43 1.25 15V9C1.25 3.57 3.57 1.25 9 1.25H15C20.43 1.25 22.75 3.57 22.75 9V15C22.75 20.43 20.43 22.75 15 22.75H9ZM2.75 9V15C2.75 19.61 4.39 21.25 9 21.25H15C19.61 21.25 21.25 19.61 21.25 15V9C21.25 4.39 19.61 2.75 15 2.75H9C4.39 2.75 2.75 4.39 2.75 9Z" fill="#7328CE"/>
</svg>
