<svg width="24" height="24" viewBox="0 0 24 24" fill="none" xmlns="http://www.w3.org/2000/svg">
<path fill-rule="evenodd" clip-rule="evenodd" d="M6.21 22.7402C3.47 22.7402 1.25 20.5102 1.25 17.7702V10.3602C1.25 9.00021 2.09 7.29021 3.17 6.45021L8.56 2.25021C10.18 0.990208 12.77 0.930208 14.45 2.11021L20.63 6.44021C21.82 7.27021 22.75 9.05021 22.75 10.5002V17.7802C22.75 20.5102 20.53 22.7402 17.79 22.7402H6.21ZM4.09 7.63021C3.38 8.19021 2.75 9.46021 2.75 10.3602V17.7702C2.75 19.6802 4.3 21.2402 6.21 21.2402H17.79C19.7 21.2402 21.25 19.6902 21.25 17.7802V10.5002C21.25 9.54021 20.56 8.21021 19.77 7.67021L13.59 3.34021C12.45 2.54021 10.57 2.58021 9.48 3.43021L4.09 7.63021Z" fill="#7328CE"/>
<path d="M6.96945 17.0295C6.67945 16.7395 6.67945 16.2595 6.96945 15.9695L10.1695 12.7695C10.3295 12.6095 10.5395 12.5295 10.7695 12.5495C10.9895 12.5695 11.1895 12.6895 11.3195 12.8795L12.4095 14.5195L15.9595 10.9695C16.2495 10.6795 16.7295 10.6795 17.0195 10.9695C17.3095 11.2595 17.3095 11.7395 17.0195 12.0295L12.8195 16.2295C12.6595 16.3895 12.4495 16.4695 12.2195 16.4495C11.9995 16.4295 11.7995 16.3095 11.6695 16.1195L10.5795 14.4795L8.02945 17.0295C7.87945 17.1795 7.68945 17.2495 7.49945 17.2495C7.30945 17.2495 7.11945 17.1795 6.96945 17.0295Z" fill="#7328CE"/>
<path d="M15.75 13.5V12.25H14.5C14.09 12.25 13.75 11.91 13.75 11.5C13.75 11.09 14.09 10.75 14.5 10.75H16.5C16.91 10.75 17.25 11.09 17.25 11.5V13.5C17.25 13.91 16.91 14.25 16.5 14.25C16.09 14.25 15.75 13.91 15.75 13.5Z" fill="#7328CE"/>
</svg>
