<svg width="24" height="24" viewBox="0 0 24 24" fill="none" xmlns="http://www.w3.org/2000/svg">
<path fill-rule="evenodd" clip-rule="evenodd" d="M6.21 22.7402C3.47 22.7402 1.25 20.5102 1.25 17.7702V10.3602C1.25 9.00021 2.09 7.29021 3.17 6.45021L8.56 2.25021C10.18 0.990208 12.77 0.930208 14.45 2.11021L20.63 6.44021C21.82 7.27021 22.75 9.05021 22.75 10.5002V17.7802C22.75 20.5102 20.53 22.7402 17.79 22.7402H6.21ZM4.09 7.63021C3.38 8.19021 2.75 9.46021 2.75 10.3602V17.7702C2.75 19.6802 4.3 21.2402 6.21 21.2402H17.79C19.7 21.2402 21.25 19.6902 21.25 17.7802V10.5002C21.25 9.54021 20.56 8.21021 19.77 7.67021L13.59 3.34021C12.45 2.54021 10.57 2.58021 9.48 3.43021L4.09 7.63021Z" fill="#7328CE"/>
<path d="M15.9692 17.0295L12.4192 13.4795L11.3292 15.1195C11.2092 15.3095 10.9992 15.4295 10.7792 15.4495C10.5492 15.4695 10.3292 15.3895 10.1792 15.2295L6.97922 12.0295C6.68922 11.7395 6.68922 11.2595 6.97922 10.9695C7.26922 10.6795 7.74922 10.6795 8.03922 10.9695L10.5892 13.5195L11.6792 11.8795C11.7992 11.6895 12.0092 11.5695 12.2292 11.5495C12.4592 11.5295 12.6792 11.6095 12.8292 11.7695L17.0292 15.9695C17.3192 16.2595 17.3192 16.7395 17.0292 17.0295C16.8792 17.1795 16.6892 17.2495 16.4992 17.2495C16.3092 17.2495 16.1192 17.1795 15.9692 17.0295Z" fill="#7328CE"/>
<path d="M14.5 17.25C14.09 17.25 13.75 16.91 13.75 16.5C13.75 16.09 14.09 15.75 14.5 15.75H15.75V14.5C15.75 14.09 16.09 13.75 16.5 13.75C16.91 13.75 17.25 14.09 17.25 14.5V16.5C17.25 16.91 16.91 17.25 16.5 17.25H14.5Z" fill="#7328CE"/>
</svg>
