<svg width="24" height="24" viewBox="0 0 24 24" fill="none" xmlns="http://www.w3.org/2000/svg">
<mask id="mask0_251_27878" style="mask-type:luminance" maskUnits="userSpaceOnUse" x="0" y="0" width="24" height="24">
<rect width="24" height="24" fill="white"/>
</mask>
<g mask="url(#mask0_251_27878)">
<path fill-rule="evenodd" clip-rule="evenodd" d="M5 11.75C4.59 11.75 4.25 11.41 4.25 11V9C4.25 6.38 6.38 4.25 9 4.25H11C11.41 4.25 11.75 4.59 11.75 5V8C11.75 8.41 11.41 8.75 11 8.75H9C8.86 8.75 8.75 8.86 8.75 9V11C8.75 11.41 8.41 11.75 8 11.75H5ZM7.25 10.25V9C7.25 8.04 8.04 7.25 9 7.25H10.25V5.75H9C7.21 5.75 5.75 7.21 5.75 9V10.25H7.25Z" fill="#7328CE"/>
<path fill-rule="evenodd" clip-rule="evenodd" d="M13 19.75C12.59 19.75 12.25 19.41 12.25 19V16C12.25 15.59 12.59 15.25 13 15.25H15C15.14 15.25 15.25 15.14 15.25 15V13C15.25 12.59 15.59 12.25 16 12.25H19C19.41 12.25 19.75 12.59 19.75 13V15C19.75 17.62 17.62 19.75 15 19.75H13ZM15 18.25C16.79 18.25 18.25 16.79 18.25 15V13.75H16.75V15C16.75 15.96 15.96 16.75 15 16.75H13.75V18.25H15Z" fill="#7328CE"/>
<path fill-rule="evenodd" clip-rule="evenodd" d="M9 22.75C3.57 22.75 1.25 20.43 1.25 15V9C1.25 3.57 3.57 1.25 9 1.25H15C20.43 1.25 22.75 3.57 22.75 9V15C22.75 20.43 20.43 22.75 15 22.75H9ZM2.75 9V15C2.75 19.61 4.39 21.25 9 21.25H15C19.61 21.25 21.25 19.61 21.25 15V9C21.25 4.39 19.61 2.75 15 2.75H9C4.39 2.75 2.75 4.39 2.75 9Z" fill="#7328CE"/>
</g>
</svg>
