<svg width="24" height="24" viewBox="0 0 24 24" fill="none" xmlns="http://www.w3.org/2000/svg">
<mask id="mask0_251_29192" style="mask-type:luminance" maskUnits="userSpaceOnUse" x="0" y="0" width="24" height="24">
<rect width="24" height="24" fill="white"/>
</mask>
<g mask="url(#mask0_251_29192)">
<path fill-rule="evenodd" clip-rule="evenodd" d="M9.25 9.5C9.25 7.98 10.48 6.75 12 6.75C13.52 6.75 14.75 7.98 14.75 9.5C14.75 11.02 13.52 12.25 12 12.25C10.48 12.25 9.25 11.02 9.25 9.5ZM10.75 9.5C10.75 10.19 11.31 10.75 12 10.75C12.69 10.75 13.25 10.19 13.25 9.5C13.25 8.81 12.69 8.25 12 8.25C11.31 8.25 10.75 8.81 10.75 9.5Z" fill="#7328CE"/>
<path d="M9.66048 14.1696C9.29048 13.9796 9.14052 13.5295 9.33052 13.1595C9.51052 12.7895 9.96053 12.6395 10.3405 12.8295C11.3805 13.3495 12.6205 13.3495 13.6605 12.8295C14.0205 12.6495 14.4805 12.7895 14.6605 13.1495C14.8505 13.5095 14.7205 13.9595 14.3605 14.1495C13.6105 14.5295 12.8005 14.7195 11.9905 14.7195C11.1905 14.7195 10.3905 14.5396 9.66048 14.1696Z" fill="#7328CE"/>
<path d="M13.4086 16.9702L11.9986 15.1902L10.5886 16.9702C10.3386 17.2902 9.85857 17.3502 9.53857 17.0902C9.21857 16.8302 9.15857 16.3602 9.41857 16.0402L11.4186 13.5102C11.6986 13.1502 12.3086 13.1502 12.5986 13.5102L14.5986 16.0402C14.8586 16.3702 14.7986 16.8402 14.4786 17.0902C14.3286 17.2002 14.1586 17.2502 13.9986 17.2502C13.7786 17.2502 13.5586 17.1502 13.4086 16.9702Z" fill="#7328CE"/>
<path fill-rule="evenodd" clip-rule="evenodd" d="M1.25 12C1.25 6.07 6.07 1.25 12 1.25C17.93 1.25 22.75 6.07 22.75 12C22.75 17.93 17.93 22.75 12 22.75C6.07 22.75 1.25 17.93 1.25 12ZM2.75 12C2.75 17.1 6.9 21.25 12 21.25C17.1 21.25 21.25 17.1 21.25 12C21.25 6.9 17.1 2.75 12 2.75C6.9 2.75 2.75 6.9 2.75 12Z" fill="#7328CE"/>
</g>
</svg>
