<svg width="24" height="24" viewBox="0 0 24 24" fill="none" xmlns="http://www.w3.org/2000/svg">
<path fill-rule="evenodd" clip-rule="evenodd" d="M9 22.75C3.57 22.75 1.25 20.43 1.25 15V9C1.25 3.57 3.57 1.25 9 1.25H15C20.43 1.25 22.75 3.57 22.75 9V15C22.75 20.43 20.43 22.75 15 22.75H9ZM2.75 9V15C2.75 19.61 4.39 21.25 9 21.25H15C19.61 21.25 21.25 19.61 21.25 15V9C21.25 4.39 19.61 2.75 15 2.75H9C4.39 2.75 2.75 4.39 2.75 9Z" fill="#7328CE"/>
<path fill-rule="evenodd" clip-rule="evenodd" d="M8.58974 18.2303L7.39974 18.0703C6.67974 17.9703 6.04974 17.3503 5.93974 16.6103L5.76974 15.4003C5.69974 14.9203 5.89974 14.3103 6.24974 13.9503L8.52974 11.6703C8.18974 10.0503 8.67974 8.37031 9.86974 7.19031C11.7797 5.28031 14.8997 5.28031 16.8097 7.19031C17.7397 8.12031 18.2497 9.35031 18.2497 10.6603C18.2497 11.9703 17.7397 13.2103 16.8097 14.1303C15.6197 15.3103 13.9397 15.8003 12.3297 15.4603L10.0397 17.7403C9.74974 18.0503 9.25974 18.2503 8.80974 18.2503C8.73974 18.2503 8.65974 18.2503 8.58974 18.2303ZM10.9297 8.25031C10.0297 9.15031 9.70974 10.4603 10.0797 11.6803C10.1597 11.9503 10.0897 12.2303 9.88974 12.4303L7.30974 15.0103C7.28974 15.0403 7.24974 15.1503 7.24974 15.1903L7.41974 16.3903C7.42974 16.4503 7.53974 16.5603 7.59974 16.5703L8.79974 16.7403C8.84974 16.7303 8.94974 16.7103 8.97974 16.6803L11.5697 14.0903C11.7697 13.8903 12.0597 13.8303 12.3197 13.9103C13.5297 14.2903 14.8397 13.9703 15.7397 13.0703C16.3797 12.4303 16.7397 11.5703 16.7397 10.6603C16.7397 9.75031 16.3897 8.89031 15.7397 8.25031C15.0897 7.59031 14.2097 7.25031 13.3397 7.25031C12.4697 7.25031 11.5897 7.58031 10.9297 8.25031Z" fill="#7328CE"/>
<path d="M9.9193 16.8104L9.0593 15.9504C8.7693 15.6604 8.7693 15.1804 9.0593 14.8904C9.3493 14.6004 9.8293 14.6004 10.1193 14.8904L10.9793 15.7504C11.2693 16.0404 11.2693 16.5204 10.9793 16.8104C10.8393 16.9604 10.6493 17.0304 10.4493 17.0304C10.2593 17.0304 10.0693 16.9604 9.9193 16.8104Z" fill="#7328CE"/>
<path d="M12.9891 11.7306C12.8691 11.6806 12.7591 11.6006 12.6691 11.5106C12.4791 11.3206 12.3691 11.0706 12.3691 10.8006C12.3691 10.5406 12.4791 10.2806 12.6691 10.1006C12.8991 9.86061 13.2491 9.7506 13.5691 9.8206C13.6291 9.8406 13.6991 9.85061 13.7591 9.88061C13.8191 9.91061 13.8791 9.94061 13.9291 9.97061C13.9791 10.0106 14.0391 10.0506 14.0791 10.1006C14.2691 10.2806 14.3791 10.5406 14.3791 10.8006C14.3791 10.9406 14.3491 11.0606 14.2991 11.1906C14.2491 11.3106 14.1791 11.4206 14.0791 11.5106C13.8891 11.7006 13.6391 11.8006 13.3791 11.8006C13.2391 11.8006 13.1091 11.7806 12.9891 11.7306Z" fill="#7328CE"/>
</svg>
