<svg width="24" height="24" viewBox="0 0 24 24" fill="none" xmlns="http://www.w3.org/2000/svg">
<path d="M3.65109 18.8599C3.36109 18.5699 3.36109 18.0899 3.65109 17.7999L19.5011 1.94992C19.7911 1.65992 20.2711 1.65992 20.5611 1.94992C20.8511 2.23992 20.8511 2.71992 20.5611 3.00992L4.71109 18.8599C4.56109 19.0099 4.37109 19.0799 4.18109 19.0799C3.99109 19.0799 3.80109 19.0099 3.65109 18.8599Z" fill="#7328CE"/>
<path d="M4.56031 13.3C4.07031 12.18 3.82031 11.04 3.82031 9.90001C3.82031 7.18001 5.00031 4.67001 7.05031 3.01001C8.97031 1.47001 11.3503 0.910008 13.7503 1.44001C15.3303 1.79001 16.7703 2.62001 17.9003 3.84001C18.1803 4.14001 18.1603 4.62001 17.8603 4.90001C17.5603 5.18001 17.0803 5.16001 16.8003 4.86001C15.8703 3.86001 14.7103 3.18001 13.4303 2.90001C11.4803 2.48001 9.55031 2.93001 8.00031 4.18001C6.30031 5.55001 5.33031 7.63001 5.33031 9.90001C5.33031 10.83 5.54031 11.77 5.94031 12.7C6.11031 13.08 5.93031 13.52 5.55031 13.69C5.45031 13.73 5.35031 13.75 5.25031 13.75C4.96031 13.75 4.69031 13.58 4.56031 13.3Z" fill="#7328CE"/>
<path d="M9.41961 19.7502C9.02961 19.7502 8.47961 19.7102 8.10961 19.3302C7.74961 18.9602 7.75961 18.4902 7.76961 18.1802V17.2702C7.36961 16.9902 6.98961 16.6702 6.62961 16.3102C6.33961 16.0202 6.33961 15.5402 6.62961 15.2502C6.91961 14.9602 7.39961 14.9602 7.68961 15.2502C8.07961 15.6302 8.48961 15.9702 8.91961 16.2502C9.12961 16.3902 9.26961 16.6302 9.26961 16.8802V18.2202C9.26961 18.2302 9.26961 18.2402 9.26961 18.2502C9.30961 18.2502 9.35961 18.2502 9.42961 18.2502H14.6196C14.6896 18.2502 14.7396 18.2502 14.7796 18.2402C14.7796 18.2002 14.7796 18.1602 14.7796 18.1302V16.8702C14.7796 16.6102 14.9096 16.3802 15.1296 16.2402C17.5996 14.6602 19.4996 11.1602 18.3596 7.5302C18.2396 7.1302 18.4596 6.7102 18.8496 6.5902C19.2396 6.4602 19.6696 6.69019 19.7896 7.08019C21.0996 11.2602 19.0596 15.2902 16.2796 17.2702V18.0402C16.2896 18.3502 16.2996 18.8802 15.8896 19.3002C15.5796 19.6002 15.1596 19.7502 14.6096 19.7502H9.41961Z" fill="#7328CE"/>
<path d="M15.2893 22.7195C13.1293 22.0995 10.8593 22.0995 8.69928 22.7195C8.29928 22.8295 7.88928 22.5995 7.76928 22.1995C7.64928 21.7995 7.88928 21.3895 8.28928 21.2695C10.7093 20.5795 13.2793 20.5795 15.6993 21.2695C16.0993 21.3795 16.3293 21.7995 16.2193 22.1995C16.1293 22.5395 15.8293 22.7495 15.4993 22.7495C15.4293 22.7495 15.3593 22.7395 15.2893 22.7195Z" fill="#7328CE"/>
</svg>
