<svg width="24" height="24" viewBox="0 0 24 24" fill="none" xmlns="http://www.w3.org/2000/svg">
<path d="M11.6304 13.7499C11.2704 13.5399 11.1504 13.0799 11.3504 12.7299L12.2004 11.2499H11.3604C10.8604 11.2499 10.4504 11.0299 10.2304 10.6599C10.0104 10.2799 10.0304 9.8199 10.2804 9.3799L11.3504 7.5199C11.5604 7.1599 12.0204 7.0399 12.3704 7.2399C12.7304 7.4499 12.8504 7.9099 12.6504 8.2599L11.8004 9.7499H12.6404C13.1404 9.7499 13.5504 9.9699 13.7704 10.3399C13.9904 10.7199 13.9704 11.1799 13.7204 11.6199L12.6504 13.4799C12.5104 13.7199 12.2604 13.8499 12.0004 13.8499C11.8704 13.8499 11.7404 13.8199 11.6304 13.7499Z" fill="#7328CE"/>
<path fill-rule="evenodd" clip-rule="evenodd" d="M9.26109 19.7493C8.82109 19.7493 8.26109 19.6993 7.89109 19.3193C7.53109 18.9493 7.54109 18.4893 7.55109 18.1793V17.2893C5.03109 15.6093 3.37109 12.6893 3.37109 9.90931C3.37109 7.27931 4.55109 4.81931 6.60109 3.16931C8.65109 1.51931 11.3411 0.899315 13.9711 1.47931C16.4711 2.02931 18.6311 3.69931 19.7511 5.94931C21.9211 10.3193 19.8311 15.0493 16.4911 17.2993V18.0493C16.5011 18.3393 16.5111 18.8693 16.1011 19.2893C15.7911 19.5893 15.3511 19.7493 14.7711 19.7493H9.26109ZM9.25109 18.2493H14.7711C14.8711 18.2493 14.9411 18.2393 14.9811 18.2293C14.9811 18.1993 14.9811 18.1593 14.9811 18.1293V16.8693C14.9811 16.6093 15.1211 16.3593 15.3411 16.2293C18.3011 14.4393 20.2611 10.3493 18.3911 6.59931C17.4711 4.74931 15.6911 3.37931 13.6311 2.92931C11.4511 2.44931 9.22109 2.95931 7.52109 4.32931C5.82109 5.69931 4.85109 7.72931 4.85109 9.90931C4.85109 12.6893 6.77109 15.0893 8.67109 16.2393C8.90109 16.3793 9.03109 16.6193 9.03109 16.8793V18.2293C9.04109 18.2293 9.04109 18.2293 9.04109 18.2393C9.09109 18.2393 9.16109 18.2493 9.25109 18.2493Z" fill="#7328CE"/>
<path d="M15.2893 22.7204C13.1293 22.1004 10.8593 22.1004 8.69928 22.7204C8.29928 22.8304 7.88928 22.6004 7.76928 22.2004C7.64928 21.8004 7.88928 21.3904 8.28928 21.2704C10.7093 20.5804 13.2793 20.5804 15.6993 21.2704C16.0993 21.3804 16.3293 21.8004 16.2193 22.2004C16.1293 22.5404 15.8293 22.7504 15.4993 22.7504C15.4293 22.7504 15.3593 22.7404 15.2893 22.7204Z" fill="#7328CE"/>
</svg>
