<svg width="24" height="24" viewBox="0 0 24 24" fill="none" xmlns="http://www.w3.org/2000/svg">
<path fill-rule="evenodd" clip-rule="evenodd" d="M5.79099 15.44C4.76099 15.44 3.85099 15.02 3.29099 14.29C2.73099 13.56 2.57099 12.57 2.84099 11.58L5.04099 3.5C5.38099 2.24 6.68099 1.25 7.99099 1.25H16.001C17.311 1.25 18.601 2.24 18.951 3.5L21.151 11.58C21.421 12.57 21.261 13.56 20.701 14.29C20.141 15.02 19.241 15.44 18.211 15.44H5.79099ZM6.49099 3.9L4.29099 11.98C4.14099 12.52 4.21099 13.02 4.49099 13.39C4.77099 13.76 5.23099 13.95 5.79099 13.95H18.211C18.771 13.95 19.241 13.75 19.511 13.39C19.781 13.03 19.861 12.53 19.711 11.98L17.511 3.9C17.341 3.29 16.641 2.75 16.011 2.75H7.99099C7.36099 2.75 6.65099 3.29 6.49099 3.9Z" fill="#7328CE"/>
<path d="M11.25 22V15C11.25 14.59 11.59 14.25 12 14.25C12.41 14.25 12.75 14.59 12.75 15V22C12.75 22.41 12.41 22.75 12 22.75C11.59 22.75 11.25 22.41 11.25 22Z" fill="#7328CE"/>
<path d="M8 22.75C7.59 22.75 7.25 22.41 7.25 22C7.25 21.59 7.59 21.25 8 21.25H16C16.41 21.25 16.75 21.59 16.75 22C16.75 22.41 16.41 22.75 16 22.75H8Z" fill="#7328CE"/>
</svg>
