<svg width="24" height="24" viewBox="0 0 24 24" fill="none" xmlns="http://www.w3.org/2000/svg">
<path fill-rule="evenodd" clip-rule="evenodd" d="M9.25914 19.7493C8.81914 19.7493 8.25914 19.6993 7.88914 19.3193C7.52914 18.9493 7.53914 18.4893 7.54914 18.1793V17.2893C5.02914 15.6093 3.36914 12.6893 3.36914 9.90931C3.36914 7.27931 4.54914 4.81931 6.59914 3.16931C8.64914 1.51931 11.3391 0.899315 13.9691 1.47931C16.4691 2.02931 18.6291 3.69931 19.7491 5.94931C21.9191 10.3193 19.8291 15.0493 16.4891 17.2993V18.0493C16.4991 18.3393 16.5091 18.8693 16.0991 19.2893C15.7891 19.5893 15.3491 19.7493 14.7691 19.7493H9.25914ZM9.24914 18.2493H14.7691C14.8691 18.2493 14.9391 18.2393 14.9791 18.2293C14.9791 18.1993 14.9791 18.1593 14.9791 18.1293V16.8693C14.9791 16.6093 15.1191 16.3593 15.3391 16.2293C18.2991 14.4393 20.2591 10.3493 18.3891 6.59931C17.4691 4.74931 15.6891 3.37931 13.6291 2.92931C11.4491 2.44931 9.21914 2.95931 7.51914 4.32931C5.81914 5.69931 4.84914 7.72931 4.84914 9.90931C4.84914 12.6893 6.76914 15.0893 8.66914 16.2393C8.89914 16.3793 9.02914 16.6193 9.02914 16.8793V18.2293C9.03914 18.2293 9.03914 18.2293 9.03914 18.2393C9.08914 18.2393 9.15914 18.2493 9.24914 18.2493Z" fill="#7328CE"/>
<path d="M15.2912 22.7204C13.1312 22.1004 10.8612 22.1004 8.70123 22.7204C8.30123 22.8304 7.89123 22.6004 7.77123 22.2004C7.65123 21.8004 7.89123 21.3904 8.29123 21.2704C10.7112 20.5804 13.2812 20.5804 15.7012 21.2704C16.1012 21.3804 16.3312 21.8004 16.2212 22.2004C16.1312 22.5404 15.8312 22.7504 15.5012 22.7504C15.4312 22.7504 15.3612 22.7404 15.2912 22.7204Z" fill="#7328CE"/>
</svg>
