<svg width="24" height="24" viewBox="0 0 24 24" fill="none" xmlns="http://www.w3.org/2000/svg">
<path d="M7.00977 9.70996C6.59977 9.70996 6.25977 9.36996 6.25977 8.95996C6.25977 8.54996 6.59977 8.20996 7.00977 8.20996H16.9897C17.3997 8.20996 17.7397 8.54996 17.7397 8.95996C17.7397 9.36996 17.3997 9.70996 16.9897 9.70996H7.00977Z" fill="#7328CE"/>
<path d="M11.25 8.96027V7.28027C11.25 6.87027 11.59 6.53027 12 6.53027C12.41 6.53027 12.75 6.87027 12.75 7.28027V8.96027C12.75 9.37027 12.41 9.71027 12 9.71027C11.59 9.71027 11.25 9.37027 11.25 8.96027Z" fill="#7328CE"/>
<path d="M6.25 16.7204C6.25 16.3104 6.59 15.9704 7 15.9704C10.72 15.9704 13.75 12.8204 13.75 8.94043C13.75 8.53043 14.09 8.19043 14.5 8.19043C14.91 8.19043 15.25 8.53043 15.25 8.94043C15.25 13.6504 11.55 17.4704 7 17.4704C6.59 17.4704 6.25 17.1304 6.25 16.7204Z" fill="#7328CE"/>
<path d="M11.8612 14.7003C11.6112 14.3703 11.6812 13.9003 12.0112 13.6503C12.3412 13.4003 12.8112 13.4702 13.0612 13.8002C14.1212 15.2002 15.5212 15.9702 17.0112 15.9702C17.4212 15.9702 17.7612 16.3102 17.7612 16.7202C17.7612 17.1302 17.4112 17.4702 17.0012 17.4702C15.0312 17.4702 13.2012 16.4903 11.8612 14.7003Z" fill="#7328CE"/>
<path fill-rule="evenodd" clip-rule="evenodd" d="M9 22.75C3.57 22.75 1.25 20.43 1.25 15V9C1.25 3.57 3.57 1.25 9 1.25H15C20.43 1.25 22.75 3.57 22.75 9V15C22.75 20.43 20.43 22.75 15 22.75H9ZM2.75 9V15C2.75 19.61 4.39 21.25 9 21.25H15C19.61 21.25 21.25 19.61 21.25 15V9C21.25 4.39 19.61 2.75 15 2.75H9C4.39 2.75 2.75 4.39 2.75 9Z" fill="#7328CE"/>
</svg>
