<svg width="24" height="24" viewBox="0 0 24 24" fill="none" xmlns="http://www.w3.org/2000/svg">
<path d="M10.0409 13.6502C8.86086 12.9602 8.13086 11.6802 8.13086 10.3202C8.13086 8.1902 9.86086 6.4502 12.0009 6.4502C13.3709 6.4502 14.6509 7.1802 15.3409 8.3702C15.5509 8.7302 15.4309 9.1902 15.0709 9.4002C14.7109 9.6102 14.2509 9.4902 14.0409 9.1302C13.6209 8.3902 12.8409 7.9402 12.0009 7.9402C10.7009 7.9402 9.63086 9.0002 9.63086 10.3102C9.63086 11.1502 10.0809 11.9302 10.8009 12.3502C11.1609 12.5602 11.2809 13.0202 11.0709 13.3802C10.9309 13.6102 10.6809 13.7502 10.4209 13.7502C10.2909 13.7502 10.1609 13.7202 10.0409 13.6502Z" fill="#7328CE"/>
<path d="M5.38073 18.2501C2.98073 14.9601 2.14073 11.6201 2.89073 8.32007C3.67073 4.89007 6.19072 2.35007 9.63072 1.52007C13.2307 0.650071 17.0107 1.82007 19.2407 4.49007C19.5107 4.81007 19.4607 5.28007 19.1507 5.55007C18.8307 5.82007 18.3607 5.77007 18.0907 5.45007C16.2207 3.21007 13.0407 2.24007 9.98072 2.97007C7.06072 3.67007 5.01073 5.74007 4.35072 8.64007C3.70072 11.5001 4.45073 14.4301 6.59073 17.3501C6.83073 17.6801 6.76073 18.1501 6.43072 18.4001C6.30072 18.5101 6.14072 18.5601 5.99072 18.5601C5.76072 18.5601 5.53073 18.4501 5.38073 18.2501Z" fill="#7328CE"/>
<path d="M7.87006 21.0893C7.57006 20.7993 7.56006 20.3293 7.85006 20.0293C8.14006 19.7293 8.61006 19.7193 8.91006 20.0093C10.6401 21.6793 13.3501 21.6793 15.0801 20.0093C17.7501 17.4393 20.7101 13.3793 19.6501 8.66929C19.5601 8.26929 19.8101 7.85929 20.2201 7.76929C20.6201 7.67929 21.0301 7.92929 21.1201 8.33929C22.3401 13.7293 19.0801 18.2493 16.1301 21.0893C14.9701 22.1993 13.4801 22.7593 12.0001 22.7593C10.5201 22.7593 9.03006 22.1993 7.87006 21.0893Z" fill="#7328CE"/>
<path d="M1.46945 22.5304C1.17945 22.2404 1.17945 21.7604 1.46945 21.4704L21.4695 1.47043C21.7595 1.18043 22.2395 1.18043 22.5295 1.47043C22.8195 1.76043 22.8195 2.24043 22.5295 2.53043L2.52945 22.5304C2.37945 22.6804 2.18945 22.7504 1.99945 22.7504C1.80945 22.7504 1.61945 22.6804 1.46945 22.5304Z" fill="#7328CE"/>
</svg>
