<svg width="24" height="24" viewBox="0 0 24 24" fill="none" xmlns="http://www.w3.org/2000/svg">
<path fill-rule="evenodd" clip-rule="evenodd" d="M7.86969 21.09C4.91969 18.25 1.65969 13.72 2.88969 8.33C3.99969 3.44 8.26969 1.25 11.9997 1.25C11.9997 1.25 11.9997 1.25 12.0097 1.25C15.7397 1.25 20.0097 3.44 21.1197 8.34C22.3397 13.73 19.0797 18.25 16.1297 21.09C14.9697 22.2 13.4797 22.76 11.9997 22.76C10.5197 22.76 9.02969 22.2 7.86969 21.09ZM4.35969 8.66C3.27969 13.37 6.23969 17.43 8.91969 20C10.6497 21.67 13.3597 21.67 15.0897 20C17.7597 17.43 20.7197 13.37 19.6597 8.66C18.6597 4.3 14.9097 2.75 11.9997 2.75C9.08969 2.75 5.34969 4.3 4.35969 8.66Z" fill="#7328CE"/>
<path d="M13.4705 13.4904L9.51047 9.53043C9.22047 9.24043 9.22047 8.76043 9.51047 8.47043C9.80047 8.18043 10.2805 8.18043 10.5705 8.47043L14.5305 12.4304C14.8205 12.7204 14.8205 13.2004 14.5305 13.4904C14.3805 13.6304 14.1905 13.7104 14.0005 13.7104C13.8105 13.7104 13.6205 13.6404 13.4705 13.4904Z" fill="#7328CE"/>
<path d="M9.46945 13.5295C9.17945 13.2395 9.17945 12.7595 9.46945 12.4695L13.4295 8.50949C13.7195 8.21949 14.1995 8.21949 14.4895 8.50949C14.7795 8.79949 14.7795 9.27949 14.4895 9.56949L10.5295 13.5295C10.3795 13.6795 10.1895 13.7495 9.99945 13.7495C9.80945 13.7495 9.61945 13.6795 9.46945 13.5295Z" fill="#7328CE"/>
</svg>
