<svg width="24" height="24" viewBox="0 0 24 24" fill="none" xmlns="http://www.w3.org/2000/svg">
<path d="M15.1105 22.2695C10.6705 22.2695 8.5305 20.5195 8.1605 16.5995C8.1205 16.1895 8.4205 15.8195 8.8405 15.7795C9.2505 15.7395 9.6205 16.0495 9.6605 16.4595C9.9505 19.5995 11.4305 20.7695 15.1205 20.7695H15.2505C19.3205 20.7695 20.7605 19.3295 20.7605 15.2595V8.73949C20.7605 4.66949 19.3205 3.22949 15.2505 3.22949H15.1205C11.4105 3.22949 9.9305 4.41949 9.6605 7.61949C9.6105 8.02949 9.2705 8.33949 8.8405 8.29949C8.4205 8.26949 8.1205 7.89949 8.1505 7.48949C8.4905 3.50949 10.6405 1.72949 15.1105 1.72949H15.2405C20.1505 1.72949 22.2505 3.82949 22.2505 8.73949V15.2595C22.2505 20.1695 20.1505 22.2695 15.2405 22.2695H15.1105Z" fill="#7328CE"/>
<path d="M2 12.75C1.59 12.75 1.25 12.41 1.25 12C1.25 11.59 1.59 11.25 2 11.25H14.88C15.29 11.25 15.63 11.59 15.63 12C15.63 12.41 15.3 12.75 14.88 12.75H2Z" fill="#7328CE"/>
<path d="M12.1198 15.8798C11.8298 15.5898 11.8298 15.1098 12.1198 14.8198L14.9398 11.9998L12.1198 9.17984C11.8298 8.88984 11.8298 8.40984 12.1198 8.11984C12.4098 7.82984 12.8898 7.82984 13.1798 8.11984L16.5298 11.4698C16.8198 11.7598 16.8198 12.2398 16.5298 12.5298L13.1798 15.8798C13.0298 16.0298 12.8398 16.0998 12.6498 16.0998C12.4598 16.0998 12.2698 16.0298 12.1198 15.8798Z" fill="#7328CE"/>
</svg>
