<svg width="24" height="24" viewBox="0 0 24 24" fill="none" xmlns="http://www.w3.org/2000/svg">
<path d="M15.1105 22.2695C10.6705 22.2695 8.5305 20.5195 8.1605 16.5995C8.1205 16.1895 8.4205 15.8195 8.8405 15.7795C9.2405 15.7395 9.6205 16.0495 9.6605 16.4595C9.9505 19.5995 11.4305 20.7695 15.1205 20.7695H15.2505C19.3205 20.7695 20.7605 19.3295 20.7605 15.2595V8.73949C20.7605 4.66949 19.3205 3.22949 15.2505 3.22949H15.1205C11.4105 3.22949 9.9305 4.41949 9.6605 7.61949C9.6105 8.02949 9.2605 8.33949 8.8405 8.29949C8.4205 8.26949 8.1205 7.89949 8.1505 7.48949C8.4905 3.50949 10.6405 1.72949 15.1105 1.72949H15.2405C20.1505 1.72949 22.2505 3.82949 22.2505 8.73949V15.2595C22.2505 20.1695 20.1505 22.2695 15.2405 22.2695H15.1105Z" fill="#7328CE"/>
<path d="M3.61914 12.75C3.20914 12.75 2.86914 12.41 2.86914 12C2.86914 11.59 3.20914 11.25 3.61914 11.25H14.9991C15.4091 11.25 15.7491 11.59 15.7491 12C15.7491 12.41 15.4091 12.75 14.9991 12.75H3.61914Z" fill="#7328CE"/>
<path d="M5.31945 15.8798L1.96945 12.5298C1.67945 12.2398 1.67945 11.7598 1.96945 11.4698L5.31945 8.11984C5.60945 7.82984 6.08945 7.82984 6.37945 8.11984C6.66945 8.40984 6.66945 8.88984 6.37945 9.17984L3.55945 11.9998L6.37945 14.8198C6.66945 15.1098 6.66945 15.5898 6.37945 15.8798C6.23945 16.0298 6.03945 16.0998 5.84945 16.0998C5.65945 16.0998 5.46945 16.0298 5.31945 15.8798Z" fill="#7328CE"/>
</svg>
