<svg width="24" height="24" viewBox="0 0 24 24" fill="none" xmlns="http://www.w3.org/2000/svg">
<path d="M16.9109 15.1495C16.6209 14.8595 16.6209 14.3795 16.9109 14.0895L18.9409 12.0595L16.9109 10.0295C16.6209 9.73945 16.6209 9.25945 16.9109 8.96945C17.2009 8.67945 17.6809 8.67945 17.9709 8.96945L20.5309 11.5295C20.8209 11.8195 20.8209 12.2995 20.5309 12.5895L17.9709 15.1495C17.8209 15.2995 17.6309 15.3695 17.4409 15.3695C17.2509 15.3695 17.0609 15.2995 16.9109 15.1495Z" fill="#7328CE"/>
<path d="M9.75977 12.8105C9.34977 12.8105 9.00977 12.4705 9.00977 12.0605C9.00977 11.6505 9.34977 11.3105 9.75977 11.3105H19.9298C20.3398 11.3105 20.6798 11.6505 20.6798 12.0605C20.6798 12.4705 20.3398 12.8105 19.9298 12.8105H9.75977Z" fill="#7328CE"/>
<path d="M3.00977 12C3.00977 6.85 6.60977 3.25 11.7598 3.25C12.1698 3.25 12.5098 3.59 12.5098 4C12.5098 4.41 12.1698 4.75 11.7598 4.75C7.48977 4.75 4.50977 7.73 4.50977 12C4.50977 16.27 7.48977 19.25 11.7598 19.25C12.1698 19.25 12.5098 19.59 12.5098 20C12.5098 20.41 12.1698 20.75 11.7598 20.75C6.60977 20.75 3.00977 17.15 3.00977 12Z" fill="#7328CE"/>
</svg>
