<svg width="24" height="24" viewBox="0 0 24 24" fill="none" xmlns="http://www.w3.org/2000/svg">
<path fill-rule="evenodd" clip-rule="evenodd" d="M1.2793 12.0003C1.2793 6.09027 6.0893 1.28027 11.9993 1.28027C14.6493 1.28027 17.1893 2.26027 19.1493 4.03027C21.4193 6.04027 22.7193 8.95027 22.7193 12.0003C22.7193 15.0503 21.4193 17.9603 19.1393 19.9803C17.1893 21.7503 14.6493 22.7203 11.9993 22.7203C6.0893 22.7203 1.2793 17.9103 1.2793 12.0003ZM2.7793 12.0003C2.7793 17.0803 6.9193 21.2203 11.9993 21.2203C14.2793 21.2203 16.4593 20.3803 18.1493 18.8503C20.1093 17.1103 21.2293 14.6203 21.2293 11.9903C21.2293 9.36027 20.1093 6.87027 18.1593 5.14027C16.4593 3.62027 14.2793 2.78027 11.9993 2.78027C6.9093 2.78027 2.7793 6.92027 2.7793 12.0003Z" fill="#7328CE"/>
<path fill-rule="evenodd" clip-rule="evenodd" d="M9.2993 18.6794C6.5593 17.5794 4.7793 14.9494 4.7793 11.9994C4.7793 9.0494 6.5493 6.4194 9.2993 5.3194C10.1693 4.9694 11.0493 5.0194 11.7093 5.4594C12.3493 5.8894 12.7093 6.6494 12.7293 7.5994V16.3894V16.3994C12.7193 17.3494 12.3593 18.1194 11.7093 18.5394C11.3393 18.7894 10.8993 18.9094 10.4393 18.9094C10.0693 18.9094 9.6793 18.8294 9.2993 18.6794ZM9.8593 6.7094C7.6793 7.5794 6.2793 9.6594 6.2793 11.9994C6.2793 14.3394 7.6793 16.4194 9.8593 17.2894C10.2593 17.4494 10.6393 17.4494 10.8793 17.2994C11.1593 17.1094 11.2193 16.6994 11.2293 16.3894V7.6094C11.2293 7.3094 11.1593 6.8894 10.8793 6.6994C10.7593 6.6294 10.6093 6.5894 10.4393 6.5894C10.2593 6.5894 10.0593 6.6294 9.8593 6.7094Z" fill="#7328CE"/>
</svg>
