<svg width="24" height="24" viewBox="0 0 24 24" fill="none" xmlns="http://www.w3.org/2000/svg">
<path fill-rule="evenodd" clip-rule="evenodd" d="M9 22.75C3.57 22.75 1.25 20.43 1.25 15V9C1.25 3.57 3.57 1.25 9 1.25H15C20.43 1.25 22.75 3.57 22.75 9V15C22.75 20.43 20.43 22.75 15 22.75H9ZM2.75 9V15C2.75 19.61 4.39 21.25 9 21.25H15C19.61 21.25 21.25 19.61 21.25 15V9C21.25 4.39 19.61 2.75 15 2.75H9C4.39 2.75 2.75 4.39 2.75 9Z" fill="#7328CE"/>
<path d="M5.46945 18.5295C5.17945 18.2395 5.17945 17.7595 5.46945 17.4695L17.4695 5.46945C17.7595 5.17945 18.2395 5.17945 18.5295 5.46945C18.8195 5.75945 18.8195 6.23945 18.5295 6.52945L6.52945 18.5295C6.37945 18.6795 6.18945 18.7495 5.99945 18.7495C5.80945 18.7495 5.61945 18.6795 5.46945 18.5295Z" fill="#7328CE"/>
<path d="M17.25 10V6.75H14C13.59 6.75 13.25 6.41 13.25 6C13.25 5.59 13.59 5.25 14 5.25H18C18.41 5.25 18.75 5.59 18.75 6V10C18.75 10.41 18.41 10.75 18 10.75C17.59 10.75 17.25 10.41 17.25 10Z" fill="#7328CE"/>
<path d="M6 18.75C5.59 18.75 5.25 18.41 5.25 18V14C5.25 13.59 5.59 13.25 6 13.25C6.41 13.25 6.75 13.59 6.75 14V17.25H10C10.41 17.25 10.75 17.59 10.75 18C10.75 18.41 10.41 18.75 10 18.75H6Z" fill="#7328CE"/>
<path d="M17.4695 18.5295L5.46945 6.52945C5.17945 6.23945 5.17945 5.75945 5.46945 5.46945C5.75945 5.17945 6.23945 5.17945 6.52945 5.46945L18.5295 17.4695C18.8195 17.7595 18.8195 18.2395 18.5295 18.5295C18.3795 18.6795 18.1895 18.7495 17.9995 18.7495C17.8095 18.7495 17.6195 18.6795 17.4695 18.5295Z" fill="#7328CE"/>
<path d="M5.25 10V6C5.25 5.59 5.59 5.25 6 5.25H10C10.41 5.25 10.75 5.59 10.75 6C10.75 6.41 10.41 6.75 10 6.75H6.75V10C6.75 10.41 6.41 10.75 6 10.75C5.59 10.75 5.25 10.41 5.25 10Z" fill="#7328CE"/>
<path d="M14 18.75C13.59 18.75 13.25 18.41 13.25 18C13.25 17.59 13.59 17.25 14 17.25H17.25V14C17.25 13.59 17.59 13.25 18 13.25C18.41 13.25 18.75 13.59 18.75 14V18C18.75 18.41 18.41 18.75 18 18.75H14Z" fill="#7328CE"/>
</svg>
