<svg width="24" height="24" viewBox="0 0 24 24" fill="none" xmlns="http://www.w3.org/2000/svg">
<path d="M20.25 9V3.75H15C14.59 3.75 14.25 3.41 14.25 3C14.25 2.59 14.59 2.25 15 2.25H21C21.41 2.25 21.75 2.59 21.75 3V9C21.75 9.41 21.41 9.75 21 9.75C20.59 9.75 20.25 9.41 20.25 9Z" fill="#7328CE"/>
<path d="M3 21.75C2.59 21.75 2.25 21.41 2.25 21V15C2.25 14.59 2.59 14.25 3 14.25C3.41 14.25 3.75 14.59 3.75 15V20.25H9C9.41 20.25 9.75 20.59 9.75 21C9.75 21.41 9.41 21.75 9 21.75H3Z" fill="#7328CE"/>
<path d="M12.9695 11.0295C12.6795 10.7395 12.6795 10.2595 12.9695 9.96945L20.4695 2.46945C20.7595 2.17945 21.2395 2.17945 21.5295 2.46945C21.8195 2.75945 21.8195 3.23945 21.5295 3.52945L14.0295 11.0295C13.8795 11.1795 13.6895 11.2495 13.4995 11.2495C13.3095 11.2495 13.1195 11.1795 12.9695 11.0295Z" fill="#7328CE"/>
<path d="M2.46945 21.5295C2.17945 21.2395 2.17945 20.7595 2.46945 20.4695L9.96945 12.9695C10.2595 12.6795 10.7395 12.6795 11.0295 12.9695C11.3195 13.2595 11.3195 13.7395 11.0295 14.0295L3.52945 21.5295C3.37945 21.6795 3.18945 21.7495 2.99945 21.7495C2.80945 21.7495 2.61945 21.6795 2.46945 21.5295Z" fill="#7328CE"/>
</svg>
