<svg width="24" height="24" viewBox="0 0 24 24" fill="none" xmlns="http://www.w3.org/2000/svg">
<path fill-rule="evenodd" clip-rule="evenodd" d="M10.77 17.6605L10.05 16.7005H9.89999C7.87999 16.7005 6 16.2305 6 12.8005V10.1705C6 7.86053 7.19 6.49051 9.34 6.30051C9.5 6.28051 9.68999 6.27051 9.89999 6.27051H14.1C16.61 6.27051 18 7.65053 18 10.1705V12.8005C18 13.0005 17.99 13.2005 17.97 13.3805C17.79 15.5005 16.42 16.6905 14.11 16.6905H13.96L13.24 17.6505C12.92 18.0805 12.47 18.3105 12 18.3105C11.53 18.3105 11.08 18.0705 10.77 17.6605ZM9.5 7.81052C8.09 7.93052 7.5 8.64052 7.5 10.1905V12.8205C7.5 14.8905 8.06999 15.2205 9.89999 15.2205H10.16C10.54 15.2205 10.95 15.4205 11.18 15.7205L11.97 16.7805L12.82 15.7305C13.06 15.4105 13.44 15.2205 13.84 15.2205H14.1C15.65 15.2205 16.35 14.6305 16.47 13.2505C16.49 13.0905 16.49 12.9605 16.49 12.8205V10.1905C16.49 8.51052 15.77 7.79053 14.09 7.79053H9.89999C9.75999 7.79053 9.63 7.79052 9.5 7.81052Z" fill="#7328CE"/>
<path fill-rule="evenodd" clip-rule="evenodd" d="M1.25 12C1.25 6.07 6.07 1.25 12 1.25C17.93 1.25 22.75 6.07 22.75 12C22.75 17.93 17.93 22.75 12 22.75C6.07 22.75 1.25 17.93 1.25 12ZM2.75 12C2.75 17.1 6.9 21.25 12 21.25C17.1 21.25 21.25 17.1 21.25 12C21.25 6.9 17.1 2.75 12 2.75C6.9 2.75 2.75 6.9 2.75 12Z" fill="#7328CE"/>
</svg>
