<svg width="24" height="24" viewBox="0 0 24 24" fill="none" xmlns="http://www.w3.org/2000/svg">
<path fill-rule="evenodd" clip-rule="evenodd" d="M7.16998 22.1104C6.59998 21.8104 6.25 21.2104 6.25 20.5704V19.1505C3.23 18.8405 1.25 16.6204 1.25 13.4404V7.44043C1.25 4.00043 3.56 1.69043 7 1.69043H17C20.44 1.69043 22.75 4.00043 22.75 7.44043V13.4404C22.75 16.8804 20.44 19.1904 17 19.1904H13.23L8.96997 22.0305C8.67997 22.2205 8.34 22.3204 8 22.3204C7.72 22.3204 7.42998 22.2504 7.16998 22.1104ZM2.75 7.43042V13.4305C2.75 16.0105 4.42 17.6805 7 17.6805C7.41 17.6805 7.75 18.0205 7.75 18.4305V20.5605C7.75 20.6905 7.83 20.7505 7.88 20.7805C7.93001 20.8105 8.03001 20.8404 8.14001 20.7704L12.59 17.8105C12.71 17.7305 12.86 17.6805 13.01 17.6805H17.01C19.59 17.6805 21.26 16.0105 21.26 13.4305V7.43042C21.26 4.85042 19.59 3.18042 17.01 3.18042H7C4.42 3.18042 2.75 4.85042 2.75 7.43042Z" fill="#7328CE"/>
<path d="M11.2498 11.3604V11.1504C11.2498 9.99039 12.0998 9.42038 12.4198 9.20038C12.7898 8.95038 12.9098 8.78039 12.9098 8.52039C12.9098 8.02039 12.4998 7.61035 11.9998 7.61035C11.4998 7.61035 11.0898 8.02039 11.0898 8.52039C11.0898 8.93039 10.7498 9.27039 10.3398 9.27039C9.92984 9.27039 9.58984 8.93039 9.58984 8.52039C9.58984 7.19039 10.6698 6.11035 11.9998 6.11035C13.3298 6.11035 14.4098 7.19039 14.4098 8.52039C14.4098 9.66039 13.5698 10.2304 13.2598 10.4404C12.8698 10.7004 12.7498 10.8704 12.7498 11.1504V11.3604C12.7498 11.7804 12.4098 12.1104 11.9998 12.1104C11.5898 12.1104 11.2498 11.7704 11.2498 11.3604Z" fill="#7328CE"/>
<path d="M11.25 13.8506C11.25 13.4406 11.59 13.1006 12 13.1006C12.41 13.1006 12.75 13.4406 12.75 13.8506C12.75 14.2606 12.42 14.6006 12 14.6006C11.58 14.6006 11.25 14.2606 11.25 13.8506Z" fill="#7328CE"/>
</svg>
