<svg width="24" height="24" viewBox="0 0 24 24" fill="none" xmlns="http://www.w3.org/2000/svg">
<path fill-rule="evenodd" clip-rule="evenodd" d="M15.0398 22.0305L10.7798 19.1904H8.88977C8.65977 19.1904 8.43974 19.0805 8.29974 18.9005C8.15974 18.7105 8.10977 18.4704 8.16977 18.2504C8.22977 18.0104 8.25977 17.7704 8.25977 17.5104C8.25977 16.7104 7.95977 15.9405 7.41977 15.3405C6.80977 14.6505 5.93977 14.2604 5.00977 14.2604C4.11977 14.2604 3.29975 14.6104 2.67975 15.2404C2.48975 15.4404 2.19976 15.5104 1.93976 15.4404C1.67976 15.3604 1.46976 15.1504 1.40976 14.8804C1.30976 14.4404 1.25977 13.9604 1.25977 13.4404V7.44043C1.25977 4.00043 3.56977 1.69043 7.00977 1.69043H17.0098C20.4498 1.69043 22.7598 4.00043 22.7598 7.44043V13.4404C22.7598 15.1104 22.2098 16.5504 21.1598 17.6004C20.2798 18.4804 19.1098 19.0105 17.7598 19.1505V20.5704C17.7598 21.2204 17.3997 21.8104 16.8297 22.1204C16.5597 22.2504 16.2798 22.3204 15.9998 22.3204C15.6598 22.3204 15.3298 22.2205 15.0398 22.0305ZM10.9998 17.6804C11.1498 17.6804 11.2898 17.7204 11.4198 17.8104L15.8698 20.7805C15.9798 20.8505 16.0698 20.8204 16.1198 20.7904C16.1698 20.7604 16.2598 20.7004 16.2598 20.5604V18.4304C16.2598 18.0204 16.5998 17.6804 17.0098 17.6804C18.2798 17.6804 19.3498 17.2805 20.0998 16.5305C20.8598 15.7705 21.2598 14.7004 21.2598 13.4304V7.43042C21.2598 4.85042 19.5898 3.18042 17.0098 3.18042H7.00977C4.42977 3.18042 2.75977 4.85042 2.75977 7.43042V13.3104C3.43977 12.9404 4.20977 12.7504 5.00977 12.7504C6.36977 12.7504 7.65976 13.3304 8.53976 14.3304C9.31976 15.2004 9.75977 16.3204 9.75977 17.5004C9.74977 17.5604 9.74976 17.6204 9.74976 17.6804H10.9998Z" fill="#7328CE"/>
<path fill-rule="evenodd" clip-rule="evenodd" d="M0.940002 19.94C0.490002 19.22 0.25 18.37 0.25 17.5C0.25 16.04 0.899999 14.69 2.03 13.79C2.87 13.12 3.93 12.75 5 12.75C7.62 12.75 9.75 14.88 9.75 17.5C9.75 18.37 9.51 19.22 9.06 19.95C8.81 20.37 8.48999 20.75 8.10999 21.07C7.27999 21.83 6.17 22.25 5 22.25C3.34 22.25 1.78 21.37 0.940002 19.94ZM2.97 14.97C2.2 15.58 1.75 16.51 1.75 17.5C1.75 18.09 1.91 18.67 2.22 19.17C2.8 20.15 3.87 20.75 5 20.75C5.79 20.75 6.55 20.46 7.13 19.94C7.39001 19.72 7.60999 19.46 7.76999 19.18C8.08999 18.67 8.25 18.09 8.25 17.5C8.25 15.71 6.79 14.25 5 14.25C4.26 14.25 3.56 14.5 2.97 14.97Z" fill="#7328CE"/>
<path d="M3.8989 19.0206L2.90891 18.0306C2.61891 17.7406 2.61891 17.2605 2.90891 16.9705C3.19891 16.6805 3.6789 16.6805 3.9689 16.9705L4.44891 17.4506L6.04889 15.9705C6.34889 15.6905 6.82889 15.7106 7.10889 16.0106C7.38889 16.3106 7.36891 16.7906 7.06891 17.0706L4.93891 19.0405C4.7889 19.1705 4.6089 19.2405 4.4289 19.2405C4.2389 19.2405 4.0489 19.1706 3.8989 19.0206Z" fill="#7328CE"/>
<path d="M8.5 11.25C8.09 11.25 7.75 10.91 7.75 10.5C7.75 10.09 8.09 9.75 8.5 9.75H15.5C15.91 9.75 16.25 10.09 16.25 10.5C16.25 10.91 15.91 11.25 15.5 11.25H8.5Z" fill="#7328CE"/>
</svg>
