<svg width="24" height="24" viewBox="0 0 24 24" fill="none" xmlns="http://www.w3.org/2000/svg">
<path fill-rule="evenodd" clip-rule="evenodd" d="M15.0398 22.0305L10.7798 19.1904H8.88977C8.65977 19.1904 8.43974 19.0805 8.29974 18.9005C8.15974 18.7105 8.10977 18.4704 8.16977 18.2504C8.22977 18.0104 8.25977 17.7704 8.25977 17.5104C8.25977 16.7104 7.95977 15.9405 7.41977 15.3405C6.80977 14.6505 5.93977 14.2604 5.00977 14.2604C4.11977 14.2604 3.28975 14.6104 2.67975 15.2404C2.48975 15.4404 2.19976 15.5204 1.93976 15.4404C1.67976 15.3604 1.46976 15.1504 1.40976 14.8804C1.30976 14.4404 1.25977 13.9604 1.25977 13.4404V7.44043C1.25977 4.00043 3.56977 1.69043 7.00977 1.69043H17.0098C20.4498 1.69043 22.7598 4.00043 22.7598 7.44043V13.4404C22.7598 15.1104 22.2098 16.5504 21.1598 17.6004C20.2798 18.4804 19.1098 19.0105 17.7598 19.1505V20.5704C17.7598 21.2204 17.3997 21.8104 16.8297 22.1204C16.5597 22.2504 16.2798 22.3204 15.9998 22.3204C15.6598 22.3204 15.3298 22.2205 15.0398 22.0305ZM10.9998 17.6804C11.1498 17.6804 11.2898 17.7204 11.4198 17.8104L15.8698 20.7805C15.9698 20.8505 16.0698 20.8204 16.1198 20.7904C16.1698 20.7604 16.2598 20.7004 16.2598 20.5604V18.4304C16.2598 18.0204 16.5998 17.6804 17.0098 17.6804C18.2798 17.6804 19.3498 17.2805 20.0998 16.5305C20.8598 15.7705 21.2598 14.7004 21.2598 13.4304V7.43042C21.2598 4.85042 19.5898 3.18042 17.0098 3.18042H7.00977C4.42977 3.18042 2.75977 4.85042 2.75977 7.43042V13.3104C3.43977 12.9404 4.20977 12.7504 5.00977 12.7504C6.36977 12.7504 7.65976 13.3304 8.53976 14.3304C9.31976 15.2004 9.75977 16.3304 9.75977 17.5004C9.74977 17.5604 9.74976 17.6204 9.74976 17.6804H10.9998Z" fill="#7328CE"/>
<path fill-rule="evenodd" clip-rule="evenodd" d="M1.82999 21.02C1.47999 20.72 1.16999 20.35 0.929993 19.94C0.489993 19.22 0.25 18.37 0.25 17.5C0.25 16.25 0.729996 15.08 1.59 14.19C2.49 13.26 3.7 12.75 5 12.75C6.36 12.75 7.65 13.33 8.53 14.33C9.31 15.2 9.75 16.33 9.75 17.5C9.75 17.88 9.70001 18.26 9.60001 18.62C9.50001 19.07 9.30999 19.54 9.04999 19.95C8.21999 21.37 6.66 22.25 5 22.25C3.82 22.25 2.69999 21.81 1.82999 21.02ZM2.67001 15.23C2.08001 15.84 1.75 16.64 1.75 17.5C1.75 18.09 1.91 18.67 2.22 19.17C2.38 19.45 2.58999 19.7 2.82999 19.91C3.42999 20.46 4.2 20.76 5 20.76C6.15 20.76 7.19 20.17 7.78 19.19C7.96 18.91 8.07999 18.6 8.14999 18.28C8.21999 18.02 8.25 17.77 8.25 17.51C8.25 16.71 7.95 15.94 7.41 15.34C6.81 14.64 5.93 14.25 5 14.25C4.11 14.25 3.28001 14.6 2.67001 15.23Z" fill="#7328CE"/>
<path d="M5.54041 19.0701L3.43039 16.9601C3.14039 16.6701 3.14039 16.1901 3.43039 15.9001C3.72039 15.6101 4.20039 15.6101 4.49039 15.9001L6.6004 18.0101C6.8904 18.3001 6.8904 18.7801 6.6004 19.0701C6.4504 19.2201 6.26041 19.2901 6.07041 19.2901C5.88041 19.2901 5.69041 19.2201 5.54041 19.0701Z" fill="#7328CE"/>
<path d="M3.40109 19.0994C3.11109 18.8094 3.11109 18.3294 3.40109 18.0394L5.51111 15.9294C5.80111 15.6394 6.28111 15.6394 6.57111 15.9294C6.86111 16.2194 6.86111 16.6994 6.57111 16.9894L4.46109 19.0994C4.31109 19.2494 4.12109 19.3194 3.93109 19.3194C3.74109 19.3194 3.55109 19.2494 3.40109 19.0994Z" fill="#7328CE"/>
<path d="M8.5 11.25C8.09 11.25 7.75 10.91 7.75 10.5C7.75 10.09 8.09 9.75 8.5 9.75H15.5C15.91 9.75 16.25 10.09 16.25 10.5C16.25 10.91 15.91 11.25 15.5 11.25H8.5Z" fill="#7328CE"/>
</svg>
