<svg width="24" height="24" viewBox="0 0 24 24" fill="none" xmlns="http://www.w3.org/2000/svg">
<path fill-rule="evenodd" clip-rule="evenodd" d="M15.0398 22.0305L10.7798 19.1904H8.88977C8.65977 19.1904 8.43974 19.0805 8.29974 18.9005C8.15974 18.7105 8.10977 18.4704 8.16977 18.2504C8.22977 18.0104 8.25977 17.7704 8.25977 17.5104C8.25977 16.7104 7.95977 15.9405 7.41977 15.3405C6.80977 14.6505 5.93977 14.2604 5.00977 14.2604C4.11977 14.2604 3.29975 14.6104 2.67975 15.2404C2.48975 15.4404 2.19976 15.5104 1.93976 15.4404C1.67976 15.3604 1.46976 15.1504 1.40976 14.8804C1.30976 14.4404 1.25977 13.9604 1.25977 13.4404V7.44043C1.25977 4.00043 3.56977 1.69043 7.00977 1.69043H17.0098C20.4498 1.69043 22.7598 4.00043 22.7598 7.44043V13.4404C22.7598 15.1104 22.2098 16.5504 21.1598 17.6004C20.2798 18.4804 19.1098 19.0105 17.7598 19.1505V20.5704C17.7598 21.2204 17.3997 21.8104 16.8297 22.1204C16.5597 22.2504 16.2798 22.3204 15.9998 22.3204C15.6598 22.3204 15.3298 22.2205 15.0398 22.0305ZM10.9998 17.6804C11.1498 17.6804 11.2898 17.7204 11.4198 17.8104L15.8698 20.7805C15.9798 20.8505 16.0698 20.8204 16.1198 20.7904C16.1698 20.7604 16.2598 20.7004 16.2598 20.5604V18.4304C16.2598 18.0204 16.5998 17.6804 17.0098 17.6804C18.2798 17.6804 19.3498 17.2805 20.0998 16.5305C20.8598 15.7705 21.2598 14.7004 21.2598 13.4304V7.43042C21.2598 4.85042 19.5898 3.18042 17.0098 3.18042H7.00977C4.42977 3.18042 2.75977 4.85042 2.75977 7.43042V13.3104C3.43977 12.9404 4.20977 12.7504 5.00977 12.7504C6.36977 12.7504 7.65976 13.3304 8.53976 14.3304C9.31976 15.2004 9.75977 16.3204 9.75977 17.5004C9.74977 17.5604 9.74976 17.6204 9.74976 17.6804H10.9998Z" fill="#7328CE"/>
<path fill-rule="evenodd" clip-rule="evenodd" d="M0.25 17.5C0.25 16.04 0.899999 14.69 2.03 13.79C2.87 13.12 3.93 12.75 5 12.75C7.62 12.75 9.75 14.88 9.75 17.5C9.75 18.86 9.16 20.16 8.13 21.06C7.26 21.83 6.15 22.25 5 22.25C2.38 22.25 0.25 20.12 0.25 17.5ZM2.97 14.97C2.2 15.58 1.75 16.51 1.75 17.5C1.75 19.29 3.21 20.75 5 20.75C5.78 20.75 6.53999 20.46 7.14999 19.94C7.84999 19.32 8.25 18.44 8.25 17.5C8.25 15.71 6.79 14.25 5 14.25C4.26 14.25 3.56 14.5 2.97 14.97Z" fill="#7328CE"/>
<path d="M3.35988 18.89C3.14988 18.53 3.25989 18.07 3.61989 17.86L4.5099 17.33V16.25C4.5099 15.84 4.8499 15.5 5.2599 15.5C5.6699 15.5 6.0099 15.84 6.0099 16.25V17.75C6.0099 18.01 5.86989 18.26 5.64989 18.39L4.39989 19.14C4.25989 19.22 4.12989 19.25 3.99989 19.25C3.74989 19.25 3.49988 19.12 3.35988 18.89Z" fill="#7328CE"/>
<path d="M8.5 11.25C8.09 11.25 7.75 10.91 7.75 10.5C7.75 10.09 8.09 9.75 8.5 9.75H15.5C15.91 9.75 16.25 10.09 16.25 10.5C16.25 10.91 15.91 11.25 15.5 11.25H8.5Z" fill="#7328CE"/>
</svg>
