<svg width="24" height="24" viewBox="0 0 24 24" fill="none" xmlns="http://www.w3.org/2000/svg">
<path d="M8.5 11.25C8.09 11.25 7.75 10.91 7.75 10.5C7.75 10.09 8.09 9.75 8.5 9.75H15.5C15.91 9.75 16.25 10.09 16.25 10.5C16.25 10.91 15.91 11.25 15.5 11.25H8.5Z" fill="#7328CE"/>
<path fill-rule="evenodd" clip-rule="evenodd" d="M15.03 22.0305L10.77 19.1904H7C3.56 19.1904 1.25 16.8804 1.25 13.4404V7.44043C1.25 4.00043 3.56 1.69043 7 1.69043H17C20.44 1.69043 22.75 4.00043 22.75 7.44043V13.4404C22.75 16.6204 20.77 18.8405 17.75 19.1505V20.5704C17.75 21.2204 17.4 21.8104 16.83 22.1104C16.57 22.2504 16.28 22.3204 16 22.3204C15.66 22.3204 15.32 22.2205 15.03 22.0305ZM2.75 7.43042V13.4304C2.75 16.0104 4.42 17.6804 7 17.6804H11C11.15 17.6804 11.29 17.7204 11.42 17.8104L15.87 20.7704C15.98 20.8404 16.08 20.8105 16.13 20.7805C16.18 20.7505 16.26 20.6904 16.26 20.5604V18.4304C16.26 18.0204 16.6 17.6804 17.01 17.6804C19.59 17.6804 21.26 16.0104 21.26 13.4304V7.43042C21.26 4.85042 19.59 3.18042 17.01 3.18042H7C4.42 3.18042 2.75 4.85042 2.75 7.43042Z" fill="#7328CE"/>
</svg>
