<svg width="24" height="24" viewBox="0 0 24 24" fill="none" xmlns="http://www.w3.org/2000/svg">
<path fill-rule="evenodd" clip-rule="evenodd" d="M7.25 11.5V6C7.25 3.38 9.38 1.25 12 1.25C14.62 1.25 16.75 3.38 16.75 6V11.5C16.75 14.12 14.62 16.25 12 16.25C9.38 16.25 7.25 14.12 7.25 11.5ZM8.75 6V11.5C8.75 13.29 10.21 14.75 12 14.75C13.79 14.75 15.25 13.29 15.25 11.5V6C15.25 4.21 13.79 2.75 12 2.75C10.21 2.75 8.75 4.21 8.75 6Z" fill="#7328CE"/>
<path d="M3.59961 11.3494V9.64941C3.59961 9.23941 3.93961 8.89941 4.34961 8.89941C4.75961 8.89941 5.09961 9.23941 5.09961 9.64941V11.3494C5.09961 15.1494 8.19961 18.2494 11.9996 18.2494C15.7996 18.2494 18.8996 15.1494 18.8996 11.3494V9.64941C18.8996 9.23941 19.2396 8.89941 19.6496 8.89941C20.0596 8.89941 20.3996 9.23941 20.3996 9.64941V11.3494C20.3996 15.9794 16.6296 19.7494 11.9996 19.7494C7.36961 19.7494 3.59961 15.9794 3.59961 11.3494Z" fill="#7328CE"/>
<path d="M13.1299 7.13934C12.3999 6.86934 11.5999 6.86934 10.8699 7.13934C10.4799 7.27934 10.0499 7.07934 9.90988 6.68934C9.76988 6.29934 9.96988 5.86934 10.3599 5.72934C11.4199 5.34934 12.5899 5.34934 13.6499 5.72934C14.0399 5.86934 14.2399 6.29934 14.0999 6.68934C13.9799 6.98934 13.6899 7.17934 13.3899 7.17934C13.3099 7.17934 13.2199 7.16934 13.1299 7.13934Z" fill="#7328CE"/>
<path d="M12.6001 9.26934C12.2001 9.15934 11.7901 9.15934 11.3901 9.26934C10.9901 9.37934 10.5801 9.13934 10.4701 8.73934C10.3601 8.34934 10.6001 7.93934 11.0001 7.82934C11.6501 7.64934 12.3501 7.64934 13.0001 7.82934C13.4001 7.93934 13.6401 8.34934 13.5301 8.74934C13.4401 9.07934 13.1301 9.29934 12.8001 9.29934C12.7301 9.29934 12.6701 9.28934 12.6001 9.26934Z" fill="#7328CE"/>
<path d="M11.25 22V19C11.25 18.59 11.59 18.25 12 18.25C12.41 18.25 12.75 18.59 12.75 19V22C12.75 22.41 12.41 22.75 12 22.75C11.59 22.75 11.25 22.41 11.25 22Z" fill="#7328CE"/>
</svg>
