<svg width="24" height="24" viewBox="0 0 24 24" fill="none" xmlns="http://www.w3.org/2000/svg">
<path fill-rule="evenodd" clip-rule="evenodd" d="M9 22.7495C6.93 22.7495 5.25 21.0695 5.25 18.9995V13.9795C5.25 13.7795 5.32997 13.5895 5.46997 13.4495C5.60997 13.3095 5.8 13.2295 6 13.2295L9.89001 13.2495C10.73 13.2495 11.57 13.4495 12.33 13.8295C12.89 14.1095 13.49 14.2495 14.12 14.2495H18C18.41 14.2495 18.75 14.5895 18.75 14.9995V18.9995C18.75 21.0695 17.07 22.7495 15 22.7495H9ZM6.75 18.9995C6.75 20.2395 7.76 21.2495 9 21.2495H15C16.24 21.2495 17.25 20.2395 17.25 18.9995V15.7495H14.12C13.26 15.7495 12.43 15.5595 11.66 15.1695C11.1 14.8895 10.5 14.7495 9.89001 14.7495L6.75 14.7295V18.9995Z" fill="#7328CE"/>
<path fill-rule="evenodd" clip-rule="evenodd" d="M14.12 15.75C13.26 15.75 12.43 15.56 11.66 15.17C11.1 14.89 10.5 14.75 9.89001 14.75L6 14.73C5.59 14.73 5.25 14.39 5.25 13.98V10.83C5.25 10.17 5.59 9.35 6.06 8.88L8.17999 6.75999C8.21999 6.71999 8.25 6.65 8.25 6.59V5C8.25 4.59 8.59 4.25 9 4.25H15C15.41 4.25 15.75 4.59 15.75 5V6.59C15.75 6.65 15.78 6.71999 15.82 6.75999L17.94 8.88C18.41 9.35 18.75 10.17 18.75 10.83V15C18.75 15.41 18.41 15.75 18 15.75H14.12ZM9.89001 13.25C10.73 13.25 11.57 13.45 12.33 13.83C12.89 14.11 13.49 14.25 14.12 14.25H17.25V10.83C17.25 10.57 17.07 10.13 16.88 9.94L14.76 7.82001C14.44 7.50001 14.25 7.05 14.25 6.59V5.75H9.75V6.59C9.75 7.05 9.55999 7.50001 9.23999 7.82001L7.12 9.94C6.93 10.13 6.75 10.57 6.75 10.83V13.23L9.89001 13.25Z" fill="#7328CE"/>
<path d="M17.25 16V15C17.25 14.59 17.59 14.25 18 14.25C18.41 14.25 18.75 14.59 18.75 15V16C18.75 16.41 18.41 16.75 18 16.75C17.59 16.75 17.25 16.41 17.25 16Z" fill="#7328CE"/>
<path d="M5.25 14.9795V13.9795C5.25 13.5695 5.59 13.2295 6 13.2295C6.41 13.2295 6.75 13.5695 6.75 13.9795V14.9795C6.75 15.3895 6.41 15.7295 6 15.7295C5.59 15.7295 5.25 15.3895 5.25 14.9795Z" fill="#7328CE"/>
<path fill-rule="evenodd" clip-rule="evenodd" d="M9.5 5.75C8.26 5.75 7.25 4.74 7.25 3.5C7.25 2.26 8.26 1.25 9.5 1.25H14.5C15.74 1.25 16.75 2.26 16.75 3.5C16.75 4.74 15.74 5.75 14.5 5.75H9.5ZM8.75 3.5C8.75 3.91 9.09 4.25 9.5 4.25H14.5C14.91 4.25 15.25 3.91 15.25 3.5C15.25 3.09 14.91 2.75 14.5 2.75H9.5C9.09 2.75 8.75 3.09 8.75 3.5Z" fill="#7328CE"/>
</svg>
