<svg width="24" height="24" viewBox="0 0 24 24" fill="none" xmlns="http://www.w3.org/2000/svg">
<path d="M16 21.75C15.59 21.75 15.25 21.41 15.25 21C15.25 20.59 15.59 20.25 16 20.25H17C19.58 20.25 21.25 18.58 21.25 16V8C21.25 5.42 19.58 3.75 17 3.75H7C4.42 3.75 2.75 5.42 2.75 8V9C2.75 9.41 2.41 9.75 2 9.75C1.59 9.75 1.25 9.41 1.25 9V8C1.25 4.56 3.56 2.25 7 2.25H17C20.44 2.25 22.75 4.56 22.75 8V16C22.75 19.44 20.44 21.75 17 21.75H16Z" fill="#7328CE"/>
<path d="M11.5512 20.4097C11.0012 16.1297 7.88115 12.9997 3.59115 12.4497C3.18115 12.3997 2.89115 12.0197 2.94115 11.6097C2.99115 11.1997 3.37115 10.9097 3.78115 10.9597C8.76115 11.5997 12.4011 15.2297 13.0311 20.2097C13.0811 20.6197 12.7912 20.9997 12.3812 21.0497C12.3612 21.0597 12.3211 21.0597 12.2911 21.0597C11.9211 21.0597 11.6012 20.7797 11.5512 20.4097Z" fill="#7328CE"/>
<path d="M8.19085 21.4801C7.80085 18.4301 5.57085 16.2 2.52085 15.81C2.11085 15.76 1.82084 15.3801 1.87084 14.9701C1.92084 14.5601 2.30085 14.2701 2.71085 14.3201C6.46085 14.8001 9.19084 17.5401 9.67084 21.2801C9.72084 21.6901 9.43085 22.07 9.02085 22.12C8.99085 22.13 8.96084 22.1301 8.93084 22.1301C8.56084 22.1301 8.24085 21.8501 8.19085 21.4801Z" fill="#7328CE"/>
<path d="M4.39022 22.1199C4.22022 20.7699 3.23022 19.7799 1.88022 19.6099C1.47022 19.5599 1.18021 19.1799 1.23021 18.7699C1.28021 18.3599 1.66023 18.0699 2.07023 18.1199C4.09023 18.3799 5.62022 19.9099 5.88022 21.9299C5.93022 22.3399 5.64021 22.7199 5.23021 22.7699C5.20021 22.7699 5.17022 22.7699 5.13022 22.7699C4.76022 22.7699 4.44022 22.4899 4.39022 22.1199Z" fill="#7328CE"/>
</svg>
