<svg width="24" height="24" viewBox="0 0 24 24" fill="none" xmlns="http://www.w3.org/2000/svg">
<path d="M6.21 17.7003C2.41 17.7003 1.25 16.5403 1.25 12.7403V6.74027C1.25 2.94027 2.41 1.78027 6.21 1.78027H16.74C20.54 1.78027 21.7 2.94027 21.7 6.74027C21.7 7.15027 21.36 7.49027 20.95 7.49027C20.54 7.49027 20.2 7.15027 20.2 6.74027C20.2 3.80027 19.68 3.28027 16.74 3.28027H6.21C3.27 3.28027 2.75 3.80027 2.75 6.74027V12.7403C2.75 15.6803 3.27 16.2003 6.21 16.2003H10C10.41 16.2003 10.75 16.5403 10.75 16.9503C10.75 17.3603 10.41 17.7003 10 17.7003H6.21Z" fill="#7328CE"/>
<path d="M9.25 21.4704V16.9404C9.25 16.5304 9.59 16.1904 10 16.1904C10.41 16.1904 10.75 16.5304 10.75 16.9404V21.4704C10.75 21.8904 10.41 22.2204 10 22.2204C9.59 22.2204 9.25 21.8804 9.25 21.4704Z" fill="#7328CE"/>
<path d="M2 13.7002C1.59 13.7002 1.25 13.3602 1.25 12.9502C1.25 12.5402 1.59 12.2002 2 12.2002H10C10.41 12.2002 10.75 12.5402 10.75 12.9502C10.75 13.3602 10.41 13.7002 10 13.7002H2Z" fill="#7328CE"/>
<path d="M6.74023 22.2197C6.33023 22.2197 5.99023 21.8797 5.99023 21.4697C5.99023 21.0597 6.33023 20.7197 6.74023 20.7197H10.0002C10.4102 20.7197 10.7502 21.0597 10.7502 21.4697C10.7502 21.8797 10.4102 22.2197 10.0002 22.2197H6.74023Z" fill="#7328CE"/>
<path fill-rule="evenodd" clip-rule="evenodd" d="M15.4913 22.2198C12.7213 22.2198 11.7812 21.2798 11.7812 18.5098V12.7998C11.7812 10.0298 12.7213 9.08984 15.4913 9.08984H19.0413C21.8113 9.08984 22.7513 10.0298 22.7513 12.7998V18.5098C22.7513 21.2898 21.8113 22.2198 19.0413 22.2198H15.4913ZM13.2812 12.7998V18.5098C13.2812 20.4698 13.5312 20.7198 15.4913 20.7198H19.0413C21.0013 20.7198 21.2513 20.4698 21.2513 18.5098V12.7998C21.2513 10.8398 21.0013 10.5898 19.0413 10.5898H15.4913C13.5312 10.5898 13.2812 10.8398 13.2812 12.7998Z" fill="#7328CE"/>
<path d="M16.5908 18.6798C16.5008 18.5898 16.4308 18.4798 16.3808 18.3598C16.3308 18.2298 16.3008 18.0998 16.3008 17.9698C16.3008 17.7098 16.4108 17.4498 16.5908 17.2698C16.8208 17.0398 17.1708 16.9298 17.5008 16.9898C17.5608 17.0098 17.6208 17.0298 17.6808 17.0498C17.7408 17.0798 17.8008 17.1098 17.8508 17.1398C17.9108 17.1798 17.9608 17.2198 18.0108 17.2698C18.1908 17.4498 18.3008 17.7098 18.3008 17.9698C18.3008 18.0998 18.2708 18.2298 18.2208 18.3598C18.1708 18.4798 18.1008 18.5898 18.0108 18.6798C17.9608 18.7298 17.9108 18.7698 17.8508 18.7998C17.8008 18.8398 17.7408 18.8698 17.6808 18.8998C17.6208 18.9198 17.5608 18.9398 17.5008 18.9498C17.4308 18.9698 17.3708 18.9698 17.3008 18.9698C17.0408 18.9698 16.7808 18.8698 16.5908 18.6798Z" fill="#7328CE"/>
</svg>
