<svg width="24" height="24" viewBox="0 0 24 24" fill="none" xmlns="http://www.w3.org/2000/svg">
<path d="M8.64999 21.75C3.45999 21.75 1.25 19.54 1.25 14.35V8.65002C1.25 3.46002 3.45999 1.25 8.64999 1.25H14.35C19.54 1.25 21.75 3.46002 21.75 8.65002V12.35C21.75 12.76 21.41 13.1 21 13.1C20.59 13.1 20.25 12.76 20.25 12.35V8.65002C20.25 4.29002 18.71 2.75 14.35 2.75H8.64999C4.28999 2.75 2.75 4.29002 2.75 8.65002V14.35C2.75 18.71 4.28999 20.25 8.64999 20.25H12.35C12.76 20.25 13.1 20.59 13.1 21C13.1 21.41 12.76 21.75 12.35 21.75H8.64999Z" fill="#7328CE"/>
<path fill-rule="evenodd" clip-rule="evenodd" d="M4.51953 12.9705C4.51953 11.7605 5.50953 10.7705 6.71953 10.7705C7.92953 10.7705 8.91953 11.7605 8.91953 12.9705C8.91953 14.1805 7.92953 15.1705 6.71953 15.1705C5.50953 15.1705 4.51953 14.1805 4.51953 12.9705ZM6.01953 12.9705C6.01953 13.3505 6.32953 13.6705 6.71953 13.6705C7.10953 13.6705 7.41953 13.3605 7.41953 12.9705C7.41953 12.5805 7.10953 12.2705 6.71953 12.2705C6.33953 12.2705 6.01953 12.5805 6.01953 12.9705Z" fill="#7328CE"/>
<path d="M7.41992 12.9704V7.14042C7.41992 6.23042 7.98992 5.4904 8.85992 5.2504L11.7599 4.46043C12.6599 4.21043 13.2299 4.45041 13.5399 4.69041C13.8499 4.93041 14.2299 5.41043 14.2299 6.34043V12.0004C14.2299 12.4104 13.8899 12.7504 13.4799 12.7504C13.0699 12.7504 12.7299 12.4104 12.7299 12.0004V6.34043C12.7299 6.02043 12.6599 5.90041 12.6299 5.88041C12.5999 5.86041 12.4599 5.82043 12.1499 5.90043L9.25992 6.69041C8.95992 6.77041 8.91992 6.98041 8.91992 7.13041V12.9604C8.91992 13.3804 8.57992 13.7204 8.16992 13.7204C7.75992 13.7204 7.41992 13.3804 7.41992 12.9704Z" fill="#7328CE"/>
<path fill-rule="evenodd" clip-rule="evenodd" d="M9.83008 11.9998C9.83008 10.7898 10.8201 9.7998 12.0301 9.7998C13.2401 9.7998 14.2301 10.7898 14.2301 11.9998C14.2301 13.2198 13.2401 14.1998 12.0301 14.1998C10.8201 14.1998 9.83008 13.2098 9.83008 11.9998ZM11.3301 12.0098C11.3301 12.3898 11.6401 12.7098 12.0301 12.7098C12.4201 12.7098 12.7301 12.3998 12.7301 12.0098C12.7301 11.6198 12.4101 11.3098 12.0301 11.3098C11.6501 11.3098 11.3301 11.6198 11.3301 12.0098Z" fill="#7328CE"/>
<path d="M7.45055 9.03009C7.34055 8.63009 7.58054 8.22005 7.98054 8.11005L13.2905 6.66003C13.6905 6.56003 14.1006 6.79006 14.2106 7.19006C14.3206 7.59006 14.0805 8.00005 13.6805 8.11005L8.37054 9.56006C8.30054 9.57006 8.23055 9.58008 8.17055 9.58008C7.84055 9.58008 7.54055 9.36009 7.45055 9.03009Z" fill="#7328CE"/>
<path fill-rule="evenodd" clip-rule="evenodd" d="M13.9902 18.0799C13.9902 15.8999 15.7602 14.1299 17.9402 14.1299C20.1202 14.1299 21.8902 15.8999 21.8902 18.0799C21.8902 20.2599 20.1202 22.0299 17.9402 22.0299C15.7602 22.0299 13.9902 20.2599 13.9902 18.0799ZM15.4902 18.0799C15.4902 19.4299 16.5902 20.5299 17.9402 20.5299C19.2902 20.5299 20.3902 19.4299 20.3902 18.0799C20.3902 16.7299 19.2902 15.6299 17.9402 15.6299C16.5902 15.6299 15.4902 16.7299 15.4902 18.0799Z" fill="#7328CE"/>
<path d="M21.2097 22.4093L20.2097 21.4093C19.9197 21.1193 19.9197 20.6393 20.2097 20.3493C20.4997 20.0593 20.9797 20.0593 21.2697 20.3493L22.2697 21.3493C22.5597 21.6393 22.5597 22.1193 22.2697 22.4093C22.1197 22.5493 21.9297 22.6294 21.7397 22.6294C21.5497 22.6294 21.3597 22.5593 21.2097 22.4093Z" fill="#7328CE"/>
</svg>
