<svg width="24" height="24" viewBox="0 0 24 24" fill="none" xmlns="http://www.w3.org/2000/svg">
<path fill-rule="evenodd" clip-rule="evenodd" d="M9 22.75C3.57 22.75 1.25 20.43 1.25 15V9C1.25 3.57 3.57 1.25 9 1.25H15C20.43 1.25 22.75 3.57 22.75 9V15C22.75 20.43 20.43 22.75 15 22.75H9ZM2.75 9V15C2.75 19.61 4.39 21.25 9 21.25H15C19.61 21.25 21.25 19.61 21.25 15V9C21.25 4.39 19.61 2.75 15 2.75H9C4.39 2.75 2.75 4.39 2.75 9Z" fill="#7328CE"/>
<path d="M6.25 21.5V2.5C6.25 2.09 6.59 1.75 7 1.75C7.41 1.75 7.75 2.09 7.75 2.5V21.5C7.75 21.91 7.41 22.25 7 22.25C6.59 22.25 6.25 21.91 6.25 21.5Z" fill="#7328CE"/>
<path fill-rule="evenodd" clip-rule="evenodd" d="M9.23047 15.3103C9.23047 14.0803 10.2405 13.0703 11.4705 13.0703C12.7005 13.0703 13.7105 14.0803 13.7105 15.3103C13.7105 16.5403 12.7005 17.5503 11.4705 17.5503C10.2305 17.5503 9.23047 16.5403 9.23047 15.3103ZM10.7305 15.3003C10.7305 15.7103 11.0605 16.0403 11.4705 16.0403C11.8805 16.0403 12.2105 15.7103 12.2105 15.3003C12.2105 14.8903 11.8705 14.5603 11.4705 14.5603C11.0605 14.5603 10.7305 14.8903 10.7305 15.3003Z" fill="#7328CE"/>
<path d="M12.2109 15.3095V9.29951C12.2109 8.37951 12.7909 7.61953 13.6809 7.37953L16.6609 6.56953C17.5809 6.31953 18.1609 6.55952 18.4809 6.80952C18.9409 7.15952 19.1809 7.72952 19.1809 8.49952V14.3295C19.1809 14.7395 18.8409 15.0795 18.4309 15.0795C18.0209 15.0795 17.6809 14.7395 17.6809 14.3295V8.49952C17.6809 8.16952 17.6109 8.02953 17.5709 8.00953C17.5209 7.96953 17.3509 7.94955 17.0609 8.02955L14.0809 8.83955C13.8409 8.90955 13.7209 9.05953 13.7209 9.31953V15.3295C13.7109 15.7195 13.3709 16.0595 12.9609 16.0595C12.5509 16.0595 12.2109 15.7195 12.2109 15.3095Z" fill="#7328CE"/>
<path fill-rule="evenodd" clip-rule="evenodd" d="M14.6895 14.3103C14.6895 13.0703 15.6995 12.0703 16.9295 12.0703C18.1595 12.0703 19.1695 13.0803 19.1695 14.3103C19.1795 15.5503 18.1695 16.5503 16.9295 16.5503C15.6895 16.5503 14.6895 15.5403 14.6895 14.3103ZM16.1895 14.3103C16.1895 14.7203 16.5195 15.0503 16.9295 15.0503C17.3395 15.0503 17.6695 14.7203 17.6695 14.3103C17.6695 13.9003 17.3395 13.5703 16.9295 13.5703C16.5195 13.5703 16.1895 13.9003 16.1895 14.3103Z" fill="#7328CE"/>
<path d="M12.2396 11.2404C12.1296 10.8404 12.3696 10.4304 12.7696 10.3204L18.2396 8.83043C18.6396 8.72043 19.0496 8.9604 19.1596 9.3604C19.2696 9.7604 19.0296 10.1704 18.6296 10.2804L13.1596 11.7704C13.0896 11.7804 13.0196 11.7904 12.9596 11.7904C12.6296 11.7904 12.3296 11.5704 12.2396 11.2404Z" fill="#7328CE"/>
</svg>
