<svg width="24" height="24" viewBox="0 0 24 24" fill="none" xmlns="http://www.w3.org/2000/svg">
<path fill-rule="evenodd" clip-rule="evenodd" d="M3.2207 18C3.2207 15.38 5.3507 13.25 7.9707 13.25C10.5907 13.25 12.7207 15.38 12.7207 18C12.7207 20.62 10.5907 22.75 7.9707 22.75C5.3507 22.75 3.2207 20.62 3.2207 18ZM4.7207 18C4.7207 19.79 6.1807 21.25 7.9707 21.25C9.7607 21.25 11.2207 19.79 11.2207 18C11.2207 16.21 9.7707 14.75 7.9707 14.75C6.1807 14.75 4.7207 16.21 4.7207 18Z" fill="#7328CE"/>
<path d="M11.2207 18V4C11.2207 3.59 11.5607 3.25 11.9707 3.25C12.3807 3.25 12.7207 3.59 12.7207 4V18C12.7207 18.41 12.3907 18.75 11.9707 18.75C11.5607 18.75 11.2207 18.41 11.2207 18Z" fill="#7328CE"/>
<path fill-rule="evenodd" clip-rule="evenodd" d="M18.1105 10.0595L13.6905 8.58945C12.3105 8.12945 11.2305 6.62945 11.2305 5.17945V3.99945C11.2305 3.02945 11.6305 2.18945 12.3105 1.68945C13.0005 1.18945 13.9205 1.08945 14.8405 1.38945L19.2605 2.85945C20.6405 3.31945 21.7205 4.81945 21.7205 6.26945V7.43945C21.7205 8.40945 21.3205 9.24945 20.6405 9.74945C20.2105 10.0795 19.6805 10.2295 19.1305 10.2295C18.8005 10.2295 18.4505 10.1695 18.1105 10.0595ZM13.1905 2.90945C12.8905 3.11945 12.7305 3.50945 12.7305 3.99945V5.16945C12.7305 5.96945 13.4005 6.89945 14.1605 7.15945L18.5805 8.62945C19.0405 8.78945 19.4705 8.74945 19.7605 8.53945C20.0605 8.32945 20.2205 7.93945 20.2205 7.44945V6.27945C20.2205 5.47945 19.5505 4.54945 18.7905 4.28945L14.3705 2.81945C14.1805 2.74945 13.9905 2.71945 13.8205 2.71945C13.5805 2.71945 13.3605 2.77945 13.1905 2.90945Z" fill="#7328CE"/>
</svg>
