<svg width="24" height="24" viewBox="0 0 24 24" fill="none" xmlns="http://www.w3.org/2000/svg">
<path d="M1.26993 18.3798V12.2198C1.20993 9.30979 2.29995 6.55981 4.31995 4.48981C6.33995 2.42981 9.05994 1.2998 11.9699 1.2998C17.9299 1.2998 22.7699 6.1498 22.7699 12.1098V18.2698C22.7699 20.6498 20.83 22.5898 18.45 22.5898C16.07 22.5898 14.1299 20.6498 14.1299 18.2698V15.4598C14.1299 14.0298 15.2899 12.8698 16.7199 12.8698C18.1499 12.8698 19.3099 14.0298 19.3099 15.4598V18.4898C19.3099 18.8998 18.9699 19.2398 18.5599 19.2398C18.1499 19.2398 17.8099 18.8998 17.8099 18.4898V15.4598C17.8099 14.7798 17.2599 14.3698 16.7199 14.3698C16.0399 14.3698 15.6299 14.9198 15.6299 15.4598V18.2698C15.6299 19.7998 16.92 21.0898 18.45 21.0898C19.98 21.0898 21.2699 19.7998 21.2699 18.2698V12.1098C21.2699 6.9798 17.0999 2.7998 11.9699 2.7998C9.45994 2.7998 7.12996 3.76979 5.38996 5.53979C3.64996 7.30979 2.71993 9.67983 2.76993 12.1998V18.3698C2.76993 19.8998 4.05994 21.1898 5.58994 21.1898C7.11994 21.1898 8.40994 19.8998 8.40994 18.3698V15.5598C8.40994 14.8798 7.85995 14.4698 7.31995 14.4698C6.63995 14.4698 6.22995 15.0198 6.22995 15.5598V18.4798C6.22995 18.8898 5.88995 19.2298 5.47995 19.2298C5.06995 19.2298 4.72995 18.8898 4.72995 18.4798V15.5598C4.72995 14.1098 5.86995 12.9698 7.31995 12.9698C8.74995 12.9698 9.90994 14.1298 9.90994 15.5598V18.3698C9.90994 20.7598 7.96994 22.6998 5.58994 22.6998C3.24994 22.6998 1.26993 20.7198 1.26993 18.3798Z" fill="#7328CE"/>
<path d="M12.2487 11.2794L10.7987 8.3894L10.3788 9.16937C10.1488 9.59937 9.68876 9.86938 9.19876 9.86938H8.46875C8.05875 9.86938 7.71875 9.52938 7.71875 9.11938C7.71875 8.70938 8.05875 8.36938 8.46875 8.36938H9.10873L9.89874 6.90936C10.0887 6.56936 10.4387 6.38937 10.8287 6.35938C11.2187 6.35938 11.5687 6.58938 11.7487 6.92938L13.1787 9.78937L13.5187 9.09937C13.7487 8.63937 14.1988 8.35938 14.7188 8.35938H15.5287C15.9387 8.35938 16.2787 8.69937 16.2787 9.10938C16.2787 9.51938 15.9387 9.85938 15.5287 9.85938H14.8188L14.1087 11.2694C13.9287 11.6394 13.5787 11.8594 13.1787 11.8594C12.7787 11.8594 12.4187 11.6394 12.2487 11.2794Z" fill="#7328CE"/>
</svg>
