<svg width="24" height="24" viewBox="0 0 24 24" fill="none" xmlns="http://www.w3.org/2000/svg">
<mask id="mask0_251_28666" style="mask-type:luminance" maskUnits="userSpaceOnUse" x="0" y="0" width="24" height="24">
<rect width="24" height="24" fill="white"/>
</mask>
<g mask="url(#mask0_251_28666)">
<path fill-rule="evenodd" clip-rule="evenodd" d="M9.01051 13.8193C8.78051 13.6193 8.69049 13.3093 8.78049 13.0293L11.2805 5.02933C11.3705 4.72933 11.6405 4.51933 11.9505 4.50933C12.2705 4.48933 12.5505 4.66933 12.6805 4.94933L15.1805 10.4493C15.3505 10.8193 15.1905 11.2493 14.8305 11.4293L9.83048 13.9293C9.73048 13.9693 9.6105 13.9993 9.5005 13.9993C9.3305 13.9993 9.15051 13.9393 9.01051 13.8193ZM10.7405 11.7893L13.5205 10.3993L12.1305 7.34934L10.7405 11.7893Z" fill="#7328CE"/>
<path d="M13.2597 15.4599L5.75974 12.9599C5.46974 12.8599 5.26973 12.5999 5.24973 12.2999C5.22973 11.9999 5.38973 11.7099 5.65973 11.5799L9.65973 9.57994C10.0297 9.39994 10.4797 9.54994 10.6697 9.91994C10.8597 10.2899 10.7097 10.7399 10.3297 10.9299L7.94974 12.1199L13.4197 13.9399L16.1397 12.4299L13.8497 11.6699C13.4597 11.5399 13.2397 11.1199 13.3697 10.7199C13.4997 10.3299 13.9197 10.1099 14.3197 10.2399L18.2397 11.5299C18.5197 11.6199 18.7197 11.8799 18.7497 12.1699C18.7797 12.4699 18.6297 12.7499 18.3697 12.8999L13.8697 15.3999C13.7497 15.4699 13.6297 15.4999 13.4997 15.4999C13.4197 15.4999 13.3397 15.4899 13.2597 15.4599Z" fill="#7328CE"/>
<path d="M11.3413 18.5999L8.84126 13.9199C8.64126 13.5499 8.78125 13.0998 9.15125 12.8998C9.52125 12.6998 9.97127 12.8399 10.1713 13.2099L11.8513 16.3499L12.3012 14.9999C12.4312 14.6099 12.8613 14.3999 13.2513 14.5299C13.6413 14.6599 13.8513 15.0898 13.7213 15.4798L12.7213 18.4798C12.6313 18.7598 12.3713 18.9599 12.0713 18.9899C12.0413 18.9999 12.0213 18.9999 12.0013 18.9999C11.7213 18.9999 11.4713 18.8499 11.3413 18.5999Z" fill="#7328CE"/>
<path fill-rule="evenodd" clip-rule="evenodd" d="M1.25 12C1.25 6.07 6.07 1.25 12 1.25C17.93 1.25 22.75 6.07 22.75 12C22.75 17.93 17.93 22.75 12 22.75C6.07 22.75 1.25 17.93 1.25 12ZM2.75 12C2.75 17.1 6.9 21.25 12 21.25C17.1 21.25 21.25 17.1 21.25 12C21.25 6.9 17.1 2.75 12 2.75C6.9 2.75 2.75 6.9 2.75 12Z" fill="#7328CE"/>
</g>
</svg>
