<svg width="24" height="24" viewBox="0 0 24 24" fill="none" xmlns="http://www.w3.org/2000/svg">
<mask id="mask0_251_28512" style="mask-type:luminance" maskUnits="userSpaceOnUse" x="0" y="0" width="24" height="24">
<rect width="24" height="24" fill="white"/>
</mask>
<g mask="url(#mask0_251_28512)">
<path fill-rule="evenodd" clip-rule="evenodd" d="M16.61 21.6406L6.61 15.6406C6.38 15.5006 6.25 15.2606 6.25 15.0006V9.00063C6.25 8.73063 6.4 8.48064 6.63 8.35064C6.87 8.22064 7.15 8.22063 7.39 8.36063L16.25 13.6806V9.43062L11.61 6.65062C11.38 6.51062 11.25 6.27062 11.25 6.01062C11.25 5.75062 11.39 5.50063 11.61 5.37063L16.61 2.37063C16.85 2.23063 17.14 2.23063 17.38 2.37063L22.38 5.37063C22.61 5.51063 22.74 5.75062 22.74 6.01062V18.0106C22.74 18.2706 22.6 18.5206 22.38 18.6506L17.38 21.6506C17.27 21.7106 17.13 21.7506 17 21.7506C16.87 21.7506 16.73 21.7106 16.61 21.6406ZM17 20.1306L21.25 17.5806V6.43062L17 3.88063L13.46 6.01062L17.39 8.37063C17.62 8.51062 17.75 8.75062 17.75 9.01062V15.0106C17.75 15.2806 17.6 15.5306 17.37 15.6606C17.14 15.7906 16.85 15.7906 16.61 15.6506L7.75 10.3306V14.5806L17 20.1306Z" fill="#7328CE"/>
<path d="M6.61 21.6399L1.61 18.6399C1.38 18.4999 1.25 18.2599 1.25 17.9999V5.99988C1.25 5.73988 1.39 5.48988 1.61 5.35988L6.61 2.35988C6.85 2.21988 7.14001 2.21988 7.38 2.35988L12.38 5.35988C12.74 5.56988 12.85 6.02988 12.64 6.38988C12.43 6.74988 11.97 6.85988 11.61 6.64988L7 3.87989L2.75 6.42987V17.5799L6.98 20.1199L11.29 17.2499C11.63 17.0199 12.1 17.1099 12.33 17.4599C12.56 17.8099 12.47 18.2699 12.12 18.4999L7.42 21.6299C7.29 21.7099 7.15 21.7499 7 21.7499C6.87 21.7499 6.73 21.7099 6.61 21.6399Z" fill="#7328CE"/>
</g>
</svg>
