<svg width="24" height="24" viewBox="0 0 24 24" fill="none" xmlns="http://www.w3.org/2000/svg">
<mask id="mask0_251_28534" style="mask-type:luminance" maskUnits="userSpaceOnUse" x="0" y="0" width="24" height="24">
<rect width="24" height="24" fill="white"/>
</mask>
<g mask="url(#mask0_251_28534)">
<path fill-rule="evenodd" clip-rule="evenodd" d="M11.4105 22.7493C5.93046 22.5993 1.48047 17.8793 1.48047 12.2393V5.2093C1.48047 4.6993 1.78046 4.24929 2.25046 4.05929C2.72046 3.86929 3.25044 3.96929 3.61044 4.32929L18.4405 19.1593C18.5905 19.3093 18.6705 19.5093 18.6605 19.7193C18.6505 19.9293 18.5605 20.1193 18.4005 20.2593C16.5405 21.8693 14.1705 22.7493 11.7005 22.7493C11.6005 22.7493 11.5105 22.7493 11.4105 22.7493ZM2.98047 12.2393C2.98047 17.0793 6.78047 21.1193 11.4505 21.2493C13.3805 21.2893 15.2505 20.7293 16.7805 19.6193L2.98047 5.80929V12.2393Z" fill="#7328CE"/>
<path fill-rule="evenodd" clip-rule="evenodd" d="M20.3896 19.5301L5.68959 4.83008C5.53959 4.68008 5.45959 4.48008 5.46959 4.27008C5.47959 4.06008 5.5696 3.87007 5.7296 3.73007C7.6396 2.06007 10.1096 1.17008 12.6696 1.25008C18.0996 1.40008 22.5196 6.08007 22.5196 11.6801V18.6401C22.5196 19.1501 22.2196 19.6001 21.7496 19.7901C21.5996 19.8601 21.4396 19.9001 21.2696 19.9001C20.9496 19.9001 20.6296 19.7701 20.3896 19.5301ZM21.0296 18.0501V11.6901C21.0296 6.90008 17.2596 2.89007 12.6296 2.76007C10.7196 2.72007 8.86959 3.27007 7.34959 4.37007L21.0296 18.0501Z" fill="#7328CE"/>
</g>
</svg>
