<svg width="24" height="24" viewBox="0 0 24 24" fill="none" xmlns="http://www.w3.org/2000/svg">
<path fill-rule="evenodd" clip-rule="evenodd" d="M6.70049 19.5597L3.24049 16.0997C0.300494 13.1597 0.600494 12.0297 3.24049 9.37971L8.81049 3.79971C10.7805 1.82971 12.4105 0.679708 15.5305 3.79971L18.9905 7.25971C21.8005 10.0697 21.1205 11.8497 18.9905 13.9797L13.4205 19.5497C12.0705 20.8997 11.0705 21.5797 10.0605 21.5797C9.06049 21.5797 8.05049 20.8997 6.70049 19.5597ZM7.76049 18.4897C9.8805 20.6097 10.2305 20.6197 12.3605 18.4897L17.9305 12.9197C19.6005 11.2497 20.0305 10.4197 17.9305 8.31971L14.4705 4.85971C12.2805 2.66971 11.6205 3.11971 9.87049 4.85971L4.30049 10.4297C2.18049 12.5597 2.00049 12.7297 4.30049 15.0297L7.76049 18.4897Z" fill="#7328CE"/>
<path fill-rule="evenodd" clip-rule="evenodd" d="M17.6609 20.2504C17.2209 19.4804 17.3109 18.4804 17.9009 17.5004L18.5609 16.4104C18.9509 15.7704 19.5209 15.4004 20.1409 15.4004C20.7609 15.4004 21.3409 15.7704 21.7209 16.4104L22.3809 17.5004C22.9709 18.4804 23.0509 19.4804 22.6209 20.2504C22.1909 21.0204 21.2709 21.4604 20.1409 21.4604C19.0009 21.4604 18.1009 21.0204 17.6609 20.2504ZM19.8409 17.1804L19.1809 18.2704C18.8809 18.7704 18.8009 19.2204 18.9609 19.5104C19.1209 19.8004 19.5509 19.9604 20.1309 19.9604C20.7109 19.9604 21.1409 19.8004 21.3009 19.5104C21.4609 19.2204 21.3809 18.7804 21.0809 18.2704L20.4209 17.1804C20.3109 16.9704 20.1909 16.9004 20.1409 16.9004C20.0909 16.9004 19.9709 16.9804 19.8409 17.1804Z" fill="#7328CE"/>
<path d="M1.28062 12.4401C1.17062 12.0401 1.41062 11.6301 1.81062 11.5201C7.48062 9.98011 13.4906 9.93011 19.1906 11.3901L19.6906 11.5201C20.0906 11.6201 20.3306 12.0301 20.2306 12.4301C20.1306 12.8301 19.7206 13.0701 19.3206 12.9701L18.8206 12.8401C13.3706 11.4401 7.63062 11.4901 2.21062 12.9701C2.13062 12.9901 2.06062 12.9901 2.00062 12.9901C1.67062 12.9901 1.37062 12.7701 1.28062 12.4401Z" fill="#7328CE"/>
</svg>
