<svg width="24" height="24" viewBox="0 0 24 24" fill="none" xmlns="http://www.w3.org/2000/svg">
<path fill-rule="evenodd" clip-rule="evenodd" d="M16.4492 12.9806L11.0492 7.57055C10.7992 7.32055 10.7592 6.94055 10.9492 6.64055L12.6392 3.97055C13.1092 3.23055 13.8192 2.77055 14.6492 2.68055C15.5792 2.59055 16.5392 2.95055 17.2892 3.70055L20.3192 6.73055C21.0392 7.45055 21.3992 8.42055 21.2892 9.38055C21.1992 10.2206 20.7492 10.9506 20.0492 11.3906L17.3792 13.0806C17.2592 13.1606 17.1192 13.2006 16.9792 13.2006C16.7892 13.2006 16.5892 13.1206 16.4492 12.9806ZM17.0892 11.5006L19.2592 10.1306C19.5692 9.93055 19.7692 9.61055 19.8092 9.22055C19.8692 8.72055 19.6592 8.19055 19.2692 7.80055L16.2392 4.77055C15.8092 4.34055 15.2892 4.11055 14.8192 4.18055C14.4392 4.22055 14.1292 4.43055 13.9092 4.78055L12.5292 6.94055L17.0892 11.5006Z" fill="#7328CE"/>
<path d="M3.60038 20.4295C2.90038 19.7295 2.59038 18.7595 2.72038 17.6795L3.70038 9.34954C4.00038 6.82954 5.11038 5.90954 7.70038 6.05954L11.6204 6.28954C12.0304 6.31954 12.3504 6.66954 12.3204 7.07954C12.2904 7.48954 11.9404 7.80954 11.5304 7.77954L7.61038 7.55954C5.83038 7.44954 5.39038 7.79954 5.19038 9.52954L4.21038 17.8495C4.14038 18.4595 4.30038 18.9995 4.66038 19.3595C5.03038 19.7195 5.57038 19.8895 6.18038 19.8095L14.5004 18.8295C16.2504 18.6195 16.6404 18.1595 16.4704 16.4395L16.2304 12.4895C16.2104 12.0795 16.5204 11.7195 16.9304 11.6995C17.3404 11.6695 17.7004 11.9895 17.7204 12.3995L17.9504 16.3195C18.1904 18.8095 17.2104 20.0095 14.6604 20.3195L6.34038 21.2995C6.20038 21.3295 6.04038 21.3395 5.89038 21.3395C5.00038 21.3395 4.20038 21.0195 3.60038 20.4295Z" fill="#7328CE"/>
<path d="M4.08078 19.9493C3.79078 19.6593 3.79078 19.1793 4.08078 18.8893L7.12078 15.8493C7.41078 15.5593 7.89078 15.5593 8.18078 15.8493C8.47078 16.1393 8.47078 16.6193 8.18078 16.9093L5.14078 19.9493C4.99078 20.0993 4.80078 20.1693 4.61078 20.1693C4.42078 20.1693 4.23078 20.0993 4.08078 19.9493Z" fill="#7328CE"/>
</svg>
