<svg width="24" height="24" viewBox="0 0 24 24" fill="none" xmlns="http://www.w3.org/2000/svg">
<path d="M10.3701 4.41061C9.90008 3.94061 9.90008 3.18065 10.3701 2.71065L11.1501 1.93062C11.6201 1.46062 12.3801 1.46062 12.8501 1.93062L13.6301 2.71065C14.1001 3.18065 14.1001 3.94061 13.6301 4.41061L12.8501 5.19063C12.3801 5.66063 11.6201 5.66063 11.1501 5.19063L10.3701 4.41061Z" stroke="#7328CE" stroke-width="1.5" stroke-linecap="round" stroke-linejoin="round"/>
<path d="M20.55 9.81055C21.21 9.81055 21.75 10.3506 21.75 11.0106V12.1105C21.75 12.7705 21.21 13.3106 20.55 13.3106H19.45C18.79 13.3106 18.25 12.7705 18.25 12.1105V11.0106C18.25 10.3506 18.79 9.81055 19.45 9.81055H20.55Z" stroke="#7328CE" stroke-width="1.5" stroke-linecap="round" stroke-linejoin="round"/>
<path d="M3.45 9.81055C2.79 9.81055 2.25 10.3506 2.25 11.0106V12.1105C2.25 12.7705 2.79 13.3106 3.45 13.3106H4.55C5.21 13.3106 5.75 12.7705 5.75 12.1105V11.0106C5.75 10.3506 5.21 9.81055 4.55 9.81055H3.45Z" stroke="#7328CE" stroke-width="1.5" stroke-linecap="round" stroke-linejoin="round"/>
<path d="M18.5402 10.0998L13.2402 4.7998" stroke="#7328CE" stroke-width="1.5" stroke-linecap="round" stroke-linejoin="round"/>
<path d="M5.46094 10.1002L8.11094 7.4502" stroke="#7328CE" stroke-width="1.5" stroke-linecap="round" stroke-linejoin="round"/>
<path d="M13.2713 22.4996C14.2313 22.4996 14.8513 21.8196 14.6713 20.9896L14.2613 19.1797H9.76131L9.3513 20.9896C9.1713 21.7696 9.8513 22.4996 10.7513 22.4996H13.2713Z" stroke="#7328CE" stroke-width="1.5" stroke-linecap="round" stroke-linejoin="round"/>
<path d="M14.2208 12.6699L13.1708 11.3399C12.5308 10.5299 11.4808 10.5299 10.8408 11.3399L7.79078 15.2099C7.02078 16.1799 7.02078 16.8099 8.03078 17.6399L9.76078 19.1799" stroke="#7328CE" stroke-width="1.5" stroke-linecap="round" stroke-linejoin="round"/>
<path d="M14.2617 19.1693L15.9917 17.6293C16.9617 16.7693 17.0017 16.1692 16.2317 15.1992" stroke="#7328CE" stroke-width="1.5" stroke-linecap="round" stroke-linejoin="round"/>
<path d="M12.0117 11.1201V13.6501" stroke="#7328CE" stroke-width="1.5" stroke-linecap="round" stroke-linejoin="round"/>
</svg>
