<svg width="24" height="24" viewBox="0 0 24 24" fill="none" xmlns="http://www.w3.org/2000/svg">
<path fill-rule="evenodd" clip-rule="evenodd" d="M9.24923 22.75C7.62923 22.75 6.15923 22.12 5.09923 20.96C4.03923 19.81 3.52923 18.29 3.66923 16.68C4.00923 12.58 7.62923 9.25 11.7492 9.25C15.5392 9.25 19.1192 12.29 19.7492 16.02C20.0492 17.8 19.6092 19.48 18.5292 20.76C17.4292 22.04 15.8392 22.75 14.0392 22.75H9.24923ZM5.15923 16.81C5.05923 18 5.42923 19.11 6.19923 19.95C6.96923 20.79 8.04923 21.25 9.23923 21.25H14.0292C15.3792 21.25 16.5692 20.73 17.3592 19.8C18.1492 18.87 18.4692 17.61 18.2492 16.27C17.7492 13.23 14.8292 10.75 11.7392 10.75C8.38923 10.75 5.43923 13.47 5.15923 16.81Z" fill="#7328CE"/>
<path fill-rule="evenodd" clip-rule="evenodd" d="M7.2207 5C7.2207 3.21 8.6807 1.75 10.4707 1.75C12.2607 1.75 13.7207 3.21 13.7207 5C13.7207 6.79 12.2707 8.25 10.4707 8.25C8.6807 8.25 7.2207 6.79 7.2207 5ZM8.7207 5C8.7207 5.96 9.5107 6.75 10.4707 6.75C11.4307 6.75 12.2207 5.96 12.2207 5C12.2207 4.04 11.4407 3.25 10.4707 3.25C9.5107 3.25 8.7207 4.04 8.7207 5Z" fill="#7328CE"/>
<path fill-rule="evenodd" clip-rule="evenodd" d="M14.5508 6.7002C14.5508 5.1802 15.7808 3.9502 17.3008 3.9502C18.8208 3.9502 20.0508 5.1802 20.0508 6.7002C20.0508 8.22019 18.8208 9.4502 17.3008 9.4502C15.7808 9.4502 14.5508 8.22019 14.5508 6.7002ZM16.0508 6.7002C16.0508 7.3902 16.6108 7.9502 17.3008 7.9502C17.9908 7.9502 18.5508 7.3902 18.5508 6.7002C18.5508 6.0102 17.9908 5.4502 17.3008 5.4502C16.6108 5.4502 16.0508 6.0102 16.0508 6.7002Z" fill="#7328CE"/>
<path fill-rule="evenodd" clip-rule="evenodd" d="M18.75 11.2002C18.75 9.9602 19.76 8.9502 21 8.9502C22.24 8.9502 23.25 9.9602 23.25 11.2002C23.25 12.4402 22.24 13.4502 21 13.4502C19.76 13.4502 18.75 12.4402 18.75 11.2002ZM20.25 11.2002C20.25 11.6102 20.59 11.9502 21 11.9502C21.41 11.9502 21.75 11.6102 21.75 11.2002C21.75 10.7902 21.41 10.4502 21 10.4502C20.59 10.4502 20.25 10.7902 20.25 11.2002Z" fill="#7328CE"/>
<path fill-rule="evenodd" clip-rule="evenodd" d="M1.2207 8.7002C1.2207 7.1802 2.4507 5.9502 3.9707 5.9502C5.4907 5.9502 6.7207 7.1802 6.7207 8.7002C6.7207 10.2202 5.4907 11.4502 3.9707 11.4502C2.4507 11.4502 1.2207 10.2202 1.2207 8.7002ZM2.7207 8.7002C2.7207 9.3902 3.2807 9.9502 3.9707 9.9502C4.6607 9.9502 5.2207 9.3902 5.2207 8.7002C5.2207 8.0102 4.6607 7.4502 3.9707 7.4502C3.2807 7.4502 2.7207 8.0102 2.7207 8.7002Z" fill="#7328CE"/>
</svg>
