<svg width="24" height="24" viewBox="0 0 24 24" fill="none" xmlns="http://www.w3.org/2000/svg">
<path fill-rule="evenodd" clip-rule="evenodd" d="M5.67 20.7095C4.11 19.8095 3.25 17.9795 3.25 15.5695V8.4395C3.25 6.0195 4.11 4.1995 5.67 3.2995C7.23 2.3995 9.24 2.5695 11.34 3.7795L17.51 7.3395C19.6 8.5495 20.76 10.2095 20.76 12.0095C20.76 13.8095 19.61 15.4695 17.51 16.6795L11.34 20.2395C10.13 20.9295 8.95 21.2795 7.87 21.2795C7.08 21.2795 6.33 21.0895 5.67 20.7095ZM6.42 4.5895C5.34 5.2095 4.75 6.5795 4.75 8.4395V15.5595C4.75 17.4195 5.34 18.7795 6.42 19.4095C7.5 20.0395 8.98 19.8595 10.59 18.9295L16.76 15.3695C18.37 14.4395 19.26 13.2495 19.26 11.9995C19.26 10.7495 18.37 9.5595 16.76 8.6295L10.59 5.0695C9.61 4.5095 8.69 4.2195 7.87 4.2195C7.33 4.2195 6.85 4.3395 6.42 4.5895Z" fill="#7328CE"/>
</svg>
