<svg width="24" height="24" viewBox="0 0 24 24" fill="none" xmlns="http://www.w3.org/2000/svg">
<path fill-rule="evenodd" clip-rule="evenodd" d="M1.2207 12C1.2207 6.07 6.0507 1.25 11.9707 1.25C17.8907 1.25 22.7207 6.07 22.7207 12C22.7207 17.93 17.9007 22.75 11.9707 22.75C6.0507 22.75 1.2207 17.93 1.2207 12ZM2.7207 12C2.7207 17.1 6.8707 21.25 11.9707 21.25C17.0707 21.25 21.2207 17.1 21.2207 12C21.2207 6.9 17.0707 2.75 11.9707 2.75C6.8707 2.75 2.7207 6.9 2.7207 12Z" fill="#7328CE"/>
<path fill-rule="evenodd" clip-rule="evenodd" d="M9.33023 16.6695C8.47023 16.1695 7.99023 15.1895 7.99023 13.9095V10.5595C7.99023 9.27951 8.46023 8.2995 9.32023 7.7995C10.1802 7.2995 11.2702 7.37951 12.3802 8.01951L15.2802 9.6895C16.3902 10.3295 17.0002 11.2295 17.0002 12.2295C17.0002 13.2195 16.3902 14.1295 15.2802 14.7695L12.3802 16.4395C11.7602 16.8095 11.1302 16.9895 10.5602 16.9895C10.1202 16.9895 9.70023 16.8795 9.33023 16.6695ZM10.0802 9.0895C9.70023 9.3095 9.49023 9.83951 9.49023 10.5595V13.9095C9.49023 14.6195 9.70023 15.1595 10.0802 15.3695C10.4502 15.5895 11.0202 15.4995 11.6402 15.1495L14.5402 13.4795C15.1602 13.1195 15.5102 12.6695 15.5102 12.2395C15.5102 11.8095 15.1502 11.3595 14.5402 10.9995L11.6402 9.3295C11.2402 9.0895 10.8702 8.9695 10.5602 8.9695C10.3802 8.9695 10.2102 9.0095 10.0802 9.0895Z" fill="#7328CE"/>
</svg>
