<svg width="24" height="24" viewBox="0 0 24 24" fill="none" xmlns="http://www.w3.org/2000/svg">
<path fill-rule="evenodd" clip-rule="evenodd" d="M1.25 12C1.25 6.07 6.07 1.25 12 1.25C17.93 1.25 22.75 6.07 22.75 12C22.75 13.4 22.49 14.74 21.97 16C21.88 16.21 21.71 16.37 21.49 16.43C21.27 16.5 21.04 16.46 20.85 16.33C19.67 15.52 18.08 15.58 16.96 16.46C16.19 17.07 15.74 18 15.74 18.99C15.74 19.58 15.9 20.16 16.21 20.66C16.24 20.71 16.26 20.74 16.29 20.77C16.45 20.95 16.51 21.2 16.46 21.44C16.41 21.68 16.24 21.87 16.01 21.96C14.74 22.49 13.39 22.75 12 22.75C6.07 22.75 1.25 17.93 1.25 12ZM2.75 12C2.75 17.1 6.9 21.25 12 21.25C12.9 21.25 13.78 21.12 14.63 20.86C14.38 20.28 14.25 19.65 14.25 19C14.25 17.54 14.9 16.19 16.03 15.29C17.39 14.21 19.3 13.96 20.86 14.63C21.11 13.79 21.24 12.9 21.24 11.99C21.25 6.89999 17.1 2.75 12 2.75C6.9 2.75 2.75 6.9 2.75 12Z" fill="#7328CE"/>
<path fill-rule="evenodd" clip-rule="evenodd" d="M9.79889 15.7896C9.05889 15.3596 8.62891 14.4896 8.62891 13.3896V10.6096C8.62891 9.50959 9.05889 8.63962 9.79889 8.20962C10.5489 7.77962 11.5189 7.84963 12.4689 8.39963L14.8689 9.78958C15.8189 10.3396 16.3589 11.1496 16.3589 11.9996C16.3589 12.8496 15.8189 13.6696 14.8689 14.2096L12.4689 15.5996C11.9289 15.9096 11.3889 16.0696 10.8789 16.0696C10.4889 16.0696 10.1189 15.9796 9.79889 15.7896ZM10.5489 9.50961C10.2789 9.66961 10.1289 10.0696 10.1289 10.6096V13.3896C10.1289 13.9296 10.2789 14.3396 10.5489 14.4896C10.8189 14.6396 11.2389 14.5796 11.7189 14.2996L14.1189 12.9096C14.5889 12.6396 14.8589 12.2996 14.8589 11.9896C14.8589 11.6796 14.5889 11.3496 14.1189 11.0696L11.7189 9.67959C11.4089 9.51959 11.1289 9.42959 10.8889 9.42959C10.7589 9.42959 10.6489 9.45961 10.5489 9.50961Z" fill="#7328CE"/>
<path fill-rule="evenodd" clip-rule="evenodd" d="M14.94 21.44C14.49 20.72 14.25 19.87 14.25 19C14.25 17.54 14.9 16.19 16.03 15.29C16.87 14.62 17.93 14.25 19 14.25C21.62 14.25 23.75 16.38 23.75 19C23.75 19.87 23.51 20.72 23.06 21.45C22.81 21.87 22.49 22.25 22.11 22.57C21.28 23.33 20.17 23.75 19 23.75C17.34 23.75 15.78 22.87 14.94 21.44ZM16.97 16.47C16.2 17.08 15.75 18.01 15.75 19C15.75 19.59 15.91 20.17 16.22 20.67C16.8 21.65 17.87 22.25 19 22.25C19.79 22.25 20.55 21.96 21.13 21.44C21.39 21.22 21.61 20.96 21.77 20.68C22.09 20.17 22.25 19.59 22.25 19C22.25 17.21 20.79 15.75 19 15.75C18.26 15.75 17.56 16 16.97 16.47Z" fill="#7328CE"/>
<path d="M17.5098 19.7295C17.0998 19.7295 16.7598 19.3895 16.7598 18.9795C16.7598 18.5695 17.0998 18.2295 17.5098 18.2295H20.4998C20.9098 18.2295 21.2498 18.5695 21.2498 18.9795C21.2498 19.3895 20.9098 19.7295 20.4998 19.7295H17.5098Z" fill="#7328CE"/>
<path d="M18.25 20.5105V17.5205C18.25 17.1105 18.59 16.7705 19 16.7705C19.41 16.7705 19.75 17.1105 19.75 17.5205V20.5105C19.75 20.9305 19.41 21.2605 19 21.2605C18.59 21.2605 18.25 20.9205 18.25 20.5105Z" fill="#7328CE"/>
</svg>
