<svg width="24" height="24" viewBox="0 0 24 24" fill="none" xmlns="http://www.w3.org/2000/svg">
<path fill-rule="evenodd" clip-rule="evenodd" d="M5.89999 17.75C3.57999 17.75 2.25 16.42 2.25 14.1V2C2.25 1.59 2.59 1.25 3 1.25H21C21.41 1.25 21.75 1.59 21.75 2V14.1C21.75 16.42 20.42 17.75 18.1 17.75H5.89999ZM3.75 14.1C3.75 15.59 4.40999 16.25 5.89999 16.25H18.09C19.58 16.25 20.24 15.59 20.24 14.1V2.75H3.75V14.1Z" fill="#7328CE"/>
<path d="M2 2.75C1.59 2.75 1.25 2.41 1.25 2C1.25 1.59 1.59 1.25 2 1.25H22C22.41 1.25 22.75 1.59 22.75 2C22.75 2.41 22.41 2.75 22 2.75H2Z" fill="#7328CE"/>
<path d="M7.33025 22.34C7.14025 21.97 7.29028 21.52 7.67028 21.33L11.2503 19.54V17C11.2503 16.59 11.5903 16.25 12.0003 16.25C12.4103 16.25 12.7503 16.59 12.7503 17V20C12.7503 20.28 12.5903 20.54 12.3303 20.67L8.33025 22.67C8.23025 22.72 8.11027 22.75 8.00027 22.75C7.72027 22.75 7.46025 22.6 7.33025 22.34Z" fill="#7328CE"/>
<path d="M15.67 22.6702L11.67 20.6702C11.3 20.4802 11.1499 20.0302 11.3299 19.6602C11.5199 19.2902 11.9699 19.1402 12.3399 19.3202L16.3399 21.3202C16.7099 21.5102 16.8599 21.9602 16.6799 22.3302C16.5399 22.6002 16.2699 22.7502 15.9999 22.7502C15.8899 22.7502 15.77 22.7202 15.67 22.6702Z" fill="#7328CE"/>
<path d="M6.91896 11.4807C6.64896 11.1607 6.69894 10.6907 7.01894 10.4207L10.169 7.79067C10.459 7.55067 10.8289 7.45067 11.1789 7.51067C11.5389 7.57067 11.849 7.79065 12.039 8.11065L13.0889 9.86065L16.0189 7.42067C16.3389 7.16067 16.8089 7.20065 17.0789 7.52065C17.3489 7.84065 17.299 8.31065 16.979 8.58065L13.8289 11.2107C13.5389 11.4507 13.169 11.5507 12.819 11.4907C12.459 11.4307 12.1489 11.2107 11.9589 10.8907L10.909 9.14067L7.97896 11.5806C7.83896 11.6906 7.66895 11.7507 7.49895 11.7507C7.28895 11.7507 7.06896 11.6607 6.91896 11.4807Z" fill="#7328CE"/>
</svg>
