<svg width="24" height="24" viewBox="0 0 24 24" fill="none" xmlns="http://www.w3.org/2000/svg">
<mask id="mask0_251_29311" style="mask-type:luminance" maskUnits="userSpaceOnUse" x="0" y="0" width="24" height="24">
<rect width="24" height="24" fill="white"/>
</mask>
<g mask="url(#mask0_251_29311)">
<path d="M8.86099 22.5105C7.67099 22.3305 6.81099 21.3205 6.80099 20.1205V14.2205C6.80099 12.5805 8.131 11.2505 9.771 11.2505H14.211C15.021 11.2505 15.681 10.5905 15.681 9.7805V3.89051C15.681 3.43051 15.351 3.05051 14.891 2.98051C12.961 2.68051 11.011 2.68051 9.08099 2.98051C8.63099 3.05051 8.29102 3.44049 8.29102 3.90049V7.57051C8.29102 7.9805 7.95102 8.32051 7.54102 8.32051C7.13102 8.32051 6.79102 7.9805 6.79102 7.57051V3.90049C6.80102 2.70049 7.66101 1.69051 8.85101 1.51051C10.931 1.19051 13.041 1.19051 15.121 1.51051C16.311 1.69051 17.171 2.70049 17.181 3.90049V9.80049C17.181 11.4405 15.851 12.7705 14.211 12.7705H9.771C8.961 12.7705 8.30099 13.4305 8.30099 14.2405V20.1305C8.30099 20.5905 8.631 20.9705 9.091 21.0405C11.021 21.3405 12.971 21.3405 14.901 21.0405C15.351 20.9705 15.691 20.5805 15.691 20.1205V16.4505C15.691 16.0405 16.031 15.7005 16.441 15.7005C16.851 15.7005 17.191 16.0405 17.191 16.4505V20.1205C17.181 21.3205 16.321 22.3305 15.131 22.5105C14.101 22.6705 13.051 22.7505 12.001 22.7505C10.951 22.7505 9.90099 22.6705 8.86099 22.5105Z" fill="#7328CE"/>
<path d="M11.25 16.4398C11.25 16.0298 11.59 15.6898 12 15.6898H20.12C20.58 15.6898 20.96 15.3598 21.03 14.8998C21.33 12.9698 21.33 11.0198 21.03 9.08981C20.96 8.62981 20.58 8.2998 20.12 8.2998H16.45C16.04 8.2998 15.7 7.9598 15.7 7.5498C15.7 7.1398 16.04 6.7998 16.45 6.7998H20.12C21.32 6.8098 22.33 7.6698 22.51 8.8598C22.83 10.9398 22.83 13.0498 22.51 15.1298C22.33 16.3198 21.32 17.1798 20.12 17.1898H12C11.59 17.1898 11.25 16.8498 11.25 16.4398Z" fill="#7328CE"/>
<path d="M3.88978 17.1898C2.68978 17.1798 1.67977 16.3198 1.49977 15.1298C1.17977 13.0498 1.17977 10.9398 1.49977 8.8598C1.67977 7.6698 2.68978 6.8098 3.88978 6.7998H11.9998C12.4098 6.7998 12.7498 7.1398 12.7498 7.5498C12.7498 7.9598 12.4098 8.2998 11.9998 8.2998H3.87977C3.41977 8.2998 3.03977 8.62981 2.96977 9.08981C2.66977 11.0198 2.66977 12.9698 2.96977 14.8998C3.03977 15.3598 3.41977 15.6898 3.87977 15.6898H7.54975C7.95975 15.6898 8.29975 16.0298 8.29975 16.4398C8.29975 16.8498 7.96976 17.1898 7.55976 17.1898H3.88978Z" fill="#7328CE"/>
<path d="M9.51953 4.76971C9.51953 4.34971 9.90953 3.96973 10.3295 3.96973C10.5195 3.96973 10.7496 4.05973 10.8896 4.18973C11.0396 4.32973 11.1396 4.56971 11.1396 4.76971C11.1396 5.18971 10.7495 5.57971 10.3295 5.57971C9.91953 5.57971 9.51953 5.18971 9.51953 4.76971Z" fill="#7328CE"/>
<path d="M12.8613 19.2202C12.8613 18.8002 13.2514 18.4102 13.6714 18.4102C13.8614 18.4102 14.0914 18.5002 14.2314 18.6302C14.3814 18.7702 14.4814 19.0101 14.4814 19.2101C14.4714 19.6401 14.0814 20.0302 13.6714 20.0302C13.2614 20.0302 12.8613 19.6402 12.8613 19.2202Z" fill="#7328CE"/>
</g>
</svg>
