<svg width="24" height="24" viewBox="0 0 24 24" fill="none" xmlns="http://www.w3.org/2000/svg">
<path fill-rule="evenodd" clip-rule="evenodd" d="M8.5 22.75C4.79 22.75 2.75 20.71 2.75 17V7C2.75 3.29 4.79 1.25 8.5 1.25H15.5C19.15 1.25 21.25 3.35 21.25 7V8C21.25 8.96 20.46 9.75 19.5 9.75C19.36 9.75 19.25 9.86 19.25 10V12.17C19.25 12.5 19.38 12.82 19.62 13.05L20.45 13.88C20.97 14.4 21.26 15.09 21.26 15.82V17C21.25 20.65 19.15 22.75 15.5 22.75H8.5ZM4.25 7V17C4.25 19.86 5.64 21.25 8.5 21.25H15.5C18.32 21.25 19.75 19.82 19.75 17V15.83C19.75 15.5 19.62 15.18 19.38 14.95L18.55 14.12C18.03 13.6 17.74 12.91 17.74 12.18V10C17.74 9.04 18.53 8.25 19.49 8.25C19.63 8.25 19.74 8.14 19.74 8V7C19.74 4.18 18.31 2.75 15.49 2.75H8.5C5.64 2.75 4.25 4.14 4.25 7Z" fill="#7328CE"/>
<path d="M15.2605 21.9802L15.2305 18.9902C15.2305 18.3002 14.6605 17.7502 13.9805 17.7502H9.98047C9.65047 17.7502 9.33047 17.8802 9.09047 18.1202C8.86047 18.3502 8.73047 18.6702 8.73047 19.0002L8.74047 21.9702C8.74047 22.3802 8.41047 22.7202 7.99047 22.7202C7.58047 22.7202 7.24047 22.3902 7.24047 21.9702L7.23047 19.0002C7.23047 18.2602 7.51047 17.5702 8.03047 17.0502C8.55047 16.5302 9.24047 16.2402 9.98047 16.2402H13.9905C15.5005 16.2402 16.7305 17.4702 16.7405 18.9702L16.7705 21.9502C16.7705 22.3802 16.4305 22.7202 16.0105 22.7202C16.0105 22.7202 16.0205 22.7202 16.0105 22.7202C15.6005 22.7202 15.2605 22.3902 15.2605 21.9802Z" fill="#7328CE"/>
<path d="M8.92968 5.6998C8.50968 5.6898 8.17967 5.3498 8.18967 4.9298L8.23967 2.0398C8.24967 1.6298 8.57967 1.2998 8.98967 1.2998H8.99967C9.40967 1.3098 9.73967 1.6498 9.73967 2.0598L9.68967 4.9598C9.67967 5.3698 9.34967 5.6998 8.93967 5.6998H8.92968Z" fill="#7328CE"/>
<path d="M11.9295 5.70055C11.5195 5.69055 11.1895 5.35055 11.1895 4.94055L11.2395 2.05055C11.2495 1.64055 11.5795 1.31055 11.9895 1.31055H11.9995C12.4095 1.32055 12.7395 1.66055 12.7395 2.07055L12.6895 4.96055C12.6795 5.37055 12.3495 5.70055 11.9395 5.70055H11.9295Z" fill="#7328CE"/>
<path d="M14.9295 5.67027C14.5195 5.66027 14.1895 5.32027 14.1895 4.91027L14.2395 2.02027C14.2495 1.61027 14.5795 1.28027 14.9895 1.28027H14.9995C15.4095 1.29027 15.7395 1.63027 15.7395 2.04027L15.6895 4.93027C15.6795 5.34027 15.3495 5.67027 14.9395 5.67027H14.9295Z" fill="#7328CE"/>
</svg>
