<svg width="24" height="24" viewBox="0 0 24 24" fill="none" xmlns="http://www.w3.org/2000/svg">
<path fill-rule="evenodd" clip-rule="evenodd" d="M9 22.75C3.57 22.75 1.25 20.43 1.25 15V9C1.25 3.57 3.57 1.25 9 1.25H15C20.43 1.25 22.75 3.57 22.75 9V15C22.75 20.43 20.43 22.75 15 22.75H9ZM2.75 9V15C2.75 19.61 4.39 21.25 9 21.25H15C19.61 21.25 21.25 19.61 21.25 15V9C21.25 4.39 19.61 2.75 15 2.75H9C4.39 2.75 2.75 4.39 2.75 9Z" fill="#7328CE"/>
<path d="M10.5898 14.0906C10.1798 14.0906 9.83984 13.7506 9.83984 13.3406C9.83984 12.9306 10.1798 12.5906 10.5898 12.5906H14.0798V9.10059C14.0798 8.69059 14.4198 8.35059 14.8298 8.35059C15.2398 8.35059 15.5798 8.69059 15.5798 9.10059V13.3406C15.5798 13.7606 15.2398 14.0906 14.8298 14.0906H10.5898Z" fill="#7328CE"/>
<path d="M14.2994 13.8701L8.63938 8.21013C8.34938 7.92013 8.34938 7.44012 8.63938 7.15012C8.92937 6.86012 9.40937 6.86012 9.69937 7.15012L15.3594 12.8101C15.6494 13.1001 15.6494 13.5801 15.3594 13.8701C15.2094 14.0201 15.0194 14.0901 14.8294 14.0901C14.6394 14.0901 14.4494 14.0201 14.2994 13.8701Z" fill="#7328CE"/>
<path d="M5.76043 17.2202C5.37043 17.0902 5.16043 16.6602 5.29043 16.2702C5.42043 15.8802 5.85045 15.6602 6.24045 15.8002C9.96045 17.0402 14.0504 17.0402 17.7704 15.8002C18.1604 15.6702 18.5904 15.8802 18.7204 16.2702C18.8504 16.6602 18.6404 17.0902 18.2504 17.2202C16.2304 17.9002 14.1104 18.2302 12.0004 18.2302C9.89044 18.2302 7.77043 17.8902 5.76043 17.2202Z" fill="#7328CE"/>
</svg>
