<svg width="24" height="24" viewBox="0 0 24 24" fill="none" xmlns="http://www.w3.org/2000/svg">
<path fill-rule="evenodd" clip-rule="evenodd" d="M8.69 19.2494C6 19.2494 4.75 17.9994 4.75 15.3094V12.5794C4.75 9.89941 6 8.64941 8.69 8.64941H11.42C14.1 8.64941 15.36 9.89941 15.36 12.5894V15.3194C15.35 17.9994 14.1 19.2494 11.42 19.2494H8.69ZM6.25 12.5894V15.3194C6.25 17.1894 6.82 17.7594 8.69 17.7594H11.42C13.29 17.7594 13.86 17.1894 13.86 15.3194V12.5894C13.86 10.7194 13.29 10.1494 11.42 10.1494H8.69C6.82 10.1494 6.25 10.7194 6.25 12.5894Z" fill="#7328CE"/>
<path fill-rule="evenodd" clip-rule="evenodd" d="M14.6004 15.35C14.1904 15.35 13.8504 15.01 13.8504 14.6V12.58C13.8504 10.71 13.2804 10.14 11.4104 10.14H9.40039C8.99039 10.14 8.65039 9.8 8.65039 9.39V8.69C8.65039 6.01 9.90039 4.75 12.5904 4.75H15.3204C18.0004 4.75 19.2604 6 19.2604 8.69V11.42C19.2504 14.1 18.0004 15.35 15.3104 15.35H14.6004ZM11.4204 8.65C14.1004 8.65 15.3604 9.9 15.3604 12.59V13.86C17.2004 13.85 17.7604 13.28 17.7604 11.42V8.69C17.7604 6.82 17.1904 6.25 15.3204 6.25H12.5904C10.7304 6.25 10.1604 6.81 10.1504 8.65H11.4204Z" fill="#7328CE"/>
<path d="M14.3502 22.3702C14.2202 22.1302 14.2202 21.8502 14.3602 21.6102L15.4102 19.8602C15.6202 19.5002 16.0802 19.3902 16.4402 19.6002C16.8002 19.8102 16.9102 20.2702 16.7002 20.6302L16.4302 21.0802C19.1902 20.4302 21.2602 17.9502 21.2602 14.9902C21.2602 14.5802 21.6002 14.2402 22.0102 14.2402C22.4202 14.2402 22.7602 14.5802 22.7602 14.9902C22.7502 19.2702 19.2702 22.7502 15.0002 22.7502C14.7302 22.7502 14.4802 22.6002 14.3502 22.3702Z" fill="#7328CE"/>
<path d="M1.25 9C1.25 4.73 4.73 1.25 9 1.25C9.27 1.25 9.52 1.4 9.65 1.63C9.78 1.87 9.78 2.15 9.64 2.39L8.59 4.14C8.38 4.49 7.92 4.61 7.56 4.39C7.21 4.18 7.09 3.72 7.31 3.36L7.58 2.91C4.81 3.56 2.75 6.04 2.75 9C2.75 9.41 2.41 9.75 2 9.75C1.59 9.75 1.25 9.41 1.25 9Z" fill="#7328CE"/>
</svg>
