<svg width="24" height="24" viewBox="0 0 24 24" fill="none" xmlns="http://www.w3.org/2000/svg">
<path d="M8.86914 19.0605C5.69914 19.0605 3.11914 16.4805 3.11914 13.3105C3.11914 10.1405 5.69914 7.56055 8.86914 7.56055H19.8691C20.2791 7.56055 20.6191 7.90055 20.6191 8.31055C20.6191 8.72055 20.2791 9.06055 19.8691 9.06055H8.86914C6.52914 9.06055 4.61914 10.9705 4.61914 13.3105C4.61914 15.6505 6.52914 17.5605 8.86914 17.5605H16.8691C17.2791 17.5605 17.6191 17.9005 17.6191 18.3105C17.6191 18.7205 17.2891 19.0605 16.8691 19.0605H8.86914Z" fill="#7328CE"/>
<path d="M17.0398 11.3399C16.7498 11.0499 16.7498 10.5699 17.0398 10.2799L19.0698 8.24988L17.0398 6.21988C16.7498 5.92988 16.7498 5.44988 17.0398 5.15988C17.3298 4.86988 17.8098 4.86988 18.0998 5.15988L20.6598 7.71988C20.9498 8.00988 20.9498 8.48988 20.6598 8.77988L18.0998 11.3399C17.9498 11.4899 17.7598 11.5599 17.5698 11.5599C17.3798 11.5599 17.1898 11.4899 17.0398 11.3399Z" fill="#7328CE"/>
</svg>
