<svg width="24" height="24" viewBox="0 0 24 24" fill="none" xmlns="http://www.w3.org/2000/svg">
<path d="M6.25 12.26C6.25 11.12 6.58 10.01 7.22 9.07C7.45 8.73 7.91999 8.63 8.25999 8.86C8.59999 9.09 8.7 9.56 8.47 9.9C8 10.6 7.75999 11.42 7.75999 12.26C7.75999 14.6 9.66999 16.51 12.01 16.51C14.35 16.51 16.26 14.6 16.26 12.26C16.26 9.92 14.35 8.01 12.01 8.01C11.51 8.01 11.03 8.08 10.56 8.22C10.17 8.34 9.75 8.12 9.62 7.72C9.5 7.32 9.72 6.9 10.12 6.78C10.73 6.59 11.36 6.5 12.01 6.5C15.18 6.5 17.76 9.08 17.76 12.25C17.76 15.42 15.17 18.01 12 18.01C8.83 18.01 6.25 15.43 6.25 12.26Z" fill="#7328CE"/>
<path d="M9.12912 8.21938C8.81912 7.94938 8.78911 7.46938 9.05911 7.15938L10.7291 5.24938C10.9991 4.93938 11.4791 4.89938 11.7891 5.17938C12.0991 5.44938 12.1291 5.92938 11.8591 6.23938L10.1891 8.14938C10.0291 8.30938 9.82911 8.39938 9.61911 8.39938C9.44911 8.39938 9.26912 8.33938 9.12912 8.21938Z" fill="#7328CE"/>
<path d="M11.1198 9.68004L9.17976 8.26004C8.84976 8.02004 8.76977 7.55004 9.01977 7.21004C9.25977 6.88004 9.72978 6.80005 10.0698 7.05005L12.0098 8.47004C12.3398 8.71004 12.4198 9.18004 12.1698 9.52004C12.0198 9.71004 11.7898 9.82004 11.5598 9.82004C11.4098 9.82004 11.2498 9.77004 11.1198 9.68004Z" fill="#7328CE"/>
<path fill-rule="evenodd" clip-rule="evenodd" d="M9 22.75C3.57 22.75 1.25 20.43 1.25 15V9C1.25 3.57 3.57 1.25 9 1.25H15C20.43 1.25 22.75 3.57 22.75 9V15C22.75 20.43 20.43 22.75 15 22.75H9ZM2.75 9V15C2.75 19.61 4.39 21.25 9 21.25H15C19.61 21.25 21.25 19.61 21.25 15V9C21.25 4.39 19.61 2.75 15 2.75H9C4.39 2.75 2.75 4.39 2.75 9Z" fill="#7328CE"/>
</svg>
