<svg width="24" height="24" viewBox="0 0 24 24" fill="none" xmlns="http://www.w3.org/2000/svg">
<path d="M4.98145 19.7754L4.47757 20.3309L4.47758 20.3309L4.98145 19.7754ZM3.11035 15.6904V14.9404C2.69621 14.9404 2.36045 15.2761 2.36035 15.6903C2.36026 16.1044 2.69586 16.4402 3.11001 16.4404L3.11035 15.6904ZM8.37988 16.4404L9.12988 16.4408V16.4404H8.37988ZM4.58887 17.1904V16.4404C4.29871 16.4404 4.03458 16.6078 3.91068 16.8702C3.78678 17.1326 3.82534 17.4429 4.00969 17.6669L4.58887 17.1904ZM5.98926 18.6641L5.48538 19.2196H5.48539L5.98926 18.6641ZM2.36035 16.4521L3.11025 16.4396C3.10337 16.0279 2.76584 15.6987 2.35409 15.7022C1.94233 15.7056 1.61035 16.0404 1.61035 16.4521H2.36035ZM2.46875 16.8291L1.82737 17.2179C1.85857 17.2693 1.89585 17.3169 1.93842 17.3594L2.46875 16.8291ZM2.46973 16.8301L3.14055 16.4947C3.1045 16.4226 3.05706 16.3567 3.00006 16.2997L2.46973 16.8301ZM2.4707 16.832L1.79988 17.1674C1.80933 17.1863 1.81956 17.2048 1.83057 17.2228L2.4707 16.832ZM2.47363 16.8369L1.83449 17.2293L1.83458 17.2295L2.47363 16.8369ZM2.4834 16.8525L1.84658 17.2487L1.84663 17.2488L2.4834 16.8525ZM2.51758 16.9062L1.88565 17.3102L1.88565 17.3102L2.51758 16.9062ZM2.64453 17.0996L2.02348 17.5201L2.02349 17.5201L2.64453 17.0996ZM3.12891 17.7666L2.5351 18.2247L2.53511 18.2248L3.12891 17.7666ZM3.86035 21.4404L4.61035 21.4408V21.4404H3.86035ZM3.11035 22.1904V22.9404H3.1107L3.11035 22.1904ZM2.36035 21.4404H1.61035L1.61035 21.4408L2.36035 21.4404ZM2.37109 16.3164L3.11092 16.4395C3.17892 16.031 2.90283 15.6446 2.49426 15.5766C2.08568 15.5086 1.69932 15.7846 1.63128 16.1932L2.37109 16.3164ZM2.36426 16.3574L1.61875 16.2755C1.57349 16.6872 1.87055 17.0576 2.28227 17.1029C2.69399 17.1482 3.06447 16.8512 3.10976 16.4394L2.36426 16.3574ZM2.37793 16.2793L1.64525 16.1191C1.55676 16.5237 1.81299 16.9234 2.21759 17.012C2.62218 17.1005 3.02197 16.8443 3.11057 16.4397L2.37793 16.2793ZM2.41699 16.1543L3.11045 16.44C3.26818 16.0571 3.0858 15.6189 2.70302 15.461C2.32025 15.3031 1.88192 15.4852 1.72382 15.8679L2.41699 16.1543ZM2.42676 16.1328L1.74267 15.8254C1.57293 16.203 1.74137 16.6468 2.11895 16.8167C2.49653 16.9867 2.94038 16.8185 3.11052 16.441L2.42676 16.1328ZM2.45605 16.0723L1.80258 15.7042L1.80233 15.7047L2.45605 16.0723ZM2.4834 16.0293L3.11031 16.441C3.33765 16.0948 3.24133 15.6298 2.89517 15.4024C2.549 15.1751 2.08405 15.2713 1.85661 15.6174L2.4834 16.0293ZM2.67969 15.8271L3.11123 16.4406C3.44971 16.2024 3.53134 15.7351 3.29363 15.3964C3.05593 15.0576 2.58875 14.9754 2.24968 15.2127L2.67969 15.8271ZM2.49219 16.0166L1.87393 15.592C1.63946 15.9335 1.72616 16.4003 2.06758 16.6348C2.40899 16.8693 2.87586 16.7827 3.11038 16.4413L2.49219 16.0166ZM2.70312 15.8105L2.29534 15.1811C1.94801 15.4061 1.84858 15.8699 2.07317 16.2176C2.29775 16.5652 2.76146 16.6652 3.10935 16.441L2.70312 15.8105ZM2.94531 15.71L3.11025 16.4416C3.51426 16.3505 3.76798 15.9492 3.67699 15.5452C3.586 15.1412 3.18475 14.8874 2.7807 14.9782L2.94531 15.71ZM2.99121 15.7002L2.87233 14.9597C2.46347 15.0253 2.18517 15.4099 2.25064 15.8188C2.31611 16.2277 2.70057 16.5061 3.10948 16.4408L2.99121 15.7002ZM3.01758 15.6963L3.1101 16.4406C3.52102 16.3895 3.81279 16.015 3.76189 15.6041C3.71099 15.1932 3.33669 14.9012 2.92573 14.9519L3.01758 15.6963ZM19.9814 4.2041L20.4619 3.62818L20.4619 3.62818L19.9814 4.2041ZM19.0205 5.35547L19.5009 4.77955L19.5009 4.77953L19.0205 5.35547ZM22.1982 8.2793L22.397 9.00248L22.3976 9.00232L22.1982 8.2793ZM22.1201 8.29883L22.0007 7.55839L22.0002 7.55847L22.1201 8.29883ZM22.0957 8.30273L22.1906 9.04671L22.191 9.04666L22.0957 8.30273ZM22.0009 7.55955C21.5888 7.60166 21.2889 7.96984 21.331 8.3819C21.3731 8.79397 21.7413 9.09388 22.1534 9.05178L22.0771 8.30566L22.0009 7.55955ZM22.0918 8.30273L22.1832 9.04714C22.5942 8.99667 22.8866 8.62259 22.8362 8.21153C22.7859 7.80047 22.4119 7.50802 22.0008 7.55828L22.0918 8.30273ZM21.9707 8.30762L21.9995 7.55817C21.5859 7.54225 21.2375 7.86452 21.2213 8.27818C21.205 8.69184 21.527 9.04043 21.9407 9.05702L21.9707 8.30762ZM22 9.05957C22.4142 9.05957 22.75 8.72378 22.75 8.30957C22.75 7.89536 22.4142 7.55957 22 7.55957V8.30957V9.05957ZM17.5596 8.30957L17.5592 9.05957H17.5596V8.30957ZM16.8096 7.55957L16.0596 7.55915V7.55957H16.8096ZM17.5596 6.80957V6.05957H17.5592L17.5596 6.80957ZM20.7891 7.15918L21.375 6.69107L21.375 6.69104L20.7891 7.15918ZM21.2246 7.74512L21.8435 7.32144L21.8435 7.32144L21.2246 7.74512ZM21.3291 7.90137L21.9611 7.49758L21.9611 7.49757L21.3291 7.90137ZM21.3525 7.93848L22.0234 7.60307C22.0133 7.58292 22.0023 7.56323 21.9905 7.54407L21.3525 7.93848ZM21.3564 7.94629L20.6856 8.2817C20.8412 8.59281 21.1902 8.75614 21.5288 8.67623C21.8673 8.59631 22.1064 8.29412 22.1064 7.94629H21.3564ZM21.3564 7.94531L21.9999 7.55995C21.8266 7.27065 21.4816 7.13256 21.1565 7.22245C20.8315 7.31233 20.6064 7.60809 20.6064 7.94531H21.3564ZM21.373 7.9707L20.7463 8.38257C20.9736 8.7285 21.4382 8.82487 21.7843 8.59789C22.1305 8.3709 22.2273 7.9064 22.0006 7.56003L21.373 7.9707ZM22.748 7.58789L21.9986 7.56001C21.9832 7.97378 22.306 8.32173 22.7197 8.33736C23.1335 8.35298 23.4816 8.03036 23.4975 7.61661L22.748 7.58789ZM22.748 7.59082L23.4974 7.62247L23.4974 7.62159L22.748 7.59082ZM22.7295 7.72363L21.9976 7.55975C21.9071 7.96386 22.1613 8.36484 22.5654 8.45546C22.9695 8.54608 23.3705 8.29204 23.4613 7.88799L22.7295 7.72363ZM23.4691 7.86158C23.5523 7.45581 23.2908 7.05942 22.885 6.97622C22.4792 6.89302 22.0829 7.15452 21.9997 7.5603L22.7344 7.71094L23.4691 7.86158ZM22.7285 7.72852L23.4592 7.89771L23.4593 7.8973L22.7285 7.72852ZM22.707 7.7998L23.4174 8.04045L22.707 7.7998ZM22.6914 7.85156L22.0006 7.55947L22.6914 7.85156ZM22.6816 7.86816L21.9986 7.55844L21.998 7.55972L22.6816 7.86816ZM22.6553 7.91699L23.3134 8.27672L23.3142 8.27525L22.6553 7.91699ZM22.6123 7.98926L21.9988 7.5579L21.998 7.55901L22.6123 7.98926ZM22.5723 8.03809L23.1474 8.51949L23.1478 8.519L22.5723 8.03809ZM22.5166 8.09961L23.0347 8.64187L23.0351 8.6415L22.5166 8.09961ZM22.4297 8.17188L21.9993 7.55764L21.9983 7.55833L22.4297 8.17188ZM22.2744 8.25586L21.9992 7.55817L21.9988 7.55833L22.2744 8.25586ZM21.834 8.28906L21.9997 7.55761C21.5959 7.46609 21.1943 7.71919 21.1026 8.123C21.0109 8.52681 21.2638 8.92852 21.6676 9.02038L21.834 8.28906ZM21.9492 8.30664L21.8991 9.05496C22.3121 9.08262 22.6695 8.77043 22.6975 8.35744C22.7255 7.94444 22.4137 7.58682 22.0007 7.55841L21.9492 8.30664ZM21.6953 8.24316L21.9998 7.55776C21.6215 7.38969 21.1786 7.5599 21.0102 7.93805C20.8418 8.3162 21.0116 8.75929 21.3896 8.92803L21.6953 8.24316ZM21.7588 8.2666L21.5172 8.97662C21.9092 9.11002 22.3352 8.90044 22.4687 8.50846C22.6023 8.11647 22.3928 7.69043 22.0009 7.55675L21.7588 8.2666ZM22.2803 8.25391L21.9989 7.55867C21.615 7.71402 21.4297 8.15112 21.585 8.53506C21.7402 8.91899 22.1773 9.10443 22.5612 8.94929L22.2803 8.25391ZM22.3857 8.20312L22.7711 8.84655L22.7715 8.84631L22.3857 8.20312ZM21.5713 8.17383L22 7.55844C21.6603 7.32181 21.1932 7.40512 20.9563 7.74458C20.7194 8.08404 20.8023 8.55126 21.1415 8.78847L21.5713 8.17383ZM21.625 8.20508L21.2491 8.85405C21.6072 9.06152 22.0657 8.93964 22.2736 8.58173C22.4814 8.22381 22.36 7.76517 22.0024 7.55692L21.625 8.20508ZM22.4248 8.17578L22.851 8.79289C23.1917 8.55762 23.2773 8.09084 23.0422 7.75002C22.8072 7.40921 22.3405 7.32327 21.9995 7.55801L22.4248 8.17578ZM21.4619 8.08008L22.0009 7.55857C21.713 7.26098 21.2384 7.25304 20.9407 7.54083C20.6429 7.82863 20.6348 8.30324 20.9224 8.6011L21.4619 8.08008ZM21.5049 8.11816L21.0073 8.67938C21.3173 8.95413 21.7912 8.92566 22.066 8.61578C22.3408 8.30589 22.3124 7.83193 22.0026 7.55709L21.5049 8.11816ZM22.5205 8.09668L21.9985 7.55814C21.7012 7.84637 21.6937 8.32105 21.9818 8.6185C22.2699 8.91596 22.7446 8.92358 23.0422 8.63554L22.5205 8.09668ZM22.5586 8.05371L23.1204 8.55059C23.3948 8.24037 23.3658 7.76648 23.0556 7.49203C22.7454 7.21759 22.2716 7.24648 21.997 7.55657L22.5586 8.05371ZM22.6143 7.9873L21.9984 7.55931C21.7621 7.89923 21.846 8.36627 22.1857 8.6028C22.5254 8.83933 22.9925 8.75592 23.2294 8.41643L22.6143 7.9873ZM22.6455 7.93359L23.2949 8.30876C23.502 7.95038 23.3796 7.49203 23.0214 7.28459C22.6633 7.07716 22.2048 7.19906 21.9969 7.55697L22.6455 7.93359ZM22.6836 7.86328L21.9978 7.55964C21.8302 7.93814 22.001 8.38085 22.3793 8.54879C22.7577 8.71672 23.2005 8.54637 23.3688 8.16818L22.6836 7.86328ZM22.75 2.55957H23.5V2.55915L22.75 2.55957ZM22.7432 7.4668L23.4875 7.37442L23.4874 7.37392L22.7432 7.4668ZM22.7383 7.43848L21.9981 7.55935L21.9982 7.56003L22.7383 7.43848ZM22.7197 7.36035L23.4426 7.16037L23.4423 7.15949L22.7197 7.36035ZM22.6953 7.28223L21.9989 7.56053L21.9992 7.5613L22.6953 7.28223ZM22.6436 7.1748L23.2871 6.78962C23.2555 6.73677 23.2174 6.68802 23.1739 6.64447L22.6436 7.1748ZM22.6426 7.17383H21.8926C21.8926 7.37274 21.9716 7.56351 22.1122 7.70416L22.6426 7.17383ZM22.6426 7.17285H23.3926C23.3926 6.97394 23.3136 6.78317 23.1729 6.64252L22.6426 7.17285ZM22.6416 7.17188L21.9995 7.55947C22.0309 7.61139 22.0684 7.65932 22.1113 7.70221L22.6416 7.17188ZM22.6387 7.16602L23.2794 6.77621L23.2794 6.77617L22.6387 7.16602ZM22.6279 7.14941L23.2659 6.75501L23.2658 6.75495L22.6279 7.14941ZM22.5928 7.09375L23.2248 6.68995L23.2248 6.68994L22.5928 7.09375ZM22.4629 6.89746L23.0818 6.47379L23.0818 6.47378L22.4629 6.89746ZM21.9619 6.22266L22.5479 5.75454L22.5479 5.75454L21.9619 6.22266ZM21.25 2.55957L20.5 2.55915V2.55957H21.25ZM22 11.25V12H22.75H23.5C23.5 11.1716 22.8284 10.5 22 10.5V11.25ZM22.75 12H22C22 17.52 17.52 22 12 22V22.75V23.5C18.3484 23.5 23.5 18.3484 23.5 12H22.75ZM12 22.75V22C9.24025 22 7.01802 20.61 5.48531 19.2199L4.98145 19.7754L4.47758 20.3309C6.15159 21.8492 8.71897 23.5 12 23.5V22.75ZM4.98145 19.7754L5.48532 19.2199C5.08191 18.854 4.72621 18.4863 4.41912 18.1433L3.86035 18.6436L3.30158 19.1438C3.63694 19.5184 4.02917 19.9242 4.47757 20.3309L4.98145 19.7754ZM3.86035 18.6436H4.61035V16.4404H3.86035H3.11035V18.6436H3.86035ZM3.86035 16.4404H4.61035C4.61035 15.6118 3.93835 14.9408 3.1107 14.9404L3.11035 15.6904L3.11001 16.4404H3.11035H3.86035ZM3.11035 15.6904V16.4404H7.62988V15.6904V14.9404H3.11035V15.6904ZM7.62988 15.6904V16.4404H8.37988H9.12988C9.12988 15.612 8.45831 14.9404 7.62988 14.9404V15.6904ZM8.37988 16.4404L7.62988 16.44V16.4404V17.1904V17.9404C8.45858 17.9404 9.12942 17.2683 9.12988 16.4408L8.37988 16.4404ZM7.62988 17.1904V16.4404H4.58887V17.1904V17.9404H7.62988V17.1904ZM4.58887 17.1904L4.00969 17.6669C4.38855 18.1274 4.88322 18.6734 5.48538 19.2196L5.98926 18.6641L6.49313 18.1085C5.95538 17.6208 5.51052 17.1302 5.16804 16.7139L4.58887 17.1904ZM5.98926 18.6641L5.48539 19.2196C7.01795 20.6096 9.24006 22 12 22V21.25V20.5C9.76087 20.5 7.88385 19.3699 6.49313 18.1085L5.98926 18.6641ZM12 21.25V22C17.52 22 22 17.52 22 12H21.25H20.5C20.5 16.6916 16.6916 20.5 12 20.5V21.25ZM21.25 12H22V11.25V10.5C21.1716 10.5 20.5 11.1716 20.5 12H21.25ZM2.36035 16.4521L1.61046 16.4647C1.6148 16.7248 1.68653 16.9855 1.82737 17.2179L2.46875 16.8291L3.11013 16.4403L3.11025 16.4396L2.36035 16.4521ZM2.46875 16.8291L1.93842 17.3594L1.9394 17.3604L2.46973 16.8301L3.00006 16.2997L2.99908 16.2988L2.46875 16.8291ZM2.46973 16.8301L1.79891 17.1655L1.79988 17.1674L2.4707 16.832L3.14152 16.4966L3.14055 16.4947L2.46973 16.8301ZM2.4707 16.832L1.83057 17.2228C1.82875 17.2199 1.82743 17.2176 1.82724 17.2173C1.8271 17.2171 1.82671 17.2164 1.82741 17.2176C1.8278 17.2183 1.82871 17.2198 1.8298 17.2216C1.8309 17.2234 1.83253 17.2261 1.83449 17.2293L2.47363 16.8369L3.11277 16.4445C3.11421 16.4468 3.1153 16.4486 3.11586 16.4496C3.11642 16.4505 3.1168 16.4511 3.11669 16.451C3.1164 16.4505 3.1168 16.4511 3.11634 16.4504C3.11615 16.4501 3.11581 16.4495 3.1154 16.4488C3.11477 16.4477 3.11302 16.4448 3.11084 16.4412L2.4707 16.832ZM2.47363 16.8369L1.83458 17.2295C1.83653 17.2327 1.83827 17.2354 1.83948 17.2374C1.84071 17.2394 1.84191 17.2413 1.84274 17.2426C1.84469 17.2457 1.84562 17.2472 1.84658 17.2487L2.4834 16.8525L3.12022 16.4564C3.11728 16.4516 3.11451 16.4472 3.11314 16.445C3.11232 16.4437 3.11195 16.4431 3.11174 16.4428C3.11151 16.4424 3.11192 16.4431 3.11268 16.4443L2.47363 16.8369ZM2.4834 16.8525L1.84663 17.2488C1.85789 17.2669 1.87349 17.2912 1.88565 17.3102L2.51758 16.9062L3.14951 16.5023C3.13261 16.4759 3.1251 16.4642 3.12016 16.4563L2.4834 16.8525ZM2.51758 16.9062L1.88565 17.3102C1.91657 17.3586 1.96282 17.4305 2.02348 17.5201L2.64453 17.0996L3.26558 16.6791C3.21558 16.6053 3.17738 16.5459 3.1495 16.5023L2.51758 16.9062ZM2.64453 17.0996L2.02349 17.5201C2.14206 17.6952 2.31346 17.9375 2.5351 18.2247L3.12891 17.7666L3.72271 17.3085C3.52153 17.0477 3.36823 16.8307 3.26557 16.6791L2.64453 17.0996ZM3.12891 17.7666L2.53511 18.2248C2.74538 18.4973 3.00218 18.8094 3.30158 19.1438L3.86035 18.6436L4.41912 18.1433C4.14445 17.8365 3.911 17.5525 3.7227 17.3084L3.12891 17.7666ZM3.86035 18.6436H3.11035V21.4404H3.86035H4.61035V18.6436H3.86035ZM3.86035 21.4404L3.11035 21.44L3.11001 21.4404L3.11035 22.1904L3.1107 22.9404C3.93862 22.9401 4.60989 22.2686 4.61035 21.4408L3.86035 21.4404ZM3.11035 22.1904V21.4404L3.11035 21.44L2.36035 21.4404L1.61035 21.4408C1.61082 22.2683 2.28165 22.9404 3.11035 22.9404V22.1904ZM2.36035 21.4404H3.11035V16.4521H2.36035H1.61035V21.4404H2.36035ZM2.37109 16.3164L1.63127 16.1933C1.63179 16.1902 1.63211 16.1885 1.63173 16.1906C1.63149 16.1919 1.63138 16.1924 1.63091 16.195C1.63053 16.197 1.62998 16.2 1.62939 16.2033C1.6272 16.2153 1.62238 16.2424 1.61875 16.2755L2.36426 16.3574L3.10977 16.4394C3.10864 16.4496 3.10746 16.4577 3.10668 16.4628C3.10591 16.4677 3.10534 16.4708 3.10539 16.4705C3.10541 16.4704 3.10549 16.4699 3.10575 16.4685C3.10591 16.4677 3.10643 16.4649 3.10683 16.4627C3.10771 16.458 3.10926 16.4495 3.11092 16.4395L2.37109 16.3164ZM2.36426 16.3574L3.10976 16.4394C3.10864 16.4496 3.10747 16.4577 3.10669 16.4627C3.10629 16.4652 3.10596 16.4672 3.10574 16.4685C3.10563 16.4691 3.10554 16.4696 3.10549 16.47C3.10546 16.4701 3.10543 16.4702 3.10542 16.4703C3.10541 16.4704 3.1054 16.4705 3.1054 16.4705C3.1054 16.4705 3.1054 16.4704 3.10542 16.4703C3.10543 16.4703 3.10545 16.4701 3.10548 16.47C3.10554 16.4696 3.10563 16.4692 3.10575 16.4686C3.1059 16.4678 3.10643 16.4649 3.10682 16.4628C3.10769 16.4581 3.10925 16.4496 3.11091 16.4396L2.37109 16.3164L1.63128 16.1932C1.63181 16.1901 1.63213 16.1884 1.63175 16.1904C1.63151 16.1917 1.63141 16.1923 1.63093 16.1949C1.63055 16.1969 1.63 16.1999 1.6294 16.2032C1.6272 16.2154 1.62239 16.2424 1.61876 16.2754L2.36426 16.3574ZM2.37793 16.2793L3.11061 16.4395L3.11045 16.44L2.41699 16.1543L1.72354 15.8686C1.68982 15.9504 1.6638 16.0342 1.64525 16.1191L2.37793 16.2793ZM2.41699 16.1543L1.72382 15.8679C1.69016 15.9494 1.66401 16.0334 1.64529 16.1189L2.37793 16.2793L3.11057 16.4397C3.11076 16.4389 3.11074 16.4393 3.11017 16.4407L2.41699 16.1543ZM2.42676 16.1328L3.11084 16.4403C3.11371 16.4339 3.11504 16.4309 3.11662 16.4274C3.11728 16.426 3.11774 16.425 3.11807 16.4243C3.1184 16.4235 3.11855 16.4232 3.11855 16.4232C3.11855 16.4232 3.11836 16.4236 3.11801 16.4243C3.11767 16.425 3.11713 16.4261 3.11642 16.4275C3.11502 16.4303 3.11279 16.4345 3.10978 16.4399L2.45605 16.0723L1.80233 15.7047C1.77136 15.7597 1.74785 15.8138 1.74267 15.8254L2.42676 16.1328ZM2.45605 16.0723L3.10953 16.4403C3.10596 16.4467 3.10301 16.4516 3.1011 16.4547C3.10013 16.4562 3.09937 16.4574 3.09887 16.4582C3.09862 16.4586 3.09843 16.4589 3.0983 16.4591C3.09817 16.4593 3.0981 16.4594 3.0981 16.4594C3.09809 16.4594 3.09815 16.4594 3.09828 16.4592C3.0984 16.459 3.09858 16.4587 3.09884 16.4583C3.09938 16.4575 3.10006 16.4565 3.10112 16.4549C3.10279 16.4523 3.10661 16.4466 3.11031 16.441L2.4834 16.0293L1.85648 15.6176C1.85555 15.619 1.85467 15.6204 1.85165 15.6249C1.8492 15.6286 1.84512 15.6347 1.84067 15.6416C1.83183 15.6552 1.81778 15.6772 1.80258 15.7042L2.45605 16.0723ZM2.4834 16.0293L1.85661 15.6174C1.81206 15.6852 1.77449 15.7548 1.743 15.8246L2.42676 16.1328L3.11052 16.441L3.11019 16.4412L2.4834 16.0293ZM2.67969 15.8271L2.24814 15.2137C2.10248 15.3162 1.97558 15.4441 1.87399 15.5919L2.49219 16.0166L3.11038 16.4413C3.11025 16.4415 3.11041 16.4411 3.11123 16.4406L2.67969 15.8271ZM2.49219 16.0166L3.11045 16.4412L3.1097 16.4416L2.67969 15.8271L2.24968 15.2127C2.10321 15.3152 1.97604 15.4433 1.87393 15.592L2.49219 16.0166ZM2.70312 15.8105L3.10935 16.441L3.10956 16.4404L2.80762 15.7539L2.50568 15.0674C2.42864 15.1012 2.35905 15.14 2.2969 15.1801L2.70312 15.8105ZM2.80762 15.7539L2.50464 15.0678C2.42976 15.1009 2.35995 15.1392 2.29534 15.1811L2.70312 15.8105L3.11091 16.44L3.1106 16.44L2.80762 15.7539ZM2.82617 15.7461L2.5427 15.0517C2.53415 15.0552 2.52083 15.0607 2.50568 15.0674L2.80762 15.7539L3.10956 16.4404L3.10965 16.4405L2.82617 15.7461ZM2.80762 15.7539L3.1106 16.44L3.11052 16.4401L2.82617 15.7461L2.54183 15.0521C2.5358 15.0546 2.52108 15.0606 2.50464 15.0678L2.80762 15.7539ZM2.82617 15.7461L3.10965 16.4405C3.10276 16.4433 3.09882 16.4444 3.09898 16.4444C3.09922 16.4443 3.10254 16.4433 3.11025 16.4416L2.94531 15.71L2.78037 14.9783C2.7153 14.993 2.63223 15.0152 2.5427 15.0517L2.82617 15.7461ZM2.94531 15.71L2.7807 14.9782C2.7154 14.9929 2.63182 15.0152 2.54183 15.0521L2.82617 15.7461L3.11052 16.4401C3.10316 16.4431 3.09886 16.4444 3.09883 16.4444C3.09877 16.4444 3.0996 16.4442 3.10147 16.4437C3.10336 16.4432 3.10611 16.4425 3.10992 16.4417L2.94531 15.71ZM2.99121 15.7002L3.1101 16.4407L3.1101 16.4406L3.01758 15.6963L2.92505 14.952C2.901 14.955 2.87947 14.9585 2.87233 14.9597L2.99121 15.7002ZM3.01758 15.6963L2.92573 14.9519C2.901 14.955 2.87814 14.9587 2.87294 14.9596L2.99121 15.7002L3.10948 16.4408L3.10943 16.4406L3.01758 15.6963ZM12 1.25V2C15.3348 2 17.8346 3.38996 19.501 4.78003L19.9814 4.2041L20.4619 3.62818C18.6086 2.08216 15.7804 0.5 12 0.5V1.25ZM19.9814 4.2041L19.501 4.78002C19.9659 5.16784 20.366 5.55697 20.7028 5.91627L21.25 5.40332L21.7972 4.89037C21.4248 4.49318 20.9804 4.06075 20.4619 3.62818L19.9814 4.2041ZM21.25 5.40332H20.5V6.80957H21.25H22V5.40332H21.25ZM21.25 6.80957V6.05957H20.4971V6.80957V7.55957H21.25V6.80957ZM20.4971 6.80957L21.0649 6.31962C20.6702 5.86217 20.1495 5.32057 19.5009 4.77955L19.0205 5.35547L18.5401 5.93139C19.1146 6.41065 19.5776 6.89199 19.9292 7.29952L20.4971 6.80957ZM19.0205 5.35547L19.5009 4.77953C17.8345 3.38953 15.3346 2 12 2V2.75V3.5C14.8895 3.5 17.0612 4.69779 18.5401 5.93141L19.0205 5.35547ZM12 2.75V2C6.44005 2 2 6.47995 2 12H2.75H3.5C3.5 7.30456 7.27229 3.5 12 3.5V2.75ZM2.75 12H2V12.75V13.5C2.82843 13.5 3.5 12.8284 3.5 12H2.75ZM2 12.75V12H1.25H0.5C0.5 12.8284 1.17157 13.5 2 13.5V12.75ZM1.25 12H2C2 6.47996 6.44004 2 12 2V1.25V0.5C5.60762 0.5 0.5 5.65553 0.5 12H1.25ZM22.1982 8.2793L21.9995 7.55611C21.9939 7.55763 21.9889 7.55905 21.9848 7.56021C21.9811 7.56126 21.9766 7.56253 21.9743 7.56317C21.9715 7.56399 21.9696 7.56451 21.9682 7.56491C21.9668 7.5653 21.9662 7.56545 21.9662 7.56544C21.9663 7.56543 21.9671 7.56521 21.9685 7.56485C21.97 7.56449 21.9722 7.56395 21.9751 7.56331C21.9808 7.56203 21.9895 7.56019 22.0007 7.55839L22.1201 8.29883L22.2395 9.03927C22.2878 9.03148 22.3279 9.02143 22.3529 9.01475C22.3654 9.01141 22.3767 9.00822 22.3835 9.00629C22.3919 9.00391 22.3943 9.00322 22.397 9.00248L22.1982 8.2793ZM22.1201 8.29883L22.0002 7.55847C21.995 7.55932 21.9905 7.56008 21.988 7.56051C21.9874 7.56062 21.9867 7.56073 21.9862 7.56081C21.9857 7.5609 21.9853 7.56096 21.985 7.56103C21.9846 7.56108 21.9844 7.56112 21.9842 7.56115C21.9841 7.56117 21.9841 7.56118 21.984 7.56118C21.984 7.56119 21.984 7.56119 21.984 7.56119C21.984 7.56119 21.9841 7.56118 21.9843 7.56115C21.9844 7.56112 21.9847 7.56108 21.985 7.56102C21.9857 7.56091 21.9868 7.56074 21.9881 7.56054C21.9908 7.56013 21.995 7.5595 22.0004 7.55881L22.0957 8.30273L22.191 9.04666C22.2093 9.04431 22.2245 9.04181 22.2318 9.04057C22.2353 9.04 22.2393 9.03931 22.24 9.03919C22.2416 9.03892 22.2411 9.039 22.24 9.03918L22.1201 8.29883ZM22.0957 8.30273L22.0008 7.55876C21.9855 7.56072 21.9729 7.56276 21.9655 7.56402C21.9617 7.56466 21.9586 7.56522 21.9568 7.56555C21.9558 7.56571 21.955 7.56586 21.9546 7.56594C21.9542 7.566 21.9542 7.566 21.954 7.56604C21.954 7.56605 21.9539 7.56606 21.9539 7.56606C21.9539 7.56606 21.9539 7.56607 21.9539 7.56607C21.9539 7.56607 21.9538 7.56607 21.9538 7.56607C21.9538 7.56607 21.9539 7.56607 21.9539 7.56607C21.9539 7.56607 21.9539 7.56606 21.9539 7.56606C21.9539 7.56606 21.954 7.56605 21.954 7.56604C21.9542 7.56602 21.9543 7.56598 21.9546 7.56594C21.9551 7.56585 21.9558 7.56572 21.9568 7.56556C21.9587 7.56523 21.9617 7.56471 21.9656 7.56411C21.9731 7.56293 21.9855 7.56113 22.0009 7.55955L22.0771 8.30566L22.1534 9.05178C22.172 9.04988 22.1874 9.04766 22.198 9.04599C22.2083 9.04438 22.2166 9.04287 22.219 9.04244C22.2197 9.04232 22.2204 9.04219 22.2206 9.04216C22.221 9.0421 22.2209 9.04211 22.2208 9.04213C22.2205 9.04219 22.2189 9.04247 22.2166 9.04285C22.2123 9.04359 22.2028 9.04515 22.1906 9.04671L22.0957 8.30273ZM22.0771 8.30566L22.1534 9.05178C22.1872 9.04832 22.2146 9.04326 22.2321 9.03967C22.241 9.03784 22.2483 9.03617 22.2532 9.03502C22.258 9.03391 22.2618 9.03296 22.2627 9.03276C22.2646 9.03229 22.2625 9.03281 22.2605 9.03327C22.2581 9.03386 22.2531 9.03503 22.2467 9.03642C22.2343 9.03911 22.2116 9.04367 22.1828 9.04719L22.0918 8.30273L22.0008 7.55828C21.9695 7.5621 21.9444 7.56712 21.9295 7.57033C21.9219 7.57198 21.9157 7.57343 21.9121 7.57431C21.9102 7.57476 21.9086 7.57514 21.9077 7.57536C21.9073 7.57547 21.9069 7.57557 21.9066 7.57562C21.9063 7.57571 21.9064 7.57568 21.9063 7.57571C21.9059 7.5758 21.9086 7.57515 21.9121 7.57433C21.9158 7.57346 21.9219 7.57207 21.9296 7.57049C21.9446 7.5674 21.9696 7.56275 22.0009 7.55955L22.0771 8.30566ZM22.0918 8.30273L22.0004 7.55832L22.0007 7.55822L21.9707 8.30762L21.9407 9.05702C22.0202 9.0602 22.1012 9.05722 22.1832 9.04714L22.0918 8.30273ZM21.9707 8.30762L21.9419 9.05706C21.9293 9.05658 21.9199 9.05584 21.9164 9.05555C21.9146 9.05539 21.9134 9.05528 21.9137 9.05532C21.9139 9.05534 21.9142 9.05536 21.9149 9.05543C21.9155 9.05548 21.9166 9.05558 21.9177 9.05568C21.9219 9.05606 21.9326 9.05702 21.9456 9.05784C21.959 9.05868 21.9778 9.05957 22 9.05957V8.30957V7.55957C22.0173 7.55957 22.0312 7.56026 22.0397 7.5608C22.0478 7.56131 22.0536 7.56185 22.0529 7.56179C22.0528 7.56178 22.0527 7.56177 22.0521 7.56171C22.0516 7.56167 22.0506 7.56157 22.0496 7.56148C22.0475 7.56129 22.0439 7.56097 22.0396 7.56061C22.0312 7.55992 22.0169 7.55884 21.9995 7.55817L21.9707 8.30762ZM22 8.30957V7.55957H17.5596V8.30957V9.05957H22V8.30957ZM17.5596 8.30957L17.56 7.55957H17.5596H16.8096H16.0596C16.0596 8.38827 16.7317 9.05911 17.5592 9.05957L17.5596 8.30957ZM16.8096 7.55957L17.5596 7.55999L17.56 7.55957L17.5596 6.80957L17.5592 6.05957C16.7314 6.06003 16.06 6.73139 16.0596 7.55915L16.8096 7.55957ZM17.5596 6.80957V7.55957H20.4971V6.80957V6.05957H17.5596V6.80957ZM20.4971 6.80957L19.9292 7.29952C20.0324 7.41911 20.1238 7.52804 20.2031 7.62731L20.7891 7.15918L21.375 6.69104C21.2799 6.572 21.1754 6.44768 21.0649 6.31962L20.4971 6.80957ZM20.7891 7.15918L20.2031 7.62729C20.3857 7.85587 20.52 8.04355 20.6057 8.1688L21.2246 7.74512L21.8435 7.32144C21.7398 7.16994 21.5836 6.95214 21.375 6.69107L20.7891 7.15918ZM21.2246 7.74512L20.6057 8.16879C20.6517 8.23591 20.6816 8.28094 20.6971 8.30517L21.3291 7.90137L21.9611 7.49757C21.9327 7.4531 21.8922 7.39258 21.8435 7.32144L21.2246 7.74512ZM21.3291 7.90137L20.6971 8.30515C20.7071 8.32089 20.7128 8.32994 20.7146 8.33288L21.3525 7.93848L21.9905 7.54407C21.9831 7.53214 21.973 7.51612 21.9611 7.49758L21.3291 7.90137ZM21.3525 7.93848L20.6817 8.27389L20.6856 8.2817L21.3564 7.94629L22.0273 7.61088L22.0234 7.60307L21.3525 7.93848ZM21.3564 7.94629H22.1064V7.94531H21.3564H20.6064V7.94629H21.3564ZM21.3564 7.94531L20.713 8.33067C20.7251 8.35093 20.736 8.3672 20.741 8.37469C20.7431 8.37782 20.7463 8.38258 20.7463 8.38264C20.7472 8.384 20.7466 8.38311 20.7455 8.38138L21.373 7.9707L22.0006 7.56003C21.9967 7.55408 21.9933 7.549 21.9914 7.54617C21.9906 7.54498 21.9894 7.54313 21.9891 7.54271C21.9885 7.54189 21.9883 7.5416 21.9883 7.54154C21.9882 7.54136 21.9894 7.54318 21.9913 7.54607C21.9932 7.54904 21.9962 7.55382 21.9999 7.55995L21.3564 7.94531ZM21.373 7.9707L21.9998 7.55884L22 7.55957H21.25H20.5C20.5 7.86344 20.5914 8.14692 20.7463 8.38257L21.373 7.9707ZM21.25 7.55957H22V6.80957H21.25H20.5V7.55957H21.25ZM21.25 6.80957V7.55957H22V6.80957V6.05957H21.25V6.80957ZM22 6.80957V7.55957L21.9997 7.56036L22.6855 7.25684L23.3714 6.95331C23.1398 6.42994 22.6152 6.05957 22 6.05957V6.80957ZM22.6855 7.25684L22 7.56102C21.9992 7.55917 21.9988 7.55754 21.9986 7.55669C21.9985 7.55596 21.9987 7.55672 21.9986 7.55917L22.748 7.58789L23.4975 7.61661C23.5059 7.39843 23.4678 7.17069 23.3711 6.95266L22.6855 7.25684ZM22.748 7.58789L23.4975 7.61577C23.497 7.62954 23.4962 7.63995 23.4958 7.64417C23.4956 7.64637 23.4955 7.64784 23.4955 7.64768C23.4955 7.64761 23.4955 7.64746 23.4956 7.64679C23.4956 7.64628 23.4957 7.64525 23.4958 7.64415C23.4962 7.64023 23.4972 7.62928 23.4981 7.61597C23.499 7.60219 23.5 7.58273 23.5 7.55957H22.75H22C22 7.54116 22.0008 7.52644 22.0014 7.51739C22.0019 7.50881 22.0025 7.50258 22.0025 7.50338C22.0025 7.50346 22.0024 7.50361 22.0024 7.50427C22.0023 7.50478 22.0022 7.50581 22.0021 7.50691C22.0019 7.50911 22.0016 7.51294 22.0012 7.51749C22.0004 7.52642 21.9993 7.54154 21.9986 7.56001L22.748 7.58789ZM22.75 7.55957H22C22 7.54423 22.0006 7.532 22.001 7.52444C22.0014 7.51722 22.0018 7.51216 22.0018 7.51276C22.0017 7.51353 22.0018 7.51299 22.0015 7.51572C22.0014 7.51754 22.0011 7.52078 22.0008 7.52456C22.0002 7.53199 21.9993 7.54467 21.9987 7.56005L22.748 7.59082L23.4974 7.62159C23.497 7.63178 23.4964 7.63926 23.4963 7.6415C23.4962 7.64269 23.4961 7.64333 23.4962 7.64255C23.4962 7.64206 23.4962 7.64184 23.4963 7.64086C23.4964 7.64009 23.4965 7.63897 23.4966 7.63771C23.497 7.63311 23.4978 7.62283 23.4985 7.61039C23.4993 7.59762 23.5 7.58015 23.5 7.55957H22.75ZM22.748 7.59082L21.9987 7.55917L21.9977 7.55928L22.7295 7.72363L23.4613 7.88799C23.4783 7.81202 23.4932 7.72239 23.4974 7.62247L22.748 7.59082ZM22.7295 7.72363L23.4614 7.88752C23.4552 7.91507 23.4482 7.93893 23.4417 7.9585C23.4352 7.97798 23.4289 7.99416 23.424 8.00614C23.4191 8.018 23.4149 8.02727 23.4126 8.03233C23.4105 8.03674 23.4086 8.04078 23.4096 8.0388C23.4097 8.03848 23.4124 8.03291 23.4154 8.02617C23.4187 8.01901 23.4237 8.00768 23.4294 7.99363C23.435 7.97947 23.4419 7.9611 23.4488 7.93934C23.4558 7.9175 23.463 7.89138 23.4691 7.86158L22.7344 7.71094L21.9997 7.5603C22.0055 7.53159 22.0125 7.50656 22.0191 7.48579C22.0256 7.46511 22.0321 7.4478 22.0374 7.4347C22.0426 7.4217 22.0472 7.41142 22.05 7.4053C22.0525 7.3996 22.0547 7.39507 22.0544 7.39579C22.0543 7.39584 22.0544 7.3958 22.0543 7.39594C22.0543 7.39604 22.0542 7.3962 22.0541 7.39639C22.0539 7.39677 22.0536 7.39741 22.0532 7.39819C22.0525 7.39971 22.0513 7.40225 22.0499 7.40538C22.0471 7.41148 22.0424 7.42179 22.0371 7.43471C22.0317 7.44773 22.025 7.46497 22.0182 7.48552C22.0114 7.50616 22.004 7.53111 21.9976 7.55975L22.7295 7.72363ZM22.7344 7.71094L21.9997 7.5603C22.0076 7.52162 22.0171 7.49128 22.0233 7.47319C22.0265 7.46394 22.0292 7.45659 22.0309 7.45215C22.0325 7.44797 22.0337 7.4448 22.0335 7.44525C22.0335 7.44539 22.0335 7.44525 22.0334 7.44568C22.0333 7.44594 22.0331 7.44642 22.0329 7.44697C22.0324 7.44806 22.0317 7.44991 22.0308 7.45215C22.0292 7.45654 22.0263 7.46393 22.0231 7.47308C22.0198 7.48232 22.0157 7.49442 22.0114 7.50868C22.007 7.523 22.0023 7.54017 21.9978 7.55973L22.7285 7.72852L23.4593 7.8973C23.4511 7.93275 23.4419 7.96017 23.4366 7.97511C23.4339 7.9828 23.4316 7.98874 23.4305 7.99168C23.4296 7.994 23.4286 7.99653 23.4295 7.99425C23.4299 7.99325 23.4317 7.98863 23.4338 7.983C23.436 7.97711 23.4393 7.9683 23.4429 7.95759C23.4501 7.93657 23.4605 7.90327 23.4691 7.86158L22.7344 7.71094ZM22.7285 7.72852L21.9978 7.55932C21.9991 7.55378 22.0003 7.54948 22.001 7.54667C22.0014 7.54526 22.0017 7.54418 22.002 7.54347C22.0022 7.54276 22.0023 7.54238 22.0023 7.54237C22.0023 7.54237 22.0022 7.54269 22.002 7.5434C22.0017 7.54411 22.0014 7.54512 22.0009 7.54654C21.9999 7.54963 21.9987 7.55325 21.9967 7.55916L22.707 7.7998L23.4174 8.04045C23.424 8.02087 23.4439 7.96359 23.4592 7.89771L22.7285 7.72852ZM22.707 7.7998L21.9969 7.55859C21.9886 7.58285 21.9829 7.60323 21.9796 7.61526C21.9779 7.62138 21.9765 7.62665 21.9758 7.62961C21.9754 7.63087 21.9749 7.63277 21.9748 7.63323C21.9746 7.6341 21.9745 7.6344 21.9745 7.63447C21.9744 7.63467 21.975 7.63276 21.9758 7.62978C21.9766 7.62672 21.9781 7.62177 21.98 7.61555C21.9838 7.60332 21.9904 7.58354 22.0006 7.55947L22.6914 7.85156L23.3822 8.14365C23.3959 8.11131 23.4055 8.08307 23.4119 8.06226C23.4183 8.04201 23.4228 8.02502 23.4248 8.01733C23.4257 8.01411 23.427 8.00913 23.427 8.00907C23.4273 8.00766 23.4271 8.00856 23.4266 8.01032C23.4257 8.01362 23.4225 8.02532 23.4172 8.04102L22.707 7.7998ZM22.6914 7.85156L22.0006 7.55947C22.0093 7.53896 22.0179 7.52119 22.0256 7.50645C22.0333 7.49177 22.0403 7.47951 22.0459 7.47019C22.0515 7.46093 22.0562 7.45365 22.059 7.44927C22.0617 7.44516 22.0638 7.44203 22.0635 7.44249C22.0633 7.44271 22.0635 7.44242 22.0632 7.44293C22.063 7.44319 22.0627 7.44366 22.0623 7.44421C22.0616 7.44529 22.0604 7.44711 22.0589 7.44933C22.056 7.45367 22.0513 7.461 22.0456 7.47014C22.0399 7.47936 22.0327 7.49151 22.0248 7.50601C22.0168 7.52055 22.0078 7.53814 21.9986 7.55844L22.6816 7.86816L23.3647 8.17789C23.3479 8.21488 23.3315 8.24269 23.3222 8.25776C23.3174 8.26553 23.3135 8.2715 23.3116 8.27449C23.31 8.2769 23.3083 8.27942 23.3097 8.27729C23.3103 8.27641 23.3133 8.27194 23.3168 8.26647C23.3206 8.26074 23.3261 8.25209 23.3325 8.24146C23.345 8.22061 23.3639 8.18702 23.3822 8.14365L22.6914 7.85156ZM22.6816 7.86816L21.998 7.55972C22.0032 7.54825 22.0077 7.53934 22.0106 7.53374C22.0121 7.53091 22.0133 7.52871 22.014 7.52731C22.0144 7.52661 22.0147 7.52606 22.0149 7.52571C22.015 7.52553 22.0151 7.52539 22.0151 7.5253C22.0152 7.52522 22.0152 7.52517 22.0152 7.52517C22.0152 7.52516 22.0152 7.5252 22.0151 7.52529C22.0151 7.52538 22.015 7.5255 22.0149 7.52568C22.0147 7.52604 22.0144 7.52653 22.014 7.52724C22.0136 7.528 22.0132 7.52875 22.0125 7.52986C22.012 7.53087 22.0112 7.53216 22.0104 7.53352C22.0075 7.53867 22.0023 7.54792 21.9964 7.55873L22.6553 7.91699L23.3142 8.27525C23.3127 8.2779 23.312 8.27908 23.3137 8.27618C23.3142 8.2753 23.319 8.26689 23.3227 8.26041C23.3309 8.24583 23.3479 8.21518 23.3653 8.17661L22.6816 7.86816ZM22.6553 7.91699L21.9972 7.55726C21.9932 7.56445 21.9912 7.56829 21.989 7.57213C21.9881 7.5738 21.9874 7.57497 21.987 7.5758C21.9865 7.57662 21.9863 7.57697 21.9863 7.57696C21.9863 7.57695 21.9866 7.57649 21.9871 7.57566C21.9876 7.57483 21.9883 7.57358 21.9894 7.57197C21.9914 7.56878 21.9945 7.56394 21.9988 7.5579L22.6123 7.98926L23.2258 8.42061C23.2709 8.35656 23.3046 8.29269 23.3134 8.27672L22.6553 7.91699ZM22.6123 7.98926L21.998 7.55901C22.005 7.54894 22.011 7.54122 22.0148 7.53635C22.0168 7.53389 22.0183 7.53199 22.0193 7.53078C22.0198 7.53016 22.0202 7.52969 22.0205 7.52938C22.0208 7.52907 22.0209 7.5289 22.0209 7.52889C22.0209 7.52888 22.0208 7.52901 22.0205 7.5293C22.0203 7.5296 22.0199 7.53001 22.0194 7.53061C22.0181 7.53214 22.0172 7.53316 22.0149 7.53588C22.0112 7.54015 22.0043 7.54809 21.9967 7.55717L22.5723 8.03809L23.1478 8.519C23.147 8.51993 23.147 8.51986 23.1503 8.51614C23.1524 8.51371 23.1587 8.50639 23.1648 8.49918C23.1775 8.48427 23.2011 8.45589 23.2266 8.4195L22.6123 7.98926ZM22.5723 8.03809L21.9972 7.55668C21.9929 7.56179 21.9902 7.56499 21.988 7.56762C21.9869 7.56883 21.9862 7.5697 21.9857 7.5703C21.9851 7.57089 21.9849 7.57116 21.9849 7.57115C21.9849 7.57114 21.9852 7.57081 21.9857 7.57022C21.9863 7.56963 21.9871 7.56874 21.9882 7.5676C21.9904 7.56533 21.9937 7.56193 21.9981 7.55772L22.5166 8.09961L23.0351 8.6415C23.0892 8.58973 23.1316 8.53829 23.1474 8.51949L22.5723 8.03809ZM22.5166 8.09961L21.9985 7.55735L21.9993 7.55764L22.4297 8.17188L22.8601 8.78611C22.9306 8.73668 22.9885 8.68603 23.0347 8.64187L22.5166 8.09961ZM22.4297 8.17188L21.9983 7.55833L21.9984 7.55839L22.4082 8.18652L22.818 8.81466C22.8358 8.80303 22.851 8.79248 22.861 8.78542L22.4297 8.17188ZM22.4082 8.18652L22.6454 8.89804L22.6483 8.89706L22.4111 8.18555L22.174 7.47403L22.171 7.47501L22.4082 8.18652ZM22.4111 8.18555L21.9988 7.55905L21.9991 7.55857L22.2988 8.24609L22.5985 8.93362C22.6743 8.90058 22.7498 8.8605 22.8234 8.81205L22.4111 8.18555ZM22.2988 8.24609L22.5988 8.93351C22.6159 8.92604 22.6296 8.91931 22.6383 8.91493C22.6427 8.9127 22.6463 8.91081 22.6487 8.90956C22.651 8.90838 22.6529 8.90738 22.6531 8.90724C22.6539 8.90681 22.6528 8.90743 22.6516 8.90805C22.6502 8.90879 22.6475 8.91019 22.6441 8.91194C22.6374 8.91535 22.6256 8.92122 22.6106 8.92793L22.3047 8.24316L21.9988 7.5584C21.9827 7.56555 21.97 7.5719 21.9623 7.57581C21.9584 7.5778 21.9553 7.57946 21.9534 7.58046C21.9524 7.58097 21.9516 7.58139 21.9511 7.58164C21.9509 7.58177 21.9507 7.58187 21.9506 7.58194C21.9505 7.58197 21.9505 7.582 21.9504 7.58201C21.9504 7.58203 21.9504 7.58203 21.9504 7.58204C21.9502 7.58214 21.9516 7.58141 21.9534 7.58047C21.9553 7.57947 21.9584 7.57784 21.9623 7.57586C21.97 7.57197 21.9828 7.56571 21.9989 7.55868L22.2988 8.24609ZM22.3047 8.24316L21.999 7.5583L21.9992 7.55817L22.2744 8.25586L22.5496 8.95355C22.5691 8.94585 22.5894 8.9374 22.6104 8.92803L22.3047 8.24316ZM22.2744 8.25586L21.9988 7.55833C22.007 7.55508 22.0136 7.55278 22.018 7.55133C22.0222 7.5499 22.0248 7.54915 22.0248 7.54914C22.0249 7.54913 22.0244 7.54926 22.0234 7.54956C22.0223 7.54987 22.0208 7.55029 22.0186 7.55089C22.0162 7.55153 22.0139 7.55218 22.0104 7.55312C22.0073 7.55398 22.0032 7.5551 21.9989 7.55627L22.1982 8.2793L22.3976 9.00232C22.4018 9.00116 22.4776 8.98198 22.55 8.95339L22.2744 8.25586ZM21.834 8.28906L21.6682 9.02052C21.7331 9.03521 21.8111 9.04907 21.8991 9.05496L21.9492 8.30664L21.9993 7.55832L21.9997 7.55761L21.834 8.28906ZM21.9492 8.30664L22.0007 7.55841L22.0004 7.55775L21.834 8.28906L21.6676 9.02038C21.7353 9.03578 21.8127 9.04902 21.8977 9.05487L21.9492 8.30664ZM21.6953 8.24316L21.3896 8.92803C21.4496 8.95483 21.5126 8.97506 21.5167 8.97645L21.7588 8.2666L22.0009 7.55675C21.9974 7.55555 21.994 7.55441 21.9914 7.55352C21.9885 7.55256 21.9865 7.55187 21.9846 7.55122C21.9827 7.55059 21.9815 7.55015 21.9805 7.54983C21.9796 7.54952 21.9793 7.54938 21.9793 7.54938C21.9793 7.54939 21.9798 7.54958 21.9807 7.54992C21.9817 7.55027 21.9831 7.55081 21.9849 7.55152C21.9885 7.55294 21.9941 7.55519 22.001 7.5583L21.6953 8.24316ZM21.7588 8.2666L22.0004 7.55658C21.9971 7.55545 21.9938 7.55434 21.9913 7.5535C21.9886 7.55259 21.9867 7.55192 21.9848 7.5513C21.9831 7.5507 21.9819 7.55028 21.981 7.54998C21.9805 7.54983 21.9802 7.54972 21.98 7.54964C21.9798 7.54957 21.9797 7.54953 21.9797 7.54954C21.9797 7.54954 21.9798 7.54958 21.9801 7.54966C21.9803 7.54974 21.9806 7.54986 21.981 7.55002C21.9819 7.55034 21.9832 7.55083 21.9849 7.5515C21.9882 7.55281 21.9934 7.55489 21.9998 7.55776L21.6953 8.24316L21.3908 8.92857C21.4501 8.95492 21.5109 8.97447 21.5172 8.97662L21.7588 8.2666ZM22.2803 8.25391L22.5612 8.94929C22.5751 8.9437 22.5876 8.93837 22.5985 8.93362L22.2988 8.24609L21.9991 7.55857L21.9993 7.55852L22.2803 8.25391ZM22.2988 8.24609L21.9989 7.55868L21.9989 7.55867L22.2803 8.25391L22.5616 8.94914C22.5748 8.94381 22.5872 8.93856 22.5988 8.93351L22.2988 8.24609ZM22.3857 8.20312L22.0004 7.5597C22.0131 7.5521 22.0213 7.5482 22.0208 7.54846C22.0206 7.54854 22.0191 7.54924 22.0153 7.55098C22.011 7.55294 22.0068 7.5548 21.9988 7.5584L22.3047 8.24316L22.6106 8.92793C22.6281 8.92014 22.6991 8.88967 22.7711 8.84655L22.3857 8.20312ZM22.3047 8.24316L22.6104 8.92803C22.6852 8.89462 22.7543 8.85623 22.818 8.81466L22.4082 8.18652L21.9984 7.55839L21.999 7.5583L22.3047 8.24316ZM22.4082 8.18652L21.9992 7.55786C21.9751 7.57353 21.9564 7.58756 21.9454 7.59602C21.9398 7.60034 21.9352 7.60398 21.9325 7.60612C21.9311 7.60722 21.9299 7.60815 21.9293 7.60868C21.9282 7.60951 21.9285 7.60928 21.9282 7.60954C21.928 7.60972 21.9298 7.60824 21.9324 7.60618C21.9352 7.60403 21.9397 7.60055 21.9455 7.5963C21.9567 7.58796 21.9754 7.57465 22 7.55994L22.3857 8.20312L22.7715 8.84631C22.8 8.8292 22.8226 8.81324 22.8376 8.80213C22.8519 8.79154 22.8634 8.78233 22.8659 8.78029C22.8687 8.77806 22.8672 8.7793 22.8671 8.77934C22.8663 8.78003 22.8635 8.78222 22.8597 8.78513C22.8524 8.79075 22.8374 8.80205 22.8172 8.81519L22.4082 8.18652ZM21.5713 8.17383L21.1415 8.78847C21.1823 8.81697 21.2181 8.83707 21.2342 8.84598C21.2386 8.84842 21.2426 8.85057 21.2453 8.85204C21.2487 8.85391 21.2495 8.85433 21.2512 8.85527C21.2539 8.85676 21.2517 8.85558 21.2476 8.85323L21.625 8.20508L22.0024 7.55692C21.9893 7.54935 21.978 7.54313 21.9717 7.53963C21.9688 7.53808 21.965 7.53602 21.9639 7.5354C21.9621 7.53439 21.9615 7.53406 21.9613 7.53399C21.9609 7.53378 21.9651 7.53609 21.9715 7.53993C21.9781 7.54389 21.9885 7.55036 22.0011 7.55918L21.5713 8.17383ZM21.625 8.20508L22.0009 7.5561C21.9885 7.5489 21.9777 7.54295 21.9717 7.53965C21.9701 7.53878 21.9686 7.53796 21.9674 7.53731C21.9661 7.5366 21.9652 7.53614 21.9643 7.53565C21.9635 7.53519 21.9629 7.53489 21.9625 7.53466C21.9621 7.53443 21.9619 7.53434 21.9619 7.53434C21.962 7.53435 21.9622 7.53448 21.9626 7.53471C21.963 7.53495 21.9637 7.53531 21.9645 7.53578C21.9661 7.53671 21.9686 7.53818 21.9718 7.54011C21.9781 7.54392 21.988 7.55008 22 7.55844L21.5713 8.17383L21.1426 8.78922C21.1824 8.81693 21.2173 8.8366 21.2337 8.84571C21.2408 8.84961 21.2508 8.85507 21.2512 8.85533C21.2543 8.857 21.2525 8.85606 21.2491 8.85405L21.625 8.20508ZM22.4111 8.18555L22.8234 8.81205C22.8341 8.80505 22.8429 8.7989 22.8492 8.79444C22.8552 8.79011 22.8602 8.78647 22.8621 8.78505C22.8627 8.78466 22.8632 8.7843 22.8634 8.78409C22.8638 8.78383 22.8639 8.78376 22.864 8.78369C22.8642 8.78356 22.8636 8.78396 22.8628 8.78457C22.8612 8.78576 22.8569 8.78888 22.851 8.79289L22.4248 8.17578L21.9986 7.55867C21.9905 7.56428 21.9839 7.56903 21.98 7.57186C21.978 7.5733 21.9763 7.57453 21.9754 7.57523C21.9749 7.57557 21.9744 7.57591 21.9742 7.57607C21.9741 7.57617 21.974 7.57623 21.9739 7.57628C21.9739 7.57631 21.9739 7.57632 21.9739 7.57634C21.9739 7.57634 21.9739 7.57635 21.9739 7.57635C21.9739 7.57635 21.9739 7.57635 21.9739 7.57635C21.9739 7.57635 21.9739 7.57635 21.9739 7.57635C21.9739 7.57634 21.9739 7.57634 21.9739 7.57633C21.9739 7.57632 21.9739 7.5763 21.974 7.57628C21.974 7.57624 21.9741 7.57616 21.9742 7.57607C21.9745 7.57589 21.9749 7.5756 21.9754 7.57523C21.9764 7.5745 21.978 7.57334 21.98 7.5719C21.984 7.56906 21.9905 7.5645 21.9988 7.55905L22.4111 8.18555ZM22.4248 8.17578L21.9995 7.55801C21.9909 7.56393 21.984 7.56894 21.9799 7.57193C21.9778 7.57346 21.976 7.57475 21.975 7.57549C21.9745 7.57586 21.974 7.57621 21.9738 7.57638C21.9737 7.57648 21.9736 7.57655 21.9735 7.5766C21.9735 7.57663 21.9735 7.57665 21.9734 7.57666C21.9734 7.57666 21.9734 7.57667 21.9734 7.57667C21.9734 7.57668 21.9734 7.57668 21.9734 7.57668C21.9734 7.57668 21.9734 7.57668 21.9734 7.57667C21.9734 7.57667 21.9734 7.57666 21.9734 7.57666C21.9735 7.57665 21.9735 7.57663 21.9735 7.5766C21.9736 7.57655 21.9737 7.57648 21.9738 7.57638C21.9741 7.57619 21.9745 7.57588 21.975 7.57549C21.9761 7.57473 21.9778 7.57351 21.9799 7.57199C21.9841 7.569 21.991 7.56421 21.9997 7.5585L22.4111 8.18555L22.8226 8.8126C22.8337 8.80534 22.8428 8.79896 22.8493 8.79435C22.8556 8.78988 22.8607 8.78612 22.8626 8.78472C22.8631 8.78433 22.8636 8.78396 22.8639 8.78377C22.8642 8.78353 22.8643 8.78346 22.8644 8.78342C22.8645 8.78333 22.8638 8.78379 22.8629 8.78449C22.861 8.78584 22.8564 8.78922 22.8501 8.79355L22.4248 8.17578ZM21.4619 8.08008L20.9229 8.60159C20.9548 8.63453 20.9835 8.65924 20.9965 8.67027C21 8.67328 21.0032 8.67596 21.0053 8.67778C21.0081 8.68009 21.0087 8.68062 21.0101 8.68177C21.0122 8.68361 21.0104 8.68212 21.0072 8.67924L21.5049 8.11816L22.0026 7.55709C21.9921 7.54784 21.983 7.54012 21.9779 7.53578C21.9756 7.53384 21.9726 7.53129 21.9717 7.53052C21.9702 7.52926 21.9697 7.52885 21.9696 7.52876C21.9693 7.5285 21.9726 7.53135 21.9777 7.53597C21.9829 7.54072 21.9911 7.5484 22.0009 7.55857L21.4619 8.08008ZM21.5049 8.11816L22.0024 7.55695C21.9919 7.54764 21.9827 7.53988 21.9776 7.53556C21.9754 7.53367 21.9723 7.53105 21.9714 7.53035C21.9707 7.52976 21.9703 7.52936 21.9699 7.52907C21.9696 7.52878 21.9694 7.52867 21.9695 7.52868C21.9695 7.52869 21.9697 7.52887 21.97 7.52918C21.9704 7.52949 21.971 7.52997 21.9717 7.53058C21.973 7.5318 21.9752 7.5337 21.9779 7.53617C21.9832 7.54104 21.9915 7.54881 22.0014 7.55906L21.4619 8.08008L20.9224 8.6011C20.9545 8.63434 20.9835 8.65924 20.9967 8.67047C21.0002 8.67351 21.0035 8.67622 21.0056 8.67806C21.0085 8.68042 21.009 8.68088 21.0104 8.68207C21.0126 8.68392 21.0107 8.68235 21.0073 8.67938L21.5049 8.11816ZM22.5205 8.09668L23.0425 8.63522C23.075 8.60375 23.0994 8.57541 23.1105 8.56238C23.1135 8.55885 23.1162 8.55567 23.118 8.55346C23.1205 8.55059 23.1209 8.5501 23.1222 8.54858C23.1241 8.54627 23.1228 8.54787 23.1202 8.55085L22.5586 8.05371L21.997 7.55657C21.988 7.56675 21.9805 7.57564 21.9762 7.58065C21.9744 7.58279 21.9718 7.58596 21.9711 7.58674C21.9705 7.58744 21.9701 7.58791 21.9698 7.58827C21.9697 7.58844 21.9696 7.58856 21.9695 7.58864C21.9695 7.58869 21.9694 7.58872 21.9694 7.58874C21.9694 7.58876 21.9694 7.58877 21.9694 7.58877C21.9694 7.58877 21.9694 7.58876 21.9694 7.58874C21.9694 7.58872 21.9695 7.58868 21.9695 7.58864C21.9696 7.58856 21.9697 7.58843 21.9698 7.58826C21.9701 7.58793 21.9706 7.58742 21.9712 7.58675C21.9723 7.58545 21.9741 7.5834 21.9765 7.58081C21.9811 7.57571 21.9886 7.56773 21.9985 7.55814L22.5205 8.09668ZM22.5586 8.05371L21.9968 7.55683C21.9878 7.56703 21.9802 7.57594 21.9761 7.5809C21.9749 7.58221 21.9739 7.58344 21.9731 7.58441C21.9722 7.5855 21.9716 7.58616 21.971 7.58691C21.9704 7.58758 21.97 7.58804 21.9698 7.58837C21.9695 7.5887 21.9694 7.58883 21.9694 7.58881C21.9694 7.58881 21.9701 7.588 21.9712 7.58667C21.9724 7.58532 21.9743 7.58323 21.9767 7.5806C21.9814 7.57542 21.9889 7.56741 21.9989 7.55782L22.5205 8.09668L23.0422 8.63554C23.0748 8.60395 23.0993 8.57551 23.1106 8.56225C23.1153 8.55672 23.1224 8.54836 23.1224 8.54827C23.1244 8.54592 23.1231 8.54756 23.1204 8.55059L22.5586 8.05371ZM22.6143 7.9873L23.2294 8.41643C23.2574 8.37625 23.2772 8.34091 23.2862 8.32471C23.2899 8.318 23.2956 8.30755 23.2957 8.3075C23.2973 8.3046 23.2962 8.30654 23.2941 8.31021L22.6455 7.93359L21.9969 7.55697C21.9896 7.56965 21.9835 7.58067 21.9801 7.58688C21.9792 7.58852 21.9784 7.59005 21.9777 7.59128C21.9769 7.59266 21.9765 7.59346 21.976 7.59442C21.9755 7.59528 21.9752 7.59587 21.975 7.5963C21.9748 7.59651 21.9748 7.59667 21.9747 7.59677C21.9747 7.59683 21.9746 7.59686 21.9746 7.59689C21.9746 7.59692 21.9746 7.59693 21.9746 7.59693C21.9746 7.59693 21.9746 7.59687 21.9747 7.59677C21.9748 7.59666 21.9748 7.5965 21.975 7.59629C21.9752 7.59588 21.9756 7.59524 21.976 7.59441C21.977 7.59277 21.9785 7.59021 21.9804 7.58696C21.9843 7.58054 21.9906 7.57046 21.9992 7.55818L22.6143 7.9873ZM22.6455 7.93359L21.9961 7.55843C21.9891 7.57049 21.9833 7.58103 21.9801 7.58686C21.9793 7.58841 21.9785 7.58987 21.9779 7.59102C21.9772 7.59227 21.9767 7.59312 21.9762 7.59397C21.9758 7.59477 21.9755 7.59532 21.9753 7.59572C21.9751 7.59611 21.975 7.59628 21.975 7.59627C21.975 7.59626 21.9751 7.59603 21.9753 7.59562C21.9756 7.59521 21.9759 7.59459 21.9764 7.59379C21.9773 7.59221 21.9787 7.58976 21.9806 7.58665C21.9843 7.58051 21.9903 7.57095 21.9984 7.55931L22.6143 7.9873L23.2301 8.4153C23.2574 8.37614 23.2768 8.34175 23.2859 8.32525C23.29 8.31796 23.2952 8.30836 23.2957 8.30744C23.2975 8.30419 23.2967 8.30568 23.2949 8.30876L22.6455 7.93359ZM22.6836 7.86328L23.3688 8.16818C23.3953 8.10865 23.4148 8.04799 23.4172 8.04102L22.707 7.7998L21.9969 7.55859C21.9958 7.56185 21.9947 7.56514 21.9938 7.56755C21.993 7.57019 21.9923 7.57215 21.9917 7.57393C21.9911 7.57566 21.9907 7.57685 21.9904 7.57771C21.9901 7.57856 21.99 7.57891 21.99 7.57889C21.99 7.57887 21.9902 7.57837 21.9905 7.57749C21.9908 7.57661 21.9913 7.57527 21.992 7.57355C21.9933 7.57015 21.9955 7.56493 21.9984 7.55839L22.6836 7.86328ZM22.707 7.7998L21.9967 7.55916C21.9957 7.56212 21.9945 7.56549 21.9938 7.56764C21.993 7.57012 21.9923 7.572 21.9918 7.57367C21.9912 7.5753 21.9908 7.57644 21.9905 7.57726C21.9904 7.57766 21.9903 7.57795 21.9902 7.57814C21.9902 7.57834 21.9901 7.57843 21.9901 7.57842C21.9901 7.57842 21.9903 7.57797 21.9906 7.57717C21.9909 7.57637 21.9914 7.57515 21.992 7.57357C21.9932 7.57045 21.9951 7.56566 21.9978 7.55964L22.6836 7.86328L23.3694 8.16692C23.3954 8.10822 23.4142 8.04982 23.4174 8.04045L22.707 7.7998ZM22 1.80957V2.55957V2.55999L22.75 2.55957L23.5 2.55915C23.4995 1.73167 22.8287 1.05957 22 1.05957V1.80957ZM22.75 2.55957H22V7.55957H22.75H23.5V2.55957H22.75ZM22.75 7.55957L23.5 7.55915C23.5 7.48178 23.4925 7.41526 23.4875 7.37442L22.7432 7.4668L21.9989 7.55917C22 7.56848 22.0003 7.57201 22.0004 7.57252C22.0004 7.57277 22 7.56812 22 7.55999L22.75 7.55957ZM22.7432 7.4668L23.4874 7.37392C23.4839 7.3458 23.4796 7.32288 23.4781 7.31513C23.4777 7.31294 23.4773 7.31085 23.4772 7.30993C23.4769 7.30869 23.4769 7.30849 23.4769 7.3085C23.4769 7.30851 23.4775 7.31191 23.4784 7.31692L22.7383 7.43848L21.9982 7.56003C21.9998 7.56978 22.0013 7.57791 22.0022 7.58263C22.0026 7.585 22.003 7.58716 22.0032 7.58827C22.0034 7.58894 22.0034 7.58931 22.0035 7.58967C22.0035 7.58983 22.0035 7.58994 22.0036 7.59002C22.0036 7.5901 22.0036 7.59013 22.0036 7.59013C22.0036 7.59013 22.0036 7.59009 22.0036 7.59001C22.0035 7.58993 22.0035 7.58981 22.0035 7.58965C22.0034 7.58933 22.0033 7.58884 22.0032 7.58821C22.003 7.58698 22.0027 7.58501 22.0022 7.5825C22.0014 7.57758 22.0002 7.56966 21.9989 7.55967L22.7432 7.4668ZM22.7383 7.43848L23.4785 7.3176C23.4666 7.2446 23.4482 7.18073 23.4426 7.16037L22.7197 7.36035L21.9969 7.56033C21.9987 7.56701 21.9998 7.57094 22.0007 7.57439C22.0012 7.57595 22.0014 7.57704 22.0016 7.5778C22.0018 7.57855 22.0019 7.57886 22.0019 7.57881C22.0019 7.57876 22.0014 7.57691 22.0008 7.57371C22.0001 7.57048 21.9991 7.5656 21.9981 7.55935L22.7383 7.43848ZM22.7197 7.36035L23.4423 7.15949C23.4401 7.15162 23.4209 7.07662 23.3915 7.00315L22.6953 7.28223L21.9992 7.5613C21.996 7.55337 21.9937 7.54703 21.9923 7.54285C21.9909 7.53872 21.9902 7.53625 21.9902 7.53624C21.9902 7.53621 21.9903 7.53662 21.9906 7.53765C21.9909 7.53869 21.9913 7.54015 21.9919 7.54227C21.9925 7.54446 21.9932 7.54685 21.9941 7.55012C21.9949 7.5531 21.996 7.55715 21.9971 7.56121L22.7197 7.36035ZM22.6953 7.28223L23.3918 7.00393C23.3943 7.01025 23.396 7.01482 23.3963 7.01575C23.3965 7.01624 23.3966 7.01641 23.3963 7.01553C23.3961 7.01509 23.3953 7.01302 23.3947 7.0112C23.3923 7.00466 23.3837 6.98113 23.3714 6.95331L22.6855 7.25684L21.9997 7.56036C21.995 7.54982 21.9916 7.54129 21.9895 7.53599C21.9885 7.53329 21.9877 7.53115 21.9872 7.52981C21.9869 7.52913 21.9867 7.5286 21.9866 7.52826C21.9865 7.52809 21.9865 7.52796 21.9865 7.52788C21.9864 7.52783 21.9864 7.5278 21.9864 7.52778C21.9864 7.52776 21.9864 7.52775 21.9864 7.52775C21.9864 7.52775 21.9864 7.52776 21.9864 7.52778C21.9864 7.5278 21.9864 7.52783 21.9865 7.52787C21.9865 7.52796 21.9865 7.52808 21.9866 7.52826C21.9869 7.52902 21.9868 7.5287 21.9872 7.5298C21.9876 7.53106 21.9885 7.53336 21.9894 7.53598C21.9913 7.54116 21.9946 7.54998 21.9989 7.56053L22.6953 7.28223ZM22.6855 7.25684L23.3711 6.95266C23.3501 6.90529 23.3228 6.8492 23.2871 6.78962L22.6436 7.1748L22 7.55999C21.9964 7.55386 21.9964 7.55284 22 7.56102L22.6855 7.25684ZM22.6436 7.1748L23.1739 6.64447L23.1729 6.6435L22.6426 7.17383L22.1122 7.70416L22.1132 7.70513L22.6436 7.1748ZM22.6426 7.17383H23.3926V7.17285H22.6426H21.8926V7.17383H22.6426ZM22.6426 7.17285L23.1729 6.64252L23.1719 6.64154L22.6416 7.17188L22.1113 7.70221L22.1122 7.70318L22.6426 7.17285ZM22.6416 7.17188L23.2837 6.78428C23.2937 6.80088 23.3013 6.815 23.3064 6.82478C23.3116 6.83471 23.3156 6.84285 23.318 6.84788C23.3204 6.85292 23.3221 6.85684 23.3227 6.85814C23.3229 6.85854 23.3231 6.85885 23.3232 6.85904C23.3232 6.85914 23.3232 6.85922 23.3233 6.85927C23.3233 6.85929 23.3233 6.85931 23.3233 6.85933C23.3233 6.85934 23.3233 6.85935 23.3233 6.85935C23.3234 6.85949 23.3231 6.85884 23.3228 6.85825C23.3222 6.85695 23.3207 6.85372 23.3188 6.84968C23.3169 6.84556 23.3142 6.83985 23.3108 6.83311C23.3043 6.82011 23.2938 6.79994 23.2794 6.77621L22.6387 7.16602L21.9979 7.55582C21.9841 7.53312 21.9742 7.51402 21.9683 7.50209C21.9652 7.49589 21.9627 7.49072 21.961 7.48712C21.9594 7.48362 21.9581 7.48092 21.9578 7.48013C21.9576 7.47979 21.9574 7.4794 21.9576 7.4798C21.9577 7.47998 21.9581 7.48078 21.9585 7.48175C21.9593 7.48355 21.9614 7.48794 21.964 7.49343C21.9666 7.49892 21.9708 7.50749 21.9761 7.51783C21.9814 7.52802 21.9893 7.54252 21.9995 7.55947L22.6416 7.17188ZM22.6387 7.16602L23.2794 6.77617C23.2727 6.76524 23.2671 6.75651 23.2644 6.75238C23.2628 6.75004 23.2615 6.74806 23.2607 6.74682C23.26 6.74578 23.2591 6.74437 23.259 6.74421C23.2574 6.74185 23.2611 6.74738 23.2659 6.75501L22.6279 7.14941L21.99 7.54382C21.9989 7.55824 22.0067 7.56998 22.0089 7.57319C22.0091 7.57347 22.0095 7.5742 22.0096 7.57426C22.0097 7.57439 22.0097 7.57447 22.0098 7.57453C22.0098 7.57459 22.0098 7.57462 22.0098 7.57462C22.0098 7.57461 22.0098 7.57457 22.0097 7.5745C22.0097 7.57443 22.0096 7.57432 22.0095 7.57417C22.0093 7.57389 22.009 7.57344 22.0086 7.57285C22.0079 7.57172 22.0066 7.56969 22.0049 7.56704C22.0032 7.5644 22.0008 7.56057 21.998 7.55586L22.6387 7.16602ZM22.6279 7.14941L23.2658 6.75495C23.2545 6.73666 23.2404 6.71431 23.2248 6.68995L22.5928 7.09375L21.9608 7.49755C21.9751 7.51998 21.9846 7.53503 21.99 7.54388L22.6279 7.14941ZM22.5928 7.09375L23.2248 6.68994C23.1916 6.63804 23.144 6.56471 23.0818 6.47379L22.4629 6.89746L21.844 7.32113C21.8951 7.39576 21.9338 7.45533 21.9608 7.49756L22.5928 7.09375ZM22.4629 6.89746L23.0818 6.47378C22.9596 6.29533 22.7819 6.04752 22.5479 5.75454L21.9619 6.22266L21.3759 6.69077C21.5835 6.95064 21.7393 7.16821 21.844 7.32114L22.4629 6.89746ZM21.9619 6.22266L22.5479 5.75454C22.3411 5.49572 22.0903 5.20306 21.7972 4.89037L21.25 5.40332L20.7028 5.91627C20.9689 6.20008 21.1938 6.46284 21.3759 6.69077L21.9619 6.22266ZM21.25 5.40332H22V2.55957H21.25H20.5V5.40332H21.25ZM21.25 2.55957L22 2.55999V2.55957V1.80957V1.05957C21.1713 1.05957 20.5005 1.73167 20.5 2.55915L21.25 2.55957Z" fill="#7328CE"/>
</svg>
