<svg width="24" height="24" viewBox="0 0 24 24" fill="none" xmlns="http://www.w3.org/2000/svg">
<path fill-rule="evenodd" clip-rule="evenodd" d="M9 22.75C3.57 22.75 1.25 20.43 1.25 15V9C1.25 3.57 3.57 1.25 9 1.25H15C20.43 1.25 22.75 3.57 22.75 9V15C22.75 20.43 20.43 22.75 15 22.75H9ZM2.75 9V15C2.75 19.61 4.39 21.25 9 21.25H15C19.61 21.25 21.25 19.61 21.25 15V9C21.25 4.39 19.61 2.75 15 2.75H9C4.39 2.75 2.75 4.39 2.75 9Z" fill="#7328CE"/>
<path d="M17.5 11.25C17.9142 11.25 18.25 11.5858 18.25 12C18.25 15.4542 15.4542 18.25 12 18.25C10.2197 18.25 8.82473 17.3549 7.91113 16.5254C7.89367 16.5095 7.87752 16.4924 7.86035 16.4766V17.1904C7.86012 17.6043 7.52425 17.9402 7.11035 17.9404C6.69628 17.9404 6.36058 17.6044 6.36035 17.1904V14.4404C6.36035 14.4127 6.36133 14.3853 6.36426 14.3584C6.36534 14.3486 6.36767 14.3389 6.36914 14.3291C6.37159 14.3126 6.37443 14.2964 6.37793 14.2803C6.38706 14.2385 6.39967 14.1973 6.41602 14.1572C6.42038 14.1465 6.42583 14.1364 6.43066 14.126C6.43912 14.1077 6.44703 14.089 6.45703 14.0713C6.46462 14.0579 6.47312 14.0451 6.48145 14.0322C6.48529 14.0263 6.48916 14.0204 6.49316 14.0146C6.54398 13.941 6.60713 13.8785 6.67871 13.8281C6.68808 13.8215 6.69735 13.8148 6.70703 13.8086C6.73582 13.7903 6.76583 13.774 6.79688 13.7598C6.80916 13.7541 6.82135 13.7482 6.83398 13.7432C6.86963 13.7291 6.90664 13.7185 6.94434 13.71C6.96015 13.7064 6.97601 13.7028 6.99219 13.7002C6.99805 13.6993 7.00387 13.6981 7.00977 13.6973L7.0332 13.6943C7.05857 13.6917 7.0843 13.6904 7.11035 13.6904H9.58984C10.0041 13.6904 10.3398 14.0262 10.3398 14.4404C10.3396 14.8544 10.0039 15.1904 9.58984 15.1904H8.68457C8.75894 15.2645 8.83657 15.3402 8.91895 15.415C9.69036 16.1155 10.7405 16.75 12 16.75C14.6258 16.75 16.75 14.6258 16.75 12C16.75 11.5858 17.0858 11.25 17.5 11.25ZM12 5.75C14.0575 5.75 15.5965 6.611 16.6064 7.4541C16.6562 7.49566 16.7027 7.5396 16.75 7.58105V6.80957C16.7502 6.39555 17.0859 6.05957 17.5 6.05957C17.9141 6.05957 18.2498 6.39555 18.25 6.80957V9.55957C18.25 9.6214 18.2397 9.6808 18.2256 9.73828C18.2195 9.76318 18.2117 9.78735 18.2031 9.81152C18.1947 9.83496 18.1854 9.85759 18.1748 9.87988C18.1643 9.90218 18.1534 9.92406 18.1406 9.94531C18.1341 9.95618 18.1292 9.96802 18.1221 9.97852C18.1178 9.98483 18.1119 9.98992 18.1074 9.99609C18.093 10.0162 18.0761 10.034 18.0596 10.0527C18.0492 10.0645 18.0414 10.0787 18.0303 10.0898C18.0273 10.0928 18.0235 10.0948 18.0205 10.0977C17.9985 10.1189 17.9742 10.1375 17.9492 10.1562C17.9337 10.1679 17.9187 10.18 17.9023 10.1904C17.8961 10.1944 17.8911 10.2003 17.8848 10.2041C17.8576 10.2203 17.829 10.2327 17.8008 10.2451C17.7937 10.2482 17.7865 10.251 17.7793 10.2539C17.7511 10.2653 17.7222 10.2725 17.6934 10.2803C17.6673 10.2873 17.6414 10.2947 17.6143 10.2988C17.608 10.2998 17.602 10.3019 17.5957 10.3027C17.5895 10.3035 17.5834 10.305 17.5771 10.3057C17.5518 10.3083 17.526 10.3096 17.5 10.3096H15.0596C14.6456 10.3093 14.3096 9.97364 14.3096 9.55957C14.3098 9.1457 14.6457 8.8098 15.0596 8.80957H15.875C15.802 8.74255 15.7265 8.67312 15.6455 8.60547C14.8229 7.91871 13.6121 7.25 12 7.25C9.35599 7.25 7.25 9.37243 7.25 12C7.25 12.4142 6.91421 12.75 6.5 12.75C6.08579 12.75 5.75 12.4142 5.75 12C5.75 8.54757 8.52401 5.75 12 5.75Z" fill="#7328CE"/>
</svg>
