<svg width="24" height="24" viewBox="0 0 24 24" fill="none" xmlns="http://www.w3.org/2000/svg">
<path d="M19.6701 11.4694V8.14941C19.6701 6.90941 18.6601 5.89941 17.4201 5.89941H3.58008C3.17008 5.89941 2.83008 5.55941 2.83008 5.14941C2.83008 4.73941 3.17008 4.39941 3.58008 4.39941H17.4201C19.4901 4.39941 21.1701 6.07941 21.1701 8.14941V11.4694C21.1701 11.8894 20.8301 12.2194 20.4201 12.2194C20.0101 12.2194 19.6701 11.8794 19.6701 11.4694Z" fill="#7328CE"/>
<path d="M6.21008 8.85043L3.05008 5.69046C2.91008 5.55046 2.83008 5.36043 2.83008 5.16043C2.83008 4.96043 2.91008 4.77046 3.05008 4.63046L6.21008 1.47043C6.50008 1.18043 6.98008 1.18043 7.27008 1.47043C7.56008 1.76043 7.56008 2.24049 7.27008 2.53049L4.64011 5.16043L7.27008 7.79044C7.56008 8.08044 7.56008 8.56043 7.27008 8.85043C7.12008 8.99043 6.93008 9.07047 6.74008 9.07047C6.55008 9.07047 6.36008 9.00043 6.21008 8.85043Z" fill="#7328CE"/>
<path d="M6.58008 19.5905C4.51008 19.5905 2.83008 17.9105 2.83008 15.8405V12.5205C2.83008 12.1105 3.17008 11.7705 3.58008 11.7705C3.99008 11.7705 4.33008 12.1105 4.33008 12.5205V15.8405C4.33008 17.0805 5.34008 18.0905 6.58008 18.0905H20.4201C20.8301 18.0905 21.1701 18.4305 21.1701 18.8405C21.1701 19.2505 20.8301 19.5905 20.4201 19.5905H6.58008Z" fill="#7328CE"/>
<path d="M16.7292 22.5301C16.4392 22.2401 16.4392 21.7601 16.7292 21.4701L19.3592 18.8401L16.7292 16.2101C16.4392 15.9201 16.4392 15.4401 16.7292 15.1501C17.0192 14.8601 17.4992 14.8601 17.7892 15.1501L20.9492 18.3101C21.0892 18.4501 21.1692 18.6401 21.1692 18.8401C21.1692 19.0401 21.0892 19.2301 20.9492 19.3701L17.7892 22.5301C17.6492 22.6801 17.4592 22.7501 17.2592 22.7501C17.0692 22.7501 16.8792 22.6801 16.7292 22.5301Z" fill="#7328CE"/>
</svg>
