<svg width="24" height="24" viewBox="0 0 24 24" fill="none" xmlns="http://www.w3.org/2000/svg">
<path d="M3.38 16.9604C2.01 15.5804 1.25 13.7604 1.25 11.8304C1.25 7.82043 4.5 4.56041 8.5 4.56041L14.57 4.58043L13.48 3.54039C13.18 3.25039 13.17 2.78039 13.46 2.48039C13.75 2.18039 14.22 2.17044 14.52 2.46044L16.96 4.8004C17.18 5.0104 17.25 5.34041 17.14 5.62041C17.03 5.90041 16.75 6.09044 16.44 6.09044L8.49001 6.07042C5.32001 6.07042 2.74001 8.66044 2.74001 11.8404C2.74001 13.3704 3.33999 14.8204 4.42999 15.9104C4.71999 16.2004 4.71999 16.6804 4.42999 16.9704C4.28999 17.1104 4.1 17.1804 3.91 17.1804C3.72 17.1804 3.53 17.1104 3.38 16.9604Z" fill="#7328CE"/>
<path d="M9.4799 21.5399L7.0399 19.2C6.8199 18.99 6.7499 18.66 6.8599 18.38C6.9699 18.1 7.2499 17.9099 7.5599 17.9099L15.5099 17.93C18.6799 17.93 21.2599 15.3399 21.2599 12.1599C21.2599 10.6299 20.6599 9.18 19.5699 8.09C19.2799 7.8 19.2799 7.32 19.5699 7.03C19.8599 6.74 20.3399 6.74 20.6299 7.03C21.9999 8.41 22.7599 10.2299 22.7599 12.1599C22.7599 16.1699 19.5099 19.43 15.5099 19.43L9.4399 19.4099L10.5299 20.45C10.8299 20.74 10.8399 21.21 10.5499 21.51C10.3899 21.67 10.1999 21.75 9.9999 21.75C9.8099 21.75 9.6299 21.6799 9.4799 21.5399Z" fill="#7328CE"/>
<path d="M9 12.75C8.59 12.75 8.25 12.41 8.25 12C8.25 11.59 8.59 11.25 9 11.25H15C15.41 11.25 15.75 11.59 15.75 12C15.75 12.41 15.41 12.75 15 12.75H9Z" fill="#7328CE"/>
</svg>
