<svg width="24" height="24" viewBox="0 0 24 24" fill="none" xmlns="http://www.w3.org/2000/svg">
<path d="M15.75 11.7206V9.95062C15.75 9.48062 15.37 9.10059 14.9 9.10059H7.5C7.09 9.10059 6.75 8.76059 6.75 8.35059C6.75 7.94059 7.09 7.60059 7.5 7.60059H14.9C16.2 7.60059 17.25 8.66062 17.25 9.95062V11.7206C17.25 12.1306 16.91 12.4706 16.5 12.4706C16.09 12.4706 15.75 12.1306 15.75 11.7206Z" fill="#7328CE"/>
<path d="M8.65946 10.5598L6.96945 8.86984C6.67945 8.57984 6.67945 8.09985 6.96945 7.80985L8.65946 6.11984C8.94946 5.82984 9.42945 5.82984 9.71945 6.11984C10.0095 6.40984 10.0095 6.88984 9.71945 7.17984L8.55945 8.33988L9.71945 9.49985C10.0095 9.78985 10.0095 10.2698 9.71945 10.5598C9.56945 10.7098 9.37945 10.7799 9.18945 10.7799C8.99945 10.7799 8.80946 10.7098 8.65946 10.5598Z" fill="#7328CE"/>
<path d="M9.10001 16.41C7.80001 16.41 6.75 15.3501 6.75 14.0601V12.29C6.75 11.88 7.09 11.54 7.5 11.54C7.91 11.54 8.25 11.88 8.25 12.29V14.0601C8.25 14.5301 8.63001 14.91 9.10001 14.91H16.5C16.91 14.91 17.25 15.25 17.25 15.66C17.25 16.07 16.91 16.41 16.5 16.41H9.10001Z" fill="#7328CE"/>
<path d="M14.28 17.8694C13.99 17.5794 13.99 17.0994 14.28 16.8094L15.44 15.6494L14.28 14.4894C13.99 14.1994 13.99 13.7194 14.28 13.4294C14.57 13.1394 15.05 13.1394 15.34 13.4294L17.03 15.1194C17.32 15.4094 17.32 15.8894 17.03 16.1794L15.34 17.8694C15.2 18.0194 15 18.0894 14.81 18.0894C14.62 18.0894 14.43 18.0194 14.28 17.8694Z" fill="#7328CE"/>
<path fill-rule="evenodd" clip-rule="evenodd" d="M1.25 12C1.25 6.07 6.07 1.25 12 1.25C17.93 1.25 22.75 6.07 22.75 12C22.75 17.93 17.93 22.75 12 22.75C6.07 22.75 1.25 17.93 1.25 12ZM2.75 12C2.75 17.1 6.9 21.25 12 21.25C17.1 21.25 21.25 17.1 21.25 12C21.25 6.9 17.1 2.75 12 2.75C6.9 2.75 2.75 6.9 2.75 12Z" fill="#7328CE"/>
</svg>
