<svg width="24" height="24" viewBox="0 0 24 24" fill="none" xmlns="http://www.w3.org/2000/svg">
<path d="M20.25 12V3.75H12C11.59 3.75 11.25 3.41 11.25 3C11.25 2.59 11.59 2.25 12 2.25H21C21.41 2.25 21.75 2.59 21.75 3V12C21.75 12.41 21.41 12.75 21 12.75C20.59 12.75 20.25 12.41 20.25 12Z" fill="#7328CE"/>
<path d="M2.46945 21.5305C2.17945 21.2405 2.17945 20.7604 2.46945 20.4704L20.4695 2.47043C20.7595 2.18043 21.2395 2.18043 21.5295 2.47043C21.8195 2.76043 21.8195 3.24049 21.5295 3.53049L3.52951 21.5305C3.37951 21.6805 3.18948 21.7505 2.99948 21.7505C2.80948 21.7505 2.61945 21.6805 2.46945 21.5305Z" fill="#7328CE"/>
<path d="M16.8691 17.93L6.06906 7.13004C5.77906 6.84004 5.77906 6.36004 6.06906 6.07004C6.35906 5.78004 6.83906 5.78004 7.12906 6.07004L17.929 16.87C18.219 17.16 18.219 17.64 17.929 17.93C17.779 18.08 17.5891 18.1501 17.3991 18.1501C17.2091 18.1501 17.019 18.08 16.8691 17.93Z" fill="#7328CE"/>
</svg>
