<svg width="24" height="24" viewBox="0 0 24 24" fill="none" xmlns="http://www.w3.org/2000/svg">
<path fill-rule="evenodd" clip-rule="evenodd" d="M13.3202 22.3706L9.39023 20.1806C9.20023 20.0806 8.79024 20.0806 8.60023 20.1806L4.67023 22.3706C3.82023 22.8406 2.96023 22.8806 2.29023 22.4906C1.63023 22.1006 1.24023 21.3206 1.24023 20.3606V9.00061C1.24023 6.87061 2.97023 5.14062 5.10023 5.14062H12.8802C15.0102 5.14062 16.7402 6.87061 16.7402 9.00061V20.3606C16.7402 21.3206 16.3602 22.1006 15.6902 22.4906C15.4002 22.6606 15.0602 22.7506 14.6902 22.7506C14.2502 22.7506 13.7902 22.6206 13.3202 22.3706ZM10.1202 18.8706L14.0602 21.0606C14.4202 21.2606 14.7502 21.3106 14.9502 21.1906C15.1402 21.0806 15.2602 20.7606 15.2602 20.3506V8.9906C15.2602 7.6906 14.2002 6.63062 12.9002 6.63062H5.11023C3.81023 6.63062 2.75023 7.6906 2.75023 8.9906V20.3506C2.75023 20.7606 2.87023 21.0806 3.06023 21.1906C3.25023 21.3006 3.59023 21.2506 3.95023 21.0506L7.88023 18.8606C8.20023 18.6906 8.60023 18.6006 9.00023 18.6006C9.40023 18.6006 9.79023 18.6906 10.1202 18.8706Z" fill="#7328CE"/>
<path d="M7.0593 13.9395C6.7693 13.6495 6.7693 13.1695 7.0593 12.8795L9.8893 10.0495C10.1793 9.75953 10.6593 9.75953 10.9493 10.0495C11.2393 10.3395 11.2393 10.8195 10.9493 11.1095L8.1193 13.9395C7.9693 14.0895 7.7793 14.1595 7.5893 14.1595C7.3993 14.1595 7.2093 14.0895 7.0593 13.9395Z" fill="#7328CE"/>
<path d="M9.87953 13.9395L7.04953 11.1095C6.75953 10.8195 6.75953 10.3395 7.04953 10.0495C7.33953 9.75953 7.81953 9.75953 8.10953 10.0495L10.9395 12.8795C11.2295 13.1695 11.2295 13.6495 10.9395 13.9395C10.7995 14.0895 10.6095 14.1595 10.4095 14.1595C10.2195 14.1595 10.0295 14.0895 9.87953 13.9395Z" fill="#7328CE"/>
<path fill-rule="evenodd" clip-rule="evenodd" d="M19.32 18.4897L15.63 16.4297C15.39 16.2997 15.25 16.0498 15.25 15.7798V8.99976C15.25 7.69976 14.19 6.63977 12.89 6.63977H8C7.59 6.63977 7.25 6.29977 7.25 5.88977V5.11975C7.25 2.98975 8.98 1.25977 11.11 1.25977H18.89C21.02 1.25977 22.75 2.98975 22.75 5.11975V16.4798C22.75 17.4398 22.37 18.2197 21.7 18.6097C21.4 18.7797 21.06 18.8698 20.69 18.8698C20.25 18.8698 19.79 18.7397 19.32 18.4897ZM20.06 17.1797C20.42 17.3797 20.75 17.4298 20.95 17.3098C21.14 17.1998 21.26 16.8798 21.26 16.4698V5.10974C21.26 3.80974 20.2 2.74976 18.9 2.74976H11.12C9.82 2.74976 8.76 3.80974 8.76 5.10974V5.12976H12.9C15.03 5.12976 16.76 6.85975 16.76 8.98975V15.3297H16.75L20.06 17.1797Z" fill="#7328CE"/>
</svg>
