<svg width="24" height="24" viewBox="0 0 24 24" fill="none" xmlns="http://www.w3.org/2000/svg">
<path fill-rule="evenodd" clip-rule="evenodd" d="M9 22.75C3.57 22.75 1.25 20.43 1.25 15V9C1.25 3.57 3.57 1.25 9 1.25H15C20.43 1.25 22.75 3.57 22.75 9V15C22.75 20.43 20.43 22.75 15 22.75H9ZM2.75 9V15C2.75 19.61 4.39 21.25 9 21.25H15C19.61 21.25 21.25 19.61 21.25 15V9C21.25 4.39 19.61 2.75 15 2.75H9C4.39 2.75 2.75 4.39 2.75 9Z" fill="#7328CE"/>
<path fill-rule="evenodd" clip-rule="evenodd" d="M5.75 8.9798C5.75 7.5098 6.94998 6.2998 8.41998 6.2998C9.88998 6.2998 11.09 7.4998 11.09 8.9798C11.09 10.4598 9.89998 11.6498 8.41998 11.6498C6.94998 11.6498 5.75 10.4498 5.75 8.9798ZM7.25 8.9798C7.25 9.6298 7.77998 10.1498 8.41998 10.1498C9.05998 10.1498 9.59003 9.6198 9.59003 8.9798C9.59003 8.3398 9.06998 7.7998 8.41998 7.7998C7.76998 7.7998 7.25 8.3298 7.25 8.9798Z" fill="#7328CE"/>
<path fill-rule="evenodd" clip-rule="evenodd" d="M5.75 15.0196C5.75 13.5396 6.94998 12.3496 8.41998 12.3496C9.88998 12.3496 11.09 13.5496 11.09 15.0196C11.09 16.4896 9.89998 17.6996 8.41998 17.6996C6.94998 17.6996 5.75 16.4996 5.75 15.0196ZM7.25 15.0196C7.25 15.6596 7.77998 16.1996 8.41998 16.1996C9.05998 16.1996 9.59003 15.6696 9.59003 15.0196C9.59003 14.3696 9.06998 13.8496 8.41998 13.8496C7.76998 13.8496 7.25 14.3796 7.25 15.0196Z" fill="#7328CE"/>
<path d="M9.56042 14.6395C9.31042 14.3095 9.38044 13.8395 9.71044 13.5895L17.0504 8.09949C17.3804 7.84949 17.8504 7.91949 18.1004 8.24949C18.3504 8.57949 18.2804 9.04949 17.9504 9.29949L10.6104 14.7895C10.4704 14.8895 10.3204 14.9395 10.1604 14.9395C9.9304 14.9395 9.71042 14.8395 9.56042 14.6395Z" fill="#7328CE"/>
<path d="M17.0504 15.8793L9.71044 10.3893C9.38044 10.1393 9.31042 9.66933 9.56042 9.33933C9.81042 9.00933 10.2804 8.93934 10.6104 9.18934L17.9504 14.6793C18.2804 14.9293 18.3504 15.3993 18.1004 15.7293C17.9504 15.9293 17.7304 16.0293 17.5004 16.0293C17.3404 16.0293 17.1904 15.9793 17.0504 15.8793Z" fill="#7328CE"/>
</svg>
