<svg width="24" height="24" viewBox="0 0 24 24" fill="none" xmlns="http://www.w3.org/2000/svg">
<path fill-rule="evenodd" clip-rule="evenodd" d="M9 22.75C3.57 22.75 1.25 20.43 1.25 15V9C1.25 3.57 3.57 1.25 9 1.25H15C20.43 1.25 22.75 3.57 22.75 9V15C22.75 20.43 20.43 22.75 15 22.75H9ZM2.75 9V15C2.75 19.61 4.39 21.25 9 21.25H15C19.61 21.25 21.25 19.61 21.25 15V9C21.25 4.39 19.61 2.75 15 2.75H9C4.39 2.75 2.75 4.39 2.75 9Z" fill="#7328CE"/>
<path fill-rule="evenodd" clip-rule="evenodd" d="M12.6 19.25C10.68 19.25 9.75 18.32 9.75 16.4V14.6C9.75 12.68 10.68 11.75 12.6 11.75H16.4C18.32 11.75 19.25 12.68 19.25 14.6V16.4C19.25 18.32 18.32 19.25 16.4 19.25H12.6ZM11.25 14.6V16.4C11.25 17.48 11.52 17.75 12.6 17.75H16.4C17.48 17.75 17.75 17.48 17.75 16.4V14.6C17.75 13.52 17.48 13.25 16.4 13.25H12.6C11.52 13.25 11.25 13.52 11.25 14.6Z" fill="#7328CE"/>
</svg>
