<svg width="24" height="24" viewBox="0 0 24 24" fill="none" xmlns="http://www.w3.org/2000/svg">
<path d="M1.25 11C1.25 5.62 5.62 1.25 11 1.25C11.41 1.25 11.75 1.59 11.75 2C11.75 2.41 11.41 2.75 11 2.75C6.45 2.75 2.75 6.45 2.75 11C2.75 15.55 6.45 19.25 11 19.25C15.55 19.25 19.25 15.55 19.25 11C19.25 10.59 19.59 10.25 20 10.25C20.41 10.25 20.75 10.59 20.75 11C20.75 16.38 16.38 20.75 11 20.75C5.62 20.75 1.25 16.38 1.25 11Z" fill="#7328CE"/>
<path fill-rule="evenodd" clip-rule="evenodd" d="M12.7799 6.36018C12.3299 4.95018 12.8499 3.10018 14.4799 2.57018C15.1799 2.34018 15.9099 2.45018 16.4899 2.82018C17.0599 2.45018 17.8099 2.35018 18.5099 2.57018C20.1399 3.10018 20.6699 4.95018 20.2099 6.36018C19.5599 8.46018 17.3099 9.54018 16.4999 9.54018C15.5799 9.54018 13.4399 8.42018 12.7799 6.36018ZM16.5099 8.05018C16.8299 8.02018 18.3599 7.28018 18.7799 5.92018C19.0099 5.19018 18.7799 4.25018 18.0499 4.01018C17.7399 3.91018 17.3199 3.97018 17.1199 4.26018C16.9799 4.47018 16.7599 4.59018 16.5099 4.60018C16.2799 4.61018 16.0299 4.49018 15.8899 4.29018C15.6599 3.96018 15.2399 3.91018 14.9399 4.00018C14.2199 4.24018 13.9799 5.18018 14.2099 5.91018C14.6699 7.36018 16.2299 8.02018 16.5099 8.05018Z" fill="#7328CE"/>
<path fill-rule="evenodd" clip-rule="evenodd" d="M19.9311 22.77C19.4611 22.71 18.6111 22.39 18.1311 20.96C17.8811 20.21 17.9711 19.46 18.3811 18.89C18.7911 18.32 19.4811 18 20.2711 18C21.2911 18 22.0911 18.39 22.4511 19.08C22.8111 19.77 22.7111 20.65 22.1411 21.5C21.4311 22.57 20.6611 22.79 20.1611 22.79C20.0811 22.79 20.0011 22.78 19.9311 22.77ZM20.1311 21.29C20.2911 21.31 20.5911 21.12 20.9011 20.67C21.1911 20.24 21.2111 19.93 21.1411 19.79C21.0711 19.65 20.7911 19.5 20.2711 19.5C19.9611 19.5 19.7311 19.6 19.6011 19.77C19.4811 19.94 19.4611 20.2 19.5611 20.49C19.7311 21.01 19.9711 21.27 20.1311 21.29Z" fill="#7328CE"/>
</svg>
