<svg width="24" height="24" viewBox="0 0 24 24" fill="none" xmlns="http://www.w3.org/2000/svg">
<path d="M9 12.4502C8.59 12.4502 8.25 12.1102 8.25 11.7002C8.25 11.2902 8.59 10.9502 9 10.9502H14C14.41 10.9502 14.75 11.2902 14.75 11.7002C14.75 12.1102 14.41 12.4502 14 12.4502H9Z" fill="#7328CE"/>
<path fill-rule="evenodd" clip-rule="evenodd" d="M1.25 11.5C1.25 5.85 5.85 1.25 11.5 1.25C17.15 1.25 21.75 5.85 21.75 11.5C21.75 17.15 17.15 21.75 11.5 21.75C5.85 21.75 1.25 17.15 1.25 11.5ZM2.75 11.5C2.75 16.32 6.67 20.25 11.5 20.25C16.33 20.25 20.25 16.32 20.25 11.5C20.25 6.68 16.33 2.75 11.5 2.75C6.67 2.75 2.75 6.68 2.75 11.5Z" fill="#7328CE"/>
<path d="M21.4695 22.5304L19.4695 20.5304C19.1795 20.2404 19.1795 19.7604 19.4695 19.4704C19.7595 19.1804 20.2395 19.1804 20.5295 19.4704L22.5295 21.4704C22.8195 21.7604 22.8195 22.2404 22.5295 22.5304C22.3795 22.6804 22.1895 22.7504 21.9995 22.7504C21.8095 22.7504 21.6195 22.6804 21.4695 22.5304Z" fill="#7328CE"/>
</svg>
