<svg width="24" height="24" viewBox="0 0 24 24" fill="none" xmlns="http://www.w3.org/2000/svg">
<path d="M9.20117 12.4502C8.79117 12.4502 8.45117 12.1102 8.45117 11.7002C8.45117 11.2902 8.79117 10.9502 9.20117 10.9502H14.2012C14.6112 10.9502 14.9512 11.2902 14.9512 11.7002C14.9512 12.1102 14.6112 12.4502 14.2012 12.4502H9.20117Z" fill="#7328CE"/>
<path d="M10.9512 14.2002V9.2002C10.9512 8.7902 11.2912 8.4502 11.7012 8.4502C12.1112 8.4502 12.4512 8.7902 12.4512 9.2002V14.2002C12.4512 14.6102 12.1112 14.9502 11.7012 14.9502C11.2912 14.9502 10.9512 14.6102 10.9512 14.2002Z" fill="#7328CE"/>
<path fill-rule="evenodd" clip-rule="evenodd" d="M1.25 11.5C1.25 5.85 5.85 1.25 11.5 1.25C17.15 1.25 21.75 5.85 21.75 11.5C21.75 17.15 17.15 21.75 11.5 21.75C5.85 21.75 1.25 17.15 1.25 11.5ZM2.75 11.5C2.75 16.32 6.67 20.25 11.5 20.25C16.33 20.25 20.25 16.32 20.25 11.5C20.25 6.68 16.33 2.75 11.5 2.75C6.67 2.75 2.75 6.68 2.75 11.5Z" fill="#7328CE"/>
<path d="M21.4695 22.5295L19.4695 20.5295C19.1795 20.2395 19.1795 19.7595 19.4695 19.4695C19.7595 19.1795 20.2395 19.1795 20.5295 19.4695L22.5295 21.4695C22.8195 21.7595 22.8195 22.2395 22.5295 22.5295C22.3795 22.6795 22.1895 22.7495 21.9995 22.7495C21.8095 22.7495 21.6195 22.6795 21.4695 22.5295Z" fill="#7328CE"/>
</svg>
