<svg width="24" height="24" viewBox="0 0 24 24" fill="none" xmlns="http://www.w3.org/2000/svg">
<path fill-rule="evenodd" clip-rule="evenodd" d="M8.98039 21.8104L4.68039 18.6004C3.54039 17.7504 2.65039 15.9704 2.65039 14.5604V7.12043C2.65039 5.58043 3.78039 3.94043 5.23039 3.40043L10.2204 1.53043C11.2104 1.16043 12.7704 1.16043 13.7604 1.53043L18.7504 3.40043C20.2004 3.94043 21.3304 5.58043 21.3304 7.12043V14.5504C21.3304 15.9704 20.4404 17.7404 19.3004 18.5904L15.0004 21.8004C14.1704 22.4404 13.0904 22.7604 12.0004 22.7604C10.9104 22.7604 9.83039 22.4404 8.98039 21.8104ZM5.76039 4.81043C4.91039 5.13043 4.16039 6.21043 4.16039 7.13043V14.5604C4.16039 15.5104 4.83039 16.8404 5.58039 17.4004L9.88039 20.6104C11.0304 21.4704 12.9704 21.4704 14.1304 20.6104L18.4304 17.4004C19.1904 16.8304 19.8504 15.5104 19.8504 14.5604V7.12043C19.8504 6.21043 19.1004 5.13043 18.2504 4.80043L13.2604 2.93043C12.5804 2.69043 11.4204 2.69043 10.7504 2.94043L5.76039 4.81043Z" fill="#7328CE"/>
<path d="M13.6198 13.9699L9.36984 9.71988C9.07984 9.42988 9.07984 8.94988 9.36984 8.65988C9.65984 8.36988 10.1398 8.36988 10.4298 8.65988L14.6798 12.9099C14.9698 13.1999 14.9698 13.6799 14.6798 13.9699C14.5298 14.1099 14.3398 14.1899 14.1498 14.1899C13.9598 14.1899 13.7698 14.1199 13.6198 13.9699Z" fill="#7328CE"/>
<path d="M9.31906 14.0099C9.02906 13.7199 9.02906 13.2399 9.31906 12.9499L13.5691 8.69992C13.8591 8.40992 14.3391 8.40992 14.6291 8.69992C14.9191 8.98992 14.9191 9.46992 14.6291 9.75992L10.3791 14.0099C10.2391 14.1599 10.0391 14.2299 9.84906 14.2299C9.65906 14.2299 9.46906 14.1599 9.31906 14.0099Z" fill="#7328CE"/>
</svg>
