<svg width="24" height="24" viewBox="0 0 24 24" fill="none" xmlns="http://www.w3.org/2000/svg">
<path fill-rule="evenodd" clip-rule="evenodd" d="M8.9707 22.75C3.5407 22.75 1.2207 20.43 1.2207 15V9C1.2207 3.57 3.5407 1.25 8.9707 1.25H14.9707C20.4007 1.25 22.7207 3.57 22.7207 9V15C22.7207 20.43 20.4107 22.75 14.9707 22.75H8.9707ZM2.7207 9V15C2.7207 19.61 4.3607 21.25 8.9707 21.25H14.9707C19.5807 21.25 21.2207 19.61 21.2207 15V9C21.2207 4.39 19.5807 2.75 14.9707 2.75H8.9707C4.3607 2.75 2.7207 4.39 2.7207 9Z" fill="#7328CE"/>
<path d="M2 16.25C1.59 16.25 1.25 15.91 1.25 15.5C1.25 15.09 1.59 14.75 2 14.75H22C22.41 14.75 22.75 15.09 22.75 15.5C22.75 15.91 22.41 16.25 22 16.25H2Z" fill="#7328CE"/>
<path d="M11.4709 11.5904L8.91086 9.03043C8.62086 8.74043 8.62086 8.26043 8.91086 7.97043C9.20086 7.68043 9.68086 7.68043 9.97086 7.97043L12.0009 10.0004L14.0309 7.97043C14.3209 7.68043 14.8009 7.68043 15.0909 7.97043C15.3809 8.26043 15.3809 8.74043 15.0909 9.03043L12.5309 11.5904C12.3809 11.7404 12.1909 11.8104 12.0009 11.8104C11.8109 11.8104 11.6209 11.7404 11.4709 11.5904Z" fill="#7328CE"/>
</svg>
