<svg width="24" height="24" viewBox="0 0 24 24" fill="none" xmlns="http://www.w3.org/2000/svg">
<mask id="mask0_251_28845" style="mask-type:luminance" maskUnits="userSpaceOnUse" x="0" y="0" width="24" height="24">
<rect width="24" height="24" fill="white"/>
</mask>
<g mask="url(#mask0_251_28845)">
<path fill-rule="evenodd" clip-rule="evenodd" d="M11.9297 8.75977V4.11975C11.9297 2.67975 13.0997 1.50977 14.5397 1.50977C15.9797 1.50977 17.1497 2.67975 17.1497 4.11975V8.75977C17.1497 10.1998 15.9797 11.3698 14.5397 11.3698C13.0997 11.3698 11.9297 10.1998 11.9297 8.75977ZM13.4297 4.11975V8.75977C13.4297 9.36977 13.9297 9.86975 14.5397 9.86975C15.1497 9.86975 15.6497 9.36977 15.6497 8.75977V4.11975C15.6497 3.50975 15.1497 3.00977 14.5397 3.00977C13.9297 3.00977 13.4297 3.50975 13.4297 4.11975Z" fill="#7328CE"/>
<path fill-rule="evenodd" clip-rule="evenodd" d="M18.6113 11.3705C18.2013 11.3705 17.8613 11.0305 17.8613 10.6205V9.05045C17.8613 7.77045 18.9013 6.73047 20.1813 6.73047C21.4613 6.73047 22.5013 7.77045 22.5013 9.05045C22.5013 10.3304 21.4613 11.3705 20.1813 11.3705H18.6113ZM20.1913 9.87045C20.6413 9.87045 21.0113 9.50045 21.0113 9.05045C21.0113 8.60045 20.6413 8.23047 20.1913 8.23047C19.7413 8.23047 19.3713 8.60045 19.3713 9.05045V9.87045H20.1913Z" fill="#7328CE"/>
<path fill-rule="evenodd" clip-rule="evenodd" d="M3.86 11.8294C2.42 11.8294 1.25 10.6594 1.25 9.21939C1.25 7.77939 2.42 6.60938 3.86 6.60938H8.5C9.94 6.60938 11.11 7.77939 11.11 9.21939C11.11 10.6594 9.94 11.8294 8.5 11.8294H3.86ZM2.75 9.2294C2.75 9.8394 3.25 10.3394 3.86 10.3394H8.5C9.11 10.3394 9.61 9.8394 9.61 9.2294C9.61 8.6194 9.11 8.11938 8.5 8.11938H3.86C3.25 8.11938 2.75 8.6194 2.75 9.2294Z" fill="#7328CE"/>
<path fill-rule="evenodd" clip-rule="evenodd" d="M8.7907 5.88025C7.5107 5.88025 6.4707 4.84024 6.4707 3.56024C6.4707 2.28024 7.5107 1.24023 8.7907 1.24023C10.0707 1.24023 11.1107 2.28024 11.1107 3.56024V5.13025C11.1107 5.55025 10.7707 5.88025 10.3607 5.88025H8.7907ZM7.9707 3.57025C7.9707 4.02025 8.3407 4.39026 8.7907 4.39026H9.6107V3.57025C9.6107 3.12025 9.2407 2.75024 8.7907 2.75024C8.3407 2.75024 7.9707 3.12025 7.9707 3.57025Z" fill="#7328CE"/>
<path fill-rule="evenodd" clip-rule="evenodd" d="M6.82031 19.9102V15.2701C6.82031 13.8301 7.9903 12.6602 9.4303 12.6602C10.8703 12.6602 12.0403 13.8301 12.0403 15.2701V19.9102C12.0403 21.3502 10.8703 22.5201 9.4303 22.5201C7.9903 22.5201 6.82031 21.3502 6.82031 19.9102ZM8.32031 15.2701V19.9102C8.32031 20.5202 8.8203 21.0201 9.4303 21.0201C10.0403 21.0201 10.5403 20.5202 10.5403 19.9102V15.2701C10.5403 14.6501 10.0403 14.1602 9.4303 14.1602C8.8203 14.1602 8.32031 14.6601 8.32031 15.2701Z" fill="#7328CE"/>
<path fill-rule="evenodd" clip-rule="evenodd" d="M1.4707 14.9704C1.4707 13.6904 2.5107 12.6504 3.7907 12.6504H5.3607C5.7707 12.6504 6.1107 12.9904 6.1107 13.4004V14.9704C6.1107 16.2504 5.0707 17.2904 3.7907 17.2904C2.5107 17.2904 1.4707 16.2504 1.4707 14.9704ZM2.9707 14.9804C2.9707 15.4304 3.3407 15.8004 3.7907 15.8004C4.2407 15.8004 4.6107 15.4304 4.6107 14.9804V14.1604H3.7907C3.3407 14.1604 2.9707 14.5304 2.9707 14.9804Z" fill="#7328CE"/>
<path fill-rule="evenodd" clip-rule="evenodd" d="M15.4713 17.4095C14.0313 17.4095 12.8613 16.2394 12.8613 14.7994C12.8613 13.3594 14.0313 12.1895 15.4713 12.1895H20.1113C21.5513 12.1895 22.7213 13.3594 22.7213 14.7994C22.7213 16.2394 21.5513 17.4095 20.1113 17.4095H15.4713ZM14.3613 14.7994C14.3613 15.4094 14.8613 15.9095 15.4713 15.9095H20.1113C20.7213 15.9095 21.2213 15.4094 21.2213 14.7994C21.2213 14.1894 20.7213 13.6895 20.1113 13.6895H15.4713C14.8613 13.6895 14.3613 14.1894 14.3613 14.7994Z" fill="#7328CE"/>
<path fill-rule="evenodd" clip-rule="evenodd" d="M12.8613 20.4099V18.8398C12.8613 18.4298 13.2013 18.0898 13.6113 18.0898H15.1813C16.4613 18.0898 17.5013 19.1299 17.5013 20.4099C17.5013 21.6899 16.4513 22.7299 15.1813 22.7299C13.9013 22.7299 12.8613 21.6899 12.8613 20.4099ZM14.3613 20.4099C14.3613 20.8599 14.7313 21.2299 15.1813 21.2299C15.6313 21.2299 16.0013 20.8599 16.0013 20.4099C16.0013 19.9599 15.6313 19.5898 15.1813 19.5898H14.3613V20.4099Z" fill="#7328CE"/>
</g>
</svg>
