<svg width="24" height="24" viewBox="0 0 24 24" fill="none" xmlns="http://www.w3.org/2000/svg">
<path fill-rule="evenodd" clip-rule="evenodd" d="M6.2 14.75C2.78 14.75 1.25 13.22 1.25 9.80005V6.19995C1.25 2.77995 2.78 1.25 6.2 1.25H9.8C13.22 1.25 14.75 2.77995 14.75 6.19995V10C14.75 10.41 14.42 10.74 14.01 10.75C11.61 10.79 10.79 11.62 10.75 14.01C10.74 14.42 10.41 14.75 10 14.75H6.2ZM2.75 6.19995V9.80005C2.75 12.38 3.62 13.25 6.2 13.25H9.29C9.53 10.81 10.81 9.54004 13.25 9.29004V6.19995C13.25 3.61995 12.38 2.75 9.8 2.75H6.2C3.62 2.75 2.75 3.61995 2.75 6.19995Z" fill="#7328CE"/>
<path d="M4.58952 6.30971C4.34952 5.96971 4.42952 5.49966 4.76952 5.25966C5.54952 4.70966 6.59951 4.69964 7.38951 5.23964C7.72951 5.46964 7.81952 5.93968 7.58952 6.27968C7.35952 6.61968 6.88951 6.70963 6.54951 6.47963C6.27951 6.29963 5.91952 6.29964 5.64952 6.48964C5.49952 6.58964 5.34952 6.62965 5.19952 6.62965C4.96952 6.62965 4.72952 6.51971 4.58952 6.30971Z" fill="#7328CE"/>
<path d="M8.58952 6.30971C8.34952 5.96971 8.42952 5.49966 8.76952 5.25966C9.54952 4.70966 10.5995 4.69964 11.3895 5.23964C11.7295 5.46964 11.8195 5.93968 11.5895 6.27968C11.3595 6.61968 10.8895 6.70963 10.5495 6.47963C10.2795 6.29963 9.91952 6.29964 9.64952 6.48964C9.49952 6.58964 9.34952 6.62965 9.19952 6.62965C8.96952 6.62965 8.72952 6.51971 8.58952 6.30971Z" fill="#7328CE"/>
<path d="M5.84078 12.1707C5.13078 12.1707 4.55078 11.5906 4.55078 10.8806C4.55078 8.98062 6.10078 7.43066 8.00078 7.43066C8.78078 7.43066 9.55078 7.70055 10.1608 8.19055C10.4808 8.45055 10.5408 8.9206 10.2808 9.2406C10.0208 9.5606 9.55078 9.6106 9.23078 9.3606C8.88078 9.0806 8.46078 8.93066 8.01078 8.93066C7.01078 8.93066 6.18078 9.69065 6.07078 10.6707H8.17078C8.58078 10.6707 8.92078 11.0107 8.92078 11.4207C8.92078 11.8307 8.57078 12.1707 8.16078 12.1707H5.84078Z" fill="#7328CE"/>
<path fill-rule="evenodd" clip-rule="evenodd" d="M14.2 22.75C10.78 22.75 9.25 21.22 9.25 17.8V14C9.31 10.81 10.81 9.31 13.99 9.25H17.8C21.22 9.25 22.75 10.78 22.75 14.2V17.8C22.75 21.22 21.22 22.75 17.8 22.75H14.2ZM10.75 14.01V17.8C10.75 20.38 11.62 21.25 14.2 21.25H17.8C20.38 21.25 21.25 20.38 21.25 17.8V14.2C21.25 11.62 20.38 10.75 17.8 10.75H14C11.62 10.79 10.79 11.62 10.75 14.01Z" fill="#7328CE"/>
<path d="M12.7695 14.2101C12.4295 13.9701 12.3495 13.5002 12.5895 13.1602C12.8295 12.8202 13.2995 12.7401 13.6395 12.9801C13.9095 13.1701 14.2695 13.1701 14.5395 12.9901C14.8795 12.7601 15.3495 12.8401 15.5795 13.1901C15.8095 13.5301 15.7295 14.0001 15.3795 14.2301C14.9895 14.5001 14.5395 14.6301 14.0895 14.6301C13.6195 14.6301 13.1595 14.4901 12.7695 14.2101Z" fill="#7328CE"/>
<path d="M16.7695 14.2101C16.4295 13.9701 16.3495 13.5002 16.5895 13.1602C16.8295 12.8202 17.2995 12.7401 17.6395 12.9801C17.9095 13.1701 18.2695 13.1701 18.5395 12.9901C18.8795 12.7601 19.3495 12.8401 19.5795 13.1901C19.8095 13.5301 19.7295 14.0001 19.3795 14.2301C18.9895 14.5001 18.5395 14.6301 18.0895 14.6301C17.6195 14.6301 17.1595 14.4901 16.7695 14.2101Z" fill="#7328CE"/>
<path fill-rule="evenodd" clip-rule="evenodd" d="M12.5508 16.7206C12.5508 16.0106 13.1308 15.4307 13.8408 15.4307H18.1608C18.8708 15.4307 19.4508 16.0106 19.4508 16.7206C19.4508 18.6206 17.9008 20.1707 16.0008 20.1707C14.1008 20.1707 12.5508 18.6206 12.5508 16.7206ZM16.0008 18.6707C17.0108 18.6707 17.8308 17.9107 17.9408 16.9307H14.0608C14.1608 17.9107 14.9908 18.6707 16.0008 18.6707Z" fill="#7328CE"/>
</svg>
