<svg width="24" height="24" viewBox="0 0 24 24" fill="none" xmlns="http://www.w3.org/2000/svg">
<mask id="mask0_251_28173" style="mask-type:luminance" maskUnits="userSpaceOnUse" x="0" y="0" width="24" height="24">
<rect width="24" height="24" fill="white"/>
</mask>
<g mask="url(#mask0_251_28173)">
<path fill-rule="evenodd" clip-rule="evenodd" d="M4.00093 8.25C3.33093 8.25 2.73094 7.88 2.44094 7.28C2.14094 6.68 2.20091 5.98 2.60091 5.45L4.10091 3.45C4.43091 3.01 4.95093 2.75 5.50093 2.75H20.0009C20.6709 2.75 21.2709 3.12 21.5609 3.72C21.8609 4.32 21.801 5.02 21.401 5.55L19.901 7.55C19.571 7.99 19.0509 8.25 18.5009 8.25H4.00093ZM5.30092 4.35L3.80092 6.35C3.72092 6.46 3.75096 6.56 3.78096 6.61C3.81096 6.66 3.87093 6.75 4.00093 6.75H18.5009C18.5809 6.75 18.6509 6.71 18.7009 6.65L20.2009 4.65C20.2809 4.54 20.2509 4.44 20.2209 4.39C20.1909 4.34 20.1309 4.25 20.0009 4.25H5.50093C5.42093 4.25 5.35092 4.29 5.30092 4.35Z" fill="#7328CE"/>
<path fill-rule="evenodd" clip-rule="evenodd" d="M5.49899 14.75C4.94899 14.75 4.42897 14.49 4.09897 14.05L2.59897 12.05C2.19897 11.52 2.13899 10.81 2.42899 10.22C2.72899 9.62 3.32898 9.25 3.98898 9.25H18.489C19.039 9.25 19.559 9.51 19.889 9.95L21.389 11.95C21.789 12.48 21.849 13.19 21.559 13.78C21.269 14.38 20.669 14.75 19.999 14.75H5.49899ZM3.77902 10.89C3.74902 10.94 3.71898 11.04 3.79898 11.15L5.29898 13.15C5.34898 13.21 5.41899 13.25 5.49899 13.25H19.999C20.129 13.25 20.199 13.16 20.219 13.11C20.249 13.06 20.279 12.96 20.199 12.85L18.699 10.85C18.649 10.79 18.579 10.75 18.499 10.75H3.99899C3.86899 10.75 3.79902 10.84 3.77902 10.89Z" fill="#7328CE"/>
<path fill-rule="evenodd" clip-rule="evenodd" d="M4.00093 21.25C3.33093 21.25 2.73094 20.88 2.44094 20.28C2.14094 19.68 2.20091 18.98 2.60091 18.45L4.10091 16.45C4.43091 16.01 4.95093 15.75 5.50093 15.75H20.0009C20.6709 15.75 21.2709 16.12 21.5609 16.72C21.8609 17.32 21.801 18.02 21.401 18.55L19.901 20.55C19.571 20.99 19.0509 21.25 18.5009 21.25H4.00093ZM5.30092 17.35L3.80092 19.35C3.72092 19.46 3.75096 19.56 3.78096 19.61C3.81096 19.66 3.87093 19.75 4.00093 19.75H18.5009C18.5809 19.75 18.6509 19.71 18.7009 19.65L20.2009 17.65C20.2809 17.54 20.2509 17.44 20.2209 17.39C20.1909 17.34 20.1309 17.25 20.0009 17.25H5.50093C5.42093 17.25 5.35092 17.29 5.30092 17.35Z" fill="#7328CE"/>
</g>
</svg>
