<svg width="24" height="24" viewBox="0 0 24 24" fill="none" xmlns="http://www.w3.org/2000/svg">
<mask id="mask0_251_29076" style="mask-type:luminance" maskUnits="userSpaceOnUse" x="0" y="0" width="24" height="24">
<rect width="24" height="24" fill="white"/>
</mask>
<g mask="url(#mask0_251_29076)">
<path fill-rule="evenodd" clip-rule="evenodd" d="M1.25 12C1.25 6.07 6.07 1.25 12 1.25C17.93 1.25 22.75 6.07 22.75 12C22.75 17.93 17.93 22.75 12 22.75C6.07 22.75 1.25 17.93 1.25 12ZM2.75 12C2.75 17.1 6.9 21.25 12 21.25C17.1 21.25 21.25 17.1 21.25 12C21.25 6.9 17.1 2.75 12 2.75C6.9 2.75 2.75 6.9 2.75 12Z" fill="#7328CE"/>
<path d="M17.0397 11.2801C14.0597 9.14014 10.2397 8.67014 6.83973 10.0301C6.44973 10.1801 6.01973 9.99013 5.86973 9.61013C5.71973 9.23013 5.90973 8.79016 6.28973 8.64016C10.1697 7.10016 14.5197 7.63015 17.9197 10.0701C18.2597 10.3101 18.3297 10.7801 18.0897 11.1201C17.9497 11.3101 17.7197 11.4202 17.4797 11.4202C17.3297 11.4202 17.1797 11.3701 17.0397 11.2801Z" fill="#7328CE"/>
<path d="M15.4708 13.9707C13.3508 12.4507 10.6408 12.1206 8.21083 13.0806C7.83083 13.2306 7.39083 13.0407 7.24083 12.6607C7.09083 12.2707 7.28082 11.8407 7.66082 11.6907C10.5608 10.5407 13.8108 10.9407 16.3408 12.7607C16.6808 13.0007 16.7508 13.4707 16.5108 13.8107C16.3708 14.0007 16.1408 14.1106 15.9108 14.1106C15.7608 14.1106 15.6108 14.0607 15.4708 13.9707Z" fill="#7328CE"/>
<path d="M14.3714 16.7606C12.8314 15.6606 10.8615 15.4205 9.10145 16.1105C8.72145 16.2605 8.28145 16.0705 8.13145 15.6905C7.98145 15.3005 8.17145 14.8705 8.55145 14.7205C10.7914 13.8305 13.2915 14.1406 15.2415 15.5406C15.5815 15.7806 15.6514 16.2505 15.4114 16.5905C15.2814 16.7905 15.0514 16.9005 14.8114 16.9005C14.6614 16.9005 14.5114 16.8506 14.3714 16.7606Z" fill="#7328CE"/>
</g>
</svg>
