<svg width="24" height="24" viewBox="0 0 24 24" fill="none" xmlns="http://www.w3.org/2000/svg">
<path fill-rule="evenodd" clip-rule="evenodd" d="M8.42118 20.3596C8.02118 20.0696 7.40117 19.3196 7.79117 17.6396L8.36115 15.1796C8.41115 14.9696 8.30116 14.5896 8.15116 14.4296L6.16117 12.4396C5.11117 11.3896 5.20116 10.4796 5.34116 10.0296C5.48116 9.57957 5.94116 8.78957 7.40116 8.53957L9.95117 8.11957C10.1412 8.08957 10.4512 7.85958 10.5312 7.68958L11.9412 4.86957C12.6212 3.50957 13.5212 3.30957 14.0012 3.30957C14.4812 3.30957 15.3812 3.50957 16.0612 4.86957L17.4712 7.68958C17.5612 7.85958 17.8611 8.08957 18.0511 8.11957L20.6012 8.53957C22.0612 8.77957 22.5212 9.57957 22.6612 10.0296C22.8012 10.4796 22.8912 11.3896 21.8412 12.4396L19.8512 14.4296C19.7012 14.5796 19.5912 14.9696 19.6412 15.1796L20.2112 17.6396C20.6012 19.3296 19.9811 20.0696 19.5811 20.3596C19.1811 20.6496 18.2912 21.0196 16.7912 20.1296L14.4012 18.7096C14.2012 18.5896 13.7811 18.5896 13.5811 18.7096L11.1912 20.1296C10.5012 20.5496 9.92117 20.6896 9.48117 20.6896C8.98117 20.6896 8.63118 20.5196 8.42118 20.3596ZM13.2812 5.53957L11.8712 8.35957C11.5712 8.96957 10.8612 9.48958 10.1912 9.59958L7.64118 10.0196C7.07118 10.1196 6.81117 10.3296 6.76117 10.4896C6.71117 10.6496 6.80115 10.9696 7.21115 11.3796L9.20117 13.3696C9.71117 13.8796 9.98117 14.8096 9.82117 15.5096L9.25116 17.9696C9.08116 18.6796 9.19115 19.0596 9.30115 19.1496C9.41115 19.2296 9.81115 19.2196 10.4312 18.8396L12.8311 17.4196C13.5011 17.0196 14.5112 17.0196 15.1712 17.4196L17.5612 18.8396C18.1912 19.2096 18.5912 19.2296 18.7012 19.1496C18.8112 19.0696 18.9212 18.6896 18.7512 17.9696L18.1812 15.5096C18.0212 14.7996 18.2811 13.8796 18.8011 13.3696L20.7912 11.3796C21.2012 10.9696 21.2912 10.6396 21.2412 10.4896C21.1912 10.3396 20.9311 10.1196 20.3611 10.0196L17.8112 9.59958C17.1412 9.48958 16.4312 8.96957 16.1312 8.35957L14.7212 5.53957C14.4512 4.99957 14.1612 4.80957 14.0012 4.80957C13.8412 4.80957 13.5512 4.99957 13.2812 5.53957Z" fill="#7328CE"/>
<path d="M2 5.75C1.59 5.75 1.25 5.41 1.25 5C1.25 4.59 1.59 4.25 2 4.25H8C8.41 4.25 8.75 4.59 8.75 5C8.75 5.41 8.41 5.75 8 5.75H2Z" fill="#7328CE"/>
<path d="M2 19.75C1.59 19.75 1.25 19.41 1.25 19C1.25 18.59 1.59 18.25 2 18.25H5C5.41 18.25 5.75 18.59 5.75 19C5.75 19.41 5.41 19.75 5 19.75H2Z" fill="#7328CE"/>
<path d="M2 12.75C1.59 12.75 1.25 12.41 1.25 12C1.25 11.59 1.59 11.25 2 11.25H3C3.41 11.25 3.75 11.59 3.75 12C3.75 12.41 3.41 12.75 3 12.75H2Z" fill="#7328CE"/>
</svg>
