<svg width="24" height="24" viewBox="0 0 24 24" fill="none" xmlns="http://www.w3.org/2000/svg">
<mask id="mask0_251_28150" style="mask-type:luminance" maskUnits="userSpaceOnUse" x="0" y="0" width="24" height="24">
<rect width="24" height="24" fill="white"/>
</mask>
<g mask="url(#mask0_251_28150)">
<path d="M3.32001 14.39C3.11001 13.61 3 12.81 3 12C3 7.04 7.04 3 12 3C13.69 3 15.33 3.47 16.75 4.36C17.1 4.58 17.21 5.04 16.99 5.39C16.77 5.74 16.31 5.85 15.96 5.63C14.77 4.89 13.4 4.5 12 4.5C7.86 4.5 4.5 7.86 4.5 12C4.5 12.68 4.59002 13.35 4.77002 13.99C4.88002 14.39 4.63999 14.8 4.23999 14.91C4.17999 14.93 4.10998 14.94 4.03998 14.94C3.70998 14.94 3.41001 14.72 3.32001 14.39Z" fill="#7328CE"/>
<path d="M7.22076 19.6296C6.87076 19.4096 6.76077 18.9496 6.98077 18.5996C7.20077 18.2496 7.6608 18.1396 8.0108 18.3596C9.2008 19.1096 10.5808 19.4996 11.9908 19.4996C16.1308 19.4996 19.4908 16.1396 19.4908 11.9996C19.4908 11.2696 19.3808 10.5396 19.1808 9.84958C19.0608 9.44958 19.2908 9.03958 19.6808 8.91958C20.0808 8.79958 20.4908 9.02958 20.6108 9.41958C20.8608 10.2496 20.9908 11.1196 20.9908 11.9996C21.0008 16.9596 16.9608 20.9996 12.0008 20.9996C10.3008 20.9996 8.65076 20.5196 7.22076 19.6296Z" fill="#7328CE"/>
<path d="M1.33968 16.3607C1.13968 16.0007 1.26967 15.5407 1.63967 15.3407L21.6397 4.34065C21.9997 4.14065 22.4596 4.27066 22.6596 4.64066C22.8596 5.00066 22.7296 5.46066 22.3596 5.66066L2.35964 16.6607C2.24964 16.7207 2.11965 16.7507 1.99965 16.7507C1.73965 16.7507 1.47968 16.6107 1.33968 16.3607Z" fill="#7328CE"/>
<path d="M1.33968 19.8607C1.13968 19.5007 1.26967 19.0407 1.63967 18.8407L21.6397 7.84065C21.9997 7.64065 22.4596 7.77066 22.6596 8.14066C22.8596 8.50066 22.7296 8.96066 22.3596 9.16066L2.35964 20.1607C2.24964 20.2207 2.11965 20.2507 1.99965 20.2507C1.73965 20.2507 1.47968 20.1107 1.33968 19.8607Z" fill="#7328CE"/>
</g>
</svg>
