<svg width="24" height="24" viewBox="0 0 24 24" fill="none" xmlns="http://www.w3.org/2000/svg">
<path fill-rule="evenodd" clip-rule="evenodd" d="M1.2207 12C1.2207 6.07 6.0507 1.25 11.9707 1.25C17.8907 1.25 22.7207 6.07 22.7207 12C22.7207 17.93 17.9007 22.75 11.9707 22.75C6.0507 22.75 1.2207 17.93 1.2207 12ZM2.7207 12C2.7207 17.1 6.8707 21.25 11.9707 21.25C17.0707 21.25 21.2207 17.1 21.2207 12C21.2207 6.9 17.0707 2.75 11.9707 2.75C6.8707 2.75 2.7207 6.9 2.7207 12Z" fill="#7328CE"/>
<path fill-rule="evenodd" clip-rule="evenodd" d="M10.7295 16.9795C8.19953 16.9795 7.01953 15.7995 7.01953 13.2695V10.7295C7.01953 8.19953 8.19953 7.01953 10.7295 7.01953H13.2695C15.7995 7.01953 16.9795 8.19953 16.9795 10.7295V13.2695C16.9795 15.7995 15.7995 16.9795 13.2695 16.9795H10.7295ZM8.51953 10.7295V13.2695C8.51953 14.9595 9.03953 15.4795 10.7295 15.4795H13.2695C14.9595 15.4795 15.4795 14.9595 15.4795 13.2695V10.7295C15.4795 9.03953 14.9595 8.51953 13.2695 8.51953H10.7295C9.03953 8.51953 8.51953 9.03953 8.51953 10.7295Z" fill="#7328CE"/>
</svg>
