<svg width="24" height="24" viewBox="0 0 24 24" fill="none" xmlns="http://www.w3.org/2000/svg">
<path fill-rule="evenodd" clip-rule="evenodd" d="M7.04945 17.3206C4.31945 14.5906 4.31945 10.1505 7.04945 7.42055C9.77945 4.69055 14.2195 4.69055 16.9495 7.42055C19.6795 10.1505 19.6795 14.5906 16.9495 17.3206C15.5795 18.6906 13.7895 19.3706 11.9995 19.3706C10.2095 19.3706 8.41945 18.6906 7.04945 17.3206ZM8.10945 8.48054C5.96945 10.6305 5.96945 14.1106 8.10945 16.2606C10.2595 18.4106 13.7495 18.4006 15.8895 16.2606C18.0295 14.1106 18.0295 10.6305 15.8895 8.48054C14.8195 7.41054 13.4095 6.87056 11.9995 6.87056C10.5895 6.87056 9.17945 7.41054 8.10945 8.48054Z" fill="#7328CE"/>
<path d="M7.96906 22.3399C5.71906 21.4399 3.89905 19.8499 2.67905 17.7499C1.49905 15.6999 1.02905 13.3799 1.33905 11.0199C1.38905 10.6099 1.76905 10.3199 2.17905 10.3699C2.58905 10.4199 2.87904 10.7999 2.82904 11.2099C2.56904 13.2299 2.96907 15.2299 3.97907 16.9899C5.01907 18.7899 6.58905 20.1599 8.51905 20.9299C8.89905 21.0899 9.08906 21.5198 8.93906 21.9098C8.82906 22.2098 8.53906 22.3899 8.24906 22.3899C8.15906 22.3899 8.05906 22.3699 7.96906 22.3399Z" fill="#7328CE"/>
<path d="M5.25961 4.93939C4.99961 4.60939 5.05962 4.1394 5.38962 3.8894C7.29962 2.3994 9.57961 1.60938 11.9996 1.60938C14.3596 1.60938 16.6096 2.36939 18.4996 3.80939C18.8296 4.05939 18.8896 4.52938 18.6396 4.85938C18.3896 5.18937 17.9196 5.24939 17.5896 4.99939C15.9696 3.75939 14.0396 3.10938 11.9996 3.10938C9.91961 3.10938 7.9496 3.7894 6.3096 5.0694C6.1696 5.1794 6.00961 5.22937 5.84961 5.22937C5.62961 5.22937 5.40961 5.12939 5.25961 4.93939Z" fill="#7328CE"/>
<path d="M15.0507 21.9206C14.9007 21.5406 15.0807 21.1006 15.4707 20.9406C17.4007 20.1606 18.9707 18.8006 20.0107 17.0006C21.0307 15.2406 21.4307 13.2406 21.1607 11.2206C21.1107 10.8106 21.4007 10.4306 21.8107 10.3806C22.2107 10.3306 22.6007 10.6206 22.6507 11.0306C22.9507 13.3806 22.4907 15.7106 21.3107 17.7606C20.1007 19.8606 18.2707 21.4406 16.0207 22.3506C15.9407 22.3706 15.8507 22.3906 15.7507 22.3906C15.4507 22.3906 15.1707 22.2106 15.0507 21.9206Z" fill="#7328CE"/>
</svg>
