<svg width="24" height="24" viewBox="0 0 24 24" fill="none" xmlns="http://www.w3.org/2000/svg">
<path fill-rule="evenodd" clip-rule="evenodd" d="M4.21943 21.6506C3.11943 21.6506 2.14945 21.0806 1.61945 20.1206C1.08945 19.1606 1.11947 18.0306 1.69947 17.1006L4.46943 12.6706C4.68943 12.3206 4.68943 11.6706 4.46943 11.3306L1.69947 6.90059C1.11947 5.97059 1.08945 4.84059 1.61945 3.88059C2.14945 2.92059 3.12943 2.35059 4.21943 2.35059H15.6594C16.5994 2.35059 17.6894 2.95059 18.1794 3.75059L22.3594 10.4306C22.9194 11.3306 22.8694 12.7106 22.2294 13.5606L17.0494 20.4606C16.5394 21.1406 15.5194 21.6506 14.6694 21.6506H4.21943ZM2.92945 4.61059C2.66945 5.09059 2.67943 5.65059 2.96943 6.11059L5.73945 10.5406C6.25945 11.3806 6.25945 12.6406 5.73945 13.4806L2.96943 17.9106C2.67943 18.3706 2.66945 18.9306 2.92945 19.4106C3.18945 19.8906 3.67943 20.1706 4.21943 20.1706H14.6694C15.0494 20.1706 15.6194 19.8806 15.8494 19.5806L21.0295 12.6806C21.2995 12.3206 21.3295 11.6306 21.0895 11.2506L16.9094 4.57059C16.6894 4.21059 16.0794 3.88059 15.6594 3.88059H4.21943V3.85059C3.67943 3.85059 3.18945 4.13059 2.92945 4.61059Z" fill="#7328CE"/>
</svg>
