<svg width="24" height="24" viewBox="0 0 24 24" fill="none" xmlns="http://www.w3.org/2000/svg">
<path fill-rule="evenodd" clip-rule="evenodd" d="M8.16911 20.3707L3.63911 15.8407C2.53911 14.7407 1.95911 13.2207 2.02911 11.6707L2.26911 6.67066C2.37911 4.28066 4.26911 2.39066 6.66911 2.27066L11.6691 2.03066C13.2191 1.97066 14.7391 2.54066 15.8391 3.64066L20.3691 8.17066C22.5191 10.3207 22.5191 13.8307 20.3691 15.9807L15.9791 20.3707C14.8991 21.4407 13.4891 21.9807 12.0691 21.9807C10.6591 21.9807 9.23911 21.4407 8.16911 20.3707ZM9.22911 19.3007C9.98911 20.0607 10.9991 20.4807 12.0691 20.4807C13.1391 20.4807 14.1491 20.0607 14.9091 19.3007L19.2991 14.9107C20.0591 14.1507 20.4791 13.1407 20.4791 12.0707C20.4791 11.0007 20.0591 9.99066 19.2991 9.23066L14.7691 4.70066C13.9691 3.90066 12.8591 3.47066 11.7391 3.53066L6.73911 3.77066C5.10911 3.84066 3.83911 5.11066 3.75911 6.73066L3.51911 11.7307C3.46911 12.8607 3.89911 13.9707 4.69911 14.7707L9.22911 19.3007Z" fill="#7328CE"/>
<path fill-rule="evenodd" clip-rule="evenodd" d="M6.25 9.5C6.25 7.71 7.71 6.25 9.5 6.25C11.29 6.25 12.75 7.71 12.75 9.5C12.75 11.29 11.29 12.75 9.5 12.75C7.71 12.75 6.25 11.29 6.25 9.5ZM7.75 9.5C7.75 10.46 8.54 11.25 9.5 11.25C10.46 11.25 11.25 10.46 11.25 9.5C11.25 8.54 10.46 7.75 9.5 7.75C8.54 7.75 7.75 8.54 7.75 9.5Z" fill="#7328CE"/>
</svg>
