<svg width="24" height="24" viewBox="0 0 24 24" fill="none" xmlns="http://www.w3.org/2000/svg">
<mask id="mask0_251_28680" style="mask-type:luminance" maskUnits="userSpaceOnUse" x="0" y="0" width="24" height="24">
<rect width="24" height="24" fill="white"/>
</mask>
<g mask="url(#mask0_251_28680)">
<path fill-rule="evenodd" clip-rule="evenodd" d="M14.7195 15.7795L11.9995 13.0594L9.27945 15.7795C8.98945 16.0695 8.50945 16.0695 8.21945 15.7795L4.96945 12.5295C4.67945 12.2395 4.67945 11.7595 4.96945 11.4695L8.21945 8.21945C8.50945 7.92945 8.98945 7.92945 9.27945 8.21945L11.9995 10.9395L14.7195 8.21945C15.0095 7.92945 15.4895 7.92945 15.7795 8.21945L19.0295 11.4695C19.3195 11.7595 19.3195 12.2395 19.0295 12.5295L15.7795 15.7795C15.6295 15.9295 15.4395 15.9995 15.2495 15.9995C15.0595 15.9995 14.8695 15.9295 14.7195 15.7795ZM15.2495 14.1895L17.4395 11.9995L15.2495 9.80945L13.0594 11.9995L15.2495 14.1895ZM8.74945 14.1895L10.9395 11.9995L8.74945 9.80945L6.55945 11.9995L8.74945 14.1895Z" fill="#7328CE"/>
<path fill-rule="evenodd" clip-rule="evenodd" d="M1.25 12C1.25 6.07 6.07 1.25 12 1.25C17.93 1.25 22.75 6.07 22.75 12C22.75 17.93 17.93 22.75 12 22.75C6.07 22.75 1.25 17.93 1.25 12ZM2.75 12C2.75 17.1 6.9 21.25 12 21.25C17.1 21.25 21.25 17.1 21.25 12C21.25 6.9 17.1 2.75 12 2.75C6.9 2.75 2.75 6.9 2.75 12Z" fill="#7328CE"/>
</g>
</svg>
