<svg width="24" height="24" viewBox="0 0 24 24" fill="none" xmlns="http://www.w3.org/2000/svg">
<mask id="mask0_251_27963" style="mask-type:luminance" maskUnits="userSpaceOnUse" x="0" y="0" width="24" height="24">
<rect width="24" height="24" fill="white"/>
</mask>
<g mask="url(#mask0_251_27963)">
<path fill-rule="evenodd" clip-rule="evenodd" d="M9.41071 20.4304L2.4807 14.1404C1.2707 13.0404 0.890699 11.0304 1.6207 9.57035L4.02071 4.75035C4.62071 3.55035 6.13071 2.61035 7.47071 2.61035H16.5307C17.8707 2.61035 19.3807 3.55035 19.9807 4.75035L22.3807 9.57035C23.1107 11.0304 22.7307 13.0404 21.5207 14.1404L14.5907 20.4304C13.8807 21.0704 12.9407 21.4004 12.0007 21.4004C11.0607 21.4004 10.1207 21.0804 9.41071 20.4304ZM5.3607 5.41035L2.96071 10.2304C2.54071 11.0804 2.78071 12.3804 3.49071 13.0204L10.4207 19.3104C11.2807 20.0904 12.7307 20.0904 13.5807 19.3104L20.5107 13.0204C21.2107 12.3804 21.4607 11.0804 21.0407 10.2304L18.6407 5.41035C18.2907 4.72035 17.3107 4.11035 16.5307 4.11035H7.47071V4.10035C6.69071 4.10035 5.7107 4.71035 5.3607 5.41035Z" fill="#7328CE"/>
<path d="M11.25 14.5V8.5C11.25 8.09 11.59 7.75 12 7.75C12.41 7.75 12.75 8.09 12.75 8.5V14.5C12.75 14.91 12.41 15.25 12 15.25C11.59 15.25 11.25 14.91 11.25 14.5Z" fill="#7328CE"/>
<path d="M8 9.25C7.59 9.25 7.25 8.91 7.25 8.5C7.25 8.09 7.59 7.75 8 7.75H16C16.41 7.75 16.75 8.09 16.75 8.5C16.75 8.91 16.41 9.25 16 9.25H8Z" fill="#7328CE"/>
</g>
</svg>
