<svg width="24" height="24" viewBox="0 0 24 24" fill="none" xmlns="http://www.w3.org/2000/svg">
<mask id="mask0_251_27934" style="mask-type:luminance" maskUnits="userSpaceOnUse" x="0" y="0" width="24" height="24">
<rect width="24" height="24" fill="white"/>
</mask>
<g mask="url(#mask0_251_27934)">
<path fill-rule="evenodd" clip-rule="evenodd" d="M7.18945 10.5702C7.18945 8.3002 9.03945 6.4502 11.3094 6.4502C13.5794 6.4502 15.4294 8.3002 15.4294 10.5702C15.4294 12.8402 13.5894 14.6902 11.3094 14.6902C9.03945 14.6902 7.18945 12.8402 7.18945 10.5702ZM8.68945 10.5602C8.68945 12.0002 9.86945 13.1802 11.3094 13.1802C12.7494 13.1802 13.9294 12.0002 13.9294 10.5602C13.9294 9.1202 12.7594 7.9402 11.3094 7.9402C9.85945 7.9402 8.68945 9.1202 8.68945 10.5602Z" fill="#7328CE"/>
<path d="M15.5098 7.30957C15.5098 6.75957 15.9498 6.30957 16.5098 6.30957H16.5198C17.0698 6.30957 17.5198 6.75957 17.5198 7.30957C17.5198 7.85957 17.0598 8.30957 16.5098 8.30957C15.9598 8.30957 15.5098 7.85957 15.5098 7.30957Z" fill="#7328CE"/>
<path d="M11.53 18.34C11.24 18.05 11.24 17.57 11.53 17.28L14.53 14.28C14.82 13.99 15.3 13.99 15.59 14.28C15.88 14.57 15.88 15.05 15.59 15.34L12.59 18.34C12.45 18.49 12.25 18.56 12.06 18.56C11.87 18.56 11.68 18.49 11.53 18.34Z" fill="#7328CE"/>
<path fill-rule="evenodd" clip-rule="evenodd" d="M1.25 12C1.25 6.07 6.07 1.25 12 1.25C17.93 1.25 22.75 6.07 22.75 12C22.75 17.93 17.93 22.75 12 22.75C6.07 22.75 1.25 17.93 1.25 12ZM2.75 12C2.75 17.1 6.9 21.25 12 21.25C17.1 21.25 21.25 17.1 21.25 12C21.25 6.9 17.1 2.75 12 2.75C6.9 2.75 2.75 6.9 2.75 12Z" fill="#7328CE"/>
</g>
</svg>
