<svg width="24" height="24" viewBox="0 0 24 24" fill="none" xmlns="http://www.w3.org/2000/svg">
<mask id="mask0_251_28306" style="mask-type:luminance" maskUnits="userSpaceOnUse" x="0" y="0" width="24" height="24">
<rect width="24" height="24" fill="white"/>
</mask>
<g mask="url(#mask0_251_28306)">
<path fill-rule="evenodd" clip-rule="evenodd" d="M8.84998 18.75C7.41998 18.75 6.25 17.58 6.25 16.15V7.85C6.25 6.42 7.41998 5.25 8.84998 5.25H15.15C16.58 5.25 17.75 6.42 17.75 7.85V16.15C17.75 17.58 16.58 18.75 15.15 18.75H8.84998ZM7.75 7.85V16.15C7.75 16.76 8.23998 17.25 8.84998 17.25H15.15C15.76 17.25 16.25 16.76 16.25 16.15V7.85C16.25 7.24 15.76 6.75 15.15 6.75H8.84998C8.23998 6.75 7.75 7.24 7.75 7.85Z" fill="#7328CE"/>
<path d="M11.25 10.5V8.5C11.25 8.09 11.59 7.75 12 7.75C12.41 7.75 12.75 8.09 12.75 8.5V10.5C12.75 10.91 12.41 11.25 12 11.25C11.59 11.25 11.25 10.91 11.25 10.5Z" fill="#7328CE"/>
<path d="M10 11.25C9.59 11.25 9.25 10.91 9.25 10.5C9.25 10.09 9.59 9.75 10 9.75H14C14.41 9.75 14.75 10.09 14.75 10.5C14.75 10.91 14.41 11.25 14 11.25H10Z" fill="#7328CE"/>
<path d="M11.25 15.5V13.5C11.25 13.09 11.59 12.75 12 12.75C12.41 12.75 12.75 13.09 12.75 13.5V15.5C12.75 15.91 12.41 16.25 12 16.25C11.59 16.25 11.25 15.91 11.25 15.5Z" fill="#7328CE"/>
<path d="M10 14.25C9.59 14.25 9.25 13.91 9.25 13.5C9.25 13.09 9.59 12.75 10 12.75H14C14.41 12.75 14.75 13.09 14.75 13.5C14.75 13.91 14.41 14.25 14 14.25H10Z" fill="#7328CE"/>
<path fill-rule="evenodd" clip-rule="evenodd" d="M9 22.75C3.57 22.75 1.25 20.43 1.25 15V9C1.25 3.57 3.57 1.25 9 1.25H15C20.43 1.25 22.75 3.57 22.75 9V15C22.75 20.43 20.43 22.75 15 22.75H9ZM2.75 9V15C2.75 19.61 4.39 21.25 9 21.25H15C19.61 21.25 21.25 19.61 21.25 15V9C21.25 4.39 19.61 2.75 15 2.75H9C4.39 2.75 2.75 4.39 2.75 9Z" fill="#7328CE"/>
</g>
</svg>
