<svg width="24" height="24" viewBox="0 0 24 24" fill="none" xmlns="http://www.w3.org/2000/svg">
<mask id="mask0_251_28213" style="mask-type:luminance" maskUnits="userSpaceOnUse" x="0" y="0" width="24" height="24">
<rect width="24" height="24" fill="white"/>
</mask>
<g mask="url(#mask0_251_28213)">
<path fill-rule="evenodd" clip-rule="evenodd" d="M4.15941 21.9598C3.64941 21.2398 3.70944 20.3098 4.30944 19.6698L11.6395 11.7098L8.08947 8.11977C7.65947 7.68977 7.47942 7.06977 7.59942 6.46977C7.71942 5.86977 8.12944 5.37977 8.68944 5.13977L17.6294 1.38977C18.4194 1.05977 19.2894 1.29977 19.8094 1.97977C20.3194 2.66977 20.2995 3.56977 19.7595 4.23977L13.6894 11.6498L17.2695 15.2798C17.6995 15.7098 17.8795 16.3298 17.7595 16.9298C17.6395 17.5298 17.2294 18.0198 16.6694 18.2598L6.36944 22.5998C6.12944 22.6998 5.88946 22.7498 5.63946 22.7498C5.05946 22.7498 4.51941 22.4698 4.15941 21.9598ZM5.41942 20.6898C5.25942 20.8598 5.33946 21.0198 5.38946 21.1098C5.44946 21.1898 5.57942 21.3198 5.78942 21.2198L16.0895 16.8798C16.2295 16.8198 16.2694 16.6998 16.2894 16.6398C16.2994 16.5798 16.3095 16.4498 16.1995 16.3398L12.6894 12.7898L5.41942 20.6898ZM12.6294 10.5798L18.5895 3.29977C18.7295 3.12977 18.6594 2.96977 18.5994 2.88977C18.5394 2.80977 18.4195 2.68977 18.1995 2.77977L9.25945 6.52977C9.11945 6.58977 9.07944 6.70977 9.05944 6.76977C9.03944 6.82977 9.05941 6.95977 9.15941 7.06977L12.6294 10.5798Z" fill="#7328CE"/>
</g>
</svg>
