<svg width="24" height="24" viewBox="0 0 24 24" fill="none" xmlns="http://www.w3.org/2000/svg">
<path fill-rule="evenodd" clip-rule="evenodd" d="M1.25 12C1.25 6.07 6.07 1.25 12 1.25C17.93 1.25 22.75 6.07 22.75 12C22.75 17.93 17.93 22.75 12 22.75C6.07 22.75 1.25 17.93 1.25 12ZM2.75 12C2.75 17.1 6.9 21.25 12 21.25C17.1 21.25 21.25 17.1 21.25 12C21.25 6.9 17.1 2.75 12 2.75C6.9 2.75 2.75 6.9 2.75 12Z" fill="#7328CE"/>
<path d="M10.0495 15.3606L7.21945 12.5306C6.92945 12.2406 6.92945 11.7606 7.21945 11.4706C7.50945 11.1806 7.98945 11.1806 8.27945 11.4706L10.5795 13.7706L15.7195 8.63059C16.0095 8.34059 16.4895 8.34059 16.7795 8.63059C17.0695 8.92059 17.0695 9.40059 16.7795 9.69059L11.1095 15.3606C10.9695 15.5006 10.7795 15.5806 10.5795 15.5806C10.3795 15.5806 10.1895 15.5006 10.0495 15.3606Z" fill="#7328CE"/>
</svg>
