<svg width="24" height="24" viewBox="0 0 24 24" fill="none" xmlns="http://www.w3.org/2000/svg">
<path fill-rule="evenodd" clip-rule="evenodd" d="M7.0007 20.75C2.7507 20.75 1.3607 19.48 1.2607 15.52C1.2607 15.32 1.3307 15.12 1.4707 14.98C1.6107 14.84 1.8007 14.75 2.0107 14.75C3.5207 14.75 4.7507 13.51 4.7507 12C4.7507 10.49 3.5207 9.25 2.0107 9.25C1.8107 9.25 1.6207 9.17 1.4707 9.02C1.3207 8.87 1.2507 8.68 1.2607 8.48C1.3607 4.52 2.7507 3.25 7.0007 3.25H17.0007C21.4107 3.25 22.7507 4.59 22.7507 9V15C22.7507 19.41 21.4107 20.75 17.0007 20.75H7.0007ZM7.0007 19.25H17.0007C20.5807 19.25 21.2507 18.57 21.2507 15V9C21.2507 5.43 20.5807 4.75 17.0007 4.75H7.0007C3.8207 4.75 2.9607 5.29 2.7907 7.82C4.7607 8.2 6.2507 9.93 6.2507 12C6.2507 14.07 4.7607 15.8 2.7907 16.18C2.9607 18.72 3.8207 19.25 7.0007 19.25Z" fill="#7328CE"/>
<path d="M8.25 7.5V4C8.25 3.59 8.59 3.25 9 3.25C9.41 3.25 9.75 3.59 9.75 4V7.5C9.75 7.91 9.41 8.25 9 8.25C8.59 8.25 8.25 7.91 8.25 7.5Z" fill="#7328CE"/>
<path d="M8.25 20V16.5C8.25 16.09 8.59 15.75 9 15.75C9.41 15.75 9.75 16.09 9.75 16.5V20C9.75 20.41 9.41 20.75 9 20.75C8.59 20.75 8.25 20.41 8.25 20Z" fill="#7328CE"/>
<path fill-rule="evenodd" clip-rule="evenodd" d="M12.3601 15.4306C12.0001 15.1706 11.8201 14.7306 11.9001 14.2906L12.1101 13.1006L11.2401 12.2506C10.9201 11.9406 10.8101 11.4806 10.9401 11.0606C11.0801 10.6406 11.4401 10.3306 11.8801 10.2706L13.0801 10.0906L13.6201 9.00059C13.8201 8.60059 14.2201 8.35059 14.6601 8.35059C15.1101 8.35059 15.5101 8.60059 15.7001 9.00059L16.2401 10.0906L17.4401 10.2706C17.8801 10.3306 18.2401 10.6406 18.3801 11.0606C18.5201 11.4806 18.4001 11.9406 18.0801 12.2506L17.2101 13.1006L17.4201 14.2906C17.5001 14.7306 17.3201 15.1706 16.9601 15.4306C16.6001 15.6906 16.1301 15.7206 15.7401 15.5206L14.6701 14.9606L13.5901 15.5206C13.4201 15.6106 13.2301 15.6506 13.0401 15.6506C12.8001 15.6506 12.5601 15.5706 12.3601 15.4306ZM13.2801 12.1506C13.5601 12.4206 13.6801 12.8006 13.6201 13.1806L13.5001 13.8806L14.1301 13.5506C14.4701 13.3706 14.8701 13.3706 15.2101 13.5506L15.8401 13.8806L15.7201 13.1806C15.6601 12.7906 15.7801 12.4106 16.0601 12.1506L16.5701 11.6506L15.8701 11.5506C15.4901 11.4906 15.1601 11.2506 14.9901 10.9106L14.6801 10.2706L14.3701 10.9106C14.2001 11.2506 13.8701 11.4906 13.4901 11.5506L12.7701 11.6506L13.2801 12.1506Z" fill="#7328CE"/>
</svg>
