<svg width="24" height="24" viewBox="0 0 24 24" fill="none" xmlns="http://www.w3.org/2000/svg">
<path d="M20.9197 6.72949C15.6297 6.19949 10.3497 5.99949 5.11967 6.52949L3.07967 6.72949C2.65967 6.76949 2.28967 6.46949 2.24967 6.04949C2.20967 5.62949 2.50967 5.26949 2.91967 5.22949L4.95967 5.02949C10.2797 4.48949 15.6697 4.69949 21.0697 5.22949C21.4797 5.26949 21.7797 5.63949 21.7397 6.04949C21.7097 6.43949 21.3797 6.72949 20.9997 6.72949C20.9797 6.72949 20.9497 6.72949 20.9197 6.72949Z" fill="#7328CE"/>
<path d="M8.37074 5.71C7.97074 5.64 7.69074 5.25 7.76074 4.85L7.98074 3.54C8.14074 2.58 8.36074 1.25 10.6907 1.25H13.3107C15.6507 1.25 15.8707 2.63 16.0207 3.55L16.2407 4.85C16.3107 5.26 16.0307 5.65 15.6307 5.71C15.2207 5.78 14.8307 5.5 14.7707 5.1L14.5507 3.8C14.4107 2.93 14.3807 2.76 13.3207 2.76H10.7007C9.64074 2.76 9.62074 2.9 9.47074 3.79L9.24074 5.09C9.18074 5.46 8.86074 5.72 8.50074 5.72C8.46074 5.72 8.42074 5.72 8.37074 5.71Z" fill="#7328CE"/>
<path d="M8.79039 22.7506C5.30039 22.7506 5.16039 20.8206 5.05039 19.2606L4.40039 9.19056C4.37039 8.78056 4.69039 8.42056 5.10039 8.39056C5.52039 8.37056 5.87039 8.68056 5.90039 9.09056L6.55039 19.1606C6.66039 20.6806 6.70039 21.2506 8.79039 21.2506H15.2104C17.3104 21.2506 17.3504 20.6806 17.4504 19.1606L18.1004 9.09056C18.1304 8.68056 18.4904 8.37056 18.9004 8.39056C19.3104 8.42056 19.6304 8.77056 19.6004 9.19056L18.9504 19.2606C18.8404 20.8206 18.7004 22.7506 15.2104 22.7506H8.79039Z" fill="#7328CE"/>
<path d="M10.3301 17.25C9.92008 17.25 9.58008 16.91 9.58008 16.5C9.58008 16.09 9.92008 15.75 10.3301 15.75H13.6601C14.0701 15.75 14.4101 16.09 14.4101 16.5C14.4101 16.91 14.0701 17.25 13.6601 17.25H10.3301Z" fill="#7328CE"/>
<path d="M9.5 13.25C9.09 13.25 8.75 12.91 8.75 12.5C8.75 12.09 9.09 11.75 9.5 11.75H14.5C14.91 11.75 15.25 12.09 15.25 12.5C15.25 12.91 14.91 13.25 14.5 13.25H9.5Z" fill="#7328CE"/>
</svg>
