<svg width="24" height="24" viewBox="0 0 24 24" fill="none" xmlns="http://www.w3.org/2000/svg">
<mask id="mask0_251_29061" style="mask-type:luminance" maskUnits="userSpaceOnUse" x="0" y="0" width="24" height="24">
<rect width="24" height="24" fill="white"/>
</mask>
<g mask="url(#mask0_251_29061)">
<path fill-rule="evenodd" clip-rule="evenodd" d="M9 22.75C3.57 22.75 1.25 20.43 1.25 15V9C1.25 3.57 3.57 1.25 9 1.25H15C20.43 1.25 22.75 3.57 22.75 9V15C22.75 20.43 20.43 22.75 15 22.75H9ZM2.75 9V15C2.75 19.61 4.39 21.25 9 21.25H15C19.61 21.25 21.25 19.61 21.25 15V9C21.25 4.39 19.61 2.75 15 2.75H9C4.39 2.75 2.75 4.39 2.75 9Z" fill="#7328CE"/>
<path fill-rule="evenodd" clip-rule="evenodd" d="M7.09888 18.4703C6.00888 18.4703 5.12891 17.5803 5.12891 16.4903V7.51028C5.12891 6.42028 6.01888 5.53027 7.09888 5.53027H9.54889C10.6389 5.53027 11.5289 6.42028 11.5289 7.51028V16.4903C11.5289 17.5803 10.6389 18.4703 9.54889 18.4703H7.09888ZM6.62891 7.51028V16.4903C6.62891 16.7503 6.84888 16.9703 7.09888 16.9703H9.54889C9.80889 16.9703 10.0289 16.7503 10.0289 16.4903V7.51028C10.0289 7.25028 9.80889 7.03027 9.54889 7.03027H7.09888C6.83888 7.03027 6.62891 7.25028 6.62891 7.51028Z" fill="#7328CE"/>
<path fill-rule="evenodd" clip-rule="evenodd" d="M14.1988 14.3803C13.2388 14.3803 12.4688 13.6003 12.4688 12.6503V7.26028C12.4688 6.30028 13.2488 5.53027 14.1988 5.53027H17.1388C18.0988 5.53027 18.8688 6.31028 18.8688 7.26028V12.6503C18.8788 13.6103 18.0988 14.3803 17.1388 14.3803H14.1988ZM13.9788 7.26028V12.6503C13.9788 12.7803 14.0888 12.8803 14.2088 12.8803H17.1488C17.2788 12.8803 17.3788 12.7703 17.3788 12.6503V7.26028C17.3788 7.13028 17.2688 7.03027 17.1488 7.03027H14.2088C14.0788 7.03027 13.9788 7.14028 13.9788 7.26028Z" fill="#7328CE"/>
</g>
</svg>
