<svg width="24" height="24" viewBox="0 0 24 24" fill="none" xmlns="http://www.w3.org/2000/svg">
<path d="M15.9692 15.0295L12.4192 11.4795L11.3292 13.1195C11.2092 13.3095 10.9992 13.4295 10.7792 13.4495C10.5492 13.4695 10.3292 13.3895 10.1792 13.2295L6.97922 10.0295C6.68922 9.73945 6.68922 9.25945 6.97922 8.96945C7.26922 8.67945 7.74922 8.67945 8.03922 8.96945L10.5892 11.5195L11.6792 9.87945C11.7992 9.69945 11.9992 9.57945 12.2292 9.54945C12.4592 9.52945 12.6792 9.60945 12.8292 9.76945L17.0292 13.9695C17.3192 14.2595 17.3192 14.7395 17.0292 15.0295C16.8792 15.1795 16.6892 15.2495 16.4992 15.2495C16.3092 15.2495 16.1192 15.1795 15.9692 15.0295Z" fill="#7328CE"/>
<path d="M14.5 15.25C14.09 15.25 13.75 14.91 13.75 14.5C13.75 14.09 14.09 13.75 14.5 13.75H15.75V12.5C15.75 12.09 16.09 11.75 16.5 11.75C16.91 11.75 17.25 12.09 17.25 12.5V14.5C17.25 14.91 16.91 15.25 16.5 15.25H14.5Z" fill="#7328CE"/>
<path fill-rule="evenodd" clip-rule="evenodd" d="M9 22.75C3.57 22.75 1.25 20.43 1.25 15V9C1.25 3.57 3.57 1.25 9 1.25H15C20.43 1.25 22.75 3.57 22.75 9V15C22.75 20.43 20.43 22.75 15 22.75H9ZM2.75 9V15C2.75 19.61 4.39 21.25 9 21.25H15C19.61 21.25 21.25 19.61 21.25 15V9C21.25 4.39 19.61 2.75 15 2.75H9C4.39 2.75 2.75 4.39 2.75 9Z" fill="#7328CE"/>
</svg>
