<svg width="24" height="24" viewBox="0 0 24 24" fill="none" xmlns="http://www.w3.org/2000/svg">
<mask id="mask0_251_28940" style="mask-type:luminance" maskUnits="userSpaceOnUse" x="0" y="0" width="24" height="24">
<rect width="24" height="24" fill="white"/>
</mask>
<g mask="url(#mask0_251_28940)">
<path fill-rule="evenodd" clip-rule="evenodd" d="M10.3698 22.5305L0.369844 12.5305C0.0798438 12.2405 0.0798438 11.7605 0.369844 11.4705L10.3698 1.47048C10.5798 1.26048 10.9099 1.19048 11.1899 1.31048C11.4699 1.43048 11.6499 1.70048 11.6499 2.00048V6.00048C11.6499 6.20048 11.5698 6.39048 11.4298 6.53048L5.95987 12.0005L11.4298 17.4705C11.5698 17.6105 11.6499 17.8005 11.6499 18.0005V22.0005C11.6499 22.3005 11.4699 22.5805 11.1899 22.6905C11.0899 22.7305 10.9999 22.7505 10.8999 22.7505C10.6999 22.7505 10.5098 22.6705 10.3698 22.5305ZM10.1499 20.1905V18.3105L4.36984 12.5305C4.07984 12.2405 4.07984 11.7605 4.36984 11.4705L10.1499 5.69048V3.81048L1.95987 12.0005L10.1499 20.1905Z" fill="#7328CE"/>
<path fill-rule="evenodd" clip-rule="evenodd" d="M12.6104 22.6905C12.3304 22.5705 12.1504 22.3005 12.1504 22.0005V18.0005C12.1504 17.8005 12.2304 17.6105 12.3704 17.4705L17.8404 12.0005L12.3704 6.53048C12.2304 6.39048 12.1504 6.20048 12.1504 6.00048V2.00048C12.1504 1.70048 12.3304 1.42048 12.6104 1.31048C12.8904 1.19048 13.2104 1.26048 13.4304 1.47048L23.4304 11.4705C23.7204 11.7605 23.7204 12.2405 23.4304 12.5305L13.4304 22.5305C13.2904 22.6705 13.1004 22.7505 12.9004 22.7505C12.8004 22.7505 12.7104 22.7305 12.6104 22.6905ZM13.6504 20.1905L21.8404 12.0005L13.6504 3.81048V5.69048L19.4304 11.4705C19.7204 11.7605 19.7204 12.2405 19.4304 12.5305L13.6504 18.3105V20.1905Z" fill="#7328CE"/>
<path fill-rule="evenodd" clip-rule="evenodd" d="M10.3698 15.5305L7.36984 12.5305C7.07984 12.2405 7.07984 11.7605 7.36984 11.4705L10.3698 8.47048C10.5798 8.26048 10.9099 8.19048 11.1899 8.31048C11.4699 8.43048 11.6499 8.70048 11.6499 9.00048V15.0005C11.6499 15.3005 11.4699 15.5805 11.1899 15.6905C11.0899 15.7305 10.9999 15.7505 10.8999 15.7505C10.6999 15.7505 10.5098 15.6705 10.3698 15.5305ZM10.1499 13.1905V10.8105L8.95987 12.0005L10.1499 13.1905Z" fill="#7328CE"/>
</g>
</svg>
