<svg width="24" height="24" viewBox="0 0 24 24" fill="none" xmlns="http://www.w3.org/2000/svg">
<mask id="mask0_251_28188" style="mask-type:luminance" maskUnits="userSpaceOnUse" x="0" y="0" width="24" height="24">
<rect width="24" height="24" fill="white"/>
</mask>
<g mask="url(#mask0_251_28188)">
<path fill-rule="evenodd" clip-rule="evenodd" d="M10.0212 21.8598C9.43124 21.7798 8.93119 21.3398 8.66119 20.6598L1.94122 3.85977C1.67122 3.18977 1.73125 2.53977 2.09125 2.06977C2.46125 1.59977 3.0712 1.37977 3.7912 1.47977L16.7612 3.20977C17.1112 3.25977 17.5212 3.45977 17.7712 3.70977L20.9012 6.83977C21.5112 7.45977 21.5812 8.46977 21.0412 9.15977L11.6612 21.0998C11.2612 21.6098 10.7512 21.8798 10.2312 21.8798C10.1612 21.8798 10.0912 21.8798 10.0212 21.8598ZM3.27124 2.99977C3.27124 3.00977 3.25124 3.11977 3.33124 3.30977L10.0512 20.1098C10.1312 20.3098 10.2212 20.3798 10.2312 20.3798C10.2412 20.3798 10.3412 20.3398 10.4712 20.1698L19.8512 8.22977C19.9212 8.14977 19.9112 7.96977 19.8312 7.89977L16.7012 4.76977C16.6812 4.74977 16.5912 4.70977 16.5512 4.69977L3.6012 2.96977C3.5512 2.95977 3.50124 2.95977 3.46124 2.95977C3.34124 2.95977 3.28124 2.98977 3.27124 2.99977Z" fill="#7328CE"/>
<path d="M9.93033 21.7498C9.52033 21.7098 9.21034 21.3498 9.25034 20.9398L10.2203 10.3198L2.51035 3.46976C2.20035 3.18976 2.17035 2.71976 2.45035 2.40976C2.73035 2.09976 3.20035 2.06976 3.51035 2.34976L11.5003 9.44976C11.6803 9.60976 11.7703 9.83976 11.7503 10.0798L10.7503 21.0798C10.7103 21.4598 10.3803 21.7498 10.0003 21.7498C9.98034 21.7498 9.95033 21.7498 9.93033 21.7498Z" fill="#7328CE"/>
<path d="M10.3399 10.3495C10.1799 10.0595 10.2398 9.69945 10.4698 9.46945L16.4698 3.46945C16.7598 3.17945 17.2399 3.17945 17.5299 3.46945C17.8199 3.75945 17.8199 4.23945 17.5299 4.52945L13.2799 8.77945L19.8898 7.45945C20.2998 7.37945 20.6899 7.63945 20.7699 8.04945C20.8499 8.45945 20.5898 8.84945 20.1798 8.92945L11.1398 10.7395C11.0998 10.7495 11.0498 10.7495 10.9998 10.7495C10.7298 10.7495 10.4699 10.5995 10.3399 10.3495Z" fill="#7328CE"/>
</g>
</svg>
