<svg width="24" height="24" viewBox="0 0 24 24" fill="none" xmlns="http://www.w3.org/2000/svg">
<path d="M7.13086 19.0605C6.72086 19.0605 6.38086 18.7205 6.38086 18.3105C6.38086 17.9005 6.72086 17.5605 7.13086 17.5605H15.1309C17.4709 17.5605 19.3809 15.6505 19.3809 13.3105C19.3809 10.9705 17.4709 9.06055 15.1309 9.06055H4.13086C3.72086 9.06055 3.38086 8.72055 3.38086 8.31055C3.38086 7.90055 3.72086 7.56055 4.13086 7.56055H15.1309C18.3009 7.56055 20.8809 10.1405 20.8809 13.3105C20.8809 16.4805 18.3009 19.0605 15.1309 19.0605H7.13086Z" fill="#7328CE"/>
<path d="M5.90055 11.3399L3.34055 8.77988C3.05055 8.48988 3.05055 8.00988 3.34055 7.71988L5.90055 5.15988C6.19055 4.86988 6.67055 4.86988 6.96055 5.15988C7.25055 5.44988 7.25055 5.92988 6.96055 6.21988L4.93055 8.24988L6.96055 10.2799C7.25055 10.5699 7.25055 11.0499 6.96055 11.3399C6.82055 11.4899 6.62055 11.5599 6.43055 11.5599C6.24055 11.5599 6.05055 11.4899 5.90055 11.3399Z" fill="#7328CE"/>
</svg>
