<svg width="24" height="24" viewBox="0 0 24 24" fill="none" xmlns="http://www.w3.org/2000/svg">
<path fill-rule="evenodd" clip-rule="evenodd" d="M6.25 7C6.25 3.83 8.83 1.25 12 1.25C15.17 1.25 17.75 3.83 17.75 7C17.75 10.17 15.17 12.75 12 12.75C8.83 12.75 6.25 10.17 6.25 7ZM7.75 7C7.75 9.34 9.66 11.25 12 11.25C14.34 11.25 16.25 9.34 16.25 7C16.25 4.66 14.34 2.75 12 2.75C9.66 2.75 7.75 4.66 7.75 7Z" fill="#7328CE"/>
<path fill-rule="evenodd" clip-rule="evenodd" d="M14.8196 22.3494C14.5096 22.0394 14.3696 21.5894 14.4396 21.1194L14.6296 19.7694C14.6796 19.4194 14.8896 19.0094 15.1396 18.7494L18.6796 15.2094C20.0996 13.7894 21.3496 14.5994 21.9596 15.2094C22.4796 15.7294 22.7496 16.2894 22.7496 16.8494C22.7496 17.4194 22.4896 17.9494 21.9596 18.4794L18.4195 22.0194C18.1695 22.2694 17.7496 22.4794 17.3996 22.5294L16.0495 22.7194C15.9695 22.7394 15.8996 22.7494 15.8196 22.7494C15.4396 22.7494 15.0796 22.6094 14.8196 22.3494ZM19.7396 16.2694L16.1996 19.8094C16.1696 19.8394 16.1196 19.9394 16.1196 19.9794L15.9396 21.2294L17.1896 21.0494C17.2296 21.0394 17.3295 20.9894 17.3595 20.9594L20.8996 17.4194C21.0596 17.2594 21.2496 17.0294 21.2496 16.8494C21.2496 16.6994 21.1296 16.4894 20.8996 16.2694C20.6596 16.0294 20.4796 15.9194 20.3096 15.9194C20.1296 15.9194 19.9696 16.0394 19.7396 16.2694Z" fill="#7328CE"/>
<path d="M20.7206 19.1894C19.4006 18.8194 18.3506 17.7694 17.9806 16.4494C17.8706 16.0494 18.1006 15.6394 18.5006 15.5294C18.9006 15.4194 19.3106 15.6494 19.4206 16.0494C19.6506 16.8694 20.3006 17.5194 21.1206 17.7494C21.5206 17.8594 21.7506 18.2794 21.6406 18.6694C21.5506 18.9994 21.2506 19.2194 20.9206 19.2194C20.8506 19.2194 20.7806 19.2094 20.7206 19.1894Z" fill="#7328CE"/>
<path d="M2.66016 22C2.66016 17.73 6.85018 14.25 12.0002 14.25C13.0902 14.25 14.1702 14.41 15.1802 14.71C15.5802 14.83 15.8002 15.25 15.6802 15.64C15.5602 16.04 15.1402 16.26 14.7502 16.14C13.8702 15.88 12.9502 15.74 12.0002 15.74C7.68018 15.74 4.16016 18.54 4.16016 21.99C4.16016 22.41 3.82016 22.75 3.41016 22.75C3.00016 22.75 2.66016 22.41 2.66016 22Z" fill="#7328CE"/>
</svg>
