<svg width="24" height="24" viewBox="0 0 24 24" fill="none" xmlns="http://www.w3.org/2000/svg">
<path fill-rule="evenodd" clip-rule="evenodd" d="M9.00063 22.7498C7.68063 22.7498 6.58063 22.6198 5.65063 22.3398C5.31063 22.2398 5.09063 21.9098 5.11063 21.5598C5.36063 18.5698 8.39063 16.2197 12.0006 16.2197C15.6106 16.2197 18.6306 18.5598 18.8906 21.5598C18.9206 21.9198 18.7006 22.2398 18.3506 22.3398C17.4206 22.6198 16.3206 22.7498 15.0006 22.7498H9.00063ZM9.00063 21.2498H15.0006C15.8706 21.2498 16.6206 21.1898 17.2806 21.0598C16.7506 19.1398 14.5606 17.7197 12.0006 17.7197C9.44063 17.7197 7.25063 19.1398 6.72063 21.0598C7.38063 21.1898 8.13063 21.2498 9.00063 21.2498Z" fill="#7328CE"/>
<path d="M15 1.25C17.574 1.25 19.5708 1.76026 20.9053 3.09473C22.2397 4.4292 22.75 6.42603 22.75 9V15C22.75 16.9505 22.4586 18.5639 21.7402 19.8125C21.0041 21.0919 19.8647 21.9114 18.3447 22.3418C18.1293 22.4028 17.897 22.3637 17.7129 22.2363C17.5291 22.109 17.4115 21.9064 17.3926 21.6836C17.2155 19.5912 14.9928 17.7197 12 17.7197C9.00719 17.7197 6.78447 19.5912 6.60742 21.6836C6.58846 21.9064 6.47089 22.109 6.28711 22.2363C6.10297 22.3637 5.87072 22.4028 5.65527 22.3418C4.13527 21.9114 2.99591 21.0919 2.25977 19.8125C1.54144 18.5639 1.25 16.9505 1.25 15V9C1.25 6.42603 1.76026 4.4292 3.09473 3.09473C4.4292 1.76026 6.42603 1.25 9 1.25H15ZM9 2.75C6.57397 2.75 5.0708 3.23974 4.15527 4.15527C3.23974 5.0708 2.75 6.57397 2.75 9V15C2.75 16.8294 3.02899 18.1406 3.56055 19.0645C3.95377 19.7479 4.5093 20.2591 5.28613 20.6143C6.03117 18.0083 8.85882 16.2197 12 16.2197C15.1411 16.2197 17.9677 18.0085 18.7129 20.6143C19.4902 20.2591 20.0461 19.7481 20.4395 19.0645C20.971 18.1406 21.25 16.8294 21.25 15V9C21.25 6.57397 20.7603 5.0708 19.8447 4.15527C18.9292 3.23974 17.426 2.75 15 2.75H9ZM12 6.25C14.3942 6.25 16.3301 8.18587 16.3301 10.5801C16.33 12.9715 14.3969 14.9199 12 14.9199C9.60309 14.9199 7.66995 12.9715 7.66992 10.5801C7.66992 8.18587 9.60578 6.25 12 6.25ZM12 7.75C10.4342 7.75 9.16992 9.01429 9.16992 10.5801C9.16995 12.1486 10.4369 13.4199 12 13.4199C13.5631 13.4199 14.83 12.1486 14.8301 10.5801C14.8301 9.01429 13.5658 7.75 12 7.75Z" fill="#7328CE"/>
<path fill-rule="evenodd" clip-rule="evenodd" d="M7.66992 10.58C7.66992 8.19002 9.60992 6.25 11.9999 6.25C14.3899 6.25 16.3299 8.19002 16.3299 10.58C16.3299 12.97 14.3899 14.92 11.9999 14.92C9.60992 14.92 7.66992 12.97 7.66992 10.58ZM9.16992 10.58C9.16992 12.15 10.4399 13.42 11.9999 13.42C13.5599 13.42 14.8299 12.15 14.8299 10.58C14.8299 9.02002 13.5599 7.75 11.9999 7.75C10.4399 7.75 9.16992 9.02002 9.16992 10.58Z" fill="#7328CE"/>
</svg>
