<svg width="24" height="24" viewBox="0 0 24 24" fill="none" xmlns="http://www.w3.org/2000/svg">
<mask id="mask0_251_27974" style="mask-type:luminance" maskUnits="userSpaceOnUse" x="0" y="0" width="24" height="24">
<rect width="24" height="24" fill="white"/>
</mask>
<g mask="url(#mask0_251_27974)">
<path d="M2 3.78027C1.59 3.78027 1.25 3.44027 1.25 3.03027C1.25 2.62027 1.59 2.28027 2 2.28027H22C22.41 2.28027 22.75 2.62027 22.75 3.03027C22.75 3.44027 22.41 3.78027 22 3.78027H2Z" fill="#7328CE"/>
<path fill-rule="evenodd" clip-rule="evenodd" d="M10.4287 20.8704L2.46868 8.48035C2.09868 7.91035 2.07868 7.18035 2.39868 6.58035C2.72868 5.98035 3.34868 5.61035 4.02868 5.61035H19.9587C20.6387 5.61035 21.2687 5.98035 21.5887 6.58035C21.9187 7.18035 21.8887 7.91035 21.5187 8.48035L13.5587 20.8704C13.2187 21.4004 12.6387 21.7204 11.9987 21.7204C11.3587 21.7204 10.7787 21.4004 10.4287 20.8704ZM3.71868 7.30035C3.68868 7.36035 3.62869 7.51035 3.72869 7.67035L11.6887 20.0603C11.7787 20.2003 11.9187 20.2304 11.9887 20.2304C12.0587 20.2304 12.1987 20.2103 12.2887 20.0603L20.2487 7.67035C20.3487 7.51035 20.2887 7.36035 20.2587 7.30035C20.2287 7.24035 20.1387 7.11035 19.9387 7.11035H4.03869C3.84869 7.11035 3.74868 7.24035 3.71868 7.30035Z" fill="#7328CE"/>
</g>
</svg>
