<svg width="24" height="24" viewBox="0 0 24 24" fill="none" xmlns="http://www.w3.org/2000/svg">
<mask id="mask0_251_28739" style="mask-type:luminance" maskUnits="userSpaceOnUse" x="0" y="0" width="24" height="24">
<rect width="24" height="24" fill="white"/>
</mask>
<g mask="url(#mask0_251_28739)">
<path fill-rule="evenodd" clip-rule="evenodd" d="M11.3987 12.2995L8.89866 8.96953C8.72866 8.73953 8.69866 8.43952 8.82866 8.17952C8.95866 7.91952 9.21864 7.76953 9.49864 7.76953H14.4986C14.7786 7.76953 15.0386 7.92952 15.1686 8.17952C15.2986 8.42952 15.2686 8.73953 15.0986 8.96953L12.5986 12.2995C12.4586 12.4895 12.2386 12.5995 11.9986 12.5995C11.7586 12.5995 11.5387 12.4895 11.3987 12.2995ZM11.9986 10.5995L12.9986 9.26953H10.9986L11.9986 10.5995Z" fill="#7328CE"/>
<path fill-rule="evenodd" clip-rule="evenodd" d="M1.25 12C1.25 6.07 6.07 1.25 12 1.25C17.93 1.25 22.75 6.07 22.75 12C22.75 17.93 17.93 22.75 12 22.75C6.07 22.75 1.25 17.93 1.25 12ZM2.75 12C2.75 17.1 6.9 21.25 12 21.25C17.1 21.25 21.25 17.1 21.25 12C21.25 6.9 17.1 2.75 12 2.75C6.9 2.75 2.75 6.9 2.75 12Z" fill="#7328CE"/>
<path d="M11.3909 17.4402L6.3909 10.4402C6.1509 10.1002 6.23088 9.63024 6.56088 9.39024C6.90088 9.15024 7.37087 9.23024 7.61087 9.56024L12.0009 15.7102L16.3909 9.56024C16.6309 9.22024 17.1009 9.14024 17.4409 9.39024C17.7809 9.63024 17.8609 10.1002 17.6109 10.4402L12.6109 17.4402C12.4709 17.6302 12.2409 17.7502 12.0009 17.7502C11.7609 17.7502 11.5309 17.6302 11.3909 17.4402Z" fill="#7328CE"/>
</g>
</svg>
