<svg width="24" height="24" viewBox="0 0 24 24" fill="none" xmlns="http://www.w3.org/2000/svg">
<path fill-rule="evenodd" clip-rule="evenodd" d="M9 22.75C3.57 22.75 1.25 20.43 1.25 15V9C1.25 3.57 3.57 1.25 9 1.25H15C20.43 1.25 22.75 3.57 22.75 9V15C22.75 20.43 20.43 22.75 15 22.75H9ZM2.75 9V15C2.75 19.61 4.39 21.25 9 21.25H15C19.61 21.25 21.25 19.61 21.25 15V9C21.25 4.39 19.61 2.75 15 2.75H9C4.39 2.75 2.75 4.39 2.75 9Z" fill="#7328CE"/>
<path d="M6.14062 21.4795V2.51953C6.14062 2.10953 6.48063 1.76953 6.89062 1.76953C7.30062 1.76953 7.64062 2.09953 7.64062 2.51953V21.4795C7.64062 21.8995 7.30062 22.2295 6.89062 22.2295C6.48063 22.2295 6.14062 21.8895 6.14062 21.4795Z" fill="#7328CE"/>
<path d="M16.1406 21.4795V2.51953C16.1406 2.10953 16.4806 1.76953 16.8906 1.76953C17.3006 1.76953 17.6406 2.10953 17.6406 2.51953V21.4795C17.6406 21.8995 17.3006 22.2295 16.8906 22.2295C16.4806 22.2295 16.1406 21.8895 16.1406 21.4795Z" fill="#7328CE"/>
<path d="M2.53906 7.7207C2.12906 7.7207 1.78906 7.3807 1.78906 6.9707C1.78906 6.5607 2.12906 6.2207 2.53906 6.2207H6.88906C7.29906 6.2207 7.63906 6.5607 7.63906 6.9707C7.63906 7.3807 7.29906 7.7207 6.88906 7.7207H2.53906Z" fill="#7328CE"/>
<path d="M2.0293 12.75C1.6193 12.75 1.2793 12.41 1.2793 12C1.2793 11.59 1.6193 11.25 2.0293 11.25H6.8893C7.2993 11.25 7.6393 11.59 7.6393 12C7.6393 12.41 7.2993 12.75 6.8893 12.75H2.0293Z" fill="#7328CE"/>
<path d="M2.48047 17.7207C2.07047 17.7207 1.73047 17.3807 1.73047 16.9707C1.73047 16.5607 2.07047 16.2207 2.48047 16.2207H6.89047C7.30047 16.2207 7.64047 16.5607 7.64047 16.9707C7.64047 17.3807 7.30047 17.7207 6.89047 17.7207H2.48047Z" fill="#7328CE"/>
<path d="M17.5391 7.7207C17.1291 7.7207 16.7891 7.3807 16.7891 6.9707C16.7891 6.5607 17.1291 6.2207 17.5391 6.2207H21.8891C22.2991 6.2207 22.6391 6.5607 22.6391 6.9707C22.6391 7.3807 22.2991 7.7207 21.8891 7.7207H17.5391Z" fill="#7328CE"/>
<path d="M17.0293 12.75C16.6193 12.75 16.2793 12.41 16.2793 12C16.2793 11.59 16.6193 11.25 17.0293 11.25H21.8893C22.2993 11.25 22.6393 11.59 22.6393 12C22.6393 12.41 22.2993 12.75 21.8893 12.75H17.0293Z" fill="#7328CE"/>
<path d="M5.9707 12.75C5.5607 12.75 5.2207 12.41 5.2207 12C5.2207 11.59 5.5607 11.25 5.9707 11.25H16.9707C17.3807 11.25 17.7207 11.59 17.7207 12C17.7207 12.41 17.3907 12.75 16.9707 12.75H5.9707Z" fill="#7328CE"/>
<path d="M17.4805 17.7207C17.0705 17.7207 16.7305 17.3807 16.7305 16.9707C16.7305 16.5607 17.0705 16.2207 17.4805 16.2207H21.8905C22.3005 16.2207 22.6405 16.5607 22.6405 16.9707C22.6405 17.3807 22.3005 17.7207 21.8905 17.7207H17.4805Z" fill="#7328CE"/>
</svg>
