<svg width="24" height="24" viewBox="0 0 24 24" fill="none" xmlns="http://www.w3.org/2000/svg">
<path d="M5.25 14.1406V9.85059C5.25 9.44059 5.59 9.10059 6 9.10059C6.41 9.10059 6.75 9.44059 6.75 9.85059V14.1406C6.75 14.5606 6.41 14.8906 6 14.8906C5.59 14.8906 5.25 14.5506 5.25 14.1406Z" fill="#7328CE"/>
<path d="M8.25 15.5697V8.42969C8.25 8.01969 8.59 7.67969 9 7.67969C9.41 7.67969 9.75 8.01969 9.75 8.42969V15.5697C9.75 15.9897 9.41 16.3197 9 16.3197C8.59 16.3197 8.25 15.9797 8.25 15.5697Z" fill="#7328CE"/>
<path d="M11.25 17V7C11.25 6.59 11.59 6.25 12 6.25C12.41 6.25 12.75 6.59 12.75 7V17C12.75 17.41 12.41 17.75 12 17.75C11.59 17.75 11.25 17.41 11.25 17Z" fill="#7328CE"/>
<path d="M14.25 15.5697V8.42969C14.25 8.01969 14.59 7.67969 15 7.67969C15.41 7.67969 15.75 8.01969 15.75 8.42969V15.5697C15.75 15.9897 15.41 16.3197 15 16.3197C14.59 16.3197 14.25 15.9797 14.25 15.5697Z" fill="#7328CE"/>
<path d="M17.25 14.1406V9.85059C17.25 9.44059 17.59 9.10059 18 9.10059C18.41 9.10059 18.75 9.44059 18.75 9.85059V14.1406C18.75 14.5606 18.41 14.8906 18 14.8906C17.59 14.8906 17.25 14.5506 17.25 14.1406Z" fill="#7328CE"/>
<path fill-rule="evenodd" clip-rule="evenodd" d="M1.25 12C1.25 6.07 6.07 1.25 12 1.25C17.93 1.25 22.75 6.07 22.75 12C22.75 17.93 17.93 22.75 12 22.75C6.07 22.75 1.25 17.93 1.25 12ZM2.75 12C2.75 17.1 6.9 21.25 12 21.25C17.1 21.25 21.25 17.1 21.25 12C21.25 6.9 17.1 2.75 12 2.75C6.9 2.75 2.75 6.9 2.75 12Z" fill="#7328CE"/>
</svg>
