<svg width="24" height="24" viewBox="0 0 24 24" fill="none" xmlns="http://www.w3.org/2000/svg">
<path d="M5 17.7494C2.58 17.7494 1.25 16.4194 1.25 13.9994V9.99938C1.25 7.57938 2.58 6.24938 5 6.24938H6.43C6.66 6.24938 6.89 6.17938 7.09 6.05938L10.01 4.22938C11.47 3.31938 12.89 3.14938 14.01 3.76938C15.13 4.38938 15.74 5.67938 15.74 7.40938V8.36938C15.74 8.77938 15.4 9.11938 14.99 9.11938C14.58 9.11938 14.24 8.77938 14.24 8.36938V7.40938C14.24 6.26938 13.89 5.41938 13.28 5.08938C12.67 4.74938 11.77 4.89938 10.8 5.50938L7.88 7.32938C7.45 7.60938 6.94 7.74938 6.43 7.74938H5C3.42 7.74938 2.75 8.41938 2.75 9.99938V13.9994C2.75 15.5794 3.42 16.2494 5 16.2494H7C7.41 16.2494 7.75 16.5894 7.75 16.9994C7.75 17.4094 7.41 17.7494 7 17.7494H5Z" fill="#7328CE"/>
<path d="M10.0196 19.7602C9.6696 19.5402 9.5596 19.0802 9.7796 18.7302C9.9996 18.3802 10.4596 18.2702 10.8096 18.4902C11.7796 19.0902 12.6796 19.2502 13.2896 18.9102C13.8996 18.5702 14.2496 17.7202 14.2496 16.5902V12.9502C14.2496 12.5402 14.5896 12.2002 14.9996 12.2002C15.4096 12.2002 15.7496 12.5402 15.7496 12.9502V16.5902C15.7496 18.3102 15.1296 19.6102 14.0196 20.2302C13.5696 20.4702 13.0696 20.5902 12.5496 20.5902C11.7596 20.5902 10.8896 20.3102 10.0196 19.7602Z" fill="#7328CE"/>
<path d="M17.5503 16.5993C17.2203 16.3493 17.1503 15.8793 17.4003 15.5493C18.6603 13.8693 18.9303 11.6393 18.1203 9.70934C17.9603 9.32934 18.1403 8.88934 18.5203 8.72934C18.9003 8.56934 19.3403 8.74934 19.5003 9.12934C20.5203 11.5493 20.1703 14.3593 18.6003 16.4593C18.4503 16.6493 18.2303 16.7493 18.0003 16.7493C17.8403 16.7493 17.6903 16.6993 17.5503 16.5993Z" fill="#7328CE"/>
<path d="M19.3804 19.1002C19.0504 18.8502 18.9804 18.3802 19.2304 18.0502C21.3704 15.2002 21.8404 11.3802 20.4604 8.0902C20.3004 7.7102 20.4804 7.2702 20.8604 7.1102C21.2504 6.9502 21.6804 7.1302 21.8404 7.5102C23.4304 11.2902 22.8904 15.6702 20.4304 18.9502C20.2904 19.1502 20.0604 19.2502 19.8304 19.2502C19.6704 19.2502 19.5204 19.2002 19.3804 19.1002Z" fill="#7328CE"/>
<path d="M1.46945 22.5304C1.17945 22.2404 1.17945 21.7604 1.46945 21.4704L21.4695 1.47043C21.7595 1.18043 22.2395 1.18043 22.5295 1.47043C22.8195 1.76043 22.8195 2.24043 22.5295 2.53043L2.52945 22.5304C2.37945 22.6804 2.18945 22.7504 1.99945 22.7504C1.80945 22.7504 1.61945 22.6804 1.46945 22.5304Z" fill="#7328CE"/>
</svg>
