<svg width="24" height="24" viewBox="0 0 24 24" fill="none" xmlns="http://www.w3.org/2000/svg">
<mask id="mask0_251_29088" style="mask-type:luminance" maskUnits="userSpaceOnUse" x="0" y="0" width="24" height="24">
<rect width="24" height="24" fill="white"/>
</mask>
<g mask="url(#mask0_251_29088)">
<path d="M11.3698 22.4096L2.32981 8.40963C2.10981 8.05963 2.20981 7.59963 2.54981 7.36963C2.89981 7.14963 3.35982 7.23963 3.58982 7.58963L11.9898 20.6096L20.3598 7.58963C20.5798 7.23963 21.0498 7.13962 21.3998 7.35962C21.7498 7.57962 21.8498 8.04962 21.6298 8.39962L12.6298 22.3996C12.4898 22.6196 12.2598 22.7496 11.9998 22.7496C11.7498 22.7496 11.5098 22.6196 11.3698 22.4096Z" fill="#7328CE"/>
<path fill-rule="evenodd" clip-rule="evenodd" d="M11.3686 18.4098L2.36858 4.40976C2.21858 4.17976 2.20858 3.88975 2.33858 3.64975C2.46858 3.40975 2.71859 3.25977 2.99859 3.25977H5.99859C6.24859 3.25977 6.47858 3.37975 6.61858 3.58975L11.9986 11.6497L17.3786 3.58975C17.5186 3.37975 17.7486 3.25977 17.9986 3.25977H20.9986C21.2686 3.25977 21.5286 3.40975 21.6586 3.64975C21.7886 3.88975 21.7786 4.17976 21.6286 4.40976L12.6286 18.4098C12.4886 18.6198 12.2586 18.7498 11.9986 18.7498C11.7386 18.7498 11.5086 18.6198 11.3686 18.4098ZM11.9986 16.6097L19.6286 4.74976H18.3986L12.6186 13.4198C12.3386 13.8398 11.6486 13.8398 11.3686 13.4198L5.58858 4.74976H4.36858L11.9986 16.6097Z" fill="#7328CE"/>
<path fill-rule="evenodd" clip-rule="evenodd" d="M11.3798 9.42001L7.37985 3.42001C7.19985 3.15001 7.20985 2.80001 7.40985 2.54001C7.60985 2.29001 7.94984 2.18999 8.24984 2.29999L10.0498 2.94V2C10.0498 1.59 10.3898 1.25 10.7998 1.25H13.1999C13.6099 1.25 13.9499 1.59 13.9499 2V2.94L15.7498 2.29999C16.0498 2.18999 16.3898 2.29001 16.5898 2.54001C16.7898 2.79001 16.7998 3.15001 16.6198 3.42001L12.6198 9.42001C12.4798 9.62001 12.2498 9.75 11.9998 9.75C11.7498 9.75 11.5198 9.63001 11.3798 9.42001ZM11.9998 7.64999L14.1198 4.47L13.4499 4.70999C13.2199 4.78999 12.9698 4.76 12.7698 4.62C12.5698 4.48 12.4499 4.25001 12.4499 4.01001V2.76001H11.5498V4C11.5498 4.24 11.4299 4.46999 11.2299 4.60999C11.0299 4.74999 10.7698 4.78001 10.5498 4.70001L9.87985 4.47L11.9998 7.64999Z" fill="#7328CE"/>
</g>
</svg>
