<svg width="24" height="24" viewBox="0 0 24 24" fill="none" xmlns="http://www.w3.org/2000/svg">
<path d="M7 11.8994C6.59 11.8994 6.25 11.5594 6.25 11.1494C6.25 10.7394 6.59 10.3994 7 10.3994H13C13.41 10.3994 13.75 10.7394 13.75 11.1494C13.75 11.5594 13.41 11.8994 13 11.8994H7Z" fill="#7328CE"/>
<path d="M1.25 11.1498V6.52985C1.25 4.07985 3.24 2.08984 5.69 2.08984H11.31C13.88 2.08984 15.75 3.79984 15.75 6.14984C15.75 6.55984 15.41 6.89984 15 6.89984C14.59 6.89984 14.25 6.55984 14.25 6.14984C14.25 4.38984 12.72 3.58984 11.31 3.58984H5.69C4.07 3.58984 2.75 4.90985 2.75 6.52985V11.1498C2.75 11.5698 2.41 11.8998 2 11.8998C1.59 11.8998 1.25 11.5598 1.25 11.1498Z" fill="#7328CE"/>
<path fill-rule="evenodd" clip-rule="evenodd" d="M6 21.8994C3.38 21.8994 1.25 19.7694 1.25 17.1494V10.1494C1.25 7.52941 3.38 5.39941 6 5.39941H16C18.62 5.39941 20.75 7.52941 20.75 10.1494V11.5994C20.75 12.0094 20.41 12.3494 20 12.3494H18.92C18.57 12.3494 18.25 12.4794 18.02 12.7194L18.01 12.7294C17.68 13.0594 17.55 13.5194 17.67 13.9694C17.82 14.5294 18.41 14.9394 19.07 14.9394H20C20.41 14.9394 20.75 15.2794 20.75 15.6894V17.1394C20.75 19.7694 18.62 21.8994 16 21.8994H6ZM2.75 10.1494V17.1494C2.75 18.9394 4.21 20.3994 6 20.3994H16C17.79 20.3994 19.25 18.9394 19.25 17.1494V16.4494H19.07C17.72 16.4494 16.55 15.5994 16.22 14.3694C15.96 13.3994 16.24 12.3694 16.95 11.6694C17.47 11.1394 18.17 10.8494 18.92 10.8494H19.25V10.1494C19.25 8.35941 17.79 6.89941 16 6.89941H6C4.21 6.89941 2.75 8.35941 2.75 10.1494Z" fill="#7328CE"/>
<path fill-rule="evenodd" clip-rule="evenodd" d="M19.0399 16.4506C17.5299 16.4506 16.2499 15.3306 16.1299 13.8906C16.0499 13.0606 16.3499 12.2506 16.9499 11.6606C17.4499 11.1406 18.1599 10.8506 18.9099 10.8506H20.9599C21.9399 10.8506 22.7399 11.6406 22.7399 12.6206V14.6806C22.7499 15.6606 21.9499 16.4506 20.9699 16.4506H19.0399ZM18.0199 12.7206C17.7299 13.0006 17.5899 13.3806 17.6299 13.7606C17.6799 14.4206 18.3199 14.9506 19.0399 14.9506H20.9699C21.1199 14.9506 21.2499 14.8306 21.2499 14.6806V12.6206C21.2499 12.4706 21.1199 12.3506 20.9699 12.3506H18.9199C18.5699 12.3506 18.2499 12.4806 18.0199 12.7206Z" fill="#7328CE"/>
</svg>
