<svg width="24" height="24" viewBox="0 0 24 24" fill="none" xmlns="http://www.w3.org/2000/svg">
<path fill-rule="evenodd" clip-rule="evenodd" d="M10 22.75C4.57 22.75 2.25 20.43 2.25 15V9C2.25 3.57 4.57 1.25 10 1.25H14C19.43 1.25 21.75 3.57 21.75 9V15C21.75 20.43 19.43 22.75 14 22.75H10ZM3.75 9V15C3.75 19.61 5.39 21.25 10 21.25H14C18.61 21.25 20.25 19.61 20.25 15V9C20.25 4.39 18.61 2.75 14 2.75H10C5.39 2.75 3.75 4.39 3.75 9Z" fill="#7328CE"/>
<path fill-rule="evenodd" clip-rule="evenodd" d="M14.5706 12.3496C13.1106 11.0496 10.8906 11.0496 9.4306 12.3496C9.2706 12.4996 9.0506 12.5596 8.8206 12.5296C8.6006 12.4996 8.4106 12.3696 8.2906 12.1796L6.1106 8.67961C5.9206 8.36961 5.9806 7.96961 6.2506 7.71961C9.5306 4.80961 14.4706 4.80961 17.7506 7.71961C18.0206 7.95961 18.0806 8.36961 17.8906 8.67961L15.7106 12.1796C15.5906 12.3696 15.4006 12.4896 15.1806 12.5296C15.1406 12.5296 15.1006 12.5396 15.0706 12.5396C14.8906 12.5396 14.7106 12.4696 14.5706 12.3496ZM14.8606 10.6996L16.2606 8.44961C13.7306 6.56961 10.2606 6.56961 7.7306 8.44961L9.1306 10.6996C10.0106 10.1396 11.0006 9.86961 12.0006 9.86961C13.0006 9.86961 13.9906 10.1496 14.8606 10.6996Z" fill="#7328CE"/>
</svg>
