<svg width="24" height="24" viewBox="0 0 24 24" fill="none" xmlns="http://www.w3.org/2000/svg">
<path d="M18.6309 12.4304C14.6009 9.32038 9.39091 9.32038 5.36091 12.4304C5.03091 12.6804 4.56091 12.6204 4.31091 12.3004C4.06091 11.9704 4.12091 11.5004 4.44091 11.2504C9.03091 7.70039 14.9609 7.70039 19.5409 11.2504C19.8709 11.5004 19.9309 11.9704 19.6709 12.3004C19.5409 12.4904 19.3209 12.5904 19.0909 12.5904C18.9309 12.5904 18.7709 12.5404 18.6309 12.4304Z" fill="#7328CE"/>
<path d="M21.5405 8.95041C15.7405 4.47041 8.25052 4.47041 2.46053 8.95041C2.13053 9.20041 1.66052 9.14041 1.41052 8.82041C1.16052 8.49041 1.22051 8.02039 1.54051 7.77039C7.89051 2.86039 16.1005 2.86039 22.4605 7.77039C22.7905 8.02039 22.8505 8.49041 22.5905 8.82041C22.4505 9.01041 22.2205 9.11039 22.0005 9.11039C21.8405 9.11039 21.6805 9.06041 21.5405 8.95041Z" fill="#7328CE"/>
<path d="M16.7496 16.0803C13.8696 13.8503 10.1396 13.8503 7.24958 16.0803C6.91958 16.3303 6.44958 16.2703 6.19958 15.9503C5.94958 15.6203 6.00958 15.1503 6.32958 14.9003C9.76958 12.2403 14.2196 12.2403 17.6596 14.9003C17.9896 15.1503 18.0496 15.6203 17.7896 15.9503C17.6496 16.1403 17.4296 16.2403 17.2096 16.2403C17.0496 16.2403 16.8896 16.1903 16.7496 16.0803Z" fill="#7328CE"/>
<path d="M14.1392 19.7405C12.8392 18.7305 11.1492 18.7305 9.8492 19.7405C9.5192 19.9905 9.04919 19.9305 8.79919 19.6105C8.54919 19.2805 8.60918 18.8105 8.92918 18.5605C10.7892 17.1205 13.1892 17.1205 15.0492 18.5605C15.3792 18.8105 15.4392 19.2805 15.1792 19.6105C15.0492 19.7905 14.8292 19.9005 14.5992 19.9005C14.4392 19.9005 14.2792 19.8505 14.1392 19.7405Z" fill="#7328CE"/>
</svg>
