<svg width="24" height="24" viewBox="0 0 24 24" fill="none" xmlns="http://www.w3.org/2000/svg">
<path d="M17.5405 10.5502C14.1705 7.95016 9.82051 7.95016 6.46051 10.5502C6.13051 10.8002 5.66052 10.7402 5.41052 10.4202C5.16052 10.0902 5.22052 9.62016 5.54052 9.37016C9.46052 6.34016 14.5305 6.34016 18.4605 9.37016C18.7905 9.62016 18.8505 10.0902 18.5905 10.4202C18.4505 10.6102 18.2205 10.7102 18.0005 10.7102C17.8405 10.7102 17.6805 10.6602 17.5405 10.5502Z" fill="#7328CE"/>
<path d="M15.9404 13.64C13.5404 11.79 10.4504 11.79 8.05037 13.64C7.72037 13.89 7.25036 13.83 7.00036 13.51C6.75036 13.18 6.81036 12.71 7.13036 12.46C10.0804 10.18 13.9004 10.18 16.8504 12.46C17.1804 12.71 17.2404 13.18 16.9804 13.51C16.8504 13.7 16.6304 13.8 16.4004 13.8C16.2404 13.8 16.0804 13.75 15.9404 13.64Z" fill="#7328CE"/>
<path d="M13.7396 16.7294C12.6796 15.9094 11.3096 15.9094 10.2496 16.7294C9.91958 16.9794 9.44958 16.9195 9.19958 16.5995C8.94958 16.2695 9.00958 15.7995 9.32958 15.5495C10.9196 14.3195 13.0596 14.3195 14.6496 15.5495C14.9796 15.7995 15.0396 16.2695 14.7796 16.5995C14.6496 16.7895 14.4296 16.8894 14.1996 16.8894C14.0396 16.8894 13.8796 16.8394 13.7396 16.7294Z" fill="#7328CE"/>
<path fill-rule="evenodd" clip-rule="evenodd" d="M9 22.75C3.57 22.75 1.25 20.43 1.25 15V9C1.25 3.57 3.57 1.25 9 1.25H15C20.43 1.25 22.75 3.57 22.75 9V15C22.75 20.43 20.43 22.75 15 22.75H9ZM2.75 9V15C2.75 19.61 4.39 21.25 9 21.25H15C19.61 21.25 21.25 19.61 21.25 15V9C21.25 4.39 19.61 2.75 15 2.75H9C4.39 2.75 2.75 4.39 2.75 9Z" fill="#7328CE"/>
</svg>
