<svg width="24" height="24" viewBox="0 0 24 24" fill="none" xmlns="http://www.w3.org/2000/svg">
<mask id="mask0_251_28651" style="mask-type:luminance" maskUnits="userSpaceOnUse" x="0" y="0" width="24" height="24">
<rect width="24" height="24" fill="white"/>
</mask>
<g mask="url(#mask0_251_28651)">
<path fill-rule="evenodd" clip-rule="evenodd" d="M16.3586 19.3802L14.5086 16.2802C14.3686 16.0502 14.3686 15.7602 14.4986 15.5202L17.8386 9.69023L15.3486 5.36023C15.2186 5.13023 15.2186 4.84023 15.3486 4.61023C15.4786 4.38023 15.7286 4.24023 15.9986 4.24023H19.4986C19.7686 4.24023 20.0186 4.38022 20.1486 4.62022L22.8486 9.32024C22.9786 9.55024 22.9786 9.83023 22.8486 10.0602L17.6486 19.3602C17.5186 19.5902 17.2686 19.7402 17.0086 19.7402C17.0086 19.7502 16.9986 19.7502 16.9986 19.7502C16.7386 19.7502 16.4886 19.6102 16.3586 19.3802ZM16.9786 17.5002L21.3386 9.70023L19.0686 5.74023H17.2986L19.3486 9.32024C19.4786 9.55024 19.4786 9.84024 19.3486 10.0702L16.0186 15.8902L16.9786 17.5002Z" fill="#7328CE"/>
<path fill-rule="evenodd" clip-rule="evenodd" d="M9.35861 19.3802L7.50863 16.2802C7.36863 16.0502 7.36862 15.7602 7.49862 15.5202L10.8386 9.69023L8.34863 5.36023C8.21863 5.13023 8.21863 4.84023 8.34863 4.61023C8.47863 4.38023 8.72862 4.24023 8.99862 4.24023H12.4986C12.7686 4.24023 13.0186 4.38022 13.1486 4.62022L15.8486 9.32024C15.9786 9.55024 15.9786 9.83023 15.8486 10.0602L10.6486 19.3602C10.5186 19.5902 10.2686 19.7402 10.0086 19.7402C10.0086 19.7502 9.99862 19.7502 9.99862 19.7502C9.73862 19.7502 9.48861 19.6102 9.35861 19.3802ZM9.97863 17.5002L14.3386 9.70023L12.0686 5.74023H10.2986L12.3486 9.32024C12.4786 9.55024 12.4786 9.84024 12.3486 10.0702L9.01861 15.8902L9.97863 17.5002Z" fill="#7328CE"/>
<path fill-rule="evenodd" clip-rule="evenodd" d="M5.64992 13.08L1.14992 5.38C1.00992 5.15 1.00992 4.86 1.14992 4.63C1.27992 4.4 1.52992 4.25 1.79992 4.25H5.29992C5.56992 4.25 5.81994 4.4 5.94994 4.63L8.64992 9.42999C8.77992 9.65999 8.77994 9.94999 8.63994 10.18L6.93993 13.08C6.80993 13.31 6.56992 13.45 6.29992 13.45C6.02992 13.45 5.78992 13.31 5.64992 13.08ZM6.29992 11.22L7.12993 9.8L4.85991 5.75999H3.10991V5.75L6.29992 11.22Z" fill="#7328CE"/>
</g>
</svg>
