<svg width="24" height="24" viewBox="0 0 24 24" fill="none" xmlns="http://www.w3.org/2000/svg">
<mask id="mask0_251_29048" style="mask-type:luminance" maskUnits="userSpaceOnUse" x="0" y="0" width="24" height="24">
<rect width="24" height="24" fill="white"/>
</mask>
<g mask="url(#mask0_251_29048)">
<path fill-rule="evenodd" clip-rule="evenodd" d="M9 22.75C3.57 22.75 1.25 20.43 1.25 15V9C1.25 3.57 3.57 1.25 9 1.25H15C20.43 1.25 22.75 3.57 22.75 9V15C22.75 20.43 20.43 22.75 15 22.75H9ZM2.75 9V15C2.75 19.61 4.39 21.25 9 21.25H15C19.61 21.25 21.25 19.61 21.25 15V9C21.25 4.39 19.61 2.75 15 2.75H9C4.39 2.75 2.75 4.39 2.75 9Z" fill="#7328CE"/>
<path fill-rule="evenodd" clip-rule="evenodd" d="M16.1899 16.28C14.7999 16.28 13.6699 15.15 13.6699 13.76C13.6699 12.37 14.7999 11.24 16.1899 11.24H17.2099V8.45996C17.2099 8.04996 17.5499 7.70996 17.9599 7.70996C18.3699 7.70996 18.7099 8.04996 18.7099 8.45996V15.52C18.7099 15.95 18.3699 16.28 17.9599 16.28H16.1899ZM15.1699 13.77C15.1699 14.33 15.6299 14.79 16.1899 14.79H17.2099V12.76H16.1899V12.75C15.6299 12.75 15.1699 13.21 15.1699 13.77Z" fill="#7328CE"/>
<path d="M11.099 16.0004L5.44903 8.94043C5.18903 8.62043 5.23904 8.14044 5.56904 7.89044C5.88904 7.63044 6.36903 7.68044 6.61903 8.01044L12.269 15.0704C12.529 15.3904 12.479 15.8704 12.149 16.1204C12.019 16.2304 11.859 16.2804 11.689 16.2804C11.469 16.2804 11.249 16.1804 11.099 16.0004Z" fill="#7328CE"/>
<path d="M5.56983 16.1202C5.24983 15.8602 5.18981 15.3902 5.44981 15.0702L11.0998 8.01025C11.3598 7.69025 11.8298 7.63025 12.1498 7.89025C12.4698 8.15025 12.5298 8.62024 12.2698 8.94024L6.61981 16.0002C6.47981 16.1802 6.25981 16.2802 6.03981 16.2802C5.87981 16.2802 5.70983 16.2302 5.56983 16.1202Z" fill="#7328CE"/>
</g>
</svg>
