<svg width="24" height="24" viewBox="0 0 24 24" fill="none" xmlns="http://www.w3.org/2000/svg">
<mask id="mask0_251_27901" style="mask-type:luminance" maskUnits="userSpaceOnUse" x="0" y="0" width="24" height="24">
<rect width="24" height="24" fill="white"/>
</mask>
<g mask="url(#mask0_251_27901)">
<path fill-rule="evenodd" clip-rule="evenodd" d="M8.50888 10.0402L2.7789 4.31023C2.2589 3.79023 2.10889 3.02023 2.38889 2.35023C2.66889 1.68023 3.31886 1.24023 4.04886 1.24023H5.45889C6.49889 1.24023 7.47889 1.65023 8.20889 2.38023L11.7888 5.96023C11.9388 6.11023 12.0589 6.11023 12.2089 5.96023L15.7888 2.38023C16.5288 1.64023 17.4988 1.24023 18.5388 1.24023H19.9489C20.6789 1.24023 21.3289 1.68023 21.6089 2.35023C21.8889 3.02023 21.7388 3.79023 21.2188 4.31023L15.4889 10.0402C14.5589 10.9802 13.3189 11.4902 11.9989 11.4902C10.6789 11.4902 9.43888 10.9802 8.50888 10.0402ZM3.76889 2.93023C3.73889 2.99023 3.70889 3.13023 3.82889 3.25023L9.55887 8.98023C10.8589 10.2802 13.1289 10.2802 14.4289 8.98023L20.1588 3.25023C20.2788 3.13023 20.2488 2.99023 20.2188 2.93023C20.1888 2.87023 20.1189 2.75023 19.9389 2.75023H18.5289C17.8889 2.75023 17.2889 3.00023 16.8389 3.45023L13.2589 7.03023C12.5589 7.73023 11.4188 7.73023 10.7188 7.03023L7.13889 3.45023C6.68889 3.00023 6.08888 2.75023 5.44888 2.75023H4.04886C3.87886 2.75023 3.79889 2.87023 3.76889 2.93023Z" fill="#7328CE"/>
<path fill-rule="evenodd" clip-rule="evenodd" d="M18.5388 22.7197C17.4988 22.7197 16.5188 22.3097 15.7888 21.5797L12.2089 17.9997C12.0589 17.8497 11.9388 17.8497 11.7888 17.9997L8.20889 21.5797C7.46889 22.3197 6.49889 22.7197 5.45889 22.7197H4.04886C3.31886 22.7197 2.66889 22.2797 2.38889 21.6097C2.10889 20.9397 2.2589 20.1697 2.7789 19.6497L8.50888 13.9197C9.43888 12.9897 10.6789 12.4697 11.9989 12.4697C13.3189 12.4697 14.5589 12.9797 15.4889 13.9197L21.2188 19.6497C21.7388 20.1697 21.8889 20.9397 21.6089 21.6097C21.3289 22.2797 20.6789 22.7197 19.9489 22.7197H18.5388ZM13.2689 16.9497L16.8488 20.5297C17.2988 20.9797 17.8988 21.2297 18.5388 21.2297H19.9489C20.1189 21.2297 20.1989 21.1097 20.2289 21.0497C20.2589 20.9897 20.2889 20.8497 20.1689 20.7297L14.4389 14.9997C13.1389 13.6997 10.8689 13.6997 9.56888 14.9997L3.8389 20.7297C3.7189 20.8497 3.7489 20.9897 3.7789 21.0497C3.8089 21.1097 3.87887 21.2297 4.05887 21.2297H5.46884C6.10884 21.2297 6.70884 20.9797 7.15884 20.5297L10.7389 16.9497C11.0789 16.5897 11.5389 16.4197 11.9989 16.4197C12.4589 16.4197 12.9189 16.5997 13.2689 16.9497Z" fill="#7328CE"/>
</g>
</svg>
